<?xml version="1.0" encoding="utf-8"?>
<svg xmlns="http://www.w3.org/2000/svg" xmlns:xlink="http://www.w3.org/1999/xlink" width="800" height="400" viewBox="0 0 3200 1600">
<defs>
  <clipPath id="clip170">
    <rect x="0" y="0" width="3200" height="1600"/>
  </clipPath>
</defs>
<path clip-path="url(#clip170)" d="M0 1600 L3200 1600 L3200 0 L0 0  Z" fill="#ffffff" fill-rule="evenodd" fill-opacity="1"/>
<defs>
  <clipPath id="clip171">
    <rect x="471" y="47" width="2682" height="1397"/>
  </clipPath>
</defs>
<path clip-path="url(#clip170)" d="M471.774 1443.7 L3152.76 1443.7 L3152.76 47.2441 L471.774 47.2441  Z" fill="#ffffff" fill-rule="evenodd" fill-opacity="1"/>
<polyline clip-path="url(#clip171)" style="stroke:#000000; stroke-linecap:round; stroke-linejoin:round; stroke-width:2; stroke-opacity:0.1; fill:none" points="547.651,1443.7 547.651,47.2441 "/>
<polyline clip-path="url(#clip171)" style="stroke:#000000; stroke-linecap:round; stroke-linejoin:round; stroke-width:2; stroke-opacity:0.1; fill:none" points="1053.5,1443.7 1053.5,47.2441 "/>
<polyline clip-path="url(#clip171)" style="stroke:#000000; stroke-linecap:round; stroke-linejoin:round; stroke-width:2; stroke-opacity:0.1; fill:none" points="1559.34,1443.7 1559.34,47.2441 "/>
<polyline clip-path="url(#clip171)" style="stroke:#000000; stroke-linecap:round; stroke-linejoin:round; stroke-width:2; stroke-opacity:0.1; fill:none" points="2065.19,1443.7 2065.19,47.2441 "/>
<polyline clip-path="url(#clip171)" style="stroke:#000000; stroke-linecap:round; stroke-linejoin:round; stroke-width:2; stroke-opacity:0.1; fill:none" points="2571.03,1443.7 2571.03,47.2441 "/>
<polyline clip-path="url(#clip171)" style="stroke:#000000; stroke-linecap:round; stroke-linejoin:round; stroke-width:2; stroke-opacity:0.1; fill:none" points="3076.88,1443.7 3076.88,47.2441 "/>
<polyline clip-path="url(#clip171)" style="stroke:#000000; stroke-linecap:round; stroke-linejoin:round; stroke-width:2; stroke-opacity:0.1; fill:none" points="471.774,1334.71 3152.76,1334.71 "/>
<polyline clip-path="url(#clip171)" style="stroke:#000000; stroke-linecap:round; stroke-linejoin:round; stroke-width:2; stroke-opacity:0.1; fill:none" points="471.774,1148.81 3152.76,1148.81 "/>
<polyline clip-path="url(#clip171)" style="stroke:#000000; stroke-linecap:round; stroke-linejoin:round; stroke-width:2; stroke-opacity:0.1; fill:none" points="471.774,962.912 3152.76,962.912 "/>
<polyline clip-path="url(#clip171)" style="stroke:#000000; stroke-linecap:round; stroke-linejoin:round; stroke-width:2; stroke-opacity:0.1; fill:none" points="471.774,777.015 3152.76,777.015 "/>
<polyline clip-path="url(#clip171)" style="stroke:#000000; stroke-linecap:round; stroke-linejoin:round; stroke-width:2; stroke-opacity:0.1; fill:none" points="471.774,591.117 3152.76,591.117 "/>
<polyline clip-path="url(#clip171)" style="stroke:#000000; stroke-linecap:round; stroke-linejoin:round; stroke-width:2; stroke-opacity:0.1; fill:none" points="471.774,405.22 3152.76,405.22 "/>
<polyline clip-path="url(#clip171)" style="stroke:#000000; stroke-linecap:round; stroke-linejoin:round; stroke-width:2; stroke-opacity:0.1; fill:none" points="471.774,219.322 3152.76,219.322 "/>
<polyline clip-path="url(#clip170)" style="stroke:#000000; stroke-linecap:round; stroke-linejoin:round; stroke-width:4; stroke-opacity:1; fill:none" points="471.774,1443.7 3152.76,1443.7 "/>
<polyline clip-path="url(#clip170)" style="stroke:#000000; stroke-linecap:round; stroke-linejoin:round; stroke-width:4; stroke-opacity:1; fill:none" points="547.651,1443.7 547.651,1424.8 "/>
<polyline clip-path="url(#clip170)" style="stroke:#000000; stroke-linecap:round; stroke-linejoin:round; stroke-width:4; stroke-opacity:1; fill:none" points="1053.5,1443.7 1053.5,1424.8 "/>
<polyline clip-path="url(#clip170)" style="stroke:#000000; stroke-linecap:round; stroke-linejoin:round; stroke-width:4; stroke-opacity:1; fill:none" points="1559.34,1443.7 1559.34,1424.8 "/>
<polyline clip-path="url(#clip170)" style="stroke:#000000; stroke-linecap:round; stroke-linejoin:round; stroke-width:4; stroke-opacity:1; fill:none" points="2065.19,1443.7 2065.19,1424.8 "/>
<polyline clip-path="url(#clip170)" style="stroke:#000000; stroke-linecap:round; stroke-linejoin:round; stroke-width:4; stroke-opacity:1; fill:none" points="2571.03,1443.7 2571.03,1424.8 "/>
<polyline clip-path="url(#clip170)" style="stroke:#000000; stroke-linecap:round; stroke-linejoin:round; stroke-width:4; stroke-opacity:1; fill:none" points="3076.88,1443.7 3076.88,1424.8 "/>
<path clip-path="url(#clip170)" d="M522.35 1477.94 L540.706 1477.94 L540.706 1481.88 L526.632 1481.88 L526.632 1490.35 Q527.651 1490 528.669 1489.84 Q529.688 1489.65 530.706 1489.65 Q536.493 1489.65 539.873 1492.82 Q543.253 1496 543.253 1501.41 Q543.253 1506.99 539.78 1510.09 Q536.308 1513.17 529.989 1513.17 Q527.813 1513.17 525.544 1512.8 Q523.299 1512.43 520.892 1511.69 L520.892 1506.99 Q522.975 1508.12 525.197 1508.68 Q527.419 1509.24 529.896 1509.24 Q533.901 1509.24 536.239 1507.13 Q538.577 1505.02 538.577 1501.41 Q538.577 1497.8 536.239 1495.69 Q533.901 1493.59 529.896 1493.59 Q528.021 1493.59 526.146 1494 Q524.294 1494.42 522.35 1495.3 L522.35 1477.94 Z" fill="#000000" fill-rule="nonzero" fill-opacity="1" /><path clip-path="url(#clip170)" d="M562.466 1481.02 Q558.854 1481.02 557.026 1484.58 Q555.22 1488.12 555.22 1495.25 Q555.22 1502.36 557.026 1505.93 Q558.854 1509.47 562.466 1509.47 Q566.1 1509.47 567.905 1505.93 Q569.734 1502.36 569.734 1495.25 Q569.734 1488.12 567.905 1484.58 Q566.1 1481.02 562.466 1481.02 M562.466 1477.31 Q568.276 1477.31 571.331 1481.92 Q574.41 1486.5 574.41 1495.25 Q574.41 1503.98 571.331 1508.59 Q568.276 1513.17 562.466 1513.17 Q556.655 1513.17 553.577 1508.59 Q550.521 1503.98 550.521 1495.25 Q550.521 1486.5 553.577 1481.92 Q556.655 1477.31 562.466 1477.31 Z" fill="#000000" fill-rule="nonzero" fill-opacity="1" /><path clip-path="url(#clip170)" d="M1038.9 1493.36 Q1035.75 1493.36 1033.9 1495.51 Q1032.07 1497.66 1032.07 1501.41 Q1032.07 1505.14 1033.9 1507.31 Q1035.75 1509.47 1038.9 1509.47 Q1042.05 1509.47 1043.88 1507.31 Q1045.73 1505.14 1045.73 1501.41 Q1045.73 1497.66 1043.88 1495.51 Q1042.05 1493.36 1038.9 1493.36 M1048.18 1478.7 L1048.18 1482.96 Q1046.42 1482.13 1044.62 1481.69 Q1042.84 1481.25 1041.08 1481.25 Q1036.45 1481.25 1033.99 1484.37 Q1031.56 1487.5 1031.22 1493.82 Q1032.58 1491.81 1034.64 1490.74 Q1036.7 1489.65 1039.18 1489.65 Q1044.39 1489.65 1047.4 1492.82 Q1050.43 1495.97 1050.43 1501.41 Q1050.43 1506.74 1047.28 1509.95 Q1044.13 1513.17 1038.9 1513.17 Q1032.91 1513.17 1029.74 1508.59 Q1026.56 1503.98 1026.56 1495.25 Q1026.56 1487.06 1030.45 1482.2 Q1034.34 1477.31 1040.89 1477.31 Q1042.65 1477.31 1044.43 1477.66 Q1046.24 1478.01 1048.18 1478.7 Z" fill="#000000" fill-rule="nonzero" fill-opacity="1" /><path clip-path="url(#clip170)" d="M1068.48 1481.02 Q1064.87 1481.02 1063.05 1484.58 Q1061.24 1488.12 1061.24 1495.25 Q1061.24 1502.36 1063.05 1505.93 Q1064.87 1509.47 1068.48 1509.47 Q1072.12 1509.47 1073.92 1505.93 Q1075.75 1502.36 1075.75 1495.25 Q1075.75 1488.12 1073.92 1484.58 Q1072.12 1481.02 1068.48 1481.02 M1068.48 1477.31 Q1074.29 1477.31 1077.35 1481.92 Q1080.43 1486.5 1080.43 1495.25 Q1080.43 1503.98 1077.35 1508.59 Q1074.29 1513.17 1068.48 1513.17 Q1062.67 1513.17 1059.6 1508.59 Q1056.54 1503.98 1056.54 1495.25 Q1056.54 1486.5 1059.6 1481.92 Q1062.67 1477.31 1068.48 1477.31 Z" fill="#000000" fill-rule="nonzero" fill-opacity="1" /><path clip-path="url(#clip170)" d="M1532.7 1477.94 L1554.92 1477.94 L1554.92 1479.93 L1542.37 1512.5 L1537.49 1512.5 L1549.3 1481.88 L1532.7 1481.88 L1532.7 1477.94 Z" fill="#000000" fill-rule="nonzero" fill-opacity="1" /><path clip-path="url(#clip170)" d="M1574.04 1481.02 Q1570.43 1481.02 1568.6 1484.58 Q1566.8 1488.12 1566.8 1495.25 Q1566.8 1502.36 1568.6 1505.93 Q1570.43 1509.47 1574.04 1509.47 Q1577.68 1509.47 1579.48 1505.93 Q1581.31 1502.36 1581.31 1495.25 Q1581.31 1488.12 1579.48 1484.58 Q1577.68 1481.02 1574.04 1481.02 M1574.04 1477.31 Q1579.85 1477.31 1582.91 1481.92 Q1585.99 1486.5 1585.99 1495.25 Q1585.99 1503.98 1582.91 1508.59 Q1579.85 1513.17 1574.04 1513.17 Q1568.23 1513.17 1565.15 1508.59 Q1562.1 1503.98 1562.1 1495.25 Q1562.1 1486.5 1565.15 1481.92 Q1568.23 1477.31 1574.04 1477.31 Z" fill="#000000" fill-rule="nonzero" fill-opacity="1" /><path clip-path="url(#clip170)" d="M2050.06 1496.09 Q2046.73 1496.09 2044.81 1497.87 Q2042.91 1499.65 2042.91 1502.78 Q2042.91 1505.9 2044.81 1507.69 Q2046.73 1509.47 2050.06 1509.47 Q2053.39 1509.47 2055.32 1507.69 Q2057.24 1505.88 2057.24 1502.78 Q2057.24 1499.65 2055.32 1497.87 Q2053.42 1496.09 2050.06 1496.09 M2045.38 1494.1 Q2042.38 1493.36 2040.69 1491.3 Q2039.02 1489.24 2039.02 1486.27 Q2039.02 1482.13 2041.96 1479.72 Q2044.92 1477.31 2050.06 1477.31 Q2055.22 1477.31 2058.16 1479.72 Q2061.1 1482.13 2061.1 1486.27 Q2061.1 1489.24 2059.41 1491.3 Q2057.75 1493.36 2054.76 1494.1 Q2058.14 1494.88 2060.01 1497.18 Q2061.91 1499.47 2061.91 1502.78 Q2061.91 1507.8 2058.83 1510.49 Q2055.78 1513.17 2050.06 1513.17 Q2044.34 1513.17 2041.26 1510.49 Q2038.21 1507.8 2038.21 1502.78 Q2038.21 1499.47 2040.11 1497.18 Q2042.01 1494.88 2045.38 1494.1 M2043.67 1486.71 Q2043.67 1489.4 2045.34 1490.9 Q2047.03 1492.41 2050.06 1492.41 Q2053.07 1492.41 2054.76 1490.9 Q2056.47 1489.4 2056.47 1486.71 Q2056.47 1484.03 2054.76 1482.52 Q2053.07 1481.02 2050.06 1481.02 Q2047.03 1481.02 2045.34 1482.52 Q2043.67 1484.03 2043.67 1486.71 Z" fill="#000000" fill-rule="nonzero" fill-opacity="1" /><path clip-path="url(#clip170)" d="M2080.22 1481.02 Q2076.61 1481.02 2074.78 1484.58 Q2072.98 1488.12 2072.98 1495.25 Q2072.98 1502.36 2074.78 1505.93 Q2076.61 1509.47 2080.22 1509.47 Q2083.86 1509.47 2085.66 1505.93 Q2087.49 1502.36 2087.49 1495.25 Q2087.49 1488.12 2085.66 1484.58 Q2083.86 1481.02 2080.22 1481.02 M2080.22 1477.31 Q2086.03 1477.31 2089.09 1481.92 Q2092.17 1486.5 2092.17 1495.25 Q2092.17 1503.98 2089.09 1508.59 Q2086.03 1513.17 2080.22 1513.17 Q2074.41 1513.17 2071.33 1508.59 Q2068.28 1503.98 2068.28 1495.25 Q2068.28 1486.5 2071.33 1481.92 Q2074.41 1477.31 2080.22 1477.31 Z" fill="#000000" fill-rule="nonzero" fill-opacity="1" /><path clip-path="url(#clip170)" d="M2546.16 1511.78 L2546.16 1507.52 Q2547.92 1508.36 2549.73 1508.8 Q2551.53 1509.24 2553.27 1509.24 Q2557.9 1509.24 2560.33 1506.13 Q2562.78 1503.01 2563.13 1496.67 Q2561.79 1498.66 2559.73 1499.72 Q2557.67 1500.79 2555.17 1500.79 Q2549.98 1500.79 2546.95 1497.66 Q2543.94 1494.51 2543.94 1489.07 Q2543.94 1483.75 2547.09 1480.53 Q2550.23 1477.31 2555.47 1477.31 Q2561.46 1477.31 2564.61 1481.92 Q2567.78 1486.5 2567.78 1495.25 Q2567.78 1503.43 2563.89 1508.31 Q2560.03 1513.17 2553.48 1513.17 Q2551.72 1513.17 2549.91 1512.82 Q2548.11 1512.48 2546.16 1511.78 M2555.47 1497.13 Q2558.61 1497.13 2560.44 1494.98 Q2562.3 1492.82 2562.3 1489.07 Q2562.3 1485.35 2560.44 1483.19 Q2558.61 1481.02 2555.47 1481.02 Q2552.32 1481.02 2550.47 1483.19 Q2548.64 1485.35 2548.64 1489.07 Q2548.64 1492.82 2550.47 1494.98 Q2552.32 1497.13 2555.47 1497.13 Z" fill="#000000" fill-rule="nonzero" fill-opacity="1" /><path clip-path="url(#clip170)" d="M2586.18 1481.02 Q2582.57 1481.02 2580.74 1484.58 Q2578.94 1488.12 2578.94 1495.25 Q2578.94 1502.36 2580.74 1505.93 Q2582.57 1509.47 2586.18 1509.47 Q2589.82 1509.47 2591.62 1505.93 Q2593.45 1502.36 2593.45 1495.25 Q2593.45 1488.12 2591.62 1484.58 Q2589.82 1481.02 2586.18 1481.02 M2586.18 1477.31 Q2591.99 1477.31 2595.05 1481.92 Q2598.13 1486.5 2598.13 1495.25 Q2598.13 1503.98 2595.05 1508.59 Q2591.99 1513.17 2586.18 1513.17 Q2580.37 1513.17 2577.29 1508.59 Q2574.24 1503.98 2574.24 1495.25 Q2574.24 1486.5 2577.29 1481.92 Q2580.37 1477.31 2586.18 1477.31 Z" fill="#000000" fill-rule="nonzero" fill-opacity="1" /><path clip-path="url(#clip170)" d="M3036.49 1508.56 L3044.12 1508.56 L3044.12 1482.2 L3035.81 1483.87 L3035.81 1479.61 L3044.08 1477.94 L3048.75 1477.94 L3048.75 1508.56 L3056.39 1508.56 L3056.39 1512.5 L3036.49 1512.5 L3036.49 1508.56 Z" fill="#000000" fill-rule="nonzero" fill-opacity="1" /><path clip-path="url(#clip170)" d="M3075.84 1481.02 Q3072.23 1481.02 3070.4 1484.58 Q3068.59 1488.12 3068.59 1495.25 Q3068.59 1502.36 3070.4 1505.93 Q3072.23 1509.47 3075.84 1509.47 Q3079.47 1509.47 3081.28 1505.93 Q3083.11 1502.36 3083.11 1495.25 Q3083.11 1488.12 3081.28 1484.58 Q3079.47 1481.02 3075.84 1481.02 M3075.84 1477.31 Q3081.65 1477.31 3084.7 1481.92 Q3087.78 1486.5 3087.78 1495.25 Q3087.78 1503.98 3084.7 1508.59 Q3081.65 1513.17 3075.84 1513.17 Q3070.03 1513.17 3066.95 1508.59 Q3063.89 1503.98 3063.89 1495.25 Q3063.89 1486.5 3066.95 1481.92 Q3070.03 1477.31 3075.84 1477.31 Z" fill="#000000" fill-rule="nonzero" fill-opacity="1" /><path clip-path="url(#clip170)" d="M3106 1481.02 Q3102.39 1481.02 3100.56 1484.58 Q3098.75 1488.12 3098.75 1495.25 Q3098.75 1502.36 3100.56 1505.93 Q3102.39 1509.47 3106 1509.47 Q3109.63 1509.47 3111.44 1505.93 Q3113.27 1502.36 3113.27 1495.25 Q3113.27 1488.12 3111.44 1484.58 Q3109.63 1481.02 3106 1481.02 M3106 1477.31 Q3111.81 1477.31 3114.86 1481.92 Q3117.94 1486.5 3117.94 1495.25 Q3117.94 1503.98 3114.86 1508.59 Q3111.81 1513.17 3106 1513.17 Q3100.19 1513.17 3097.11 1508.59 Q3094.05 1503.98 3094.05 1495.25 Q3094.05 1486.5 3097.11 1481.92 Q3100.19 1477.31 3106 1477.31 Z" fill="#000000" fill-rule="nonzero" fill-opacity="1" /><path clip-path="url(#clip170)" d="M1734.14 1553.04 L1774.34 1553.04 L1774.34 1558.45 L1757.47 1558.45 L1757.47 1600.56 L1751.01 1600.56 L1751.01 1558.45 L1734.14 1558.45 L1734.14 1553.04 Z" fill="#000000" fill-rule="nonzero" fill-opacity="1" /><path clip-path="url(#clip170)" d="M1778.29 1564.92 L1784.14 1564.92 L1784.14 1600.56 L1778.29 1600.56 L1778.29 1564.92 M1778.29 1551.04 L1784.14 1551.04 L1784.14 1558.45 L1778.29 1558.45 L1778.29 1551.04 Z" fill="#000000" fill-rule="nonzero" fill-opacity="1" /><path clip-path="url(#clip170)" d="M1824.15 1571.76 Q1826.35 1567.81 1829.4 1565.93 Q1832.46 1564.06 1836.6 1564.06 Q1842.17 1564.06 1845.19 1567.97 Q1848.22 1571.85 1848.22 1579.05 L1848.22 1600.56 L1842.33 1600.56 L1842.33 1579.24 Q1842.33 1574.11 1840.51 1571.63 Q1838.7 1569.15 1834.97 1569.15 Q1830.42 1569.15 1827.78 1572.17 Q1825.14 1575.2 1825.14 1580.42 L1825.14 1600.56 L1819.25 1600.56 L1819.25 1579.24 Q1819.25 1574.08 1817.44 1571.63 Q1815.62 1569.15 1811.84 1569.15 Q1807.35 1569.15 1804.71 1572.2 Q1802.06 1575.23 1802.06 1580.42 L1802.06 1600.56 L1796.18 1600.56 L1796.18 1564.92 L1802.06 1564.92 L1802.06 1570.45 Q1804.07 1567.18 1806.87 1565.62 Q1809.67 1564.06 1813.52 1564.06 Q1817.41 1564.06 1820.11 1566.03 Q1822.85 1568 1824.15 1571.76 Z" fill="#000000" fill-rule="nonzero" fill-opacity="1" /><path clip-path="url(#clip170)" d="M1890.39 1581.28 L1890.39 1584.14 L1863.46 1584.14 Q1863.84 1590.19 1867.09 1593.37 Q1870.37 1596.52 1876.19 1596.52 Q1879.57 1596.52 1882.72 1595.69 Q1885.9 1594.87 1889.02 1593.21 L1889.02 1598.75 Q1885.87 1600.09 1882.56 1600.79 Q1879.25 1601.49 1875.84 1601.49 Q1867.31 1601.49 1862.32 1596.52 Q1857.35 1591.56 1857.35 1583.09 Q1857.35 1574.34 1862.06 1569.21 Q1866.8 1564.06 1874.82 1564.06 Q1882.02 1564.06 1886.19 1568.7 Q1890.39 1573.32 1890.39 1581.28 M1884.53 1579.56 Q1884.47 1574.75 1881.83 1571.89 Q1879.22 1569.02 1874.89 1569.02 Q1869.99 1569.02 1867.03 1571.79 Q1864.1 1574.56 1863.65 1579.59 L1884.53 1579.56 Z" fill="#000000" fill-rule="nonzero" fill-opacity="1" /><polyline clip-path="url(#clip170)" style="stroke:#000000; stroke-linecap:round; stroke-linejoin:round; stroke-width:4; stroke-opacity:1; fill:none" points="471.774,1443.7 471.774,47.2441 "/>
<polyline clip-path="url(#clip170)" style="stroke:#000000; stroke-linecap:round; stroke-linejoin:round; stroke-width:4; stroke-opacity:1; fill:none" points="471.774,1334.71 490.672,1334.71 "/>
<polyline clip-path="url(#clip170)" style="stroke:#000000; stroke-linecap:round; stroke-linejoin:round; stroke-width:4; stroke-opacity:1; fill:none" points="471.774,1148.81 490.672,1148.81 "/>
<polyline clip-path="url(#clip170)" style="stroke:#000000; stroke-linecap:round; stroke-linejoin:round; stroke-width:4; stroke-opacity:1; fill:none" points="471.774,962.912 490.672,962.912 "/>
<polyline clip-path="url(#clip170)" style="stroke:#000000; stroke-linecap:round; stroke-linejoin:round; stroke-width:4; stroke-opacity:1; fill:none" points="471.774,777.015 490.672,777.015 "/>
<polyline clip-path="url(#clip170)" style="stroke:#000000; stroke-linecap:round; stroke-linejoin:round; stroke-width:4; stroke-opacity:1; fill:none" points="471.774,591.117 490.672,591.117 "/>
<polyline clip-path="url(#clip170)" style="stroke:#000000; stroke-linecap:round; stroke-linejoin:round; stroke-width:4; stroke-opacity:1; fill:none" points="471.774,405.22 490.672,405.22 "/>
<polyline clip-path="url(#clip170)" style="stroke:#000000; stroke-linecap:round; stroke-linejoin:round; stroke-width:4; stroke-opacity:1; fill:none" points="471.774,219.322 490.672,219.322 "/>
<path clip-path="url(#clip170)" d="M46.9921 1341.61 L76.6679 1341.61 L76.6679 1345.54 L46.9921 1345.54 L46.9921 1341.61 Z" fill="#000000" fill-rule="nonzero" fill-opacity="1" /><path clip-path="url(#clip170)" d="M97.3391 1339.29 Q94.1909 1339.29 92.3391 1341.44 Q90.5104 1343.6 90.5104 1347.35 Q90.5104 1351.07 92.3391 1353.25 Q94.1909 1355.4 97.3391 1355.4 Q100.487 1355.4 102.316 1353.25 Q104.168 1351.07 104.168 1347.35 Q104.168 1343.6 102.316 1341.44 Q100.487 1339.29 97.3391 1339.29 M106.621 1324.64 L106.621 1328.9 Q104.862 1328.06 103.057 1327.62 Q101.274 1327.19 99.515 1327.19 Q94.8854 1327.19 92.4317 1330.31 Q90.0012 1333.43 89.6539 1339.75 Q91.0197 1337.74 93.0798 1336.68 Q95.14 1335.59 97.6169 1335.59 Q102.825 1335.59 105.834 1338.76 Q108.867 1341.91 108.867 1347.35 Q108.867 1352.67 105.719 1355.89 Q102.571 1359.11 97.3391 1359.11 Q91.3437 1359.11 88.1725 1354.52 Q85.0012 1349.92 85.0012 1341.19 Q85.0012 1333 88.89 1328.13 Q92.7789 1323.25 99.3298 1323.25 Q101.089 1323.25 102.871 1323.6 Q104.677 1323.94 106.621 1324.64 Z" fill="#000000" fill-rule="nonzero" fill-opacity="1" /><path clip-path="url(#clip170)" d="M116.922 1352.56 L121.807 1352.56 L121.807 1358.43 L116.922 1358.43 L116.922 1352.56 Z" fill="#000000" fill-rule="nonzero" fill-opacity="1" /><path clip-path="url(#clip170)" d="M141.992 1326.95 Q138.381 1326.95 136.552 1330.52 Q134.746 1334.06 134.746 1341.19 Q134.746 1348.3 136.552 1351.86 Q138.381 1355.4 141.992 1355.4 Q145.626 1355.4 147.431 1351.86 Q149.26 1348.3 149.26 1341.19 Q149.26 1334.06 147.431 1330.52 Q145.626 1326.95 141.992 1326.95 M141.992 1323.25 Q147.802 1323.25 150.857 1327.86 Q153.936 1332.44 153.936 1341.19 Q153.936 1349.92 150.857 1354.52 Q147.802 1359.11 141.992 1359.11 Q136.181 1359.11 133.103 1354.52 Q130.047 1349.92 130.047 1341.19 Q130.047 1332.44 133.103 1327.86 Q136.181 1323.25 141.992 1323.25 Z" fill="#000000" fill-rule="nonzero" fill-opacity="1" /><path clip-path="url(#clip170)" d="M176.32 1339.8 Q179.677 1340.52 181.552 1342.79 Q183.45 1345.06 183.45 1348.39 Q183.45 1353.5 179.931 1356.31 Q176.413 1359.11 169.931 1359.11 Q167.755 1359.11 165.441 1358.67 Q163.149 1358.25 160.695 1357.39 L160.695 1352.88 Q162.64 1354.01 164.954 1354.59 Q167.269 1355.17 169.792 1355.17 Q174.191 1355.17 176.482 1353.43 Q178.797 1351.7 178.797 1348.39 Q178.797 1345.33 176.644 1343.62 Q174.515 1341.88 170.695 1341.88 L166.667 1341.88 L166.667 1338.04 L170.88 1338.04 Q174.329 1338.04 176.158 1336.68 Q177.987 1335.29 177.987 1332.69 Q177.987 1330.03 176.089 1328.62 Q174.214 1327.19 170.695 1327.19 Q168.774 1327.19 166.575 1327.6 Q164.376 1328.02 161.737 1328.9 L161.737 1324.73 Q164.399 1323.99 166.714 1323.62 Q169.052 1323.25 171.112 1323.25 Q176.436 1323.25 179.538 1325.68 Q182.64 1328.09 182.64 1332.21 Q182.64 1335.08 180.996 1337.07 Q179.353 1339.04 176.32 1339.8 Z" fill="#000000" fill-rule="nonzero" fill-opacity="1" /><path clip-path="url(#clip170)" d="M193.126 1354.5 L200.764 1354.5 L200.764 1328.13 L192.454 1329.8 L192.454 1325.54 L200.718 1323.87 L205.394 1323.87 L205.394 1354.5 L213.033 1354.5 L213.033 1358.43 L193.126 1358.43 L193.126 1354.5 Z" fill="#000000" fill-rule="nonzero" fill-opacity="1" /><path clip-path="url(#clip170)" d="M223.287 1354.5 L230.926 1354.5 L230.926 1328.13 L222.616 1329.8 L222.616 1325.54 L230.88 1323.87 L235.556 1323.87 L235.556 1354.5 L243.195 1354.5 L243.195 1358.43 L223.287 1358.43 L223.287 1354.5 Z" fill="#000000" fill-rule="nonzero" fill-opacity="1" /><path clip-path="url(#clip170)" d="M262.639 1326.95 Q259.028 1326.95 257.199 1330.52 Q255.394 1334.06 255.394 1341.19 Q255.394 1348.3 257.199 1351.86 Q259.028 1355.4 262.639 1355.4 Q266.273 1355.4 268.079 1351.86 Q269.908 1348.3 269.908 1341.19 Q269.908 1334.06 268.079 1330.52 Q266.273 1326.95 262.639 1326.95 M262.639 1323.25 Q268.449 1323.25 271.505 1327.86 Q274.583 1332.44 274.583 1341.19 Q274.583 1349.92 271.505 1354.52 Q268.449 1359.11 262.639 1359.11 Q256.829 1359.11 253.75 1354.52 Q250.695 1349.92 250.695 1341.19 Q250.695 1332.44 253.75 1327.86 Q256.829 1323.25 262.639 1323.25 Z" fill="#000000" fill-rule="nonzero" fill-opacity="1" /><path clip-path="url(#clip170)" d="M310.972 1332.97 L300.394 1343.6 L310.972 1354.18 L308.218 1356.98 L297.593 1346.35 L286.968 1356.98 L284.236 1354.18 L294.792 1343.6 L284.236 1332.97 L286.968 1330.17 L297.593 1340.8 L308.218 1330.17 L310.972 1332.97 Z" fill="#000000" fill-rule="nonzero" fill-opacity="1" /><path clip-path="url(#clip170)" d="M323.333 1354.5 L330.972 1354.5 L330.972 1328.13 L322.662 1329.8 L322.662 1325.54 L330.926 1323.87 L335.602 1323.87 L335.602 1354.5 L343.241 1354.5 L343.241 1358.43 L323.333 1358.43 L323.333 1354.5 Z" fill="#000000" fill-rule="nonzero" fill-opacity="1" /><path clip-path="url(#clip170)" d="M362.685 1326.95 Q359.074 1326.95 357.245 1330.52 Q355.44 1334.06 355.44 1341.19 Q355.44 1348.3 357.245 1351.86 Q359.074 1355.4 362.685 1355.4 Q366.319 1355.4 368.125 1351.86 Q369.953 1348.3 369.953 1341.19 Q369.953 1334.06 368.125 1330.52 Q366.319 1326.95 362.685 1326.95 M362.685 1323.25 Q368.495 1323.25 371.551 1327.86 Q374.629 1332.44 374.629 1341.19 Q374.629 1349.92 371.551 1354.52 Q368.495 1359.11 362.685 1359.11 Q356.875 1359.11 353.796 1354.52 Q350.74 1349.92 350.74 1341.19 Q350.74 1332.44 353.796 1327.86 Q356.875 1323.25 362.685 1323.25 Z" fill="#000000" fill-rule="nonzero" fill-opacity="1" /><path clip-path="url(#clip170)" d="M374.629 1317.35 L398.741 1317.35 L398.741 1320.55 L374.629 1320.55 L374.629 1317.35 Z" fill="#000000" fill-rule="nonzero" fill-opacity="1" /><path clip-path="url(#clip170)" d="M407.599 1327.83 L413.806 1327.83 L413.806 1306.41 L407.054 1307.76 L407.054 1304.3 L413.768 1302.94 L417.567 1302.94 L417.567 1327.83 L423.774 1327.83 L423.774 1331.02 L407.599 1331.02 L407.599 1327.83 Z" fill="#000000" fill-rule="nonzero" fill-opacity="1" /><path clip-path="url(#clip170)" d="M46.9921 1155.71 L76.6679 1155.71 L76.6679 1159.64 L46.9921 1159.64 L46.9921 1155.71 Z" fill="#000000" fill-rule="nonzero" fill-opacity="1" /><path clip-path="url(#clip170)" d="M97.3391 1153.39 Q94.1909 1153.39 92.3391 1155.55 Q90.5104 1157.7 90.5104 1161.45 Q90.5104 1165.18 92.3391 1167.35 Q94.1909 1169.5 97.3391 1169.5 Q100.487 1169.5 102.316 1167.35 Q104.168 1165.18 104.168 1161.45 Q104.168 1157.7 102.316 1155.55 Q100.487 1153.39 97.3391 1153.39 M106.621 1138.74 L106.621 1143 Q104.862 1142.17 103.057 1141.73 Q101.274 1141.29 99.515 1141.29 Q94.8854 1141.29 92.4317 1144.41 Q90.0012 1147.54 89.6539 1153.86 Q91.0197 1151.84 93.0798 1150.78 Q95.14 1149.69 97.6169 1149.69 Q102.825 1149.69 105.834 1152.86 Q108.867 1156.01 108.867 1161.45 Q108.867 1166.77 105.719 1169.99 Q102.571 1173.21 97.3391 1173.21 Q91.3437 1173.21 88.1725 1168.63 Q85.0012 1164.02 85.0012 1155.29 Q85.0012 1147.1 88.89 1142.24 Q92.7789 1137.35 99.3298 1137.35 Q101.089 1137.35 102.871 1137.7 Q104.677 1138.05 106.621 1138.74 Z" fill="#000000" fill-rule="nonzero" fill-opacity="1" /><path clip-path="url(#clip170)" d="M116.922 1166.66 L121.807 1166.66 L121.807 1172.54 L116.922 1172.54 L116.922 1166.66 Z" fill="#000000" fill-rule="nonzero" fill-opacity="1" /><path clip-path="url(#clip170)" d="M141.992 1141.06 Q138.381 1141.06 136.552 1144.62 Q134.746 1148.16 134.746 1155.29 Q134.746 1162.4 136.552 1165.96 Q138.381 1169.5 141.992 1169.5 Q145.626 1169.5 147.431 1165.96 Q149.26 1162.4 149.26 1155.29 Q149.26 1148.16 147.431 1144.62 Q145.626 1141.06 141.992 1141.06 M141.992 1137.35 Q147.802 1137.35 150.857 1141.96 Q153.936 1146.54 153.936 1155.29 Q153.936 1164.02 150.857 1168.63 Q147.802 1173.21 141.992 1173.21 Q136.181 1173.21 133.103 1168.63 Q130.047 1164.02 130.047 1155.29 Q130.047 1146.54 133.103 1141.96 Q136.181 1137.35 141.992 1137.35 Z" fill="#000000" fill-rule="nonzero" fill-opacity="1" /><path clip-path="url(#clip170)" d="M176.32 1153.9 Q179.677 1154.62 181.552 1156.89 Q183.45 1159.16 183.45 1162.49 Q183.45 1167.61 179.931 1170.41 Q176.413 1173.21 169.931 1173.21 Q167.755 1173.21 165.441 1172.77 Q163.149 1172.35 160.695 1171.5 L160.695 1166.98 Q162.64 1168.12 164.954 1168.69 Q167.269 1169.27 169.792 1169.27 Q174.191 1169.27 176.482 1167.54 Q178.797 1165.8 178.797 1162.49 Q178.797 1159.44 176.644 1157.72 Q174.515 1155.99 170.695 1155.99 L166.667 1155.99 L166.667 1152.14 L170.88 1152.14 Q174.329 1152.14 176.158 1150.78 Q177.987 1149.39 177.987 1146.8 Q177.987 1144.13 176.089 1142.72 Q174.214 1141.29 170.695 1141.29 Q168.774 1141.29 166.575 1141.7 Q164.376 1142.12 161.737 1143 L161.737 1138.83 Q164.399 1138.09 166.714 1137.72 Q169.052 1137.35 171.112 1137.35 Q176.436 1137.35 179.538 1139.78 Q182.64 1142.19 182.64 1146.31 Q182.64 1149.18 180.996 1151.17 Q179.353 1153.14 176.32 1153.9 Z" fill="#000000" fill-rule="nonzero" fill-opacity="1" /><path clip-path="url(#clip170)" d="M193.126 1168.6 L200.764 1168.6 L200.764 1142.24 L192.454 1143.9 L192.454 1139.64 L200.718 1137.98 L205.394 1137.98 L205.394 1168.6 L213.033 1168.6 L213.033 1172.54 L193.126 1172.54 L193.126 1168.6 Z" fill="#000000" fill-rule="nonzero" fill-opacity="1" /><path clip-path="url(#clip170)" d="M232.477 1141.06 Q228.866 1141.06 227.037 1144.62 Q225.232 1148.16 225.232 1155.29 Q225.232 1162.4 227.037 1165.96 Q228.866 1169.5 232.477 1169.5 Q236.111 1169.5 237.917 1165.96 Q239.746 1162.4 239.746 1155.29 Q239.746 1148.16 237.917 1144.62 Q236.111 1141.06 232.477 1141.06 M232.477 1137.35 Q238.287 1137.35 241.343 1141.96 Q244.422 1146.54 244.422 1155.29 Q244.422 1164.02 241.343 1168.63 Q238.287 1173.21 232.477 1173.21 Q226.667 1173.21 223.588 1168.63 Q220.533 1164.02 220.533 1155.29 Q220.533 1146.54 223.588 1141.96 Q226.667 1137.35 232.477 1137.35 Z" fill="#000000" fill-rule="nonzero" fill-opacity="1" /><path clip-path="url(#clip170)" d="M262.639 1141.06 Q259.028 1141.06 257.199 1144.62 Q255.394 1148.16 255.394 1155.29 Q255.394 1162.4 257.199 1165.96 Q259.028 1169.5 262.639 1169.5 Q266.273 1169.5 268.079 1165.96 Q269.908 1162.4 269.908 1155.29 Q269.908 1148.16 268.079 1144.62 Q266.273 1141.06 262.639 1141.06 M262.639 1137.35 Q268.449 1137.35 271.505 1141.96 Q274.583 1146.54 274.583 1155.29 Q274.583 1164.02 271.505 1168.63 Q268.449 1173.21 262.639 1173.21 Q256.829 1173.21 253.75 1168.63 Q250.695 1164.02 250.695 1155.29 Q250.695 1146.54 253.75 1141.96 Q256.829 1137.35 262.639 1137.35 Z" fill="#000000" fill-rule="nonzero" fill-opacity="1" /><path clip-path="url(#clip170)" d="M310.972 1147.07 L300.394 1157.7 L310.972 1168.28 L308.218 1171.08 L297.593 1160.45 L286.968 1171.08 L284.236 1168.28 L294.792 1157.7 L284.236 1147.07 L286.968 1144.27 L297.593 1154.9 L308.218 1144.27 L310.972 1147.07 Z" fill="#000000" fill-rule="nonzero" fill-opacity="1" /><path clip-path="url(#clip170)" d="M323.333 1168.6 L330.972 1168.6 L330.972 1142.24 L322.662 1143.9 L322.662 1139.64 L330.926 1137.98 L335.602 1137.98 L335.602 1168.6 L343.241 1168.6 L343.241 1172.54 L323.333 1172.54 L323.333 1168.6 Z" fill="#000000" fill-rule="nonzero" fill-opacity="1" /><path clip-path="url(#clip170)" d="M362.685 1141.06 Q359.074 1141.06 357.245 1144.62 Q355.44 1148.16 355.44 1155.29 Q355.44 1162.4 357.245 1165.96 Q359.074 1169.5 362.685 1169.5 Q366.319 1169.5 368.125 1165.96 Q369.953 1162.4 369.953 1155.29 Q369.953 1148.16 368.125 1144.62 Q366.319 1141.06 362.685 1141.06 M362.685 1137.35 Q368.495 1137.35 371.551 1141.96 Q374.629 1146.54 374.629 1155.29 Q374.629 1164.02 371.551 1168.63 Q368.495 1173.21 362.685 1173.21 Q356.875 1173.21 353.796 1168.63 Q350.74 1164.02 350.74 1155.29 Q350.74 1146.54 353.796 1141.96 Q356.875 1137.35 362.685 1137.35 Z" fill="#000000" fill-rule="nonzero" fill-opacity="1" /><path clip-path="url(#clip170)" d="M374.629 1131.45 L398.741 1131.45 L398.741 1134.65 L374.629 1134.65 L374.629 1131.45 Z" fill="#000000" fill-rule="nonzero" fill-opacity="1" /><path clip-path="url(#clip170)" d="M407.599 1141.93 L413.806 1141.93 L413.806 1120.51 L407.054 1121.86 L407.054 1118.4 L413.768 1117.05 L417.567 1117.05 L417.567 1141.93 L423.774 1141.93 L423.774 1145.13 L407.599 1145.13 L407.599 1141.93 Z" fill="#000000" fill-rule="nonzero" fill-opacity="1" /><path clip-path="url(#clip170)" d="M46.9921 969.811 L76.6679 969.811 L76.6679 973.746 L46.9921 973.746 L46.9921 969.811 Z" fill="#000000" fill-rule="nonzero" fill-opacity="1" /><path clip-path="url(#clip170)" d="M97.3391 967.496 Q94.1909 967.496 92.3391 969.649 Q90.5104 971.802 90.5104 975.552 Q90.5104 979.279 92.3391 981.455 Q94.1909 983.607 97.3391 983.607 Q100.487 983.607 102.316 981.455 Q104.168 979.279 104.168 975.552 Q104.168 971.802 102.316 969.649 Q100.487 967.496 97.3391 967.496 M106.621 952.844 L106.621 957.103 Q104.862 956.27 103.057 955.83 Q101.274 955.39 99.515 955.39 Q94.8854 955.39 92.4317 958.515 Q90.0012 961.64 89.6539 967.959 Q91.0197 965.945 93.0798 964.881 Q95.14 963.793 97.6169 963.793 Q102.825 963.793 105.834 966.964 Q108.867 970.112 108.867 975.552 Q108.867 980.876 105.719 984.094 Q102.571 987.311 97.3391 987.311 Q91.3437 987.311 88.1725 982.728 Q85.0012 978.121 85.0012 969.395 Q85.0012 961.2 88.89 956.339 Q92.7789 951.455 99.3298 951.455 Q101.089 951.455 102.871 951.802 Q104.677 952.149 106.621 952.844 Z" fill="#000000" fill-rule="nonzero" fill-opacity="1" /><path clip-path="url(#clip170)" d="M116.922 980.76 L121.807 980.76 L121.807 986.64 L116.922 986.64 L116.922 980.76 Z" fill="#000000" fill-rule="nonzero" fill-opacity="1" /><path clip-path="url(#clip170)" d="M141.992 955.158 Q138.381 955.158 136.552 958.723 Q134.746 962.265 134.746 969.395 Q134.746 976.501 136.552 980.066 Q138.381 983.607 141.992 983.607 Q145.626 983.607 147.431 980.066 Q149.26 976.501 149.26 969.395 Q149.26 962.265 147.431 958.723 Q145.626 955.158 141.992 955.158 M141.992 951.455 Q147.802 951.455 150.857 956.061 Q153.936 960.645 153.936 969.395 Q153.936 978.121 150.857 982.728 Q147.802 987.311 141.992 987.311 Q136.181 987.311 133.103 982.728 Q130.047 978.121 130.047 969.395 Q130.047 960.645 133.103 956.061 Q136.181 951.455 141.992 951.455 Z" fill="#000000" fill-rule="nonzero" fill-opacity="1" /><path clip-path="url(#clip170)" d="M176.32 968.006 Q179.677 968.723 181.552 970.992 Q183.45 973.26 183.45 976.594 Q183.45 981.709 179.931 984.51 Q176.413 987.311 169.931 987.311 Q167.755 987.311 165.441 986.871 Q163.149 986.455 160.695 985.598 L160.695 981.084 Q162.64 982.219 164.954 982.797 Q167.269 983.376 169.792 983.376 Q174.191 983.376 176.482 981.64 Q178.797 979.904 178.797 976.594 Q178.797 973.538 176.644 971.825 Q174.515 970.089 170.695 970.089 L166.667 970.089 L166.667 966.246 L170.88 966.246 Q174.329 966.246 176.158 964.881 Q177.987 963.492 177.987 960.899 Q177.987 958.237 176.089 956.825 Q174.214 955.39 170.695 955.39 Q168.774 955.39 166.575 955.807 Q164.376 956.223 161.737 957.103 L161.737 952.936 Q164.399 952.196 166.714 951.825 Q169.052 951.455 171.112 951.455 Q176.436 951.455 179.538 953.885 Q182.64 956.293 182.64 960.413 Q182.64 963.283 180.996 965.274 Q179.353 967.242 176.32 968.006 Z" fill="#000000" fill-rule="nonzero" fill-opacity="1" /><path clip-path="url(#clip170)" d="M202.315 955.158 Q198.704 955.158 196.876 958.723 Q195.07 962.265 195.07 969.395 Q195.07 976.501 196.876 980.066 Q198.704 983.607 202.315 983.607 Q205.95 983.607 207.755 980.066 Q209.584 976.501 209.584 969.395 Q209.584 962.265 207.755 958.723 Q205.95 955.158 202.315 955.158 M202.315 951.455 Q208.126 951.455 211.181 956.061 Q214.26 960.645 214.26 969.395 Q214.26 978.121 211.181 982.728 Q208.126 987.311 202.315 987.311 Q196.505 987.311 193.427 982.728 Q190.371 978.121 190.371 969.395 Q190.371 960.645 193.427 956.061 Q196.505 951.455 202.315 951.455 Z" fill="#000000" fill-rule="nonzero" fill-opacity="1" /><path clip-path="url(#clip170)" d="M222.616 985.922 L222.616 981.663 Q224.375 982.496 226.181 982.936 Q227.987 983.376 229.723 983.376 Q234.352 983.376 236.783 980.274 Q239.236 977.149 239.584 970.807 Q238.241 972.797 236.181 973.862 Q234.121 974.927 231.621 974.927 Q226.436 974.927 223.403 971.802 Q220.394 968.654 220.394 963.214 Q220.394 957.89 223.542 954.672 Q226.69 951.455 231.922 951.455 Q237.917 951.455 241.065 956.061 Q244.236 960.645 244.236 969.395 Q244.236 977.566 240.348 982.45 Q236.482 987.311 229.931 987.311 Q228.172 987.311 226.366 986.964 Q224.561 986.617 222.616 985.922 M231.922 971.27 Q235.07 971.27 236.899 969.117 Q238.75 966.964 238.75 963.214 Q238.75 959.487 236.899 957.334 Q235.07 955.158 231.922 955.158 Q228.774 955.158 226.922 957.334 Q225.093 959.487 225.093 963.214 Q225.093 966.964 226.922 969.117 Q228.774 971.27 231.922 971.27 Z" fill="#000000" fill-rule="nonzero" fill-opacity="1" /><path clip-path="url(#clip170)" d="M262.639 955.158 Q259.028 955.158 257.199 958.723 Q255.394 962.265 255.394 969.395 Q255.394 976.501 257.199 980.066 Q259.028 983.607 262.639 983.607 Q266.273 983.607 268.079 980.066 Q269.908 976.501 269.908 969.395 Q269.908 962.265 268.079 958.723 Q266.273 955.158 262.639 955.158 M262.639 951.455 Q268.449 951.455 271.505 956.061 Q274.583 960.645 274.583 969.395 Q274.583 978.121 271.505 982.728 Q268.449 987.311 262.639 987.311 Q256.829 987.311 253.75 982.728 Q250.695 978.121 250.695 969.395 Q250.695 960.645 253.75 956.061 Q256.829 951.455 262.639 951.455 Z" fill="#000000" fill-rule="nonzero" fill-opacity="1" /><path clip-path="url(#clip170)" d="M310.972 961.177 L300.394 971.802 L310.972 982.381 L308.218 985.181 L297.593 974.557 L286.968 985.181 L284.236 982.381 L294.792 971.802 L284.236 961.177 L286.968 958.376 L297.593 969.001 L308.218 958.376 L310.972 961.177 Z" fill="#000000" fill-rule="nonzero" fill-opacity="1" /><path clip-path="url(#clip170)" d="M323.333 982.705 L330.972 982.705 L330.972 956.339 L322.662 958.006 L322.662 953.746 L330.926 952.08 L335.602 952.08 L335.602 982.705 L343.241 982.705 L343.241 986.64 L323.333 986.64 L323.333 982.705 Z" fill="#000000" fill-rule="nonzero" fill-opacity="1" /><path clip-path="url(#clip170)" d="M362.685 955.158 Q359.074 955.158 357.245 958.723 Q355.44 962.265 355.44 969.395 Q355.44 976.501 357.245 980.066 Q359.074 983.607 362.685 983.607 Q366.319 983.607 368.125 980.066 Q369.953 976.501 369.953 969.395 Q369.953 962.265 368.125 958.723 Q366.319 955.158 362.685 955.158 M362.685 951.455 Q368.495 951.455 371.551 956.061 Q374.629 960.645 374.629 969.395 Q374.629 978.121 371.551 982.728 Q368.495 987.311 362.685 987.311 Q356.875 987.311 353.796 982.728 Q350.74 978.121 350.74 969.395 Q350.74 960.645 353.796 956.061 Q356.875 951.455 362.685 951.455 Z" fill="#000000" fill-rule="nonzero" fill-opacity="1" /><path clip-path="url(#clip170)" d="M374.629 945.556 L398.741 945.556 L398.741 948.753 L374.629 948.753 L374.629 945.556 Z" fill="#000000" fill-rule="nonzero" fill-opacity="1" /><path clip-path="url(#clip170)" d="M407.599 956.032 L413.806 956.032 L413.806 934.61 L407.054 935.964 L407.054 932.504 L413.768 931.149 L417.567 931.149 L417.567 956.032 L423.774 956.032 L423.774 959.229 L407.599 959.229 L407.599 956.032 Z" fill="#000000" fill-rule="nonzero" fill-opacity="1" /><path clip-path="url(#clip170)" d="M46.9921 783.914 L76.6679 783.914 L76.6679 787.849 L46.9921 787.849 L46.9921 783.914 Z" fill="#000000" fill-rule="nonzero" fill-opacity="1" /><path clip-path="url(#clip170)" d="M97.3391 781.599 Q94.1909 781.599 92.3391 783.752 Q90.5104 785.904 90.5104 789.654 Q90.5104 793.381 92.3391 795.557 Q94.1909 797.71 97.3391 797.71 Q100.487 797.71 102.316 795.557 Q104.168 793.381 104.168 789.654 Q104.168 785.904 102.316 783.752 Q100.487 781.599 97.3391 781.599 M106.621 766.946 L106.621 771.205 Q104.862 770.372 103.057 769.932 Q101.274 769.492 99.515 769.492 Q94.8854 769.492 92.4317 772.617 Q90.0012 775.742 89.6539 782.062 Q91.0197 780.048 93.0798 778.983 Q95.14 777.895 97.6169 777.895 Q102.825 777.895 105.834 781.066 Q108.867 784.215 108.867 789.654 Q108.867 794.978 105.719 798.196 Q102.571 801.414 97.3391 801.414 Q91.3437 801.414 88.1725 796.83 Q85.0012 792.224 85.0012 783.497 Q85.0012 775.303 88.89 770.442 Q92.7789 765.557 99.3298 765.557 Q101.089 765.557 102.871 765.904 Q104.677 766.252 106.621 766.946 Z" fill="#000000" fill-rule="nonzero" fill-opacity="1" /><path clip-path="url(#clip170)" d="M116.922 794.863 L121.807 794.863 L121.807 800.742 L116.922 800.742 L116.922 794.863 Z" fill="#000000" fill-rule="nonzero" fill-opacity="1" /><path clip-path="url(#clip170)" d="M141.992 769.261 Q138.381 769.261 136.552 772.826 Q134.746 776.367 134.746 783.497 Q134.746 790.603 136.552 794.168 Q138.381 797.71 141.992 797.71 Q145.626 797.71 147.431 794.168 Q149.26 790.603 149.26 783.497 Q149.26 776.367 147.431 772.826 Q145.626 769.261 141.992 769.261 M141.992 765.557 Q147.802 765.557 150.857 770.164 Q153.936 774.747 153.936 783.497 Q153.936 792.224 150.857 796.83 Q147.802 801.414 141.992 801.414 Q136.181 801.414 133.103 796.83 Q130.047 792.224 130.047 783.497 Q130.047 774.747 133.103 770.164 Q136.181 765.557 141.992 765.557 Z" fill="#000000" fill-rule="nonzero" fill-opacity="1" /><path clip-path="url(#clip170)" d="M176.32 782.108 Q179.677 782.826 181.552 785.094 Q183.45 787.363 183.45 790.696 Q183.45 795.812 179.931 798.613 Q176.413 801.414 169.931 801.414 Q167.755 801.414 165.441 800.974 Q163.149 800.557 160.695 799.701 L160.695 795.187 Q162.64 796.321 164.954 796.9 Q167.269 797.478 169.792 797.478 Q174.191 797.478 176.482 795.742 Q178.797 794.006 178.797 790.696 Q178.797 787.64 176.644 785.928 Q174.515 784.191 170.695 784.191 L166.667 784.191 L166.667 780.349 L170.88 780.349 Q174.329 780.349 176.158 778.983 Q177.987 777.594 177.987 775.002 Q177.987 772.34 176.089 770.928 Q174.214 769.492 170.695 769.492 Q168.774 769.492 166.575 769.909 Q164.376 770.326 161.737 771.205 L161.737 767.039 Q164.399 766.298 166.714 765.928 Q169.052 765.557 171.112 765.557 Q176.436 765.557 179.538 767.988 Q182.64 770.395 182.64 774.516 Q182.64 777.386 180.996 779.377 Q179.353 781.344 176.32 782.108 Z" fill="#000000" fill-rule="nonzero" fill-opacity="1" /><path clip-path="url(#clip170)" d="M202.315 769.261 Q198.704 769.261 196.876 772.826 Q195.07 776.367 195.07 783.497 Q195.07 790.603 196.876 794.168 Q198.704 797.71 202.315 797.71 Q205.95 797.71 207.755 794.168 Q209.584 790.603 209.584 783.497 Q209.584 776.367 207.755 772.826 Q205.95 769.261 202.315 769.261 M202.315 765.557 Q208.126 765.557 211.181 770.164 Q214.26 774.747 214.26 783.497 Q214.26 792.224 211.181 796.83 Q208.126 801.414 202.315 801.414 Q196.505 801.414 193.427 796.83 Q190.371 792.224 190.371 783.497 Q190.371 774.747 193.427 770.164 Q196.505 765.557 202.315 765.557 Z" fill="#000000" fill-rule="nonzero" fill-opacity="1" /><path clip-path="url(#clip170)" d="M232.477 784.33 Q229.144 784.33 227.223 786.113 Q225.325 787.895 225.325 791.02 Q225.325 794.145 227.223 795.927 Q229.144 797.71 232.477 797.71 Q235.811 797.71 237.732 795.927 Q239.653 794.122 239.653 791.02 Q239.653 787.895 237.732 786.113 Q235.834 784.33 232.477 784.33 M227.801 782.34 Q224.792 781.599 223.102 779.539 Q221.436 777.479 221.436 774.516 Q221.436 770.372 224.375 767.965 Q227.338 765.557 232.477 765.557 Q237.639 765.557 240.579 767.965 Q243.519 770.372 243.519 774.516 Q243.519 777.479 241.829 779.539 Q240.162 781.599 237.176 782.34 Q240.556 783.127 242.431 785.418 Q244.329 787.71 244.329 791.02 Q244.329 796.043 241.25 798.728 Q238.195 801.414 232.477 801.414 Q226.76 801.414 223.681 798.728 Q220.625 796.043 220.625 791.02 Q220.625 787.71 222.524 785.418 Q224.422 783.127 227.801 782.34 M226.088 774.955 Q226.088 777.641 227.755 779.145 Q229.445 780.65 232.477 780.65 Q235.486 780.65 237.176 779.145 Q238.889 777.641 238.889 774.955 Q238.889 772.27 237.176 770.766 Q235.486 769.261 232.477 769.261 Q229.445 769.261 227.755 770.766 Q226.088 772.27 226.088 774.955 Z" fill="#000000" fill-rule="nonzero" fill-opacity="1" /><path clip-path="url(#clip170)" d="M262.639 769.261 Q259.028 769.261 257.199 772.826 Q255.394 776.367 255.394 783.497 Q255.394 790.603 257.199 794.168 Q259.028 797.71 262.639 797.71 Q266.273 797.71 268.079 794.168 Q269.908 790.603 269.908 783.497 Q269.908 776.367 268.079 772.826 Q266.273 769.261 262.639 769.261 M262.639 765.557 Q268.449 765.557 271.505 770.164 Q274.583 774.747 274.583 783.497 Q274.583 792.224 271.505 796.83 Q268.449 801.414 262.639 801.414 Q256.829 801.414 253.75 796.83 Q250.695 792.224 250.695 783.497 Q250.695 774.747 253.75 770.164 Q256.829 765.557 262.639 765.557 Z" fill="#000000" fill-rule="nonzero" fill-opacity="1" /><path clip-path="url(#clip170)" d="M310.972 775.279 L300.394 785.904 L310.972 796.483 L308.218 799.284 L297.593 788.659 L286.968 799.284 L284.236 796.483 L294.792 785.904 L284.236 775.279 L286.968 772.479 L297.593 783.103 L308.218 772.479 L310.972 775.279 Z" fill="#000000" fill-rule="nonzero" fill-opacity="1" /><path clip-path="url(#clip170)" d="M323.333 796.807 L330.972 796.807 L330.972 770.442 L322.662 772.108 L322.662 767.849 L330.926 766.182 L335.602 766.182 L335.602 796.807 L343.241 796.807 L343.241 800.742 L323.333 800.742 L323.333 796.807 Z" fill="#000000" fill-rule="nonzero" fill-opacity="1" /><path clip-path="url(#clip170)" d="M362.685 769.261 Q359.074 769.261 357.245 772.826 Q355.44 776.367 355.44 783.497 Q355.44 790.603 357.245 794.168 Q359.074 797.71 362.685 797.71 Q366.319 797.71 368.125 794.168 Q369.953 790.603 369.953 783.497 Q369.953 776.367 368.125 772.826 Q366.319 769.261 362.685 769.261 M362.685 765.557 Q368.495 765.557 371.551 770.164 Q374.629 774.747 374.629 783.497 Q374.629 792.224 371.551 796.83 Q368.495 801.414 362.685 801.414 Q356.875 801.414 353.796 796.83 Q350.74 792.224 350.74 783.497 Q350.74 774.747 353.796 770.164 Q356.875 765.557 362.685 765.557 Z" fill="#000000" fill-rule="nonzero" fill-opacity="1" /><path clip-path="url(#clip170)" d="M374.629 759.659 L398.741 759.659 L398.741 762.856 L374.629 762.856 L374.629 759.659 Z" fill="#000000" fill-rule="nonzero" fill-opacity="1" /><path clip-path="url(#clip170)" d="M407.599 770.135 L413.806 770.135 L413.806 748.712 L407.054 750.067 L407.054 746.606 L413.768 745.252 L417.567 745.252 L417.567 770.135 L423.774 770.135 L423.774 773.332 L407.599 773.332 L407.599 770.135 Z" fill="#000000" fill-rule="nonzero" fill-opacity="1" /><path clip-path="url(#clip170)" d="M46.9921 598.016 L76.6679 598.016 L76.6679 601.951 L46.9921 601.951 L46.9921 598.016 Z" fill="#000000" fill-rule="nonzero" fill-opacity="1" /><path clip-path="url(#clip170)" d="M97.3391 595.701 Q94.1909 595.701 92.3391 597.854 Q90.5104 600.007 90.5104 603.757 Q90.5104 607.484 92.3391 609.66 Q94.1909 611.812 97.3391 611.812 Q100.487 611.812 102.316 609.66 Q104.168 607.484 104.168 603.757 Q104.168 600.007 102.316 597.854 Q100.487 595.701 97.3391 595.701 M106.621 581.049 L106.621 585.308 Q104.862 584.475 103.057 584.035 Q101.274 583.595 99.515 583.595 Q94.8854 583.595 92.4317 586.72 Q90.0012 589.845 89.6539 596.164 Q91.0197 594.15 93.0798 593.086 Q95.14 591.998 97.6169 591.998 Q102.825 591.998 105.834 595.169 Q108.867 598.317 108.867 603.757 Q108.867 609.081 105.719 612.298 Q102.571 615.516 97.3391 615.516 Q91.3437 615.516 88.1725 610.933 Q85.0012 606.326 85.0012 597.599 Q85.0012 589.405 88.89 584.544 Q92.7789 579.66 99.3298 579.66 Q101.089 579.66 102.871 580.007 Q104.677 580.354 106.621 581.049 Z" fill="#000000" fill-rule="nonzero" fill-opacity="1" /><path clip-path="url(#clip170)" d="M116.922 608.965 L121.807 608.965 L121.807 614.845 L116.922 614.845 L116.922 608.965 Z" fill="#000000" fill-rule="nonzero" fill-opacity="1" /><path clip-path="url(#clip170)" d="M141.992 583.363 Q138.381 583.363 136.552 586.928 Q134.746 590.47 134.746 597.599 Q134.746 604.706 136.552 608.271 Q138.381 611.812 141.992 611.812 Q145.626 611.812 147.431 608.271 Q149.26 604.706 149.26 597.599 Q149.26 590.47 147.431 586.928 Q145.626 583.363 141.992 583.363 M141.992 579.66 Q147.802 579.66 150.857 584.266 Q153.936 588.85 153.936 597.599 Q153.936 606.326 150.857 610.933 Q147.802 615.516 141.992 615.516 Q136.181 615.516 133.103 610.933 Q130.047 606.326 130.047 597.599 Q130.047 588.85 133.103 584.266 Q136.181 579.66 141.992 579.66 Z" fill="#000000" fill-rule="nonzero" fill-opacity="1" /><path clip-path="url(#clip170)" d="M176.32 596.211 Q179.677 596.928 181.552 599.197 Q183.45 601.465 183.45 604.798 Q183.45 609.914 179.931 612.715 Q176.413 615.516 169.931 615.516 Q167.755 615.516 165.441 615.076 Q163.149 614.66 160.695 613.803 L160.695 609.289 Q162.64 610.423 164.954 611.002 Q167.269 611.581 169.792 611.581 Q174.191 611.581 176.482 609.845 Q178.797 608.109 178.797 604.798 Q178.797 601.743 176.644 600.03 Q174.515 598.294 170.695 598.294 L166.667 598.294 L166.667 594.451 L170.88 594.451 Q174.329 594.451 176.158 593.086 Q177.987 591.697 177.987 589.104 Q177.987 586.442 176.089 585.03 Q174.214 583.595 170.695 583.595 Q168.774 583.595 166.575 584.012 Q164.376 584.428 161.737 585.308 L161.737 581.141 Q164.399 580.4 166.714 580.03 Q169.052 579.66 171.112 579.66 Q176.436 579.66 179.538 582.09 Q182.64 584.498 182.64 588.618 Q182.64 591.488 180.996 593.479 Q179.353 595.447 176.32 596.211 Z" fill="#000000" fill-rule="nonzero" fill-opacity="1" /><path clip-path="url(#clip170)" d="M202.315 583.363 Q198.704 583.363 196.876 586.928 Q195.07 590.47 195.07 597.599 Q195.07 604.706 196.876 608.271 Q198.704 611.812 202.315 611.812 Q205.95 611.812 207.755 608.271 Q209.584 604.706 209.584 597.599 Q209.584 590.47 207.755 586.928 Q205.95 583.363 202.315 583.363 M202.315 579.66 Q208.126 579.66 211.181 584.266 Q214.26 588.85 214.26 597.599 Q214.26 606.326 211.181 610.933 Q208.126 615.516 202.315 615.516 Q196.505 615.516 193.427 610.933 Q190.371 606.326 190.371 597.599 Q190.371 588.85 193.427 584.266 Q196.505 579.66 202.315 579.66 Z" fill="#000000" fill-rule="nonzero" fill-opacity="1" /><path clip-path="url(#clip170)" d="M221.297 580.285 L243.519 580.285 L243.519 582.275 L230.973 614.845 L226.088 614.845 L237.894 584.22 L221.297 584.22 L221.297 580.285 Z" fill="#000000" fill-rule="nonzero" fill-opacity="1" /><path clip-path="url(#clip170)" d="M262.639 583.363 Q259.028 583.363 257.199 586.928 Q255.394 590.47 255.394 597.599 Q255.394 604.706 257.199 608.271 Q259.028 611.812 262.639 611.812 Q266.273 611.812 268.079 608.271 Q269.908 604.706 269.908 597.599 Q269.908 590.47 268.079 586.928 Q266.273 583.363 262.639 583.363 M262.639 579.66 Q268.449 579.66 271.505 584.266 Q274.583 588.85 274.583 597.599 Q274.583 606.326 271.505 610.933 Q268.449 615.516 262.639 615.516 Q256.829 615.516 253.75 610.933 Q250.695 606.326 250.695 597.599 Q250.695 588.85 253.75 584.266 Q256.829 579.66 262.639 579.66 Z" fill="#000000" fill-rule="nonzero" fill-opacity="1" /><path clip-path="url(#clip170)" d="M310.972 589.382 L300.394 600.007 L310.972 610.586 L308.218 613.386 L297.593 602.761 L286.968 613.386 L284.236 610.586 L294.792 600.007 L284.236 589.382 L286.968 586.581 L297.593 597.206 L308.218 586.581 L310.972 589.382 Z" fill="#000000" fill-rule="nonzero" fill-opacity="1" /><path clip-path="url(#clip170)" d="M323.333 610.91 L330.972 610.91 L330.972 584.544 L322.662 586.211 L322.662 581.951 L330.926 580.285 L335.602 580.285 L335.602 610.91 L343.241 610.91 L343.241 614.845 L323.333 614.845 L323.333 610.91 Z" fill="#000000" fill-rule="nonzero" fill-opacity="1" /><path clip-path="url(#clip170)" d="M362.685 583.363 Q359.074 583.363 357.245 586.928 Q355.44 590.47 355.44 597.599 Q355.44 604.706 357.245 608.271 Q359.074 611.812 362.685 611.812 Q366.319 611.812 368.125 608.271 Q369.953 604.706 369.953 597.599 Q369.953 590.47 368.125 586.928 Q366.319 583.363 362.685 583.363 M362.685 579.66 Q368.495 579.66 371.551 584.266 Q374.629 588.85 374.629 597.599 Q374.629 606.326 371.551 610.933 Q368.495 615.516 362.685 615.516 Q356.875 615.516 353.796 610.933 Q350.74 606.326 350.74 597.599 Q350.74 588.85 353.796 584.266 Q356.875 579.66 362.685 579.66 Z" fill="#000000" fill-rule="nonzero" fill-opacity="1" /><path clip-path="url(#clip170)" d="M374.629 573.761 L398.741 573.761 L398.741 576.958 L374.629 576.958 L374.629 573.761 Z" fill="#000000" fill-rule="nonzero" fill-opacity="1" /><path clip-path="url(#clip170)" d="M407.599 584.237 L413.806 584.237 L413.806 562.815 L407.054 564.169 L407.054 560.708 L413.768 559.354 L417.567 559.354 L417.567 584.237 L423.774 584.237 L423.774 587.434 L407.599 587.434 L407.599 584.237 Z" fill="#000000" fill-rule="nonzero" fill-opacity="1" /><path clip-path="url(#clip170)" d="M46.9921 412.119 L76.6679 412.119 L76.6679 416.054 L46.9921 416.054 L46.9921 412.119 Z" fill="#000000" fill-rule="nonzero" fill-opacity="1" /><path clip-path="url(#clip170)" d="M97.3391 409.804 Q94.1909 409.804 92.3391 411.957 Q90.5104 414.109 90.5104 417.859 Q90.5104 421.586 92.3391 423.762 Q94.1909 425.915 97.3391 425.915 Q100.487 425.915 102.316 423.762 Q104.168 421.586 104.168 417.859 Q104.168 414.109 102.316 411.957 Q100.487 409.804 97.3391 409.804 M106.621 395.151 L106.621 399.41 Q104.862 398.577 103.057 398.137 Q101.274 397.697 99.515 397.697 Q94.8854 397.697 92.4317 400.822 Q90.0012 403.947 89.6539 410.267 Q91.0197 408.253 93.0798 407.188 Q95.14 406.1 97.6169 406.1 Q102.825 406.1 105.834 409.271 Q108.867 412.42 108.867 417.859 Q108.867 423.183 105.719 426.401 Q102.571 429.619 97.3391 429.619 Q91.3437 429.619 88.1725 425.035 Q85.0012 420.429 85.0012 411.702 Q85.0012 403.508 88.89 398.646 Q92.7789 393.762 99.3298 393.762 Q101.089 393.762 102.871 394.109 Q104.677 394.457 106.621 395.151 Z" fill="#000000" fill-rule="nonzero" fill-opacity="1" /><path clip-path="url(#clip170)" d="M116.922 423.068 L121.807 423.068 L121.807 428.947 L116.922 428.947 L116.922 423.068 Z" fill="#000000" fill-rule="nonzero" fill-opacity="1" /><path clip-path="url(#clip170)" d="M141.992 397.466 Q138.381 397.466 136.552 401.031 Q134.746 404.572 134.746 411.702 Q134.746 418.808 136.552 422.373 Q138.381 425.915 141.992 425.915 Q145.626 425.915 147.431 422.373 Q149.26 418.808 149.26 411.702 Q149.26 404.572 147.431 401.031 Q145.626 397.466 141.992 397.466 M141.992 393.762 Q147.802 393.762 150.857 398.369 Q153.936 402.952 153.936 411.702 Q153.936 420.429 150.857 425.035 Q147.802 429.619 141.992 429.619 Q136.181 429.619 133.103 425.035 Q130.047 420.429 130.047 411.702 Q130.047 402.952 133.103 398.369 Q136.181 393.762 141.992 393.762 Z" fill="#000000" fill-rule="nonzero" fill-opacity="1" /><path clip-path="url(#clip170)" d="M176.32 410.313 Q179.677 411.031 181.552 413.299 Q183.45 415.568 183.45 418.901 Q183.45 424.017 179.931 426.818 Q176.413 429.619 169.931 429.619 Q167.755 429.619 165.441 429.179 Q163.149 428.762 160.695 427.906 L160.695 423.392 Q162.64 424.526 164.954 425.105 Q167.269 425.683 169.792 425.683 Q174.191 425.683 176.482 423.947 Q178.797 422.211 178.797 418.901 Q178.797 415.845 176.644 414.132 Q174.515 412.396 170.695 412.396 L166.667 412.396 L166.667 408.554 L170.88 408.554 Q174.329 408.554 176.158 407.188 Q177.987 405.799 177.987 403.207 Q177.987 400.545 176.089 399.133 Q174.214 397.697 170.695 397.697 Q168.774 397.697 166.575 398.114 Q164.376 398.531 161.737 399.41 L161.737 395.244 Q164.399 394.503 166.714 394.133 Q169.052 393.762 171.112 393.762 Q176.436 393.762 179.538 396.193 Q182.64 398.6 182.64 402.721 Q182.64 405.591 180.996 407.582 Q179.353 409.549 176.32 410.313 Z" fill="#000000" fill-rule="nonzero" fill-opacity="1" /><path clip-path="url(#clip170)" d="M202.315 397.466 Q198.704 397.466 196.876 401.031 Q195.07 404.572 195.07 411.702 Q195.07 418.808 196.876 422.373 Q198.704 425.915 202.315 425.915 Q205.95 425.915 207.755 422.373 Q209.584 418.808 209.584 411.702 Q209.584 404.572 207.755 401.031 Q205.95 397.466 202.315 397.466 M202.315 393.762 Q208.126 393.762 211.181 398.369 Q214.26 402.952 214.26 411.702 Q214.26 420.429 211.181 425.035 Q208.126 429.619 202.315 429.619 Q196.505 429.619 193.427 425.035 Q190.371 420.429 190.371 411.702 Q190.371 402.952 193.427 398.369 Q196.505 393.762 202.315 393.762 Z" fill="#000000" fill-rule="nonzero" fill-opacity="1" /><path clip-path="url(#clip170)" d="M233.056 409.804 Q229.908 409.804 228.056 411.957 Q226.227 414.109 226.227 417.859 Q226.227 421.586 228.056 423.762 Q229.908 425.915 233.056 425.915 Q236.204 425.915 238.033 423.762 Q239.885 421.586 239.885 417.859 Q239.885 414.109 238.033 411.957 Q236.204 409.804 233.056 409.804 M242.338 395.151 L242.338 399.41 Q240.579 398.577 238.774 398.137 Q236.991 397.697 235.232 397.697 Q230.602 397.697 228.149 400.822 Q225.718 403.947 225.371 410.267 Q226.737 408.253 228.797 407.188 Q230.857 406.1 233.334 406.1 Q238.542 406.1 241.551 409.271 Q244.584 412.42 244.584 417.859 Q244.584 423.183 241.436 426.401 Q238.287 429.619 233.056 429.619 Q227.061 429.619 223.889 425.035 Q220.718 420.429 220.718 411.702 Q220.718 403.508 224.607 398.646 Q228.496 393.762 235.047 393.762 Q236.806 393.762 238.588 394.109 Q240.394 394.457 242.338 395.151 Z" fill="#000000" fill-rule="nonzero" fill-opacity="1" /><path clip-path="url(#clip170)" d="M262.639 397.466 Q259.028 397.466 257.199 401.031 Q255.394 404.572 255.394 411.702 Q255.394 418.808 257.199 422.373 Q259.028 425.915 262.639 425.915 Q266.273 425.915 268.079 422.373 Q269.908 418.808 269.908 411.702 Q269.908 404.572 268.079 401.031 Q266.273 397.466 262.639 397.466 M262.639 393.762 Q268.449 393.762 271.505 398.369 Q274.583 402.952 274.583 411.702 Q274.583 420.429 271.505 425.035 Q268.449 429.619 262.639 429.619 Q256.829 429.619 253.75 425.035 Q250.695 420.429 250.695 411.702 Q250.695 402.952 253.75 398.369 Q256.829 393.762 262.639 393.762 Z" fill="#000000" fill-rule="nonzero" fill-opacity="1" /><path clip-path="url(#clip170)" d="M310.972 403.484 L300.394 414.109 L310.972 424.688 L308.218 427.489 L297.593 416.864 L286.968 427.489 L284.236 424.688 L294.792 414.109 L284.236 403.484 L286.968 400.683 L297.593 411.308 L308.218 400.683 L310.972 403.484 Z" fill="#000000" fill-rule="nonzero" fill-opacity="1" /><path clip-path="url(#clip170)" d="M323.333 425.012 L330.972 425.012 L330.972 398.646 L322.662 400.313 L322.662 396.054 L330.926 394.387 L335.602 394.387 L335.602 425.012 L343.241 425.012 L343.241 428.947 L323.333 428.947 L323.333 425.012 Z" fill="#000000" fill-rule="nonzero" fill-opacity="1" /><path clip-path="url(#clip170)" d="M362.685 397.466 Q359.074 397.466 357.245 401.031 Q355.44 404.572 355.44 411.702 Q355.44 418.808 357.245 422.373 Q359.074 425.915 362.685 425.915 Q366.319 425.915 368.125 422.373 Q369.953 418.808 369.953 411.702 Q369.953 404.572 368.125 401.031 Q366.319 397.466 362.685 397.466 M362.685 393.762 Q368.495 393.762 371.551 398.369 Q374.629 402.952 374.629 411.702 Q374.629 420.429 371.551 425.035 Q368.495 429.619 362.685 429.619 Q356.875 429.619 353.796 425.035 Q350.74 420.429 350.74 411.702 Q350.74 402.952 353.796 398.369 Q356.875 393.762 362.685 393.762 Z" fill="#000000" fill-rule="nonzero" fill-opacity="1" /><path clip-path="url(#clip170)" d="M374.629 387.864 L398.741 387.864 L398.741 391.061 L374.629 391.061 L374.629 387.864 Z" fill="#000000" fill-rule="nonzero" fill-opacity="1" /><path clip-path="url(#clip170)" d="M407.599 398.339 L413.806 398.339 L413.806 376.917 L407.054 378.272 L407.054 374.811 L413.768 373.457 L417.567 373.457 L417.567 398.339 L423.774 398.339 L423.774 401.537 L407.599 401.537 L407.599 398.339 Z" fill="#000000" fill-rule="nonzero" fill-opacity="1" /><path clip-path="url(#clip170)" d="M46.9921 226.221 L76.6679 226.221 L76.6679 230.156 L46.9921 230.156 L46.9921 226.221 Z" fill="#000000" fill-rule="nonzero" fill-opacity="1" /><path clip-path="url(#clip170)" d="M97.3391 223.906 Q94.1909 223.906 92.3391 226.059 Q90.5104 228.212 90.5104 231.962 Q90.5104 235.689 92.3391 237.865 Q94.1909 240.017 97.3391 240.017 Q100.487 240.017 102.316 237.865 Q104.168 235.689 104.168 231.962 Q104.168 228.212 102.316 226.059 Q100.487 223.906 97.3391 223.906 M106.621 209.254 L106.621 213.513 Q104.862 212.679 103.057 212.24 Q101.274 211.8 99.515 211.8 Q94.8854 211.8 92.4317 214.925 Q90.0012 218.05 89.6539 224.369 Q91.0197 222.355 93.0798 221.291 Q95.14 220.203 97.6169 220.203 Q102.825 220.203 105.834 223.374 Q108.867 226.522 108.867 231.962 Q108.867 237.286 105.719 240.503 Q102.571 243.721 97.3391 243.721 Q91.3437 243.721 88.1725 239.138 Q85.0012 234.531 85.0012 225.804 Q85.0012 217.61 88.89 212.749 Q92.7789 207.865 99.3298 207.865 Q101.089 207.865 102.871 208.212 Q104.677 208.559 106.621 209.254 Z" fill="#000000" fill-rule="nonzero" fill-opacity="1" /><path clip-path="url(#clip170)" d="M116.922 237.17 L121.807 237.17 L121.807 243.05 L116.922 243.05 L116.922 237.17 Z" fill="#000000" fill-rule="nonzero" fill-opacity="1" /><path clip-path="url(#clip170)" d="M141.992 211.568 Q138.381 211.568 136.552 215.133 Q134.746 218.675 134.746 225.804 Q134.746 232.911 136.552 236.476 Q138.381 240.017 141.992 240.017 Q145.626 240.017 147.431 236.476 Q149.26 232.911 149.26 225.804 Q149.26 218.675 147.431 215.133 Q145.626 211.568 141.992 211.568 M141.992 207.865 Q147.802 207.865 150.857 212.471 Q153.936 217.054 153.936 225.804 Q153.936 234.531 150.857 239.138 Q147.802 243.721 141.992 243.721 Q136.181 243.721 133.103 239.138 Q130.047 234.531 130.047 225.804 Q130.047 217.054 133.103 212.471 Q136.181 207.865 141.992 207.865 Z" fill="#000000" fill-rule="nonzero" fill-opacity="1" /><path clip-path="url(#clip170)" d="M176.32 224.416 Q179.677 225.133 181.552 227.402 Q183.45 229.67 183.45 233.003 Q183.45 238.119 179.931 240.92 Q176.413 243.721 169.931 243.721 Q167.755 243.721 165.441 243.281 Q163.149 242.865 160.695 242.008 L160.695 237.494 Q162.64 238.628 164.954 239.207 Q167.269 239.786 169.792 239.786 Q174.191 239.786 176.482 238.05 Q178.797 236.314 178.797 233.003 Q178.797 229.948 176.644 228.235 Q174.515 226.499 170.695 226.499 L166.667 226.499 L166.667 222.656 L170.88 222.656 Q174.329 222.656 176.158 221.291 Q177.987 219.902 177.987 217.309 Q177.987 214.647 176.089 213.235 Q174.214 211.8 170.695 211.8 Q168.774 211.8 166.575 212.217 Q164.376 212.633 161.737 213.513 L161.737 209.346 Q164.399 208.605 166.714 208.235 Q169.052 207.865 171.112 207.865 Q176.436 207.865 179.538 210.295 Q182.64 212.703 182.64 216.823 Q182.64 219.693 180.996 221.684 Q179.353 223.652 176.32 224.416 Z" fill="#000000" fill-rule="nonzero" fill-opacity="1" /><path clip-path="url(#clip170)" d="M202.315 211.568 Q198.704 211.568 196.876 215.133 Q195.07 218.675 195.07 225.804 Q195.07 232.911 196.876 236.476 Q198.704 240.017 202.315 240.017 Q205.95 240.017 207.755 236.476 Q209.584 232.911 209.584 225.804 Q209.584 218.675 207.755 215.133 Q205.95 211.568 202.315 211.568 M202.315 207.865 Q208.126 207.865 211.181 212.471 Q214.26 217.054 214.26 225.804 Q214.26 234.531 211.181 239.138 Q208.126 243.721 202.315 243.721 Q196.505 243.721 193.427 239.138 Q190.371 234.531 190.371 225.804 Q190.371 217.054 193.427 212.471 Q196.505 207.865 202.315 207.865 Z" fill="#000000" fill-rule="nonzero" fill-opacity="1" /><path clip-path="url(#clip170)" d="M222.524 208.49 L240.88 208.49 L240.88 212.425 L226.806 212.425 L226.806 220.897 Q227.824 220.55 228.843 220.388 Q229.862 220.203 230.88 220.203 Q236.667 220.203 240.047 223.374 Q243.426 226.545 243.426 231.962 Q243.426 237.54 239.954 240.642 Q236.482 243.721 230.162 243.721 Q227.987 243.721 225.718 243.351 Q223.473 242.98 221.065 242.24 L221.065 237.54 Q223.149 238.675 225.371 239.23 Q227.593 239.786 230.07 239.786 Q234.074 239.786 236.412 237.679 Q238.75 235.573 238.75 231.962 Q238.75 228.351 236.412 226.244 Q234.074 224.138 230.07 224.138 Q228.195 224.138 226.32 224.554 Q224.468 224.971 222.524 225.851 L222.524 208.49 Z" fill="#000000" fill-rule="nonzero" fill-opacity="1" /><path clip-path="url(#clip170)" d="M262.639 211.568 Q259.028 211.568 257.199 215.133 Q255.394 218.675 255.394 225.804 Q255.394 232.911 257.199 236.476 Q259.028 240.017 262.639 240.017 Q266.273 240.017 268.079 236.476 Q269.908 232.911 269.908 225.804 Q269.908 218.675 268.079 215.133 Q266.273 211.568 262.639 211.568 M262.639 207.865 Q268.449 207.865 271.505 212.471 Q274.583 217.054 274.583 225.804 Q274.583 234.531 271.505 239.138 Q268.449 243.721 262.639 243.721 Q256.829 243.721 253.75 239.138 Q250.695 234.531 250.695 225.804 Q250.695 217.054 253.75 212.471 Q256.829 207.865 262.639 207.865 Z" fill="#000000" fill-rule="nonzero" fill-opacity="1" /><path clip-path="url(#clip170)" d="M310.972 217.587 L300.394 228.212 L310.972 238.79 L308.218 241.591 L297.593 230.966 L286.968 241.591 L284.236 238.79 L294.792 228.212 L284.236 217.587 L286.968 214.786 L297.593 225.411 L308.218 214.786 L310.972 217.587 Z" fill="#000000" fill-rule="nonzero" fill-opacity="1" /><path clip-path="url(#clip170)" d="M323.333 239.115 L330.972 239.115 L330.972 212.749 L322.662 214.416 L322.662 210.156 L330.926 208.49 L335.602 208.49 L335.602 239.115 L343.241 239.115 L343.241 243.05 L323.333 243.05 L323.333 239.115 Z" fill="#000000" fill-rule="nonzero" fill-opacity="1" /><path clip-path="url(#clip170)" d="M362.685 211.568 Q359.074 211.568 357.245 215.133 Q355.44 218.675 355.44 225.804 Q355.44 232.911 357.245 236.476 Q359.074 240.017 362.685 240.017 Q366.319 240.017 368.125 236.476 Q369.953 232.911 369.953 225.804 Q369.953 218.675 368.125 215.133 Q366.319 211.568 362.685 211.568 M362.685 207.865 Q368.495 207.865 371.551 212.471 Q374.629 217.054 374.629 225.804 Q374.629 234.531 371.551 239.138 Q368.495 243.721 362.685 243.721 Q356.875 243.721 353.796 239.138 Q350.74 234.531 350.74 225.804 Q350.74 217.054 353.796 212.471 Q356.875 207.865 362.685 207.865 Z" fill="#000000" fill-rule="nonzero" fill-opacity="1" /><path clip-path="url(#clip170)" d="M374.629 201.966 L398.741 201.966 L398.741 205.163 L374.629 205.163 L374.629 201.966 Z" fill="#000000" fill-rule="nonzero" fill-opacity="1" /><path clip-path="url(#clip170)" d="M407.599 212.442 L413.806 212.442 L413.806 191.02 L407.054 192.374 L407.054 188.913 L413.768 187.559 L417.567 187.559 L417.567 212.442 L423.774 212.442 L423.774 215.639 L407.599 215.639 L407.599 212.442 Z" fill="#000000" fill-rule="nonzero" fill-opacity="1" /><polyline clip-path="url(#clip171)" style="stroke:#e26f46; stroke-linecap:round; stroke-linejoin:round; stroke-width:4; stroke-opacity:1; fill:none" points="1483.47,2840.16 1483.47,-1349.21 "/>
<circle clip-path="url(#clip171)" cx="547.651" cy="353.113" r="14.4" fill="#009af9" fill-rule="evenodd" fill-opacity="1" stroke="#000000" stroke-opacity="1" stroke-width="3.2"/>
<circle clip-path="url(#clip171)" cx="572.943" cy="424.605" r="14.4" fill="#009af9" fill-rule="evenodd" fill-opacity="1" stroke="#000000" stroke-opacity="1" stroke-width="3.2"/>
<circle clip-path="url(#clip171)" cx="598.235" cy="492.427" r="14.4" fill="#009af9" fill-rule="evenodd" fill-opacity="1" stroke="#000000" stroke-opacity="1" stroke-width="3.2"/>
<circle clip-path="url(#clip171)" cx="623.528" cy="556.745" r="14.4" fill="#009af9" fill-rule="evenodd" fill-opacity="1" stroke="#000000" stroke-opacity="1" stroke-width="3.2"/>
<circle clip-path="url(#clip171)" cx="648.82" cy="617.713" r="14.4" fill="#009af9" fill-rule="evenodd" fill-opacity="1" stroke="#000000" stroke-opacity="1" stroke-width="3.2"/>
<circle clip-path="url(#clip171)" cx="674.112" cy="667.746" r="14.4" fill="#009af9" fill-rule="evenodd" fill-opacity="1" stroke="#000000" stroke-opacity="1" stroke-width="3.2"/>
<circle clip-path="url(#clip171)" cx="699.405" cy="730.181" r="14.4" fill="#009af9" fill-rule="evenodd" fill-opacity="1" stroke="#000000" stroke-opacity="1" stroke-width="3.2"/>
<circle clip-path="url(#clip171)" cx="724.697" cy="781.95" r="14.4" fill="#009af9" fill-rule="evenodd" fill-opacity="1" stroke="#000000" stroke-opacity="1" stroke-width="3.2"/>
<circle clip-path="url(#clip171)" cx="749.989" cy="830.909" r="14.4" fill="#009af9" fill-rule="evenodd" fill-opacity="1" stroke="#000000" stroke-opacity="1" stroke-width="3.2"/>
<circle clip-path="url(#clip171)" cx="775.281" cy="877.176" r="14.4" fill="#009af9" fill-rule="evenodd" fill-opacity="1" stroke="#000000" stroke-opacity="1" stroke-width="3.2"/>
<circle clip-path="url(#clip171)" cx="800.574" cy="920.859" r="14.4" fill="#009af9" fill-rule="evenodd" fill-opacity="1" stroke="#000000" stroke-opacity="1" stroke-width="3.2"/>
<circle clip-path="url(#clip171)" cx="825.866" cy="962.064" r="14.4" fill="#009af9" fill-rule="evenodd" fill-opacity="1" stroke="#000000" stroke-opacity="1" stroke-width="3.2"/>
<circle clip-path="url(#clip171)" cx="851.158" cy="1000.89" r="14.4" fill="#009af9" fill-rule="evenodd" fill-opacity="1" stroke="#000000" stroke-opacity="1" stroke-width="3.2"/>
<circle clip-path="url(#clip171)" cx="876.45" cy="1037.43" r="14.4" fill="#009af9" fill-rule="evenodd" fill-opacity="1" stroke="#000000" stroke-opacity="1" stroke-width="3.2"/>
<circle clip-path="url(#clip171)" cx="901.743" cy="1071.77" r="14.4" fill="#009af9" fill-rule="evenodd" fill-opacity="1" stroke="#000000" stroke-opacity="1" stroke-width="3.2"/>
<circle clip-path="url(#clip171)" cx="927.035" cy="1103.99" r="14.4" fill="#009af9" fill-rule="evenodd" fill-opacity="1" stroke="#000000" stroke-opacity="1" stroke-width="3.2"/>
<circle clip-path="url(#clip171)" cx="952.327" cy="1134.18" r="14.4" fill="#009af9" fill-rule="evenodd" fill-opacity="1" stroke="#000000" stroke-opacity="1" stroke-width="3.2"/>
<circle clip-path="url(#clip171)" cx="977.62" cy="1162.41" r="14.4" fill="#009af9" fill-rule="evenodd" fill-opacity="1" stroke="#000000" stroke-opacity="1" stroke-width="3.2"/>
<circle clip-path="url(#clip171)" cx="1002.91" cy="1188.75" r="14.4" fill="#009af9" fill-rule="evenodd" fill-opacity="1" stroke="#000000" stroke-opacity="1" stroke-width="3.2"/>
<circle clip-path="url(#clip171)" cx="1028.2" cy="1213.27" r="14.4" fill="#009af9" fill-rule="evenodd" fill-opacity="1" stroke="#000000" stroke-opacity="1" stroke-width="3.2"/>
<circle clip-path="url(#clip171)" cx="1053.5" cy="1236.04" r="14.4" fill="#009af9" fill-rule="evenodd" fill-opacity="1" stroke="#000000" stroke-opacity="1" stroke-width="3.2"/>
<circle clip-path="url(#clip171)" cx="1078.79" cy="1240.82" r="14.4" fill="#009af9" fill-rule="evenodd" fill-opacity="1" stroke="#000000" stroke-opacity="1" stroke-width="3.2"/>
<circle clip-path="url(#clip171)" cx="1104.08" cy="1276.55" r="14.4" fill="#009af9" fill-rule="evenodd" fill-opacity="1" stroke="#000000" stroke-opacity="1" stroke-width="3.2"/>
<circle clip-path="url(#clip171)" cx="1129.37" cy="1294.41" r="14.4" fill="#009af9" fill-rule="evenodd" fill-opacity="1" stroke="#000000" stroke-opacity="1" stroke-width="3.2"/>
<circle clip-path="url(#clip171)" cx="1154.67" cy="1310.74" r="14.4" fill="#009af9" fill-rule="evenodd" fill-opacity="1" stroke="#000000" stroke-opacity="1" stroke-width="3.2"/>
<circle clip-path="url(#clip171)" cx="1179.96" cy="1325.6" r="14.4" fill="#009af9" fill-rule="evenodd" fill-opacity="1" stroke="#000000" stroke-opacity="1" stroke-width="3.2"/>
<circle clip-path="url(#clip171)" cx="1205.25" cy="1339.02" r="14.4" fill="#009af9" fill-rule="evenodd" fill-opacity="1" stroke="#000000" stroke-opacity="1" stroke-width="3.2"/>
<circle clip-path="url(#clip171)" cx="1230.54" cy="1351.07" r="14.4" fill="#009af9" fill-rule="evenodd" fill-opacity="1" stroke="#000000" stroke-opacity="1" stroke-width="3.2"/>
<circle clip-path="url(#clip171)" cx="1255.83" cy="1361.77" r="14.4" fill="#009af9" fill-rule="evenodd" fill-opacity="1" stroke="#000000" stroke-opacity="1" stroke-width="3.2"/>
<circle clip-path="url(#clip171)" cx="1281.13" cy="1371.18" r="14.4" fill="#009af9" fill-rule="evenodd" fill-opacity="1" stroke="#000000" stroke-opacity="1" stroke-width="3.2"/>
<circle clip-path="url(#clip171)" cx="1306.42" cy="1379.33" r="14.4" fill="#009af9" fill-rule="evenodd" fill-opacity="1" stroke="#000000" stroke-opacity="1" stroke-width="3.2"/>
<circle clip-path="url(#clip171)" cx="1331.71" cy="1386.25" r="14.4" fill="#009af9" fill-rule="evenodd" fill-opacity="1" stroke="#000000" stroke-opacity="1" stroke-width="3.2"/>
<circle clip-path="url(#clip171)" cx="1357" cy="1392.01" r="14.4" fill="#009af9" fill-rule="evenodd" fill-opacity="1" stroke="#000000" stroke-opacity="1" stroke-width="3.2"/>
<circle clip-path="url(#clip171)" cx="1382.3" cy="1396.61" r="14.4" fill="#009af9" fill-rule="evenodd" fill-opacity="1" stroke="#000000" stroke-opacity="1" stroke-width="3.2"/>
<circle clip-path="url(#clip171)" cx="1407.59" cy="1400.1" r="14.4" fill="#009af9" fill-rule="evenodd" fill-opacity="1" stroke="#000000" stroke-opacity="1" stroke-width="3.2"/>
<circle clip-path="url(#clip171)" cx="1432.88" cy="1402.5" r="14.4" fill="#009af9" fill-rule="evenodd" fill-opacity="1" stroke="#000000" stroke-opacity="1" stroke-width="3.2"/>
<circle clip-path="url(#clip171)" cx="1458.17" cy="1403.85" r="14.4" fill="#009af9" fill-rule="evenodd" fill-opacity="1" stroke="#000000" stroke-opacity="1" stroke-width="3.2"/>
<circle clip-path="url(#clip171)" cx="1483.47" cy="1404.18" r="14.4" fill="#009af9" fill-rule="evenodd" fill-opacity="1" stroke="#000000" stroke-opacity="1" stroke-width="3.2"/>
<circle clip-path="url(#clip171)" cx="1508.76" cy="1403.51" r="14.4" fill="#009af9" fill-rule="evenodd" fill-opacity="1" stroke="#000000" stroke-opacity="1" stroke-width="3.2"/>
<circle clip-path="url(#clip171)" cx="1534.05" cy="1401.87" r="14.4" fill="#009af9" fill-rule="evenodd" fill-opacity="1" stroke="#000000" stroke-opacity="1" stroke-width="3.2"/>
<circle clip-path="url(#clip171)" cx="1559.34" cy="1399.29" r="14.4" fill="#009af9" fill-rule="evenodd" fill-opacity="1" stroke="#000000" stroke-opacity="1" stroke-width="3.2"/>
<circle clip-path="url(#clip171)" cx="1584.63" cy="1395.79" r="14.4" fill="#009af9" fill-rule="evenodd" fill-opacity="1" stroke="#000000" stroke-opacity="1" stroke-width="3.2"/>
<circle clip-path="url(#clip171)" cx="1609.93" cy="1391.39" r="14.4" fill="#009af9" fill-rule="evenodd" fill-opacity="1" stroke="#000000" stroke-opacity="1" stroke-width="3.2"/>
<circle clip-path="url(#clip171)" cx="1635.22" cy="1386.12" r="14.4" fill="#009af9" fill-rule="evenodd" fill-opacity="1" stroke="#000000" stroke-opacity="1" stroke-width="3.2"/>
<circle clip-path="url(#clip171)" cx="1660.51" cy="1380" r="14.4" fill="#009af9" fill-rule="evenodd" fill-opacity="1" stroke="#000000" stroke-opacity="1" stroke-width="3.2"/>
<circle clip-path="url(#clip171)" cx="1685.8" cy="1373.05" r="14.4" fill="#009af9" fill-rule="evenodd" fill-opacity="1" stroke="#000000" stroke-opacity="1" stroke-width="3.2"/>
<circle clip-path="url(#clip171)" cx="1711.1" cy="1365.28" r="14.4" fill="#009af9" fill-rule="evenodd" fill-opacity="1" stroke="#000000" stroke-opacity="1" stroke-width="3.2"/>
<circle clip-path="url(#clip171)" cx="1736.39" cy="1356.73" r="14.4" fill="#009af9" fill-rule="evenodd" fill-opacity="1" stroke="#000000" stroke-opacity="1" stroke-width="3.2"/>
<circle clip-path="url(#clip171)" cx="1761.68" cy="1347.4" r="14.4" fill="#009af9" fill-rule="evenodd" fill-opacity="1" stroke="#000000" stroke-opacity="1" stroke-width="3.2"/>
<circle clip-path="url(#clip171)" cx="1786.97" cy="1337.31" r="14.4" fill="#009af9" fill-rule="evenodd" fill-opacity="1" stroke="#000000" stroke-opacity="1" stroke-width="3.2"/>
<circle clip-path="url(#clip171)" cx="1812.26" cy="1326.48" r="14.4" fill="#009af9" fill-rule="evenodd" fill-opacity="1" stroke="#000000" stroke-opacity="1" stroke-width="3.2"/>
<circle clip-path="url(#clip171)" cx="1837.56" cy="1314.94" r="14.4" fill="#009af9" fill-rule="evenodd" fill-opacity="1" stroke="#000000" stroke-opacity="1" stroke-width="3.2"/>
<circle clip-path="url(#clip171)" cx="1862.85" cy="1302.69" r="14.4" fill="#009af9" fill-rule="evenodd" fill-opacity="1" stroke="#000000" stroke-opacity="1" stroke-width="3.2"/>
<circle clip-path="url(#clip171)" cx="1888.14" cy="1289.74" r="14.4" fill="#009af9" fill-rule="evenodd" fill-opacity="1" stroke="#000000" stroke-opacity="1" stroke-width="3.2"/>
<circle clip-path="url(#clip171)" cx="1913.43" cy="1276.12" r="14.4" fill="#009af9" fill-rule="evenodd" fill-opacity="1" stroke="#000000" stroke-opacity="1" stroke-width="3.2"/>
<circle clip-path="url(#clip171)" cx="1938.73" cy="1261.83" r="14.4" fill="#009af9" fill-rule="evenodd" fill-opacity="1" stroke="#000000" stroke-opacity="1" stroke-width="3.2"/>
<circle clip-path="url(#clip171)" cx="1964.02" cy="1246.9" r="14.4" fill="#009af9" fill-rule="evenodd" fill-opacity="1" stroke="#000000" stroke-opacity="1" stroke-width="3.2"/>
<circle clip-path="url(#clip171)" cx="1989.31" cy="1231.33" r="14.4" fill="#009af9" fill-rule="evenodd" fill-opacity="1" stroke="#000000" stroke-opacity="1" stroke-width="3.2"/>
<circle clip-path="url(#clip171)" cx="2014.6" cy="1215.13" r="14.4" fill="#009af9" fill-rule="evenodd" fill-opacity="1" stroke="#000000" stroke-opacity="1" stroke-width="3.2"/>
<circle clip-path="url(#clip171)" cx="2039.9" cy="1198.32" r="14.4" fill="#009af9" fill-rule="evenodd" fill-opacity="1" stroke="#000000" stroke-opacity="1" stroke-width="3.2"/>
<circle clip-path="url(#clip171)" cx="2065.19" cy="1180.91" r="14.4" fill="#009af9" fill-rule="evenodd" fill-opacity="1" stroke="#000000" stroke-opacity="1" stroke-width="3.2"/>
<circle clip-path="url(#clip171)" cx="2090.48" cy="1162.91" r="14.4" fill="#009af9" fill-rule="evenodd" fill-opacity="1" stroke="#000000" stroke-opacity="1" stroke-width="3.2"/>
<circle clip-path="url(#clip171)" cx="2115.77" cy="1144.33" r="14.4" fill="#009af9" fill-rule="evenodd" fill-opacity="1" stroke="#000000" stroke-opacity="1" stroke-width="3.2"/>
<circle clip-path="url(#clip171)" cx="2141.06" cy="1113.9" r="14.4" fill="#009af9" fill-rule="evenodd" fill-opacity="1" stroke="#000000" stroke-opacity="1" stroke-width="3.2"/>
<circle clip-path="url(#clip171)" cx="2166.36" cy="1105.48" r="14.4" fill="#009af9" fill-rule="evenodd" fill-opacity="1" stroke="#000000" stroke-opacity="1" stroke-width="3.2"/>
<circle clip-path="url(#clip171)" cx="2191.65" cy="1085.23" r="14.4" fill="#009af9" fill-rule="evenodd" fill-opacity="1" stroke="#000000" stroke-opacity="1" stroke-width="3.2"/>
<circle clip-path="url(#clip171)" cx="2216.94" cy="1064.44" r="14.4" fill="#009af9" fill-rule="evenodd" fill-opacity="1" stroke="#000000" stroke-opacity="1" stroke-width="3.2"/>
<circle clip-path="url(#clip171)" cx="2242.23" cy="1043.11" r="14.4" fill="#009af9" fill-rule="evenodd" fill-opacity="1" stroke="#000000" stroke-opacity="1" stroke-width="3.2"/>
<circle clip-path="url(#clip171)" cx="2267.53" cy="1021.25" r="14.4" fill="#009af9" fill-rule="evenodd" fill-opacity="1" stroke="#000000" stroke-opacity="1" stroke-width="3.2"/>
<circle clip-path="url(#clip171)" cx="2292.82" cy="998.911" r="14.4" fill="#009af9" fill-rule="evenodd" fill-opacity="1" stroke="#000000" stroke-opacity="1" stroke-width="3.2"/>
<circle clip-path="url(#clip171)" cx="2318.11" cy="976.049" r="14.4" fill="#009af9" fill-rule="evenodd" fill-opacity="1" stroke="#000000" stroke-opacity="1" stroke-width="3.2"/>
<circle clip-path="url(#clip171)" cx="2343.4" cy="952.69" r="14.4" fill="#009af9" fill-rule="evenodd" fill-opacity="1" stroke="#000000" stroke-opacity="1" stroke-width="3.2"/>
<circle clip-path="url(#clip171)" cx="2368.7" cy="928.841" r="14.4" fill="#009af9" fill-rule="evenodd" fill-opacity="1" stroke="#000000" stroke-opacity="1" stroke-width="3.2"/>
<circle clip-path="url(#clip171)" cx="2393.99" cy="904.511" r="14.4" fill="#009af9" fill-rule="evenodd" fill-opacity="1" stroke="#000000" stroke-opacity="1" stroke-width="3.2"/>
<circle clip-path="url(#clip171)" cx="2419.28" cy="879.705" r="14.4" fill="#009af9" fill-rule="evenodd" fill-opacity="1" stroke="#000000" stroke-opacity="1" stroke-width="3.2"/>
<circle clip-path="url(#clip171)" cx="2444.57" cy="854.432" r="14.4" fill="#009af9" fill-rule="evenodd" fill-opacity="1" stroke="#000000" stroke-opacity="1" stroke-width="3.2"/>
<circle clip-path="url(#clip171)" cx="2469.86" cy="828.697" r="14.4" fill="#009af9" fill-rule="evenodd" fill-opacity="1" stroke="#000000" stroke-opacity="1" stroke-width="3.2"/>
<circle clip-path="url(#clip171)" cx="2495.16" cy="802.506" r="14.4" fill="#009af9" fill-rule="evenodd" fill-opacity="1" stroke="#000000" stroke-opacity="1" stroke-width="3.2"/>
<circle clip-path="url(#clip171)" cx="2520.45" cy="775.868" r="14.4" fill="#009af9" fill-rule="evenodd" fill-opacity="1" stroke="#000000" stroke-opacity="1" stroke-width="3.2"/>
<circle clip-path="url(#clip171)" cx="2545.74" cy="748.787" r="14.4" fill="#009af9" fill-rule="evenodd" fill-opacity="1" stroke="#000000" stroke-opacity="1" stroke-width="3.2"/>
<circle clip-path="url(#clip171)" cx="2571.03" cy="721.269" r="14.4" fill="#009af9" fill-rule="evenodd" fill-opacity="1" stroke="#000000" stroke-opacity="1" stroke-width="3.2"/>
<circle clip-path="url(#clip171)" cx="2596.33" cy="693.319" r="14.4" fill="#009af9" fill-rule="evenodd" fill-opacity="1" stroke="#000000" stroke-opacity="1" stroke-width="3.2"/>
<circle clip-path="url(#clip171)" cx="2621.62" cy="664.945" r="14.4" fill="#009af9" fill-rule="evenodd" fill-opacity="1" stroke="#000000" stroke-opacity="1" stroke-width="3.2"/>
<circle clip-path="url(#clip171)" cx="2646.91" cy="636.149" r="14.4" fill="#009af9" fill-rule="evenodd" fill-opacity="1" stroke="#000000" stroke-opacity="1" stroke-width="3.2"/>
<circle clip-path="url(#clip171)" cx="2672.2" cy="606.939" r="14.4" fill="#009af9" fill-rule="evenodd" fill-opacity="1" stroke="#000000" stroke-opacity="1" stroke-width="3.2"/>
<circle clip-path="url(#clip171)" cx="2697.49" cy="577.319" r="14.4" fill="#009af9" fill-rule="evenodd" fill-opacity="1" stroke="#000000" stroke-opacity="1" stroke-width="3.2"/>
<circle clip-path="url(#clip171)" cx="2722.79" cy="547.292" r="14.4" fill="#009af9" fill-rule="evenodd" fill-opacity="1" stroke="#000000" stroke-opacity="1" stroke-width="3.2"/>
<circle clip-path="url(#clip171)" cx="2748.08" cy="516.866" r="14.4" fill="#009af9" fill-rule="evenodd" fill-opacity="1" stroke="#000000" stroke-opacity="1" stroke-width="3.2"/>
<circle clip-path="url(#clip171)" cx="2773.37" cy="486.044" r="14.4" fill="#009af9" fill-rule="evenodd" fill-opacity="1" stroke="#000000" stroke-opacity="1" stroke-width="3.2"/>
<circle clip-path="url(#clip171)" cx="2798.66" cy="454.83" r="14.4" fill="#009af9" fill-rule="evenodd" fill-opacity="1" stroke="#000000" stroke-opacity="1" stroke-width="3.2"/>
<circle clip-path="url(#clip171)" cx="2823.96" cy="423.228" r="14.4" fill="#009af9" fill-rule="evenodd" fill-opacity="1" stroke="#000000" stroke-opacity="1" stroke-width="3.2"/>
<circle clip-path="url(#clip171)" cx="2849.25" cy="391.244" r="14.4" fill="#009af9" fill-rule="evenodd" fill-opacity="1" stroke="#000000" stroke-opacity="1" stroke-width="3.2"/>
<circle clip-path="url(#clip171)" cx="2874.54" cy="358.88" r="14.4" fill="#009af9" fill-rule="evenodd" fill-opacity="1" stroke="#000000" stroke-opacity="1" stroke-width="3.2"/>
<circle clip-path="url(#clip171)" cx="2899.83" cy="326.141" r="14.4" fill="#009af9" fill-rule="evenodd" fill-opacity="1" stroke="#000000" stroke-opacity="1" stroke-width="3.2"/>
<circle clip-path="url(#clip171)" cx="2925.13" cy="290.227" r="14.4" fill="#009af9" fill-rule="evenodd" fill-opacity="1" stroke="#000000" stroke-opacity="1" stroke-width="3.2"/>
<circle clip-path="url(#clip171)" cx="2950.42" cy="257.786" r="14.4" fill="#009af9" fill-rule="evenodd" fill-opacity="1" stroke="#000000" stroke-opacity="1" stroke-width="3.2"/>
<circle clip-path="url(#clip171)" cx="2975.71" cy="225.709" r="14.4" fill="#009af9" fill-rule="evenodd" fill-opacity="1" stroke="#000000" stroke-opacity="1" stroke-width="3.2"/>
<circle clip-path="url(#clip171)" cx="3001" cy="191.506" r="14.4" fill="#009af9" fill-rule="evenodd" fill-opacity="1" stroke="#000000" stroke-opacity="1" stroke-width="3.2"/>
<circle clip-path="url(#clip171)" cx="3026.29" cy="156.946" r="14.4" fill="#009af9" fill-rule="evenodd" fill-opacity="1" stroke="#000000" stroke-opacity="1" stroke-width="3.2"/>
<circle clip-path="url(#clip171)" cx="3051.59" cy="122.031" r="14.4" fill="#009af9" fill-rule="evenodd" fill-opacity="1" stroke="#000000" stroke-opacity="1" stroke-width="3.2"/>
<circle clip-path="url(#clip171)" cx="3076.88" cy="86.7664" r="14.4" fill="#009af9" fill-rule="evenodd" fill-opacity="1" stroke="#000000" stroke-opacity="1" stroke-width="3.2"/>
<path clip-path="url(#clip170)" d="M2332.38 1397.15 L3063.39 1397.15 L3063.39 1241.63 L2332.38 1241.63  Z" fill="#ffffff" fill-rule="evenodd" fill-opacity="1"/>
<polyline clip-path="url(#clip170)" style="stroke:#000000; stroke-linecap:round; stroke-linejoin:round; stroke-width:4; stroke-opacity:1; fill:none" points="2332.38,1397.15 3063.39,1397.15 3063.39,1241.63 2332.38,1241.63 2332.38,1397.15 "/>
<polyline clip-path="url(#clip170)" style="stroke:#e26f46; stroke-linecap:round; stroke-linejoin:round; stroke-width:4; stroke-opacity:1; fill:none" points="2362.17,1293.47 2540.9,1293.47 "/>
<path clip-path="url(#clip170)" d="M2570.69 1276.19 L2577.65 1276.19 L2586.47 1299.71 L2595.34 1276.19 L2602.31 1276.19 L2602.31 1310.75 L2597.75 1310.75 L2597.75 1280.4 L2588.84 1304.11 L2584.14 1304.11 L2575.22 1280.4 L2575.22 1310.75 L2570.69 1310.75 L2570.69 1276.19 Z" fill="#000000" fill-rule="nonzero" fill-opacity="1" /><path clip-path="url(#clip170)" d="M2611.4 1284.83 L2615.66 1284.83 L2615.66 1310.75 L2611.4 1310.75 L2611.4 1284.83 M2611.4 1274.73 L2615.66 1274.73 L2615.66 1280.13 L2611.4 1280.13 L2611.4 1274.73 Z" fill="#000000" fill-rule="nonzero" fill-opacity="1" /><path clip-path="url(#clip170)" d="M2646.13 1295.1 L2646.13 1310.75 L2641.87 1310.75 L2641.87 1295.24 Q2641.87 1291.56 2640.43 1289.73 Q2639 1287.9 2636.13 1287.9 Q2632.68 1287.9 2630.69 1290.1 Q2628.7 1292.3 2628.7 1296.1 L2628.7 1310.75 L2624.41 1310.75 L2624.41 1284.83 L2628.7 1284.83 L2628.7 1288.85 Q2630.22 1286.52 2632.28 1285.36 Q2634.37 1284.2 2637.08 1284.2 Q2641.54 1284.2 2643.83 1286.98 Q2646.13 1289.73 2646.13 1295.1 Z" fill="#000000" fill-rule="nonzero" fill-opacity="1" /><path clip-path="url(#clip170)" d="M2654.62 1284.83 L2658.88 1284.83 L2658.88 1310.75 L2654.62 1310.75 L2654.62 1284.83 M2654.62 1274.73 L2658.88 1274.73 L2658.88 1280.13 L2654.62 1280.13 L2654.62 1274.73 Z" fill="#000000" fill-rule="nonzero" fill-opacity="1" /><path clip-path="url(#clip170)" d="M2687.98 1289.8 Q2689.58 1286.93 2691.8 1285.57 Q2694.02 1284.2 2697.03 1284.2 Q2701.08 1284.2 2703.28 1287.05 Q2705.48 1289.87 2705.48 1295.1 L2705.48 1310.75 L2701.2 1310.75 L2701.2 1295.24 Q2701.2 1291.52 2699.88 1289.71 Q2698.56 1287.9 2695.85 1287.9 Q2692.54 1287.9 2690.62 1290.1 Q2688.7 1292.3 2688.7 1296.1 L2688.7 1310.75 L2684.41 1310.75 L2684.41 1295.24 Q2684.41 1291.49 2683.09 1289.71 Q2681.77 1287.9 2679.02 1287.9 Q2675.76 1287.9 2673.83 1290.13 Q2671.91 1292.33 2671.91 1296.1 L2671.91 1310.75 L2667.63 1310.75 L2667.63 1284.83 L2671.91 1284.83 L2671.91 1288.85 Q2673.37 1286.47 2675.41 1285.33 Q2677.45 1284.2 2680.25 1284.2 Q2683.07 1284.2 2685.04 1285.64 Q2687.03 1287.07 2687.98 1289.8 Z" fill="#000000" fill-rule="nonzero" fill-opacity="1" /><path clip-path="url(#clip170)" d="M2713.53 1300.52 L2713.53 1284.83 L2717.79 1284.83 L2717.79 1300.36 Q2717.79 1304.04 2719.23 1305.89 Q2720.66 1307.72 2723.53 1307.72 Q2726.98 1307.72 2728.97 1305.52 Q2730.99 1303.32 2730.99 1299.52 L2730.99 1284.83 L2735.25 1284.83 L2735.25 1310.75 L2730.99 1310.75 L2730.99 1306.77 Q2729.44 1309.13 2727.38 1310.29 Q2725.34 1311.42 2722.63 1311.42 Q2718.16 1311.42 2715.85 1308.64 Q2713.53 1305.87 2713.53 1300.52 M2724.25 1284.2 L2724.25 1284.2 Z" fill="#000000" fill-rule="nonzero" fill-opacity="1" /><path clip-path="url(#clip170)" d="M2764.2 1289.8 Q2765.8 1286.93 2768.02 1285.57 Q2770.25 1284.2 2773.26 1284.2 Q2777.31 1284.2 2779.51 1287.05 Q2781.7 1289.87 2781.7 1295.1 L2781.7 1310.75 L2777.42 1310.75 L2777.42 1295.24 Q2777.42 1291.52 2776.1 1289.71 Q2774.78 1287.9 2772.07 1287.9 Q2768.76 1287.9 2766.84 1290.1 Q2764.92 1292.3 2764.92 1296.1 L2764.92 1310.75 L2760.64 1310.75 L2760.64 1295.24 Q2760.64 1291.49 2759.32 1289.71 Q2758 1287.9 2755.25 1287.9 Q2751.98 1287.9 2750.06 1290.13 Q2748.14 1292.33 2748.14 1296.1 L2748.14 1310.75 L2743.86 1310.75 L2743.86 1284.83 L2748.14 1284.83 L2748.14 1288.85 Q2749.6 1286.47 2751.64 1285.33 Q2753.67 1284.2 2756.47 1284.2 Q2759.3 1284.2 2761.26 1285.64 Q2763.26 1287.07 2764.2 1289.8 Z" fill="#000000" fill-rule="nonzero" fill-opacity="1" /><path clip-path="url(#clip170)" d="M2817.05 1297.72 Q2811.89 1297.72 2809.9 1298.9 Q2807.91 1300.08 2807.91 1302.93 Q2807.91 1305.2 2809.39 1306.54 Q2810.89 1307.86 2813.46 1307.86 Q2817.01 1307.86 2819.13 1305.36 Q2821.29 1302.83 2821.29 1298.67 L2821.29 1297.72 L2817.05 1297.72 M2825.55 1295.96 L2825.55 1310.75 L2821.29 1310.75 L2821.29 1306.82 Q2819.83 1309.18 2817.65 1310.31 Q2815.48 1311.42 2812.33 1311.42 Q2808.35 1311.42 2805.99 1309.2 Q2803.65 1306.96 2803.65 1303.21 Q2803.65 1298.83 2806.57 1296.61 Q2809.51 1294.39 2815.32 1294.39 L2821.29 1294.39 L2821.29 1293.97 Q2821.29 1291.03 2819.34 1289.43 Q2817.42 1287.81 2813.93 1287.81 Q2811.7 1287.81 2809.6 1288.34 Q2807.49 1288.88 2805.55 1289.94 L2805.55 1286.01 Q2807.88 1285.1 2810.08 1284.66 Q2812.28 1284.2 2814.37 1284.2 Q2819.99 1284.2 2822.77 1287.12 Q2825.55 1290.03 2825.55 1295.96 Z" fill="#000000" fill-rule="nonzero" fill-opacity="1" /><path clip-path="url(#clip170)" d="M2838.53 1277.46 L2838.53 1284.83 L2847.31 1284.83 L2847.31 1288.14 L2838.53 1288.14 L2838.53 1302.21 Q2838.53 1305.38 2839.39 1306.28 Q2840.27 1307.19 2842.93 1307.19 L2847.31 1307.19 L2847.31 1310.75 L2842.93 1310.75 Q2838 1310.75 2836.13 1308.92 Q2834.25 1307.07 2834.25 1302.21 L2834.25 1288.14 L2831.13 1288.14 L2831.13 1284.83 L2834.25 1284.83 L2834.25 1277.46 L2838.53 1277.46 Z" fill="#000000" fill-rule="nonzero" fill-opacity="1" /><path clip-path="url(#clip170)" d="M2863.37 1276.19 L2892.61 1276.19 L2892.61 1280.13 L2880.34 1280.13 L2880.34 1310.75 L2875.64 1310.75 L2875.64 1280.13 L2863.37 1280.13 L2863.37 1276.19 Z" fill="#000000" fill-rule="nonzero" fill-opacity="1" /><path clip-path="url(#clip170)" d="M2897.49 1289.22 L2927.17 1289.22 L2927.17 1293.11 L2897.49 1293.11 L2897.49 1289.22 M2897.49 1298.67 L2927.17 1298.67 L2927.17 1302.6 L2897.49 1302.6 L2897.49 1298.67 Z" fill="#000000" fill-rule="nonzero" fill-opacity="1" /><path clip-path="url(#clip170)" d="M2947.84 1291.61 Q2944.69 1291.61 2942.84 1293.76 Q2941.01 1295.91 2941.01 1299.66 Q2941.01 1303.39 2942.84 1305.57 Q2944.69 1307.72 2947.84 1307.72 Q2950.99 1307.72 2952.81 1305.57 Q2954.67 1303.39 2954.67 1299.66 Q2954.67 1295.91 2952.81 1293.76 Q2950.99 1291.61 2947.84 1291.61 M2957.12 1276.96 L2957.12 1281.21 Q2955.36 1280.38 2953.56 1279.94 Q2951.77 1279.5 2950.01 1279.5 Q2945.38 1279.5 2942.93 1282.63 Q2940.5 1285.75 2940.15 1292.07 Q2941.52 1290.06 2943.58 1288.99 Q2945.64 1287.9 2948.12 1287.9 Q2953.32 1287.9 2956.33 1291.08 Q2959.37 1294.22 2959.37 1299.66 Q2959.37 1304.99 2956.22 1308.21 Q2953.07 1311.42 2947.84 1311.42 Q2941.84 1311.42 2938.67 1306.84 Q2935.5 1302.23 2935.5 1293.51 Q2935.5 1285.31 2939.39 1280.45 Q2943.28 1275.57 2949.83 1275.57 Q2951.59 1275.57 2953.37 1275.91 Q2955.18 1276.26 2957.12 1276.96 Z" fill="#000000" fill-rule="nonzero" fill-opacity="1" /><path clip-path="url(#clip170)" d="M2977.42 1294.34 Q2974.09 1294.34 2972.17 1296.12 Q2970.27 1297.9 2970.27 1301.03 Q2970.27 1304.15 2972.17 1305.94 Q2974.09 1307.72 2977.42 1307.72 Q2980.75 1307.72 2982.68 1305.94 Q2984.6 1304.13 2984.6 1301.03 Q2984.6 1297.9 2982.68 1296.12 Q2980.78 1294.34 2977.42 1294.34 M2972.74 1292.35 Q2969.74 1291.61 2968.05 1289.55 Q2966.38 1287.49 2966.38 1284.52 Q2966.38 1280.38 2969.32 1277.97 Q2972.28 1275.57 2977.42 1275.57 Q2982.58 1275.57 2985.52 1277.97 Q2988.46 1280.38 2988.46 1284.52 Q2988.46 1287.49 2986.77 1289.55 Q2985.11 1291.61 2982.12 1292.35 Q2985.5 1293.14 2987.37 1295.43 Q2989.27 1297.72 2989.27 1301.03 Q2989.27 1306.05 2986.19 1308.74 Q2983.14 1311.42 2977.42 1311.42 Q2971.7 1311.42 2968.62 1308.74 Q2965.57 1306.05 2965.57 1301.03 Q2965.57 1297.72 2967.47 1295.43 Q2969.37 1293.14 2972.74 1292.35 M2971.03 1284.96 Q2971.03 1287.65 2972.7 1289.15 Q2974.39 1290.66 2977.42 1290.66 Q2980.43 1290.66 2982.12 1289.15 Q2983.83 1287.65 2983.83 1284.96 Q2983.83 1282.28 2982.12 1280.77 Q2980.43 1279.27 2977.42 1279.27 Q2974.39 1279.27 2972.7 1280.77 Q2971.03 1282.28 2971.03 1284.96 Z" fill="#000000" fill-rule="nonzero" fill-opacity="1" /><path clip-path="url(#clip170)" d="M2997.58 1304.87 L3002.47 1304.87 L3002.47 1310.75 L2997.58 1310.75 L2997.58 1304.87 Z" fill="#000000" fill-rule="nonzero" fill-opacity="1" /><path clip-path="url(#clip170)" d="M3012.7 1276.19 L3031.05 1276.19 L3031.05 1280.13 L3016.98 1280.13 L3016.98 1288.6 Q3018 1288.25 3019.02 1288.09 Q3020.04 1287.9 3021.05 1287.9 Q3026.84 1287.9 3030.22 1291.08 Q3033.6 1294.25 3033.6 1299.66 Q3033.6 1305.24 3030.13 1308.34 Q3026.66 1311.42 3020.34 1311.42 Q3018.16 1311.42 3015.89 1311.05 Q3013.65 1310.68 3011.24 1309.94 L3011.24 1305.24 Q3013.32 1306.38 3015.55 1306.93 Q3017.77 1307.49 3020.24 1307.49 Q3024.25 1307.49 3026.59 1305.38 Q3028.93 1303.27 3028.93 1299.66 Q3028.93 1296.05 3026.59 1293.95 Q3024.25 1291.84 3020.24 1291.84 Q3018.37 1291.84 3016.49 1292.26 Q3014.64 1292.67 3012.7 1293.55 L3012.7 1276.19 Z" fill="#000000" fill-rule="nonzero" fill-opacity="1" /><circle clip-path="url(#clip170)" cx="2451.53" cy="1345.31" r="20.48" fill="#009af9" fill-rule="evenodd" fill-opacity="1" stroke="#000000" stroke-opacity="1" stroke-width="4.55111"/>
<path clip-path="url(#clip170)" d="M2586.71 1331.2 Q2581.61 1331.2 2578.6 1335 Q2575.62 1338.8 2575.62 1345.35 Q2575.62 1351.87 2578.6 1355.67 Q2581.61 1359.47 2586.71 1359.47 Q2591.8 1359.47 2594.76 1355.67 Q2597.75 1351.87 2597.75 1345.35 Q2597.75 1338.8 2594.76 1335 Q2591.8 1331.2 2586.71 1331.2 M2586.71 1327.41 Q2593.97 1327.41 2598.33 1332.29 Q2602.68 1337.15 2602.68 1345.35 Q2602.68 1353.52 2598.33 1358.4 Q2593.97 1363.26 2586.71 1363.26 Q2579.41 1363.26 2575.04 1358.4 Q2570.69 1353.54 2570.69 1345.35 Q2570.69 1337.15 2575.04 1332.29 Q2579.41 1327.41 2586.71 1327.41 Z" fill="#000000" fill-rule="nonzero" fill-opacity="1" /><path clip-path="url(#clip170)" d="M2628.42 1349.65 Q2628.42 1344.95 2626.47 1342.29 Q2624.55 1339.61 2621.17 1339.61 Q2617.79 1339.61 2615.85 1342.29 Q2613.93 1344.95 2613.93 1349.65 Q2613.93 1354.35 2615.85 1357.04 Q2617.79 1359.7 2621.17 1359.7 Q2624.55 1359.7 2626.47 1357.04 Q2628.42 1354.35 2628.42 1349.65 M2613.93 1340.6 Q2615.27 1338.29 2617.31 1337.17 Q2619.37 1336.04 2622.21 1336.04 Q2626.94 1336.04 2629.88 1339.79 Q2632.84 1343.54 2632.84 1349.65 Q2632.84 1355.76 2629.88 1359.51 Q2626.94 1363.26 2622.21 1363.26 Q2619.37 1363.26 2617.31 1362.15 Q2615.27 1361.02 2613.93 1358.7 L2613.93 1362.59 L2609.65 1362.59 L2609.65 1326.57 L2613.93 1326.57 L2613.93 1340.6 Z" fill="#000000" fill-rule="nonzero" fill-opacity="1" /><path clip-path="url(#clip170)" d="M2639.9 1336.67 L2644.16 1336.67 L2644.16 1363.05 Q2644.16 1368.01 2642.26 1370.23 Q2640.39 1372.45 2636.2 1372.45 L2634.58 1372.45 L2634.58 1368.84 L2635.71 1368.84 Q2638.14 1368.84 2639.02 1367.71 Q2639.9 1366.6 2639.9 1363.05 L2639.9 1336.67 M2639.9 1326.57 L2644.16 1326.57 L2644.16 1331.97 L2639.9 1331.97 L2639.9 1326.57 Z" fill="#000000" fill-rule="nonzero" fill-opacity="1" /><path clip-path="url(#clip170)" d="M2675.25 1348.56 L2675.25 1350.65 L2655.66 1350.65 Q2655.94 1355.05 2658.3 1357.36 Q2660.69 1359.65 2664.92 1359.65 Q2667.38 1359.65 2669.67 1359.05 Q2671.98 1358.45 2674.25 1357.24 L2674.25 1361.27 Q2671.96 1362.24 2669.55 1362.75 Q2667.14 1363.26 2664.67 1363.26 Q2658.46 1363.26 2654.83 1359.65 Q2651.22 1356.04 2651.22 1349.88 Q2651.22 1343.52 2654.64 1339.79 Q2658.09 1336.04 2663.93 1336.04 Q2669.16 1336.04 2672.19 1339.42 Q2675.25 1342.78 2675.25 1348.56 M2670.99 1347.31 Q2670.94 1343.82 2669.02 1341.73 Q2667.12 1339.65 2663.97 1339.65 Q2660.41 1339.65 2658.26 1341.67 Q2656.13 1343.68 2655.8 1347.34 L2670.99 1347.31 Z" fill="#000000" fill-rule="nonzero" fill-opacity="1" /><path clip-path="url(#clip170)" d="M2700.89 1337.66 L2700.89 1341.64 Q2699.09 1340.65 2697.26 1340.16 Q2695.45 1339.65 2693.6 1339.65 Q2689.46 1339.65 2687.17 1342.29 Q2684.88 1344.91 2684.88 1349.65 Q2684.88 1354.4 2687.17 1357.04 Q2689.46 1359.65 2693.6 1359.65 Q2695.45 1359.65 2697.26 1359.17 Q2699.09 1358.66 2700.89 1357.66 L2700.89 1361.6 Q2699.11 1362.43 2697.19 1362.85 Q2695.29 1363.26 2693.14 1363.26 Q2687.28 1363.26 2683.83 1359.58 Q2680.39 1355.9 2680.39 1349.65 Q2680.39 1343.31 2683.86 1339.67 Q2687.35 1336.04 2693.42 1336.04 Q2695.39 1336.04 2697.26 1336.46 Q2699.14 1336.85 2700.89 1337.66 Z" fill="#000000" fill-rule="nonzero" fill-opacity="1" /><path clip-path="url(#clip170)" d="M2712.51 1329.3 L2712.51 1336.67 L2721.29 1336.67 L2721.29 1339.98 L2712.51 1339.98 L2712.51 1354.05 Q2712.51 1357.22 2713.37 1358.12 Q2714.25 1359.03 2716.91 1359.03 L2721.29 1359.03 L2721.29 1362.59 L2716.91 1362.59 Q2711.98 1362.59 2710.11 1360.76 Q2708.23 1358.91 2708.23 1354.05 L2708.23 1339.98 L2705.11 1339.98 L2705.11 1336.67 L2708.23 1336.67 L2708.23 1329.3 L2712.51 1329.3 Z" fill="#000000" fill-rule="nonzero" fill-opacity="1" /><path clip-path="url(#clip170)" d="M2726.89 1336.67 L2731.15 1336.67 L2731.15 1362.59 L2726.89 1362.59 L2726.89 1336.67 M2726.89 1326.57 L2731.15 1326.57 L2731.15 1331.97 L2726.89 1331.97 L2726.89 1326.57 Z" fill="#000000" fill-rule="nonzero" fill-opacity="1" /><path clip-path="url(#clip170)" d="M2737.01 1336.67 L2741.52 1336.67 L2749.62 1358.42 L2757.72 1336.67 L2762.24 1336.67 L2752.51 1362.59 L2746.73 1362.59 L2737.01 1336.67 Z" fill="#000000" fill-rule="nonzero" fill-opacity="1" /><path clip-path="url(#clip170)" d="M2790.29 1348.56 L2790.29 1350.65 L2770.71 1350.65 Q2770.99 1355.05 2773.35 1357.36 Q2775.73 1359.65 2779.97 1359.65 Q2782.42 1359.65 2784.71 1359.05 Q2787.03 1358.45 2789.3 1357.24 L2789.3 1361.27 Q2787.01 1362.24 2784.6 1362.75 Q2782.19 1363.26 2779.71 1363.26 Q2773.51 1363.26 2769.88 1359.65 Q2766.26 1356.04 2766.26 1349.88 Q2766.26 1343.52 2769.69 1339.79 Q2773.14 1336.04 2778.97 1336.04 Q2784.2 1336.04 2787.24 1339.42 Q2790.29 1342.78 2790.29 1348.56 M2786.03 1347.31 Q2785.99 1343.82 2784.07 1341.73 Q2782.17 1339.65 2779.02 1339.65 Q2775.45 1339.65 2773.3 1341.67 Q2771.17 1343.68 2770.85 1347.34 L2786.03 1347.31 Z" fill="#000000" fill-rule="nonzero" fill-opacity="1" /><path clip-path="url(#clip170)" d="M2822.58 1326.62 Q2819.48 1331.94 2817.98 1337.15 Q2816.47 1342.36 2816.47 1347.71 Q2816.47 1353.05 2817.98 1358.31 Q2819.51 1363.54 2822.58 1368.84 L2818.88 1368.84 Q2815.41 1363.4 2813.67 1358.15 Q2811.96 1352.89 2811.96 1347.71 Q2811.96 1342.55 2813.67 1337.31 Q2815.38 1332.08 2818.88 1326.62 L2822.58 1326.62 Z" fill="#000000" fill-rule="nonzero" fill-opacity="1" /><path clip-path="url(#clip170)" d="M2830.85 1326.57 L2835.11 1326.57 L2835.11 1362.59 L2830.85 1362.59 L2830.85 1326.57 Z" fill="#000000" fill-rule="nonzero" fill-opacity="1" /><path clip-path="url(#clip170)" d="M2854.07 1339.65 Q2850.64 1339.65 2848.65 1342.34 Q2846.66 1345 2846.66 1349.65 Q2846.66 1354.3 2848.63 1356.99 Q2850.62 1359.65 2854.07 1359.65 Q2857.47 1359.65 2859.46 1356.97 Q2861.45 1354.28 2861.45 1349.65 Q2861.45 1345.05 2859.46 1342.36 Q2857.47 1339.65 2854.07 1339.65 M2854.07 1336.04 Q2859.62 1336.04 2862.79 1339.65 Q2865.96 1343.26 2865.96 1349.65 Q2865.96 1356.02 2862.79 1359.65 Q2859.62 1363.26 2854.07 1363.26 Q2848.49 1363.26 2845.32 1359.65 Q2842.17 1356.02 2842.17 1349.65 Q2842.17 1343.26 2845.32 1339.65 Q2848.49 1336.04 2854.07 1336.04 Z" fill="#000000" fill-rule="nonzero" fill-opacity="1" /><path clip-path="url(#clip170)" d="M2890.08 1349.33 Q2890.08 1344.7 2888.16 1342.15 Q2886.26 1339.61 2882.81 1339.61 Q2879.39 1339.61 2877.47 1342.15 Q2875.57 1344.7 2875.57 1349.33 Q2875.57 1353.93 2877.47 1356.48 Q2879.39 1359.03 2882.81 1359.03 Q2886.26 1359.03 2888.16 1356.48 Q2890.08 1353.93 2890.08 1349.33 M2894.34 1359.37 Q2894.34 1365.99 2891.4 1369.21 Q2888.46 1372.45 2882.4 1372.45 Q2880.15 1372.45 2878.16 1372.11 Q2876.17 1371.78 2874.3 1371.09 L2874.3 1366.94 Q2876.17 1367.96 2878 1368.45 Q2879.83 1368.93 2881.73 1368.93 Q2885.92 1368.93 2888 1366.73 Q2890.08 1364.56 2890.08 1360.14 L2890.08 1358.03 Q2888.76 1360.32 2886.7 1361.46 Q2884.64 1362.59 2881.77 1362.59 Q2877 1362.59 2874.09 1358.96 Q2871.17 1355.32 2871.17 1349.33 Q2871.17 1343.31 2874.09 1339.67 Q2877 1336.04 2881.77 1336.04 Q2884.64 1336.04 2886.7 1337.17 Q2888.76 1338.31 2890.08 1340.6 L2890.08 1336.67 L2894.34 1336.67 L2894.34 1359.37 Z" fill="#000000" fill-rule="nonzero" fill-opacity="1" /><path clip-path="url(#clip170)" d="M2904.53 1358.66 L2912.17 1358.66 L2912.17 1332.29 L2903.86 1333.96 L2903.86 1329.7 L2912.12 1328.03 L2916.8 1328.03 L2916.8 1358.66 L2924.44 1358.66 L2924.44 1362.59 L2904.53 1362.59 L2904.53 1358.66 Z" fill="#000000" fill-rule="nonzero" fill-opacity="1" /><path clip-path="url(#clip170)" d="M2943.88 1331.11 Q2940.27 1331.11 2938.44 1334.67 Q2936.63 1338.22 2936.63 1345.35 Q2936.63 1352.45 2938.44 1356.02 Q2940.27 1359.56 2943.88 1359.56 Q2947.51 1359.56 2949.32 1356.02 Q2951.15 1352.45 2951.15 1345.35 Q2951.15 1338.22 2949.32 1334.67 Q2947.51 1331.11 2943.88 1331.11 M2943.88 1327.41 Q2949.69 1327.41 2952.75 1332.01 Q2955.82 1336.6 2955.82 1345.35 Q2955.82 1354.07 2952.75 1358.68 Q2949.69 1363.26 2943.88 1363.26 Q2938.07 1363.26 2934.99 1358.68 Q2931.94 1354.07 2931.94 1345.35 Q2931.94 1336.6 2934.99 1332.01 Q2938.07 1327.41 2943.88 1327.41 Z" fill="#000000" fill-rule="nonzero" fill-opacity="1" /><path clip-path="url(#clip170)" d="M2962.77 1326.62 L2966.47 1326.62 Q2969.94 1332.08 2971.66 1337.31 Q2973.39 1342.55 2973.39 1347.71 Q2973.39 1352.89 2971.66 1358.15 Q2969.94 1363.4 2966.47 1368.84 L2962.77 1368.84 Q2965.85 1363.54 2967.35 1358.31 Q2968.88 1353.05 2968.88 1347.71 Q2968.88 1342.36 2967.35 1337.15 Q2965.85 1331.94 2962.77 1326.62 Z" fill="#000000" fill-rule="nonzero" fill-opacity="1" /></svg>
