<?xml version="1.0" encoding="utf-8"?>
<svg xmlns="http://www.w3.org/2000/svg" xmlns:xlink="http://www.w3.org/1999/xlink" width="800" height="600" viewBox="0 0 3200 2400">
<defs>
  <clipPath id="clip660">
    <rect x="0" y="0" width="3200" height="2400"/>
  </clipPath>
</defs>
<path clip-path="url(#clip660)" d="M0 2400 L3200 2400 L3200 0 L0 0  Z" fill="#ffffff" fill-rule="evenodd" fill-opacity="1"/>
<defs>
  <clipPath id="clip661">
    <rect x="263" y="1289" width="2891" height="917"/>
  </clipPath>
</defs>
<path clip-path="url(#clip660)" d="M263.135 1046.81 L3152.76 1046.81 L3152.76 131.032 L263.135 131.032  Z" fill="#ffffff" fill-rule="evenodd" fill-opacity="1"/>
<defs>
  <clipPath id="clip662">
    <rect x="263" y="131" width="2891" height="917"/>
  </clipPath>
</defs>
<polyline clip-path="url(#clip662)" style="stroke:#000000; stroke-linecap:round; stroke-linejoin:round; stroke-width:2; stroke-opacity:0.1; fill:none" points="344.917,1046.81 344.917,131.032 "/>
<polyline clip-path="url(#clip662)" style="stroke:#000000; stroke-linecap:round; stroke-linejoin:round; stroke-width:2; stroke-opacity:0.1; fill:none" points="1026.43,1046.81 1026.43,131.032 "/>
<polyline clip-path="url(#clip662)" style="stroke:#000000; stroke-linecap:round; stroke-linejoin:round; stroke-width:2; stroke-opacity:0.1; fill:none" points="1707.95,1046.81 1707.95,131.032 "/>
<polyline clip-path="url(#clip662)" style="stroke:#000000; stroke-linecap:round; stroke-linejoin:round; stroke-width:2; stroke-opacity:0.1; fill:none" points="2389.46,1046.81 2389.46,131.032 "/>
<polyline clip-path="url(#clip662)" style="stroke:#000000; stroke-linecap:round; stroke-linejoin:round; stroke-width:2; stroke-opacity:0.1; fill:none" points="3070.97,1046.81 3070.97,131.032 "/>
<polyline clip-path="url(#clip662)" style="stroke:#000000; stroke-linecap:round; stroke-linejoin:round; stroke-width:2; stroke-opacity:0.1; fill:none" points="263.135,938.62 3152.76,938.62 "/>
<polyline clip-path="url(#clip662)" style="stroke:#000000; stroke-linecap:round; stroke-linejoin:round; stroke-width:2; stroke-opacity:0.1; fill:none" points="263.135,732.924 3152.76,732.924 "/>
<polyline clip-path="url(#clip662)" style="stroke:#000000; stroke-linecap:round; stroke-linejoin:round; stroke-width:2; stroke-opacity:0.1; fill:none" points="263.135,527.228 3152.76,527.228 "/>
<polyline clip-path="url(#clip662)" style="stroke:#000000; stroke-linecap:round; stroke-linejoin:round; stroke-width:2; stroke-opacity:0.1; fill:none" points="263.135,321.532 3152.76,321.532 "/>
<polyline clip-path="url(#clip660)" style="stroke:#000000; stroke-linecap:round; stroke-linejoin:round; stroke-width:4; stroke-opacity:1; fill:none" points="263.135,1046.81 3152.76,1046.81 "/>
<polyline clip-path="url(#clip660)" style="stroke:#000000; stroke-linecap:round; stroke-linejoin:round; stroke-width:4; stroke-opacity:1; fill:none" points="344.917,1046.81 344.917,1027.92 "/>
<polyline clip-path="url(#clip660)" style="stroke:#000000; stroke-linecap:round; stroke-linejoin:round; stroke-width:4; stroke-opacity:1; fill:none" points="1026.43,1046.81 1026.43,1027.92 "/>
<polyline clip-path="url(#clip660)" style="stroke:#000000; stroke-linecap:round; stroke-linejoin:round; stroke-width:4; stroke-opacity:1; fill:none" points="1707.95,1046.81 1707.95,1027.92 "/>
<polyline clip-path="url(#clip660)" style="stroke:#000000; stroke-linecap:round; stroke-linejoin:round; stroke-width:4; stroke-opacity:1; fill:none" points="2389.46,1046.81 2389.46,1027.92 "/>
<polyline clip-path="url(#clip660)" style="stroke:#000000; stroke-linecap:round; stroke-linejoin:round; stroke-width:4; stroke-opacity:1; fill:none" points="3070.97,1046.81 3070.97,1027.92 "/>
<path clip-path="url(#clip660)" d="M296.989 1111.68 L304.627 1111.68 L304.627 1085.31 L296.317 1086.98 L296.317 1082.72 L304.581 1081.05 L309.257 1081.05 L309.257 1111.68 L316.896 1111.68 L316.896 1115.61 L296.989 1115.61 L296.989 1111.68 Z" fill="#000000" fill-rule="nonzero" fill-opacity="1" /><path clip-path="url(#clip660)" d="M326.34 1109.73 L331.224 1109.73 L331.224 1115.61 L326.34 1115.61 L326.34 1109.73 Z" fill="#000000" fill-rule="nonzero" fill-opacity="1" /><path clip-path="url(#clip660)" d="M351.41 1084.13 Q347.798 1084.13 345.97 1087.7 Q344.164 1091.24 344.164 1098.37 Q344.164 1105.48 345.97 1109.04 Q347.798 1112.58 351.41 1112.58 Q355.044 1112.58 356.849 1109.04 Q358.678 1105.48 358.678 1098.37 Q358.678 1091.24 356.849 1087.7 Q355.044 1084.13 351.41 1084.13 M351.41 1080.43 Q357.22 1080.43 360.275 1085.04 Q363.354 1089.62 363.354 1098.37 Q363.354 1107.1 360.275 1111.7 Q357.22 1116.29 351.41 1116.29 Q345.599 1116.29 342.521 1111.7 Q339.465 1107.1 339.465 1098.37 Q339.465 1089.62 342.521 1085.04 Q345.599 1080.43 351.41 1080.43 Z" fill="#000000" fill-rule="nonzero" fill-opacity="1" /><path clip-path="url(#clip660)" d="M381.571 1084.13 Q377.96 1084.13 376.132 1087.7 Q374.326 1091.24 374.326 1098.37 Q374.326 1105.48 376.132 1109.04 Q377.96 1112.58 381.571 1112.58 Q385.206 1112.58 387.011 1109.04 Q388.84 1105.48 388.84 1098.37 Q388.84 1091.24 387.011 1087.7 Q385.206 1084.13 381.571 1084.13 M381.571 1080.43 Q387.382 1080.43 390.437 1085.04 Q393.516 1089.62 393.516 1098.37 Q393.516 1107.1 390.437 1111.7 Q387.382 1116.29 381.571 1116.29 Q375.761 1116.29 372.683 1111.7 Q369.627 1107.1 369.627 1098.37 Q369.627 1089.62 372.683 1085.04 Q375.761 1080.43 381.571 1080.43 Z" fill="#000000" fill-rule="nonzero" fill-opacity="1" /><path clip-path="url(#clip660)" d="M979.001 1111.68 L986.639 1111.68 L986.639 1085.31 L978.329 1086.98 L978.329 1082.72 L986.593 1081.05 L991.269 1081.05 L991.269 1111.68 L998.908 1111.68 L998.908 1115.61 L979.001 1115.61 L979.001 1111.68 Z" fill="#000000" fill-rule="nonzero" fill-opacity="1" /><path clip-path="url(#clip660)" d="M1008.35 1109.73 L1013.24 1109.73 L1013.24 1115.61 L1008.35 1115.61 L1008.35 1109.73 Z" fill="#000000" fill-rule="nonzero" fill-opacity="1" /><path clip-path="url(#clip660)" d="M1027.45 1111.68 L1043.77 1111.68 L1043.77 1115.61 L1021.82 1115.61 L1021.82 1111.68 Q1024.49 1108.92 1029.07 1104.29 Q1033.68 1099.64 1034.86 1098.3 Q1037.1 1095.78 1037.98 1094.04 Q1038.88 1092.28 1038.88 1090.59 Q1038.88 1087.84 1036.94 1086.1 Q1035.02 1084.36 1031.92 1084.36 Q1029.72 1084.36 1027.26 1085.13 Q1024.83 1085.89 1022.06 1087.44 L1022.06 1082.72 Q1024.88 1081.59 1027.33 1081.01 Q1029.79 1080.43 1031.82 1080.43 Q1037.19 1080.43 1040.39 1083.11 Q1043.58 1085.8 1043.58 1090.29 Q1043.58 1092.42 1042.77 1094.34 Q1041.99 1096.24 1039.88 1098.83 Q1039.3 1099.5 1036.2 1102.72 Q1033.1 1105.91 1027.45 1111.68 Z" fill="#000000" fill-rule="nonzero" fill-opacity="1" /><path clip-path="url(#clip660)" d="M1053.63 1081.05 L1071.99 1081.05 L1071.99 1084.99 L1057.91 1084.99 L1057.91 1093.46 Q1058.93 1093.11 1059.95 1092.95 Q1060.97 1092.77 1061.99 1092.77 Q1067.77 1092.77 1071.15 1095.94 Q1074.53 1099.11 1074.53 1104.53 Q1074.53 1110.1 1071.06 1113.21 Q1067.59 1116.29 1061.27 1116.29 Q1059.09 1116.29 1056.82 1115.91 Q1054.58 1115.54 1052.17 1114.8 L1052.17 1110.1 Q1054.25 1111.24 1056.48 1111.79 Q1058.7 1112.35 1061.18 1112.35 Q1065.18 1112.35 1067.52 1110.24 Q1069.86 1108.14 1069.86 1104.53 Q1069.86 1100.91 1067.52 1098.81 Q1065.18 1096.7 1061.18 1096.7 Q1059.3 1096.7 1057.43 1097.12 Q1055.57 1097.54 1053.63 1098.41 L1053.63 1081.05 Z" fill="#000000" fill-rule="nonzero" fill-opacity="1" /><path clip-path="url(#clip660)" d="M1660.02 1111.68 L1667.66 1111.68 L1667.66 1085.31 L1659.35 1086.98 L1659.35 1082.72 L1667.61 1081.05 L1672.29 1081.05 L1672.29 1111.68 L1679.92 1111.68 L1679.92 1115.61 L1660.02 1115.61 L1660.02 1111.68 Z" fill="#000000" fill-rule="nonzero" fill-opacity="1" /><path clip-path="url(#clip660)" d="M1689.37 1109.73 L1694.25 1109.73 L1694.25 1115.61 L1689.37 1115.61 L1689.37 1109.73 Z" fill="#000000" fill-rule="nonzero" fill-opacity="1" /><path clip-path="url(#clip660)" d="M1704.48 1081.05 L1722.84 1081.05 L1722.84 1084.99 L1708.77 1084.99 L1708.77 1093.46 Q1709.79 1093.11 1710.8 1092.95 Q1711.82 1092.77 1712.84 1092.77 Q1718.63 1092.77 1722.01 1095.94 Q1725.39 1099.11 1725.39 1104.53 Q1725.39 1110.1 1721.92 1113.21 Q1718.44 1116.29 1712.12 1116.29 Q1709.95 1116.29 1707.68 1115.91 Q1705.43 1115.54 1703.03 1114.8 L1703.03 1110.1 Q1705.11 1111.24 1707.33 1111.79 Q1709.55 1112.35 1712.03 1112.35 Q1716.04 1112.35 1718.37 1110.24 Q1720.71 1108.14 1720.71 1104.53 Q1720.71 1100.91 1718.37 1098.81 Q1716.04 1096.7 1712.03 1096.7 Q1710.16 1096.7 1708.28 1097.12 Q1706.43 1097.54 1704.48 1098.41 L1704.48 1081.05 Z" fill="#000000" fill-rule="nonzero" fill-opacity="1" /><path clip-path="url(#clip660)" d="M1744.6 1084.13 Q1740.99 1084.13 1739.16 1087.7 Q1737.35 1091.24 1737.35 1098.37 Q1737.35 1105.48 1739.16 1109.04 Q1740.99 1112.58 1744.6 1112.58 Q1748.23 1112.58 1750.04 1109.04 Q1751.87 1105.48 1751.87 1098.37 Q1751.87 1091.24 1750.04 1087.7 Q1748.23 1084.13 1744.6 1084.13 M1744.6 1080.43 Q1750.41 1080.43 1753.47 1085.04 Q1756.54 1089.62 1756.54 1098.37 Q1756.54 1107.1 1753.47 1111.7 Q1750.41 1116.29 1744.6 1116.29 Q1738.79 1116.29 1735.71 1111.7 Q1732.66 1107.1 1732.66 1098.37 Q1732.66 1089.62 1735.71 1085.04 Q1738.79 1080.43 1744.6 1080.43 Z" fill="#000000" fill-rule="nonzero" fill-opacity="1" /><path clip-path="url(#clip660)" d="M2342.03 1111.68 L2349.67 1111.68 L2349.67 1085.31 L2341.36 1086.98 L2341.36 1082.72 L2349.62 1081.05 L2354.3 1081.05 L2354.3 1111.68 L2361.94 1111.68 L2361.94 1115.61 L2342.03 1115.61 L2342.03 1111.68 Z" fill="#000000" fill-rule="nonzero" fill-opacity="1" /><path clip-path="url(#clip660)" d="M2371.38 1109.73 L2376.27 1109.73 L2376.27 1115.61 L2371.38 1115.61 L2371.38 1109.73 Z" fill="#000000" fill-rule="nonzero" fill-opacity="1" /><path clip-path="url(#clip660)" d="M2385.27 1081.05 L2407.49 1081.05 L2407.49 1083.04 L2394.95 1115.61 L2390.06 1115.61 L2401.87 1084.99 L2385.27 1084.99 L2385.27 1081.05 Z" fill="#000000" fill-rule="nonzero" fill-opacity="1" /><path clip-path="url(#clip660)" d="M2416.66 1081.05 L2435.02 1081.05 L2435.02 1084.99 L2420.94 1084.99 L2420.94 1093.46 Q2421.96 1093.11 2422.98 1092.95 Q2424 1092.77 2425.02 1092.77 Q2430.8 1092.77 2434.18 1095.94 Q2437.56 1099.11 2437.56 1104.53 Q2437.56 1110.1 2434.09 1113.21 Q2430.62 1116.29 2424.3 1116.29 Q2422.12 1116.29 2419.85 1115.91 Q2417.61 1115.54 2415.2 1114.8 L2415.2 1110.1 Q2417.28 1111.24 2419.51 1111.79 Q2421.73 1112.35 2424.2 1112.35 Q2428.21 1112.35 2430.55 1110.24 Q2432.89 1108.14 2432.89 1104.53 Q2432.89 1100.91 2430.55 1098.81 Q2428.21 1096.7 2424.2 1096.7 Q2422.33 1096.7 2420.45 1097.12 Q2418.6 1097.54 2416.66 1098.41 L2416.66 1081.05 Z" fill="#000000" fill-rule="nonzero" fill-opacity="1" /><path clip-path="url(#clip660)" d="M3027.13 1111.68 L3043.45 1111.68 L3043.45 1115.61 L3021.51 1115.61 L3021.51 1111.68 Q3024.17 1108.92 3028.75 1104.29 Q3033.36 1099.64 3034.54 1098.3 Q3036.78 1095.78 3037.66 1094.04 Q3038.57 1092.28 3038.57 1090.59 Q3038.57 1087.84 3036.62 1086.1 Q3034.7 1084.36 3031.6 1084.36 Q3029.4 1084.36 3026.95 1085.13 Q3024.52 1085.89 3021.74 1087.44 L3021.74 1082.72 Q3024.56 1081.59 3027.02 1081.01 Q3029.47 1080.43 3031.51 1080.43 Q3036.88 1080.43 3040.07 1083.11 Q3043.27 1085.8 3043.27 1090.29 Q3043.27 1092.42 3042.46 1094.34 Q3041.67 1096.24 3039.56 1098.83 Q3038.98 1099.5 3035.88 1102.72 Q3032.78 1105.91 3027.13 1111.68 Z" fill="#000000" fill-rule="nonzero" fill-opacity="1" /><path clip-path="url(#clip660)" d="M3053.27 1109.73 L3058.15 1109.73 L3058.15 1115.61 L3053.27 1115.61 L3053.27 1109.73 Z" fill="#000000" fill-rule="nonzero" fill-opacity="1" /><path clip-path="url(#clip660)" d="M3078.34 1084.13 Q3074.72 1084.13 3072.9 1087.7 Q3071.09 1091.24 3071.09 1098.37 Q3071.09 1105.48 3072.9 1109.04 Q3074.72 1112.58 3078.34 1112.58 Q3081.97 1112.58 3083.78 1109.04 Q3085.6 1105.48 3085.6 1098.37 Q3085.6 1091.24 3083.78 1087.7 Q3081.97 1084.13 3078.34 1084.13 M3078.34 1080.43 Q3084.15 1080.43 3087.2 1085.04 Q3090.28 1089.62 3090.28 1098.37 Q3090.28 1107.1 3087.2 1111.7 Q3084.15 1116.29 3078.34 1116.29 Q3072.53 1116.29 3069.45 1111.7 Q3066.39 1107.1 3066.39 1098.37 Q3066.39 1089.62 3069.45 1085.04 Q3072.53 1080.43 3078.34 1080.43 Z" fill="#000000" fill-rule="nonzero" fill-opacity="1" /><path clip-path="url(#clip660)" d="M3108.5 1084.13 Q3104.89 1084.13 3103.06 1087.7 Q3101.25 1091.24 3101.25 1098.37 Q3101.25 1105.48 3103.06 1109.04 Q3104.89 1112.58 3108.5 1112.58 Q3112.13 1112.58 3113.94 1109.04 Q3115.77 1105.48 3115.77 1098.37 Q3115.77 1091.24 3113.94 1087.7 Q3112.13 1084.13 3108.5 1084.13 M3108.5 1080.43 Q3114.31 1080.43 3117.36 1085.04 Q3120.44 1089.62 3120.44 1098.37 Q3120.44 1107.1 3117.36 1111.7 Q3114.31 1116.29 3108.5 1116.29 Q3102.69 1116.29 3099.61 1111.7 Q3096.55 1107.1 3096.55 1098.37 Q3096.55 1089.62 3099.61 1085.04 Q3102.69 1080.43 3108.5 1080.43 Z" fill="#000000" fill-rule="nonzero" fill-opacity="1" /><path clip-path="url(#clip660)" d="M1521.67 1156.16 L1548.98 1156.16 L1548.98 1161.57 L1528.1 1161.57 L1528.1 1175.57 L1546.94 1175.57 L1546.94 1180.98 L1528.1 1180.98 L1528.1 1203.68 L1521.67 1203.68 L1521.67 1156.16 Z" fill="#000000" fill-rule="nonzero" fill-opacity="1" /><path clip-path="url(#clip660)" d="M1554.17 1168.03 L1560.02 1168.03 L1560.02 1203.68 L1554.17 1203.68 L1554.17 1168.03 M1554.17 1154.15 L1560.02 1154.15 L1560.02 1161.57 L1554.17 1161.57 L1554.17 1154.15 Z" fill="#000000" fill-rule="nonzero" fill-opacity="1" /><path clip-path="url(#clip660)" d="M1601.91 1182.16 L1601.91 1203.68 L1596.05 1203.68 L1596.05 1182.35 Q1596.05 1177.29 1594.08 1174.78 Q1592.11 1172.26 1588.16 1172.26 Q1583.42 1172.26 1580.68 1175.29 Q1577.94 1178.31 1577.94 1183.53 L1577.94 1203.68 L1572.05 1203.68 L1572.05 1168.03 L1577.94 1168.03 L1577.94 1173.57 Q1580.04 1170.35 1582.88 1168.76 Q1585.74 1167.17 1589.46 1167.17 Q1595.61 1167.17 1598.76 1170.99 Q1601.91 1174.78 1601.91 1182.16 Z" fill="#000000" fill-rule="nonzero" fill-opacity="1" /><path clip-path="url(#clip660)" d="M1629.79 1185.76 Q1622.69 1185.76 1619.96 1187.38 Q1617.22 1189 1617.22 1192.92 Q1617.22 1196.04 1619.26 1197.89 Q1621.32 1199.7 1624.86 1199.7 Q1629.73 1199.7 1632.65 1196.26 Q1635.62 1192.79 1635.62 1187.06 L1635.62 1185.76 L1629.79 1185.76 M1641.47 1183.34 L1641.47 1203.68 L1635.62 1203.68 L1635.62 1198.27 Q1633.61 1201.51 1630.62 1203.07 Q1627.63 1204.6 1623.3 1204.6 Q1617.82 1204.6 1614.58 1201.55 Q1611.36 1198.46 1611.36 1193.3 Q1611.36 1187.29 1615.37 1184.23 Q1619.41 1181.18 1627.4 1181.18 L1635.62 1181.18 L1635.62 1180.6 Q1635.62 1176.56 1632.94 1174.36 Q1630.3 1172.14 1625.49 1172.14 Q1622.44 1172.14 1619.54 1172.87 Q1616.65 1173.6 1613.97 1175.06 L1613.97 1169.65 Q1617.19 1168.41 1620.21 1167.81 Q1623.23 1167.17 1626.1 1167.17 Q1633.83 1167.17 1637.65 1171.18 Q1641.47 1175.19 1641.47 1183.34 Z" fill="#000000" fill-rule="nonzero" fill-opacity="1" /><path clip-path="url(#clip660)" d="M1653.53 1154.15 L1659.39 1154.15 L1659.39 1203.68 L1653.53 1203.68 L1653.53 1154.15 Z" fill="#000000" fill-rule="nonzero" fill-opacity="1" /><path clip-path="url(#clip660)" d="M1698.16 1157.91 L1698.16 1168.03 L1710.22 1168.03 L1710.22 1172.58 L1698.16 1172.58 L1698.16 1191.93 Q1698.16 1196.29 1699.34 1197.53 Q1700.55 1198.78 1704.21 1198.78 L1710.22 1198.78 L1710.22 1203.68 L1704.21 1203.68 Q1697.43 1203.68 1694.85 1201.16 Q1692.27 1198.62 1692.27 1191.93 L1692.27 1172.58 L1687.97 1172.58 L1687.97 1168.03 L1692.27 1168.03 L1692.27 1157.91 L1698.16 1157.91 Z" fill="#000000" fill-rule="nonzero" fill-opacity="1" /><path clip-path="url(#clip660)" d="M1717.92 1168.03 L1723.78 1168.03 L1723.78 1203.68 L1717.92 1203.68 L1717.92 1168.03 M1717.92 1154.15 L1723.78 1154.15 L1723.78 1161.57 L1717.92 1161.57 L1717.92 1154.15 Z" fill="#000000" fill-rule="nonzero" fill-opacity="1" /><path clip-path="url(#clip660)" d="M1763.79 1174.87 Q1765.98 1170.93 1769.04 1169.05 Q1772.1 1167.17 1776.23 1167.17 Q1781.8 1167.17 1784.83 1171.09 Q1787.85 1174.97 1787.85 1182.16 L1787.85 1203.68 L1781.96 1203.68 L1781.96 1182.35 Q1781.96 1177.23 1780.15 1174.75 Q1778.33 1172.26 1774.61 1172.26 Q1770.06 1172.26 1767.42 1175.29 Q1764.78 1178.31 1764.78 1183.53 L1764.78 1203.68 L1758.89 1203.68 L1758.89 1182.35 Q1758.89 1177.2 1757.07 1174.75 Q1755.26 1172.26 1751.47 1172.26 Q1746.98 1172.26 1744.34 1175.32 Q1741.7 1178.34 1741.7 1183.53 L1741.7 1203.68 L1735.81 1203.68 L1735.81 1168.03 L1741.7 1168.03 L1741.7 1173.57 Q1743.7 1170.29 1746.51 1168.73 Q1749.31 1167.17 1753.16 1167.17 Q1757.04 1167.17 1759.75 1169.14 Q1762.48 1171.12 1763.79 1174.87 Z" fill="#000000" fill-rule="nonzero" fill-opacity="1" /><path clip-path="url(#clip660)" d="M1830.02 1184.39 L1830.02 1187.25 L1803.1 1187.25 Q1803.48 1193.3 1806.73 1196.48 Q1810 1199.64 1815.83 1199.64 Q1819.2 1199.64 1822.35 1198.81 Q1825.54 1197.98 1828.66 1196.33 L1828.66 1201.86 Q1825.5 1203.2 1822.19 1203.9 Q1818.88 1204.6 1815.48 1204.6 Q1806.95 1204.6 1801.95 1199.64 Q1796.99 1194.67 1796.99 1186.2 Q1796.99 1177.45 1801.7 1172.33 Q1806.44 1167.17 1814.46 1167.17 Q1821.65 1167.17 1825.82 1171.82 Q1830.02 1176.43 1830.02 1184.39 M1824.17 1182.67 Q1824.1 1177.86 1821.46 1175 Q1818.85 1172.14 1814.52 1172.14 Q1809.62 1172.14 1806.66 1174.9 Q1803.73 1177.67 1803.29 1182.7 L1824.17 1182.67 Z" fill="#000000" fill-rule="nonzero" fill-opacity="1" /><path clip-path="url(#clip660)" d="M1854.02 1156.16 L1894.22 1156.16 L1894.22 1161.57 L1877.35 1161.57 L1877.35 1203.68 L1870.89 1203.68 L1870.89 1161.57 L1854.02 1161.57 L1854.02 1156.16 Z" fill="#000000" fill-rule="nonzero" fill-opacity="1" /><polyline clip-path="url(#clip660)" style="stroke:#000000; stroke-linecap:round; stroke-linejoin:round; stroke-width:4; stroke-opacity:1; fill:none" points="263.135,1046.81 263.135,131.032 "/>
<polyline clip-path="url(#clip660)" style="stroke:#000000; stroke-linecap:round; stroke-linejoin:round; stroke-width:4; stroke-opacity:1; fill:none" points="263.135,938.62 282.032,938.62 "/>
<polyline clip-path="url(#clip660)" style="stroke:#000000; stroke-linecap:round; stroke-linejoin:round; stroke-width:4; stroke-opacity:1; fill:none" points="263.135,732.924 282.032,732.924 "/>
<polyline clip-path="url(#clip660)" style="stroke:#000000; stroke-linecap:round; stroke-linejoin:round; stroke-width:4; stroke-opacity:1; fill:none" points="263.135,527.228 282.032,527.228 "/>
<polyline clip-path="url(#clip660)" style="stroke:#000000; stroke-linecap:round; stroke-linejoin:round; stroke-width:4; stroke-opacity:1; fill:none" points="263.135,321.532 282.032,321.532 "/>
<path clip-path="url(#clip660)" d="M152.982 951.965 L169.302 951.965 L169.302 955.9 L147.357 955.9 L147.357 951.965 Q150.019 949.21 154.603 944.581 Q159.209 939.928 160.39 938.585 Q162.635 936.062 163.515 934.326 Q164.417 932.567 164.417 930.877 Q164.417 928.123 162.473 926.386 Q160.552 924.65 157.45 924.65 Q155.251 924.65 152.797 925.414 Q150.367 926.178 147.589 927.729 L147.589 923.007 Q150.413 921.873 152.867 921.294 Q155.32 920.715 157.357 920.715 Q162.728 920.715 165.922 923.4 Q169.117 926.086 169.117 930.576 Q169.117 932.706 168.306 934.627 Q167.519 936.525 165.413 939.118 Q164.834 939.789 161.732 943.007 Q158.63 946.201 152.982 951.965 Z" fill="#000000" fill-rule="nonzero" fill-opacity="1" /><path clip-path="url(#clip660)" d="M179.116 950.021 L184.001 950.021 L184.001 955.9 L179.116 955.9 L179.116 950.021 Z" fill="#000000" fill-rule="nonzero" fill-opacity="1" /><path clip-path="url(#clip660)" d="M194.232 921.34 L212.589 921.34 L212.589 925.275 L198.515 925.275 L198.515 933.748 Q199.533 933.4 200.552 933.238 Q201.57 933.053 202.589 933.053 Q208.376 933.053 211.755 936.224 Q215.135 939.396 215.135 944.812 Q215.135 950.391 211.663 953.493 Q208.19 956.571 201.871 956.571 Q199.695 956.571 197.427 956.201 Q195.181 955.831 192.774 955.09 L192.774 950.391 Q194.857 951.525 197.079 952.081 Q199.302 952.636 201.778 952.636 Q205.783 952.636 208.121 950.53 Q210.459 948.423 210.459 944.812 Q210.459 941.201 208.121 939.095 Q205.783 936.988 201.778 936.988 Q199.903 936.988 198.028 937.405 Q196.177 937.822 194.232 938.701 L194.232 921.34 Z" fill="#000000" fill-rule="nonzero" fill-opacity="1" /><path clip-path="url(#clip660)" d="M148.006 715.644 L166.362 715.644 L166.362 719.579 L152.288 719.579 L152.288 728.051 Q153.306 727.704 154.325 727.542 Q155.343 727.357 156.362 727.357 Q162.149 727.357 165.529 730.528 Q168.908 733.7 168.908 739.116 Q168.908 744.695 165.436 747.797 Q161.964 750.875 155.644 750.875 Q153.468 750.875 151.2 750.505 Q148.955 750.135 146.547 749.394 L146.547 744.695 Q148.631 745.829 150.853 746.385 Q153.075 746.94 155.552 746.94 Q159.556 746.94 161.894 744.834 Q164.232 742.727 164.232 739.116 Q164.232 735.505 161.894 733.399 Q159.556 731.292 155.552 731.292 Q153.677 731.292 151.802 731.709 Q149.95 732.126 148.006 733.005 L148.006 715.644 Z" fill="#000000" fill-rule="nonzero" fill-opacity="1" /><path clip-path="url(#clip660)" d="M178.121 744.325 L183.005 744.325 L183.005 750.204 L178.121 750.204 L178.121 744.325 Z" fill="#000000" fill-rule="nonzero" fill-opacity="1" /><path clip-path="url(#clip660)" d="M203.19 718.723 Q199.579 718.723 197.751 722.288 Q195.945 725.829 195.945 732.959 Q195.945 740.065 197.751 743.63 Q199.579 747.172 203.19 747.172 Q206.825 747.172 208.63 743.63 Q210.459 740.065 210.459 732.959 Q210.459 725.829 208.63 722.288 Q206.825 718.723 203.19 718.723 M203.19 715.019 Q209.001 715.019 212.056 719.626 Q215.135 724.209 215.135 732.959 Q215.135 741.686 212.056 746.292 Q209.001 750.875 203.19 750.875 Q197.38 750.875 194.302 746.292 Q191.246 741.686 191.246 732.959 Q191.246 724.209 194.302 719.626 Q197.38 715.019 203.19 715.019 Z" fill="#000000" fill-rule="nonzero" fill-opacity="1" /><path clip-path="url(#clip660)" d="M147.774 509.948 L169.996 509.948 L169.996 511.939 L157.45 544.508 L152.566 544.508 L164.371 513.883 L147.774 513.883 L147.774 509.948 Z" fill="#000000" fill-rule="nonzero" fill-opacity="1" /><path clip-path="url(#clip660)" d="M179.116 538.628 L184.001 538.628 L184.001 544.508 L179.116 544.508 L179.116 538.628 Z" fill="#000000" fill-rule="nonzero" fill-opacity="1" /><path clip-path="url(#clip660)" d="M194.232 509.948 L212.589 509.948 L212.589 513.883 L198.515 513.883 L198.515 522.355 Q199.533 522.008 200.552 521.846 Q201.57 521.661 202.589 521.661 Q208.376 521.661 211.755 524.832 Q215.135 528.004 215.135 533.42 Q215.135 538.999 211.663 542.101 Q208.19 545.179 201.871 545.179 Q199.695 545.179 197.427 544.809 Q195.181 544.439 192.774 543.698 L192.774 538.999 Q194.857 540.133 197.079 540.689 Q199.302 541.244 201.778 541.244 Q205.783 541.244 208.121 539.138 Q210.459 537.031 210.459 533.42 Q210.459 529.809 208.121 527.703 Q205.783 525.596 201.778 525.596 Q199.903 525.596 198.028 526.013 Q196.177 526.429 194.232 527.309 L194.232 509.948 Z" fill="#000000" fill-rule="nonzero" fill-opacity="1" /><path clip-path="url(#clip660)" d="M118.608 334.877 L126.246 334.877 L126.246 308.511 L117.936 310.178 L117.936 305.919 L126.2 304.252 L130.876 304.252 L130.876 334.877 L138.515 334.877 L138.515 338.812 L118.608 338.812 L118.608 334.877 Z" fill="#000000" fill-rule="nonzero" fill-opacity="1" /><path clip-path="url(#clip660)" d="M157.959 307.331 Q154.348 307.331 152.519 310.895 Q150.714 314.437 150.714 321.567 Q150.714 328.673 152.519 332.238 Q154.348 335.78 157.959 335.78 Q161.593 335.78 163.399 332.238 Q165.228 328.673 165.228 321.567 Q165.228 314.437 163.399 310.895 Q161.593 307.331 157.959 307.331 M157.959 303.627 Q163.769 303.627 166.825 308.233 Q169.904 312.817 169.904 321.567 Q169.904 330.294 166.825 334.9 Q163.769 339.483 157.959 339.483 Q152.149 339.483 149.07 334.9 Q146.015 330.294 146.015 321.567 Q146.015 312.817 149.07 308.233 Q152.149 303.627 157.959 303.627 Z" fill="#000000" fill-rule="nonzero" fill-opacity="1" /><path clip-path="url(#clip660)" d="M178.121 332.932 L183.005 332.932 L183.005 338.812 L178.121 338.812 L178.121 332.932 Z" fill="#000000" fill-rule="nonzero" fill-opacity="1" /><path clip-path="url(#clip660)" d="M203.19 307.331 Q199.579 307.331 197.751 310.895 Q195.945 314.437 195.945 321.567 Q195.945 328.673 197.751 332.238 Q199.579 335.78 203.19 335.78 Q206.825 335.78 208.63 332.238 Q210.459 328.673 210.459 321.567 Q210.459 314.437 208.63 310.895 Q206.825 307.331 203.19 307.331 M203.19 303.627 Q209.001 303.627 212.056 308.233 Q215.135 312.817 215.135 321.567 Q215.135 330.294 212.056 334.9 Q209.001 339.483 203.19 339.483 Q197.38 339.483 194.302 334.9 Q191.246 330.294 191.246 321.567 Q191.246 312.817 194.302 308.233 Q197.38 303.627 203.19 303.627 Z" fill="#000000" fill-rule="nonzero" fill-opacity="1" /><path clip-path="url(#clip660)" d="M15.8946 707.373 Q10.5792 707.118 8.47854 704.54 Q6.34603 701.962 6.34603 699.575 Q6.34603 697.156 8.35123 695.151 Q10.3246 693.146 14.7806 692.509 L15.258 697.22 Q11.1203 697.761 11.1203 699.575 Q11.1203 701.835 16.6903 702.089 L59.9771 704.158 Q65.2925 704.413 67.3932 706.991 Q69.5257 709.569 69.5257 711.988 Q69.5257 714.375 67.5205 716.38 Q65.5471 718.386 61.0911 719.022 L60.6137 714.311 Q64.7514 713.77 64.7514 711.956 Q64.7514 709.696 59.1814 709.442 L15.8946 707.373 Z" fill="#000000" fill-rule="nonzero" fill-opacity="1" /><path clip-path="url(#clip660)" d="M41.612 683.247 L20.0323 683.247 L20.0323 677.39 L41.3892 677.39 Q46.45 677.39 48.9963 675.417 Q51.5107 673.444 51.5107 669.497 Q51.5107 664.754 48.487 662.017 Q45.4633 659.248 40.2434 659.248 L20.0323 659.248 L20.0323 653.392 L55.6803 653.392 L55.6803 659.248 L50.2058 659.248 Q53.4523 661.381 55.0437 664.213 Q56.6033 667.014 56.6033 670.738 Q56.6033 676.881 52.7839 680.064 Q48.9644 683.247 41.612 683.247 M19.1729 668.51 L19.1729 668.51 Z" fill="#000000" fill-rule="nonzero" fill-opacity="1" /><path clip-path="url(#clip660)" d="M6.21872 627.26 Q13.5393 631.525 20.7007 633.594 Q27.8621 635.663 35.2145 635.663 Q42.5669 635.663 49.792 633.594 Q56.9852 631.494 64.274 627.26 L64.274 632.353 Q56.7943 637.127 49.5692 639.514 Q42.3441 641.87 35.2145 641.87 Q28.1167 641.87 20.9235 639.514 Q13.7303 637.159 6.21872 632.353 L6.21872 627.26 Z" fill="#000000" fill-rule="nonzero" fill-opacity="1" /><path clip-path="url(#clip660)" d="M9.91083 610.105 L20.0323 610.105 L20.0323 598.042 L24.5838 598.042 L24.5838 610.105 L43.9355 610.105 Q48.296 610.105 49.5374 608.927 Q50.7787 607.718 50.7787 604.057 L50.7787 598.042 L55.6803 598.042 L55.6803 604.057 Q55.6803 610.837 53.1658 613.415 Q50.6195 615.993 43.9355 615.993 L24.5838 615.993 L24.5838 620.29 L20.0323 620.29 L20.0323 615.993 L9.91083 615.993 L9.91083 610.105 Z" fill="#000000" fill-rule="nonzero" fill-opacity="1" /><path clip-path="url(#clip660)" d="M6.21872 591.262 L6.21872 586.17 Q13.7303 581.396 20.9235 579.04 Q28.1167 576.653 35.2145 576.653 Q42.3441 576.653 49.5692 579.04 Q56.7943 581.396 64.274 586.17 L64.274 591.262 Q56.9852 587.029 49.792 584.96 Q42.5669 582.86 35.2145 582.86 Q27.8621 582.86 20.7007 584.96 Q13.5393 587.029 6.21872 591.262 Z" fill="#000000" fill-rule="nonzero" fill-opacity="1" /><path clip-path="url(#clip660)" d="M30.7903 562.521 L30.7903 549.026 L34.4188 549.026 L34.4188 568.059 L30.9177 568.059 Q29.931 566.977 28.1486 564.972 Q18.4409 554.023 15.449 554.023 Q13.3483 554.023 12.0752 555.678 Q10.7702 557.333 10.7702 560.039 Q10.7702 561.694 11.3431 563.635 Q11.8842 565.577 12.9982 567.868 L9.08329 567.868 Q8.19209 565.418 7.74649 563.317 Q7.30089 561.184 7.30089 559.37 Q7.30089 554.755 9.40157 551.986 Q11.5023 549.217 14.9397 549.217 Q19.3639 549.217 28.4032 559.752 Q29.931 561.535 30.7903 562.521 Z" fill="#000000" fill-rule="nonzero" fill-opacity="1" /><path clip-path="url(#clip660)" d="M25.4432 494.599 L6.15506 494.599 L6.15506 488.743 L55.6803 488.743 L55.6803 494.599 L50.3331 494.599 Q53.5159 496.445 55.0755 499.278 Q56.6033 502.079 56.6033 506.026 Q56.6033 512.487 51.4471 516.561 Q46.2908 520.603 37.8881 520.603 Q29.4854 520.603 24.3292 516.561 Q19.1729 512.487 19.1729 506.026 Q19.1729 502.079 20.7325 499.278 Q22.2603 496.445 25.4432 494.599 M37.8881 514.556 Q44.3493 514.556 48.0414 511.914 Q51.7017 509.24 51.7017 504.593 Q51.7017 499.946 48.0414 497.273 Q44.3493 494.599 37.8881 494.599 Q31.4269 494.599 27.7666 497.273 Q24.0745 499.946 24.0745 504.593 Q24.0745 509.24 27.7666 511.914 Q31.4269 514.556 37.8881 514.556 Z" fill="#000000" fill-rule="nonzero" fill-opacity="1" /><path clip-path="url(#clip660)" d="M9.91083 470.887 L20.0323 470.887 L20.0323 458.824 L24.5838 458.824 L24.5838 470.887 L43.9355 470.887 Q48.296 470.887 49.5374 469.709 Q50.7787 468.5 50.7787 464.839 L50.7787 458.824 L55.6803 458.824 L55.6803 464.839 Q55.6803 471.619 53.1658 474.197 Q50.6195 476.775 43.9355 476.775 L24.5838 476.775 L24.5838 481.072 L20.0323 481.072 L20.0323 476.775 L9.91083 476.775 L9.91083 470.887 Z" fill="#000000" fill-rule="nonzero" fill-opacity="1" /><path clip-path="url(#clip660)" d="M1352.92 18.8205 L1352.92 65.8515 L1362.81 65.8515 Q1375.33 65.8515 1381.12 60.1802 Q1386.95 54.509 1386.95 42.2752 Q1386.95 30.1225 1381.12 24.4918 Q1375.33 18.8205 1362.81 18.8205 L1352.92 18.8205 M1344.74 12.096 L1361.55 12.096 Q1379.13 12.096 1387.36 19.4281 Q1395.58 26.7198 1395.58 42.2752 Q1395.58 57.9117 1387.32 65.2439 Q1379.05 72.576 1361.55 72.576 L1344.74 72.576 L1344.74 12.096 Z" fill="#000000" fill-rule="nonzero" fill-opacity="1" /><path clip-path="url(#clip660)" d="M1425.88 32.4315 Q1419.89 32.4315 1416.4 37.1306 Q1412.92 41.7891 1412.92 49.9314 Q1412.92 58.0738 1416.36 62.7728 Q1419.85 67.4314 1425.88 67.4314 Q1431.84 67.4314 1435.32 62.7323 Q1438.8 58.0333 1438.8 49.9314 Q1438.8 41.8701 1435.32 37.1711 Q1431.84 32.4315 1425.88 32.4315 M1425.88 26.1121 Q1435.6 26.1121 1441.15 32.4315 Q1446.7 38.7509 1446.7 49.9314 Q1446.7 61.0714 1441.15 67.4314 Q1435.6 73.7508 1425.88 73.7508 Q1416.12 73.7508 1410.57 67.4314 Q1405.06 61.0714 1405.06 49.9314 Q1405.06 38.7509 1410.57 32.4315 Q1416.12 26.1121 1425.88 26.1121 Z" fill="#000000" fill-rule="nonzero" fill-opacity="1" /><path clip-path="url(#clip660)" d="M1458.29 54.671 L1458.29 27.2059 L1465.74 27.2059 L1465.74 54.3874 Q1465.74 60.8284 1468.25 64.0691 Q1470.76 67.2693 1475.79 67.2693 Q1481.82 67.2693 1485.31 63.421 Q1488.83 59.5726 1488.83 52.9291 L1488.83 27.2059 L1496.29 27.2059 L1496.29 72.576 L1488.83 72.576 L1488.83 65.6084 Q1486.12 69.7404 1482.51 71.7658 Q1478.95 73.7508 1474.21 73.7508 Q1466.39 73.7508 1462.34 68.8897 Q1458.29 64.0286 1458.29 54.671 M1477.04 26.1121 L1477.04 26.1121 Z" fill="#000000" fill-rule="nonzero" fill-opacity="1" /><path clip-path="url(#clip660)" d="M1544.21 49.9314 Q1544.21 41.7081 1540.81 37.0496 Q1537.44 32.3505 1531.53 32.3505 Q1525.61 32.3505 1522.21 37.0496 Q1518.85 41.7081 1518.85 49.9314 Q1518.85 58.1548 1522.21 62.8538 Q1525.61 67.5124 1531.53 67.5124 Q1537.44 67.5124 1540.81 62.8538 Q1544.21 58.1548 1544.21 49.9314 M1518.85 34.0924 Q1521.2 30.0415 1524.76 28.0971 Q1528.37 26.1121 1533.35 26.1121 Q1541.62 26.1121 1546.76 32.6746 Q1551.95 39.2371 1551.95 49.9314 Q1551.95 60.6258 1546.76 67.1883 Q1541.62 73.7508 1533.35 73.7508 Q1528.37 73.7508 1524.76 71.8063 Q1521.2 69.8214 1518.85 65.7705 L1518.85 72.576 L1511.35 72.576 L1511.35 9.54393 L1518.85 9.54393 L1518.85 34.0924 Z" fill="#000000" fill-rule="nonzero" fill-opacity="1" /><path clip-path="url(#clip660)" d="M1564.3 9.54393 L1571.75 9.54393 L1571.75 72.576 L1564.3 72.576 L1564.3 9.54393 Z" fill="#000000" fill-rule="nonzero" fill-opacity="1" /><path clip-path="url(#clip660)" d="M1626.16 48.0275 L1626.16 51.6733 L1591.89 51.6733 Q1592.37 59.3701 1596.5 63.421 Q1600.68 67.4314 1608.09 67.4314 Q1612.38 67.4314 1616.39 66.3781 Q1620.45 65.3249 1624.42 63.2184 L1624.42 70.267 Q1620.41 71.9684 1616.19 72.8596 Q1611.98 73.7508 1607.64 73.7508 Q1596.79 73.7508 1590.43 67.4314 Q1584.11 61.1119 1584.11 50.3365 Q1584.11 39.1965 1590.1 32.6746 Q1596.14 26.1121 1606.35 26.1121 Q1615.5 26.1121 1620.81 32.0264 Q1626.16 37.9003 1626.16 48.0275 M1618.7 45.84 Q1618.62 39.7232 1615.26 36.0774 Q1611.94 32.4315 1606.43 32.4315 Q1600.19 32.4315 1596.42 35.9558 Q1592.7 39.4801 1592.13 45.8805 L1618.7 45.84 Z" fill="#000000" fill-rule="nonzero" fill-opacity="1" /><path clip-path="url(#clip660)" d="M1664.76 27.2059 L1672.22 27.2059 L1672.22 72.576 L1664.76 72.576 L1664.76 27.2059 M1664.76 9.54393 L1672.22 9.54393 L1672.22 18.9825 L1664.76 18.9825 L1664.76 9.54393 Z" fill="#000000" fill-rule="nonzero" fill-opacity="1" /><path clip-path="url(#clip660)" d="M1725.53 45.1919 L1725.53 72.576 L1718.07 72.576 L1718.07 45.4349 Q1718.07 38.994 1715.56 35.7938 Q1713.05 32.5936 1708.03 32.5936 Q1701.99 32.5936 1698.51 36.4419 Q1695.02 40.2903 1695.02 46.9338 L1695.02 72.576 L1687.53 72.576 L1687.53 27.2059 L1695.02 27.2059 L1695.02 34.2544 Q1697.7 30.163 1701.3 28.1376 Q1704.95 26.1121 1709.69 26.1121 Q1717.51 26.1121 1721.52 30.9732 Q1725.53 35.7938 1725.53 45.1919 Z" fill="#000000" fill-rule="nonzero" fill-opacity="1" /><path clip-path="url(#clip660)" d="M1747.77 14.324 L1747.77 27.2059 L1763.12 27.2059 L1763.12 32.9987 L1747.77 32.9987 L1747.77 57.6282 Q1747.77 63.1779 1749.26 64.7578 Q1750.8 66.3376 1755.46 66.3376 L1763.12 66.3376 L1763.12 72.576 L1755.46 72.576 Q1746.83 72.576 1743.55 69.3758 Q1740.27 66.1351 1740.27 57.6282 L1740.27 32.9987 L1734.8 32.9987 L1734.8 27.2059 L1740.27 27.2059 L1740.27 14.324 L1747.77 14.324 Z" fill="#000000" fill-rule="nonzero" fill-opacity="1" /><path clip-path="url(#clip660)" d="M1811.73 48.0275 L1811.73 51.6733 L1777.46 51.6733 Q1777.94 59.3701 1782.08 63.421 Q1786.25 67.4314 1793.66 67.4314 Q1797.96 67.4314 1801.97 66.3781 Q1806.02 65.3249 1809.99 63.2184 L1809.99 70.267 Q1805.98 71.9684 1801.76 72.8596 Q1797.55 73.7508 1793.22 73.7508 Q1782.36 73.7508 1776 67.4314 Q1769.68 61.1119 1769.68 50.3365 Q1769.68 39.1965 1775.68 32.6746 Q1781.71 26.1121 1791.92 26.1121 Q1801.08 26.1121 1806.38 32.0264 Q1811.73 37.9003 1811.73 48.0275 M1804.28 45.84 Q1804.19 39.7232 1800.83 36.0774 Q1797.51 32.4315 1792 32.4315 Q1785.76 32.4315 1782 35.9558 Q1778.27 39.4801 1777.7 45.8805 L1804.28 45.84 Z" fill="#000000" fill-rule="nonzero" fill-opacity="1" /><path clip-path="url(#clip660)" d="M1853.82 49.3643 Q1853.82 41.2625 1850.46 36.8065 Q1847.13 32.3505 1841.1 32.3505 Q1835.1 32.3505 1831.74 36.8065 Q1828.42 41.2625 1828.42 49.3643 Q1828.42 57.4256 1831.74 61.8816 Q1835.1 66.3376 1841.1 66.3376 Q1847.13 66.3376 1850.46 61.8816 Q1853.82 57.4256 1853.82 49.3643 M1861.27 66.9452 Q1861.27 78.5308 1856.13 84.1616 Q1850.98 89.8329 1840.37 89.8329 Q1836.44 89.8329 1832.96 89.2252 Q1829.47 88.6581 1826.19 87.4428 L1826.19 80.1917 Q1829.47 81.9741 1832.67 82.8248 Q1835.87 83.6755 1839.19 83.6755 Q1846.53 83.6755 1850.17 79.8271 Q1853.82 76.0193 1853.82 68.282 L1853.82 64.5957 Q1851.51 68.6061 1847.9 70.5911 Q1844.3 72.576 1839.28 72.576 Q1830.93 72.576 1825.83 66.2161 Q1820.72 59.8562 1820.72 49.3643 Q1820.72 38.832 1825.83 32.472 Q1830.93 26.1121 1839.28 26.1121 Q1844.3 26.1121 1847.9 28.0971 Q1851.51 30.082 1853.82 34.0924 L1853.82 27.2059 L1861.27 27.2059 L1861.27 66.9452 Z" fill="#000000" fill-rule="nonzero" fill-opacity="1" /><path clip-path="url(#clip660)" d="M1902.92 34.1734 Q1901.66 33.4443 1900.16 33.1202 Q1898.7 32.7556 1896.92 32.7556 Q1890.6 32.7556 1887.2 36.8875 Q1883.84 40.9789 1883.84 48.6757 L1883.84 72.576 L1876.34 72.576 L1876.34 27.2059 L1883.84 27.2059 L1883.84 34.2544 Q1886.19 30.1225 1889.95 28.1376 Q1893.72 26.1121 1899.11 26.1121 Q1899.88 26.1121 1900.81 26.2337 Q1901.74 26.3147 1902.87 26.5172 L1902.92 34.1734 Z" fill="#000000" fill-rule="nonzero" fill-opacity="1" /><path clip-path="url(#clip660)" d="M1931.35 49.7694 Q1922.32 49.7694 1918.84 51.8354 Q1915.35 53.9013 1915.35 58.8839 Q1915.35 62.8538 1917.94 65.2034 Q1920.58 67.5124 1925.07 67.5124 Q1931.27 67.5124 1935 63.1374 Q1938.77 58.7219 1938.77 51.4303 L1938.77 49.7694 L1931.35 49.7694 M1946.22 46.6907 L1946.22 72.576 L1938.77 72.576 L1938.77 65.6895 Q1936.21 69.8214 1932.41 71.8063 Q1928.6 73.7508 1923.09 73.7508 Q1916.12 73.7508 1911.99 69.8619 Q1907.9 65.9325 1907.9 59.3701 Q1907.9 51.7138 1913 47.825 Q1918.15 43.9361 1928.31 43.9361 L1938.77 43.9361 L1938.77 43.2069 Q1938.77 38.0623 1935.36 35.2672 Q1932 32.4315 1925.88 32.4315 Q1922 32.4315 1918.31 33.3632 Q1914.62 34.295 1911.22 36.1584 L1911.22 29.2718 Q1915.31 27.692 1919.16 26.9223 Q1923.01 26.1121 1926.65 26.1121 Q1936.5 26.1121 1941.36 31.2163 Q1946.22 36.3204 1946.22 46.6907 Z" fill="#000000" fill-rule="nonzero" fill-opacity="1" /><path clip-path="url(#clip660)" d="M1968.95 14.324 L1968.95 27.2059 L1984.3 27.2059 L1984.3 32.9987 L1968.95 32.9987 L1968.95 57.6282 Q1968.95 63.1779 1970.44 64.7578 Q1971.98 66.3376 1976.64 66.3376 L1984.3 66.3376 L1984.3 72.576 L1976.64 72.576 Q1968.01 72.576 1964.73 69.3758 Q1961.45 66.1351 1961.45 57.6282 L1961.45 32.9987 L1955.98 32.9987 L1955.98 27.2059 L1961.45 27.2059 L1961.45 14.324 L1968.95 14.324 Z" fill="#000000" fill-rule="nonzero" fill-opacity="1" /><path clip-path="url(#clip660)" d="M2011.68 32.4315 Q2005.69 32.4315 2002.2 37.1306 Q1998.72 41.7891 1998.72 49.9314 Q1998.72 58.0738 2002.16 62.7728 Q2005.65 67.4314 2011.68 67.4314 Q2017.64 67.4314 2021.12 62.7323 Q2024.6 58.0333 2024.6 49.9314 Q2024.6 41.8701 2021.12 37.1711 Q2017.64 32.4315 2011.68 32.4315 M2011.68 26.1121 Q2021.4 26.1121 2026.95 32.4315 Q2032.5 38.7509 2032.5 49.9314 Q2032.5 61.0714 2026.95 67.4314 Q2021.4 73.7508 2011.68 73.7508 Q2001.92 73.7508 1996.37 67.4314 Q1990.86 61.0714 1990.86 49.9314 Q1990.86 38.7509 1996.37 32.4315 Q2001.92 26.1121 2011.68 26.1121 Z" fill="#000000" fill-rule="nonzero" fill-opacity="1" /><path clip-path="url(#clip660)" d="M2071.15 34.1734 Q2069.89 33.4443 2068.39 33.1202 Q2066.94 32.7556 2065.15 32.7556 Q2058.83 32.7556 2055.43 36.8875 Q2052.07 40.9789 2052.07 48.6757 L2052.07 72.576 L2044.58 72.576 L2044.58 27.2059 L2052.07 27.2059 L2052.07 34.2544 Q2054.42 30.1225 2058.19 28.1376 Q2061.95 26.1121 2067.34 26.1121 Q2068.11 26.1121 2069.04 26.2337 Q2069.97 26.3147 2071.11 26.5172 L2071.15 34.1734 Z" fill="#000000" fill-rule="nonzero" fill-opacity="1" /><circle clip-path="url(#clip662)" cx="344.917" cy="156.95" r="14.4" fill="#009af9" fill-rule="evenodd" fill-opacity="1" stroke="#000000" stroke-opacity="1" stroke-width="4.8"/>
<circle clip-path="url(#clip662)" cx="1026.43" cy="638.785" r="14.4" fill="#009af9" fill-rule="evenodd" fill-opacity="1" stroke="#000000" stroke-opacity="1" stroke-width="4.8"/>
<circle clip-path="url(#clip662)" cx="1707.95" cy="851.763" r="14.4" fill="#009af9" fill-rule="evenodd" fill-opacity="1" stroke="#000000" stroke-opacity="1" stroke-width="4.8"/>
<circle clip-path="url(#clip662)" cx="2389.46" cy="960.085" r="14.4" fill="#009af9" fill-rule="evenodd" fill-opacity="1" stroke="#000000" stroke-opacity="1" stroke-width="4.8"/>
<circle clip-path="url(#clip662)" cx="3070.97" cy="1020.9" r="14.4" fill="#009af9" fill-rule="evenodd" fill-opacity="1" stroke="#000000" stroke-opacity="1" stroke-width="4.8"/>
<path clip-path="url(#clip660)" d="M2547.87 265.238 L3056.44 265.238 L3056.44 161.558 L2547.87 161.558  Z" fill="#ffffff" fill-rule="evenodd" fill-opacity="1"/>
<polyline clip-path="url(#clip660)" style="stroke:#000000; stroke-linecap:round; stroke-linejoin:round; stroke-width:4; stroke-opacity:1; fill:none" points="2547.87,265.238 3056.44,265.238 3056.44,161.558 2547.87,161.558 2547.87,265.238 "/>
<circle clip-path="url(#clip660)" cx="2676.3" cy="213.398" r="20.48" fill="#009af9" fill-rule="evenodd" fill-opacity="1" stroke="#000000" stroke-opacity="1" stroke-width="6.82667"/>
<path clip-path="url(#clip660)" d="M2820.74 199.289 Q2815.65 199.289 2812.64 203.086 Q2809.65 206.882 2809.65 213.433 Q2809.65 219.961 2812.64 223.757 Q2815.65 227.553 2820.74 227.553 Q2825.83 227.553 2828.8 223.757 Q2831.78 219.961 2831.78 213.433 Q2831.78 206.882 2828.8 203.086 Q2825.83 199.289 2820.74 199.289 M2820.74 195.493 Q2828.01 195.493 2832.36 200.377 Q2836.71 205.239 2836.71 213.433 Q2836.71 221.604 2832.36 226.488 Q2828.01 231.349 2820.74 231.349 Q2813.45 231.349 2809.07 226.488 Q2804.72 221.627 2804.72 213.433 Q2804.72 205.239 2809.07 200.377 Q2813.45 195.493 2820.74 195.493 Z" fill="#000000" fill-rule="nonzero" fill-opacity="1" /><path clip-path="url(#clip660)" d="M2862.45 217.738 Q2862.45 213.039 2860.51 210.377 Q2858.59 207.692 2855.21 207.692 Q2851.83 207.692 2849.88 210.377 Q2847.96 213.039 2847.96 217.738 Q2847.96 222.437 2849.88 225.123 Q2851.83 227.785 2855.21 227.785 Q2858.59 227.785 2860.51 225.123 Q2862.45 222.437 2862.45 217.738 M2847.96 208.688 Q2849.31 206.373 2851.34 205.262 Q2853.4 204.127 2856.25 204.127 Q2860.97 204.127 2863.91 207.877 Q2866.88 211.627 2866.88 217.738 Q2866.88 223.85 2863.91 227.599 Q2860.97 231.349 2856.25 231.349 Q2853.4 231.349 2851.34 230.238 Q2849.31 229.104 2847.96 226.789 L2847.96 230.678 L2843.68 230.678 L2843.68 194.66 L2847.96 194.66 L2847.96 208.688 Z" fill="#000000" fill-rule="nonzero" fill-opacity="1" /><path clip-path="url(#clip660)" d="M2873.94 204.752 L2878.19 204.752 L2878.19 231.141 Q2878.19 236.095 2876.3 238.317 Q2874.42 240.539 2870.23 240.539 L2868.61 240.539 L2868.61 236.928 L2869.75 236.928 Q2872.18 236.928 2873.06 235.794 Q2873.94 234.683 2873.94 231.141 L2873.94 204.752 M2873.94 194.66 L2878.19 194.66 L2878.19 200.053 L2873.94 200.053 L2873.94 194.66 Z" fill="#000000" fill-rule="nonzero" fill-opacity="1" /><path clip-path="url(#clip660)" d="M2909.28 216.65 L2909.28 218.734 L2889.7 218.734 Q2889.98 223.132 2892.34 225.447 Q2894.72 227.738 2898.96 227.738 Q2901.41 227.738 2903.7 227.137 Q2906.02 226.535 2908.29 225.331 L2908.29 229.359 Q2906 230.331 2903.59 230.84 Q2901.18 231.349 2898.7 231.349 Q2892.5 231.349 2888.87 227.738 Q2885.25 224.127 2885.25 217.97 Q2885.25 211.604 2888.68 207.877 Q2892.13 204.127 2897.96 204.127 Q2903.19 204.127 2906.23 207.507 Q2909.28 210.863 2909.28 216.65 M2905.02 215.4 Q2904.98 211.905 2903.06 209.822 Q2901.16 207.738 2898.01 207.738 Q2894.44 207.738 2892.29 209.752 Q2890.16 211.766 2889.84 215.424 L2905.02 215.4 Z" fill="#000000" fill-rule="nonzero" fill-opacity="1" /><path clip-path="url(#clip660)" d="M2934.93 205.748 L2934.93 209.729 Q2933.13 208.734 2931.3 208.248 Q2929.49 207.738 2927.64 207.738 Q2923.5 207.738 2921.2 210.377 Q2918.91 212.993 2918.91 217.738 Q2918.91 222.484 2921.2 225.123 Q2923.5 227.738 2927.64 227.738 Q2929.49 227.738 2931.3 227.252 Q2933.13 226.743 2934.93 225.748 L2934.93 229.683 Q2933.15 230.516 2931.23 230.933 Q2929.33 231.349 2927.18 231.349 Q2921.32 231.349 2917.87 227.669 Q2914.42 223.988 2914.42 217.738 Q2914.42 211.396 2917.89 207.762 Q2921.39 204.127 2927.45 204.127 Q2929.42 204.127 2931.3 204.544 Q2933.17 204.938 2934.93 205.748 Z" fill="#000000" fill-rule="nonzero" fill-opacity="1" /><path clip-path="url(#clip660)" d="M2946.55 197.391 L2946.55 204.752 L2955.32 204.752 L2955.32 208.063 L2946.55 208.063 L2946.55 222.137 Q2946.55 225.308 2947.41 226.211 Q2948.29 227.113 2950.95 227.113 L2955.32 227.113 L2955.32 230.678 L2950.95 230.678 Q2946.02 230.678 2944.14 228.849 Q2942.27 226.998 2942.27 222.137 L2942.27 208.063 L2939.14 208.063 L2939.14 204.752 L2942.27 204.752 L2942.27 197.391 L2946.55 197.391 Z" fill="#000000" fill-rule="nonzero" fill-opacity="1" /><path clip-path="url(#clip660)" d="M2960.93 204.752 L2965.19 204.752 L2965.19 230.678 L2960.93 230.678 L2960.93 204.752 M2960.93 194.66 L2965.19 194.66 L2965.19 200.053 L2960.93 200.053 L2960.93 194.66 Z" fill="#000000" fill-rule="nonzero" fill-opacity="1" /><path clip-path="url(#clip660)" d="M2971.04 204.752 L2975.56 204.752 L2983.66 226.512 L2991.76 204.752 L2996.27 204.752 L2986.55 230.678 L2980.76 230.678 L2971.04 204.752 Z" fill="#000000" fill-rule="nonzero" fill-opacity="1" /><path clip-path="url(#clip660)" d="M3024.33 216.65 L3024.33 218.734 L3004.75 218.734 Q3005.02 223.132 3007.38 225.447 Q3009.77 227.738 3014 227.738 Q3016.46 227.738 3018.75 227.137 Q3021.06 226.535 3023.33 225.331 L3023.33 229.359 Q3021.04 230.331 3018.63 230.84 Q3016.23 231.349 3013.75 231.349 Q3007.55 231.349 3003.91 227.738 Q3000.3 224.127 3000.3 217.97 Q3000.3 211.604 3003.73 207.877 Q3007.18 204.127 3013.01 204.127 Q3018.24 204.127 3021.27 207.507 Q3024.33 210.863 3024.33 216.65 M3020.07 215.4 Q3020.02 211.905 3018.1 209.822 Q3016.2 207.738 3013.06 207.738 Q3009.49 207.738 3007.34 209.752 Q3005.21 211.766 3004.88 215.424 L3020.07 215.4 Z" fill="#000000" fill-rule="nonzero" fill-opacity="1" /><path clip-path="url(#clip660)" d="M263.135 2204.92 L3152.76 2204.92 L3152.76 1289.14 L263.135 1289.14  Z" fill="#ffffff" fill-rule="evenodd" fill-opacity="1"/>
<polyline clip-path="url(#clip661)" style="stroke:#000000; stroke-linecap:round; stroke-linejoin:round; stroke-width:2; stroke-opacity:0.1; fill:none" points="344.917,2204.92 344.917,1289.14 "/>
<polyline clip-path="url(#clip661)" style="stroke:#000000; stroke-linecap:round; stroke-linejoin:round; stroke-width:2; stroke-opacity:0.1; fill:none" points="1026.43,2204.92 1026.43,1289.14 "/>
<polyline clip-path="url(#clip661)" style="stroke:#000000; stroke-linecap:round; stroke-linejoin:round; stroke-width:2; stroke-opacity:0.1; fill:none" points="1707.95,2204.92 1707.95,1289.14 "/>
<polyline clip-path="url(#clip661)" style="stroke:#000000; stroke-linecap:round; stroke-linejoin:round; stroke-width:2; stroke-opacity:0.1; fill:none" points="2389.46,2204.92 2389.46,1289.14 "/>
<polyline clip-path="url(#clip661)" style="stroke:#000000; stroke-linecap:round; stroke-linejoin:round; stroke-width:2; stroke-opacity:0.1; fill:none" points="3070.97,2204.92 3070.97,1289.14 "/>
<polyline clip-path="url(#clip661)" style="stroke:#000000; stroke-linecap:round; stroke-linejoin:round; stroke-width:2; stroke-opacity:0.1; fill:none" points="263.135,2179 3152.76,2179 "/>
<polyline clip-path="url(#clip661)" style="stroke:#000000; stroke-linecap:round; stroke-linejoin:round; stroke-width:2; stroke-opacity:0.1; fill:none" points="263.135,1963.02 3152.76,1963.02 "/>
<polyline clip-path="url(#clip661)" style="stroke:#000000; stroke-linecap:round; stroke-linejoin:round; stroke-width:2; stroke-opacity:0.1; fill:none" points="263.135,1747.03 3152.76,1747.03 "/>
<polyline clip-path="url(#clip661)" style="stroke:#000000; stroke-linecap:round; stroke-linejoin:round; stroke-width:2; stroke-opacity:0.1; fill:none" points="263.135,1531.04 3152.76,1531.04 "/>
<polyline clip-path="url(#clip661)" style="stroke:#000000; stroke-linecap:round; stroke-linejoin:round; stroke-width:2; stroke-opacity:0.1; fill:none" points="263.135,1315.06 3152.76,1315.06 "/>
<polyline clip-path="url(#clip660)" style="stroke:#000000; stroke-linecap:round; stroke-linejoin:round; stroke-width:4; stroke-opacity:1; fill:none" points="263.135,2204.92 3152.76,2204.92 "/>
<polyline clip-path="url(#clip660)" style="stroke:#000000; stroke-linecap:round; stroke-linejoin:round; stroke-width:4; stroke-opacity:1; fill:none" points="344.917,2204.92 344.917,2186.02 "/>
<polyline clip-path="url(#clip660)" style="stroke:#000000; stroke-linecap:round; stroke-linejoin:round; stroke-width:4; stroke-opacity:1; fill:none" points="1026.43,2204.92 1026.43,2186.02 "/>
<polyline clip-path="url(#clip660)" style="stroke:#000000; stroke-linecap:round; stroke-linejoin:round; stroke-width:4; stroke-opacity:1; fill:none" points="1707.95,2204.92 1707.95,2186.02 "/>
<polyline clip-path="url(#clip660)" style="stroke:#000000; stroke-linecap:round; stroke-linejoin:round; stroke-width:4; stroke-opacity:1; fill:none" points="2389.46,2204.92 2389.46,2186.02 "/>
<polyline clip-path="url(#clip660)" style="stroke:#000000; stroke-linecap:round; stroke-linejoin:round; stroke-width:4; stroke-opacity:1; fill:none" points="3070.97,2204.92 3070.97,2186.02 "/>
<path clip-path="url(#clip660)" d="M296.989 2269.78 L304.627 2269.78 L304.627 2243.42 L296.317 2245.09 L296.317 2240.83 L304.581 2239.16 L309.257 2239.16 L309.257 2269.78 L316.896 2269.78 L316.896 2273.72 L296.989 2273.72 L296.989 2269.78 Z" fill="#000000" fill-rule="nonzero" fill-opacity="1" /><path clip-path="url(#clip660)" d="M326.34 2267.84 L331.224 2267.84 L331.224 2273.72 L326.34 2273.72 L326.34 2267.84 Z" fill="#000000" fill-rule="nonzero" fill-opacity="1" /><path clip-path="url(#clip660)" d="M351.41 2242.24 Q347.798 2242.24 345.97 2245.8 Q344.164 2249.34 344.164 2256.47 Q344.164 2263.58 345.97 2267.15 Q347.798 2270.69 351.41 2270.69 Q355.044 2270.69 356.849 2267.15 Q358.678 2263.58 358.678 2256.47 Q358.678 2249.34 356.849 2245.8 Q355.044 2242.24 351.41 2242.24 M351.41 2238.53 Q357.22 2238.53 360.275 2243.14 Q363.354 2247.72 363.354 2256.47 Q363.354 2265.2 360.275 2269.81 Q357.22 2274.39 351.41 2274.39 Q345.599 2274.39 342.521 2269.81 Q339.465 2265.2 339.465 2256.47 Q339.465 2247.72 342.521 2243.14 Q345.599 2238.53 351.41 2238.53 Z" fill="#000000" fill-rule="nonzero" fill-opacity="1" /><path clip-path="url(#clip660)" d="M381.571 2242.24 Q377.96 2242.24 376.132 2245.8 Q374.326 2249.34 374.326 2256.47 Q374.326 2263.58 376.132 2267.15 Q377.96 2270.69 381.571 2270.69 Q385.206 2270.69 387.011 2267.15 Q388.84 2263.58 388.84 2256.47 Q388.84 2249.34 387.011 2245.8 Q385.206 2242.24 381.571 2242.24 M381.571 2238.53 Q387.382 2238.53 390.437 2243.14 Q393.516 2247.72 393.516 2256.47 Q393.516 2265.2 390.437 2269.81 Q387.382 2274.39 381.571 2274.39 Q375.761 2274.39 372.683 2269.81 Q369.627 2265.2 369.627 2256.47 Q369.627 2247.72 372.683 2243.14 Q375.761 2238.53 381.571 2238.53 Z" fill="#000000" fill-rule="nonzero" fill-opacity="1" /><path clip-path="url(#clip660)" d="M979.001 2269.78 L986.639 2269.78 L986.639 2243.42 L978.329 2245.09 L978.329 2240.83 L986.593 2239.16 L991.269 2239.16 L991.269 2269.78 L998.908 2269.78 L998.908 2273.72 L979.001 2273.72 L979.001 2269.78 Z" fill="#000000" fill-rule="nonzero" fill-opacity="1" /><path clip-path="url(#clip660)" d="M1008.35 2267.84 L1013.24 2267.84 L1013.24 2273.72 L1008.35 2273.72 L1008.35 2267.84 Z" fill="#000000" fill-rule="nonzero" fill-opacity="1" /><path clip-path="url(#clip660)" d="M1027.45 2269.78 L1043.77 2269.78 L1043.77 2273.72 L1021.82 2273.72 L1021.82 2269.78 Q1024.49 2267.03 1029.07 2262.4 Q1033.68 2257.75 1034.86 2256.41 Q1037.1 2253.88 1037.98 2252.15 Q1038.88 2250.39 1038.88 2248.7 Q1038.88 2245.94 1036.94 2244.21 Q1035.02 2242.47 1031.92 2242.47 Q1029.72 2242.47 1027.26 2243.23 Q1024.83 2244 1022.06 2245.55 L1022.06 2240.83 Q1024.88 2239.69 1027.33 2239.11 Q1029.79 2238.53 1031.82 2238.53 Q1037.19 2238.53 1040.39 2241.22 Q1043.58 2243.91 1043.58 2248.4 Q1043.58 2250.53 1042.77 2252.45 Q1041.99 2254.34 1039.88 2256.94 Q1039.3 2257.61 1036.2 2260.83 Q1033.1 2264.02 1027.45 2269.78 Z" fill="#000000" fill-rule="nonzero" fill-opacity="1" /><path clip-path="url(#clip660)" d="M1053.63 2239.16 L1071.99 2239.16 L1071.99 2243.1 L1057.91 2243.1 L1057.91 2251.57 Q1058.93 2251.22 1059.95 2251.06 Q1060.97 2250.87 1061.99 2250.87 Q1067.77 2250.87 1071.15 2254.04 Q1074.53 2257.22 1074.53 2262.63 Q1074.53 2268.21 1071.06 2271.31 Q1067.59 2274.39 1061.27 2274.39 Q1059.09 2274.39 1056.82 2274.02 Q1054.58 2273.65 1052.17 2272.91 L1052.17 2268.21 Q1054.25 2269.34 1056.48 2269.9 Q1058.7 2270.46 1061.18 2270.46 Q1065.18 2270.46 1067.52 2268.35 Q1069.86 2266.24 1069.86 2262.63 Q1069.86 2259.02 1067.52 2256.91 Q1065.18 2254.81 1061.18 2254.81 Q1059.3 2254.81 1057.43 2255.22 Q1055.57 2255.64 1053.63 2256.52 L1053.63 2239.16 Z" fill="#000000" fill-rule="nonzero" fill-opacity="1" /><path clip-path="url(#clip660)" d="M1660.02 2269.78 L1667.66 2269.78 L1667.66 2243.42 L1659.35 2245.09 L1659.35 2240.83 L1667.61 2239.16 L1672.29 2239.16 L1672.29 2269.78 L1679.92 2269.78 L1679.92 2273.72 L1660.02 2273.72 L1660.02 2269.78 Z" fill="#000000" fill-rule="nonzero" fill-opacity="1" /><path clip-path="url(#clip660)" d="M1689.37 2267.84 L1694.25 2267.84 L1694.25 2273.72 L1689.37 2273.72 L1689.37 2267.84 Z" fill="#000000" fill-rule="nonzero" fill-opacity="1" /><path clip-path="url(#clip660)" d="M1704.48 2239.16 L1722.84 2239.16 L1722.84 2243.1 L1708.77 2243.1 L1708.77 2251.57 Q1709.79 2251.22 1710.8 2251.06 Q1711.82 2250.87 1712.84 2250.87 Q1718.63 2250.87 1722.01 2254.04 Q1725.39 2257.22 1725.39 2262.63 Q1725.39 2268.21 1721.92 2271.31 Q1718.44 2274.39 1712.12 2274.39 Q1709.95 2274.39 1707.68 2274.02 Q1705.43 2273.65 1703.03 2272.91 L1703.03 2268.21 Q1705.11 2269.34 1707.33 2269.9 Q1709.55 2270.46 1712.03 2270.46 Q1716.04 2270.46 1718.37 2268.35 Q1720.71 2266.24 1720.71 2262.63 Q1720.71 2259.02 1718.37 2256.91 Q1716.04 2254.81 1712.03 2254.81 Q1710.16 2254.81 1708.28 2255.22 Q1706.43 2255.64 1704.48 2256.52 L1704.48 2239.16 Z" fill="#000000" fill-rule="nonzero" fill-opacity="1" /><path clip-path="url(#clip660)" d="M1744.6 2242.24 Q1740.99 2242.24 1739.16 2245.8 Q1737.35 2249.34 1737.35 2256.47 Q1737.35 2263.58 1739.16 2267.15 Q1740.99 2270.69 1744.6 2270.69 Q1748.23 2270.69 1750.04 2267.15 Q1751.87 2263.58 1751.87 2256.47 Q1751.87 2249.34 1750.04 2245.8 Q1748.23 2242.24 1744.6 2242.24 M1744.6 2238.53 Q1750.41 2238.53 1753.47 2243.14 Q1756.54 2247.72 1756.54 2256.47 Q1756.54 2265.2 1753.47 2269.81 Q1750.41 2274.39 1744.6 2274.39 Q1738.79 2274.39 1735.71 2269.81 Q1732.66 2265.2 1732.66 2256.47 Q1732.66 2247.72 1735.71 2243.14 Q1738.79 2238.53 1744.6 2238.53 Z" fill="#000000" fill-rule="nonzero" fill-opacity="1" /><path clip-path="url(#clip660)" d="M2342.03 2269.78 L2349.67 2269.78 L2349.67 2243.42 L2341.36 2245.09 L2341.36 2240.83 L2349.62 2239.16 L2354.3 2239.16 L2354.3 2269.78 L2361.94 2269.78 L2361.94 2273.72 L2342.03 2273.72 L2342.03 2269.78 Z" fill="#000000" fill-rule="nonzero" fill-opacity="1" /><path clip-path="url(#clip660)" d="M2371.38 2267.84 L2376.27 2267.84 L2376.27 2273.72 L2371.38 2273.72 L2371.38 2267.84 Z" fill="#000000" fill-rule="nonzero" fill-opacity="1" /><path clip-path="url(#clip660)" d="M2385.27 2239.16 L2407.49 2239.16 L2407.49 2241.15 L2394.95 2273.72 L2390.06 2273.72 L2401.87 2243.1 L2385.27 2243.1 L2385.27 2239.16 Z" fill="#000000" fill-rule="nonzero" fill-opacity="1" /><path clip-path="url(#clip660)" d="M2416.66 2239.16 L2435.02 2239.16 L2435.02 2243.1 L2420.94 2243.1 L2420.94 2251.57 Q2421.96 2251.22 2422.98 2251.06 Q2424 2250.87 2425.02 2250.87 Q2430.8 2250.87 2434.18 2254.04 Q2437.56 2257.22 2437.56 2262.63 Q2437.56 2268.21 2434.09 2271.31 Q2430.62 2274.39 2424.3 2274.39 Q2422.12 2274.39 2419.85 2274.02 Q2417.61 2273.65 2415.2 2272.91 L2415.2 2268.21 Q2417.28 2269.34 2419.51 2269.9 Q2421.73 2270.46 2424.2 2270.46 Q2428.21 2270.46 2430.55 2268.35 Q2432.89 2266.24 2432.89 2262.63 Q2432.89 2259.02 2430.55 2256.91 Q2428.21 2254.81 2424.2 2254.81 Q2422.33 2254.81 2420.45 2255.22 Q2418.6 2255.64 2416.66 2256.52 L2416.66 2239.16 Z" fill="#000000" fill-rule="nonzero" fill-opacity="1" /><path clip-path="url(#clip660)" d="M3027.13 2269.78 L3043.45 2269.78 L3043.45 2273.72 L3021.51 2273.72 L3021.51 2269.78 Q3024.17 2267.03 3028.75 2262.4 Q3033.36 2257.75 3034.54 2256.41 Q3036.78 2253.88 3037.66 2252.15 Q3038.57 2250.39 3038.57 2248.7 Q3038.57 2245.94 3036.62 2244.21 Q3034.7 2242.47 3031.6 2242.47 Q3029.4 2242.47 3026.95 2243.23 Q3024.52 2244 3021.74 2245.55 L3021.74 2240.83 Q3024.56 2239.69 3027.02 2239.11 Q3029.47 2238.53 3031.51 2238.53 Q3036.88 2238.53 3040.07 2241.22 Q3043.27 2243.91 3043.27 2248.4 Q3043.27 2250.53 3042.46 2252.45 Q3041.67 2254.34 3039.56 2256.94 Q3038.98 2257.61 3035.88 2260.83 Q3032.78 2264.02 3027.13 2269.78 Z" fill="#000000" fill-rule="nonzero" fill-opacity="1" /><path clip-path="url(#clip660)" d="M3053.27 2267.84 L3058.15 2267.84 L3058.15 2273.72 L3053.27 2273.72 L3053.27 2267.84 Z" fill="#000000" fill-rule="nonzero" fill-opacity="1" /><path clip-path="url(#clip660)" d="M3078.34 2242.24 Q3074.72 2242.24 3072.9 2245.8 Q3071.09 2249.34 3071.09 2256.47 Q3071.09 2263.58 3072.9 2267.15 Q3074.72 2270.69 3078.34 2270.69 Q3081.97 2270.69 3083.78 2267.15 Q3085.6 2263.58 3085.6 2256.47 Q3085.6 2249.34 3083.78 2245.8 Q3081.97 2242.24 3078.34 2242.24 M3078.34 2238.53 Q3084.15 2238.53 3087.2 2243.14 Q3090.28 2247.72 3090.28 2256.47 Q3090.28 2265.2 3087.2 2269.81 Q3084.15 2274.39 3078.34 2274.39 Q3072.53 2274.39 3069.45 2269.81 Q3066.39 2265.2 3066.39 2256.47 Q3066.39 2247.72 3069.45 2243.14 Q3072.53 2238.53 3078.34 2238.53 Z" fill="#000000" fill-rule="nonzero" fill-opacity="1" /><path clip-path="url(#clip660)" d="M3108.5 2242.24 Q3104.89 2242.24 3103.06 2245.8 Q3101.25 2249.34 3101.25 2256.47 Q3101.25 2263.58 3103.06 2267.15 Q3104.89 2270.69 3108.5 2270.69 Q3112.13 2270.69 3113.94 2267.15 Q3115.77 2263.58 3115.77 2256.47 Q3115.77 2249.34 3113.94 2245.8 Q3112.13 2242.24 3108.5 2242.24 M3108.5 2238.53 Q3114.31 2238.53 3117.36 2243.14 Q3120.44 2247.72 3120.44 2256.47 Q3120.44 2265.2 3117.36 2269.81 Q3114.31 2274.39 3108.5 2274.39 Q3102.69 2274.39 3099.61 2269.81 Q3096.55 2265.2 3096.55 2256.47 Q3096.55 2247.72 3099.61 2243.14 Q3102.69 2238.53 3108.5 2238.53 Z" fill="#000000" fill-rule="nonzero" fill-opacity="1" /><path clip-path="url(#clip660)" d="M1521.67 2314.26 L1548.98 2314.26 L1548.98 2319.67 L1528.1 2319.67 L1528.1 2333.68 L1546.94 2333.68 L1546.94 2339.09 L1528.1 2339.09 L1528.1 2361.78 L1521.67 2361.78 L1521.67 2314.26 Z" fill="#000000" fill-rule="nonzero" fill-opacity="1" /><path clip-path="url(#clip660)" d="M1554.17 2326.14 L1560.02 2326.14 L1560.02 2361.78 L1554.17 2361.78 L1554.17 2326.14 M1554.17 2312.26 L1560.02 2312.26 L1560.02 2319.67 L1554.17 2319.67 L1554.17 2312.26 Z" fill="#000000" fill-rule="nonzero" fill-opacity="1" /><path clip-path="url(#clip660)" d="M1601.91 2340.27 L1601.91 2361.78 L1596.05 2361.78 L1596.05 2340.46 Q1596.05 2335.4 1594.08 2332.88 Q1592.11 2330.37 1588.16 2330.37 Q1583.42 2330.37 1580.68 2333.39 Q1577.94 2336.42 1577.94 2341.64 L1577.94 2361.78 L1572.05 2361.78 L1572.05 2326.14 L1577.94 2326.14 L1577.94 2331.67 Q1580.04 2328.46 1582.88 2326.87 Q1585.74 2325.28 1589.46 2325.28 Q1595.61 2325.28 1598.76 2329.1 Q1601.91 2332.88 1601.91 2340.27 Z" fill="#000000" fill-rule="nonzero" fill-opacity="1" /><path clip-path="url(#clip660)" d="M1629.79 2343.86 Q1622.69 2343.86 1619.96 2345.49 Q1617.22 2347.11 1617.22 2351.03 Q1617.22 2354.14 1619.26 2355.99 Q1621.32 2357.81 1624.86 2357.81 Q1629.73 2357.81 1632.65 2354.37 Q1635.62 2350.9 1635.62 2345.17 L1635.62 2343.86 L1629.79 2343.86 M1641.47 2341.45 L1641.47 2361.78 L1635.62 2361.78 L1635.62 2356.37 Q1633.61 2359.62 1630.62 2361.18 Q1627.63 2362.71 1623.3 2362.71 Q1617.82 2362.71 1614.58 2359.65 Q1611.36 2356.56 1611.36 2351.41 Q1611.36 2345.39 1615.37 2342.34 Q1619.41 2339.28 1627.4 2339.28 L1635.62 2339.28 L1635.62 2338.71 Q1635.62 2334.67 1632.94 2332.47 Q1630.3 2330.24 1625.49 2330.24 Q1622.44 2330.24 1619.54 2330.97 Q1616.65 2331.71 1613.97 2333.17 L1613.97 2327.76 Q1617.19 2326.52 1620.21 2325.91 Q1623.23 2325.28 1626.1 2325.28 Q1633.83 2325.28 1637.65 2329.29 Q1641.47 2333.3 1641.47 2341.45 Z" fill="#000000" fill-rule="nonzero" fill-opacity="1" /><path clip-path="url(#clip660)" d="M1653.53 2312.26 L1659.39 2312.26 L1659.39 2361.78 L1653.53 2361.78 L1653.53 2312.26 Z" fill="#000000" fill-rule="nonzero" fill-opacity="1" /><path clip-path="url(#clip660)" d="M1698.16 2316.01 L1698.16 2326.14 L1710.22 2326.14 L1710.22 2330.69 L1698.16 2330.69 L1698.16 2350.04 Q1698.16 2354.4 1699.34 2355.64 Q1700.55 2356.88 1704.21 2356.88 L1710.22 2356.88 L1710.22 2361.78 L1704.21 2361.78 Q1697.43 2361.78 1694.85 2359.27 Q1692.27 2356.72 1692.27 2350.04 L1692.27 2330.69 L1687.97 2330.69 L1687.97 2326.14 L1692.27 2326.14 L1692.27 2316.01 L1698.16 2316.01 Z" fill="#000000" fill-rule="nonzero" fill-opacity="1" /><path clip-path="url(#clip660)" d="M1717.92 2326.14 L1723.78 2326.14 L1723.78 2361.78 L1717.92 2361.78 L1717.92 2326.14 M1717.92 2312.26 L1723.78 2312.26 L1723.78 2319.67 L1717.92 2319.67 L1717.92 2312.26 Z" fill="#000000" fill-rule="nonzero" fill-opacity="1" /><path clip-path="url(#clip660)" d="M1763.79 2332.98 Q1765.98 2329.03 1769.04 2327.15 Q1772.1 2325.28 1776.23 2325.28 Q1781.8 2325.28 1784.83 2329.19 Q1787.85 2333.07 1787.85 2340.27 L1787.85 2361.78 L1781.96 2361.78 L1781.96 2340.46 Q1781.96 2335.33 1780.15 2332.85 Q1778.33 2330.37 1774.61 2330.37 Q1770.06 2330.37 1767.42 2333.39 Q1764.78 2336.42 1764.78 2341.64 L1764.78 2361.78 L1758.89 2361.78 L1758.89 2340.46 Q1758.89 2335.3 1757.07 2332.85 Q1755.26 2330.37 1751.47 2330.37 Q1746.98 2330.37 1744.34 2333.42 Q1741.7 2336.45 1741.7 2341.64 L1741.7 2361.78 L1735.81 2361.78 L1735.81 2326.14 L1741.7 2326.14 L1741.7 2331.67 Q1743.7 2328.4 1746.51 2326.84 Q1749.31 2325.28 1753.16 2325.28 Q1757.04 2325.28 1759.75 2327.25 Q1762.48 2329.22 1763.79 2332.98 Z" fill="#000000" fill-rule="nonzero" fill-opacity="1" /><path clip-path="url(#clip660)" d="M1830.02 2342.5 L1830.02 2345.36 L1803.1 2345.36 Q1803.48 2351.41 1806.73 2354.59 Q1810 2357.74 1815.83 2357.74 Q1819.2 2357.74 1822.35 2356.91 Q1825.54 2356.09 1828.66 2354.43 L1828.66 2359.97 Q1825.5 2361.31 1822.19 2362.01 Q1818.88 2362.71 1815.48 2362.71 Q1806.95 2362.71 1801.95 2357.74 Q1796.99 2352.78 1796.99 2344.31 Q1796.99 2335.56 1801.7 2330.43 Q1806.44 2325.28 1814.46 2325.28 Q1821.65 2325.28 1825.82 2329.92 Q1830.02 2334.54 1830.02 2342.5 M1824.17 2340.78 Q1824.1 2335.97 1821.46 2333.11 Q1818.85 2330.24 1814.52 2330.24 Q1809.62 2330.24 1806.66 2333.01 Q1803.73 2335.78 1803.29 2340.81 L1824.17 2340.78 Z" fill="#000000" fill-rule="nonzero" fill-opacity="1" /><path clip-path="url(#clip660)" d="M1854.02 2314.26 L1894.22 2314.26 L1894.22 2319.67 L1877.35 2319.67 L1877.35 2361.78 L1870.89 2361.78 L1870.89 2319.67 L1854.02 2319.67 L1854.02 2314.26 Z" fill="#000000" fill-rule="nonzero" fill-opacity="1" /><polyline clip-path="url(#clip660)" style="stroke:#000000; stroke-linecap:round; stroke-linejoin:round; stroke-width:4; stroke-opacity:1; fill:none" points="263.135,2204.92 263.135,1289.14 "/>
<polyline clip-path="url(#clip660)" style="stroke:#000000; stroke-linecap:round; stroke-linejoin:round; stroke-width:4; stroke-opacity:1; fill:none" points="263.135,2179 282.032,2179 "/>
<polyline clip-path="url(#clip660)" style="stroke:#000000; stroke-linecap:round; stroke-linejoin:round; stroke-width:4; stroke-opacity:1; fill:none" points="263.135,1963.02 282.032,1963.02 "/>
<polyline clip-path="url(#clip660)" style="stroke:#000000; stroke-linecap:round; stroke-linejoin:round; stroke-width:4; stroke-opacity:1; fill:none" points="263.135,1747.03 282.032,1747.03 "/>
<polyline clip-path="url(#clip660)" style="stroke:#000000; stroke-linecap:round; stroke-linejoin:round; stroke-width:4; stroke-opacity:1; fill:none" points="263.135,1531.04 282.032,1531.04 "/>
<polyline clip-path="url(#clip660)" style="stroke:#000000; stroke-linecap:round; stroke-linejoin:round; stroke-width:4; stroke-opacity:1; fill:none" points="263.135,1315.06 282.032,1315.06 "/>
<path clip-path="url(#clip660)" d="M118.608 2192.35 L126.246 2192.35 L126.246 2165.98 L117.936 2167.65 L117.936 2163.39 L126.2 2161.72 L130.876 2161.72 L130.876 2192.35 L138.515 2192.35 L138.515 2196.28 L118.608 2196.28 L118.608 2192.35 Z" fill="#000000" fill-rule="nonzero" fill-opacity="1" /><path clip-path="url(#clip660)" d="M147.959 2190.4 L152.843 2190.4 L152.843 2196.28 L147.959 2196.28 L147.959 2190.4 Z" fill="#000000" fill-rule="nonzero" fill-opacity="1" /><path clip-path="url(#clip660)" d="M173.029 2164.8 Q169.417 2164.8 167.589 2168.36 Q165.783 2171.91 165.783 2179.04 Q165.783 2186.14 167.589 2189.71 Q169.417 2193.25 173.029 2193.25 Q176.663 2193.25 178.468 2189.71 Q180.297 2186.14 180.297 2179.04 Q180.297 2171.91 178.468 2168.36 Q176.663 2164.8 173.029 2164.8 M173.029 2161.1 Q178.839 2161.1 181.894 2165.7 Q184.973 2170.29 184.973 2179.04 Q184.973 2187.76 181.894 2192.37 Q178.839 2196.95 173.029 2196.95 Q167.218 2196.95 164.14 2192.37 Q161.084 2187.76 161.084 2179.04 Q161.084 2170.29 164.14 2165.7 Q167.218 2161.1 173.029 2161.1 Z" fill="#000000" fill-rule="nonzero" fill-opacity="1" /><path clip-path="url(#clip660)" d="M203.19 2164.8 Q199.579 2164.8 197.751 2168.36 Q195.945 2171.91 195.945 2179.04 Q195.945 2186.14 197.751 2189.71 Q199.579 2193.25 203.19 2193.25 Q206.825 2193.25 208.63 2189.71 Q210.459 2186.14 210.459 2179.04 Q210.459 2171.91 208.63 2168.36 Q206.825 2164.8 203.19 2164.8 M203.19 2161.1 Q209.001 2161.1 212.056 2165.7 Q215.135 2170.29 215.135 2179.04 Q215.135 2187.76 212.056 2192.37 Q209.001 2196.95 203.19 2196.95 Q197.38 2196.95 194.302 2192.37 Q191.246 2187.76 191.246 2179.04 Q191.246 2170.29 194.302 2165.7 Q197.38 2161.1 203.19 2161.1 Z" fill="#000000" fill-rule="nonzero" fill-opacity="1" /><path clip-path="url(#clip660)" d="M119.603 1976.36 L127.242 1976.36 L127.242 1949.99 L118.932 1951.66 L118.932 1947.4 L127.195 1945.74 L131.871 1945.74 L131.871 1976.36 L139.51 1976.36 L139.51 1980.3 L119.603 1980.3 L119.603 1976.36 Z" fill="#000000" fill-rule="nonzero" fill-opacity="1" /><path clip-path="url(#clip660)" d="M148.955 1974.42 L153.839 1974.42 L153.839 1980.3 L148.955 1980.3 L148.955 1974.42 Z" fill="#000000" fill-rule="nonzero" fill-opacity="1" /><path clip-path="url(#clip660)" d="M168.052 1976.36 L184.371 1976.36 L184.371 1980.3 L162.427 1980.3 L162.427 1976.36 Q165.089 1973.61 169.672 1968.98 Q174.279 1964.32 175.459 1962.98 Q177.704 1960.46 178.584 1958.72 Q179.487 1956.96 179.487 1955.27 Q179.487 1952.52 177.542 1950.78 Q175.621 1949.05 172.519 1949.05 Q170.32 1949.05 167.867 1949.81 Q165.436 1950.57 162.658 1952.12 L162.658 1947.4 Q165.482 1946.27 167.936 1945.69 Q170.39 1945.11 172.427 1945.11 Q177.797 1945.11 180.991 1947.8 Q184.186 1950.48 184.186 1954.97 Q184.186 1957.1 183.376 1959.02 Q182.589 1960.92 180.482 1963.51 Q179.904 1964.18 176.802 1967.4 Q173.7 1970.6 168.052 1976.36 Z" fill="#000000" fill-rule="nonzero" fill-opacity="1" /><path clip-path="url(#clip660)" d="M194.232 1945.74 L212.589 1945.74 L212.589 1949.67 L198.515 1949.67 L198.515 1958.14 Q199.533 1957.8 200.552 1957.63 Q201.57 1957.45 202.589 1957.45 Q208.376 1957.45 211.755 1960.62 Q215.135 1963.79 215.135 1969.21 Q215.135 1974.79 211.663 1977.89 Q208.19 1980.97 201.871 1980.97 Q199.695 1980.97 197.427 1980.6 Q195.181 1980.23 192.774 1979.49 L192.774 1974.79 Q194.857 1975.92 197.079 1976.48 Q199.302 1977.03 201.778 1977.03 Q205.783 1977.03 208.121 1974.92 Q210.459 1972.82 210.459 1969.21 Q210.459 1965.6 208.121 1963.49 Q205.783 1961.38 201.778 1961.38 Q199.903 1961.38 198.028 1961.8 Q196.177 1962.22 194.232 1963.1 L194.232 1945.74 Z" fill="#000000" fill-rule="nonzero" fill-opacity="1" /><path clip-path="url(#clip660)" d="M118.608 1760.37 L126.246 1760.37 L126.246 1734.01 L117.936 1735.67 L117.936 1731.42 L126.2 1729.75 L130.876 1729.75 L130.876 1760.37 L138.515 1760.37 L138.515 1764.31 L118.608 1764.31 L118.608 1760.37 Z" fill="#000000" fill-rule="nonzero" fill-opacity="1" /><path clip-path="url(#clip660)" d="M147.959 1758.43 L152.843 1758.43 L152.843 1764.31 L147.959 1764.31 L147.959 1758.43 Z" fill="#000000" fill-rule="nonzero" fill-opacity="1" /><path clip-path="url(#clip660)" d="M163.075 1729.75 L181.431 1729.75 L181.431 1733.68 L167.357 1733.68 L167.357 1742.16 Q168.376 1741.81 169.394 1741.65 Q170.413 1741.46 171.431 1741.46 Q177.218 1741.46 180.598 1744.63 Q183.978 1747.8 183.978 1753.22 Q183.978 1758.8 180.505 1761.9 Q177.033 1764.98 170.714 1764.98 Q168.538 1764.98 166.269 1764.61 Q164.024 1764.24 161.617 1763.5 L161.617 1758.8 Q163.7 1759.93 165.922 1760.49 Q168.144 1761.05 170.621 1761.05 Q174.626 1761.05 176.964 1758.94 Q179.302 1756.83 179.302 1753.22 Q179.302 1749.61 176.964 1747.5 Q174.626 1745.4 170.621 1745.4 Q168.746 1745.4 166.871 1745.81 Q165.019 1746.23 163.075 1747.11 L163.075 1729.75 Z" fill="#000000" fill-rule="nonzero" fill-opacity="1" /><path clip-path="url(#clip660)" d="M203.19 1732.83 Q199.579 1732.83 197.751 1736.39 Q195.945 1739.93 195.945 1747.06 Q195.945 1754.17 197.751 1757.73 Q199.579 1761.28 203.19 1761.28 Q206.825 1761.28 208.63 1757.73 Q210.459 1754.17 210.459 1747.06 Q210.459 1739.93 208.63 1736.39 Q206.825 1732.83 203.19 1732.83 M203.19 1729.12 Q209.001 1729.12 212.056 1733.73 Q215.135 1738.31 215.135 1747.06 Q215.135 1755.79 212.056 1760.4 Q209.001 1764.98 203.19 1764.98 Q197.38 1764.98 194.302 1760.4 Q191.246 1755.79 191.246 1747.06 Q191.246 1738.31 194.302 1733.73 Q197.38 1729.12 203.19 1729.12 Z" fill="#000000" fill-rule="nonzero" fill-opacity="1" /><path clip-path="url(#clip660)" d="M119.603 1544.39 L127.242 1544.39 L127.242 1518.02 L118.932 1519.69 L118.932 1515.43 L127.195 1513.76 L131.871 1513.76 L131.871 1544.39 L139.51 1544.39 L139.51 1548.32 L119.603 1548.32 L119.603 1544.39 Z" fill="#000000" fill-rule="nonzero" fill-opacity="1" /><path clip-path="url(#clip660)" d="M148.955 1542.44 L153.839 1542.44 L153.839 1548.32 L148.955 1548.32 L148.955 1542.44 Z" fill="#000000" fill-rule="nonzero" fill-opacity="1" /><path clip-path="url(#clip660)" d="M162.843 1513.76 L185.066 1513.76 L185.066 1515.75 L172.519 1548.32 L167.635 1548.32 L179.441 1517.7 L162.843 1517.7 L162.843 1513.76 Z" fill="#000000" fill-rule="nonzero" fill-opacity="1" /><path clip-path="url(#clip660)" d="M194.232 1513.76 L212.589 1513.76 L212.589 1517.7 L198.515 1517.7 L198.515 1526.17 Q199.533 1525.82 200.552 1525.66 Q201.57 1525.48 202.589 1525.48 Q208.376 1525.48 211.755 1528.65 Q215.135 1531.82 215.135 1537.23 Q215.135 1542.81 211.663 1545.92 Q208.19 1548.99 201.871 1548.99 Q199.695 1548.99 197.427 1548.62 Q195.181 1548.25 192.774 1547.51 L192.774 1542.81 Q194.857 1543.95 197.079 1544.5 Q199.302 1545.06 201.778 1545.06 Q205.783 1545.06 208.121 1542.95 Q210.459 1540.85 210.459 1537.23 Q210.459 1533.62 208.121 1531.52 Q205.783 1529.41 201.778 1529.41 Q199.903 1529.41 198.028 1529.83 Q196.177 1530.24 194.232 1531.12 L194.232 1513.76 Z" fill="#000000" fill-rule="nonzero" fill-opacity="1" /><path clip-path="url(#clip660)" d="M121.825 1328.4 L138.144 1328.4 L138.144 1332.34 L116.2 1332.34 L116.2 1328.4 Q118.862 1325.65 123.445 1321.02 Q128.052 1316.36 129.232 1315.02 Q131.478 1312.5 132.357 1310.76 Q133.26 1309 133.26 1307.31 Q133.26 1304.56 131.316 1302.82 Q129.395 1301.09 126.293 1301.09 Q124.094 1301.09 121.64 1301.85 Q119.209 1302.61 116.432 1304.17 L116.432 1299.44 Q119.256 1298.31 121.709 1297.73 Q124.163 1297.15 126.2 1297.15 Q131.57 1297.15 134.765 1299.84 Q137.959 1302.52 137.959 1307.01 Q137.959 1309.14 137.149 1311.06 Q136.362 1312.96 134.256 1315.55 Q133.677 1316.23 130.575 1319.44 Q127.473 1322.64 121.825 1328.4 Z" fill="#000000" fill-rule="nonzero" fill-opacity="1" /><path clip-path="url(#clip660)" d="M147.959 1326.46 L152.843 1326.46 L152.843 1332.34 L147.959 1332.34 L147.959 1326.46 Z" fill="#000000" fill-rule="nonzero" fill-opacity="1" /><path clip-path="url(#clip660)" d="M173.029 1300.86 Q169.417 1300.86 167.589 1304.42 Q165.783 1307.96 165.783 1315.09 Q165.783 1322.2 167.589 1325.76 Q169.417 1329.3 173.029 1329.3 Q176.663 1329.3 178.468 1325.76 Q180.297 1322.2 180.297 1315.09 Q180.297 1307.96 178.468 1304.42 Q176.663 1300.86 173.029 1300.86 M173.029 1297.15 Q178.839 1297.15 181.894 1301.76 Q184.973 1306.34 184.973 1315.09 Q184.973 1323.82 181.894 1328.42 Q178.839 1333.01 173.029 1333.01 Q167.218 1333.01 164.14 1328.42 Q161.084 1323.82 161.084 1315.09 Q161.084 1306.34 164.14 1301.76 Q167.218 1297.15 173.029 1297.15 Z" fill="#000000" fill-rule="nonzero" fill-opacity="1" /><path clip-path="url(#clip660)" d="M203.19 1300.86 Q199.579 1300.86 197.751 1304.42 Q195.945 1307.96 195.945 1315.09 Q195.945 1322.2 197.751 1325.76 Q199.579 1329.3 203.19 1329.3 Q206.825 1329.3 208.63 1325.76 Q210.459 1322.2 210.459 1315.09 Q210.459 1307.96 208.63 1304.42 Q206.825 1300.86 203.19 1300.86 M203.19 1297.15 Q209.001 1297.15 212.056 1301.76 Q215.135 1306.34 215.135 1315.09 Q215.135 1323.82 212.056 1328.42 Q209.001 1333.01 203.19 1333.01 Q197.38 1333.01 194.302 1328.42 Q191.246 1323.82 191.246 1315.09 Q191.246 1306.34 194.302 1301.76 Q197.38 1297.15 203.19 1297.15 Z" fill="#000000" fill-rule="nonzero" fill-opacity="1" /><path clip-path="url(#clip660)" d="M6.42416 2079.97 L6.42416 2071.31 L46.178 2050.24 L6.42416 2050.24 L6.42416 2044.01 L53.9442 2044.01 L53.9442 2052.66 L14.1903 2073.73 L53.9442 2073.73 L53.9442 2079.97 L6.42416 2079.97 Z" fill="#000000" fill-rule="nonzero" fill-opacity="1" /><path clip-path="url(#clip660)" d="M39.8759 2032.07 L18.2962 2032.07 L18.2962 2026.21 L39.6531 2026.21 Q44.7139 2026.21 47.2602 2024.24 Q49.7746 2022.27 49.7746 2018.32 Q49.7746 2013.58 46.7509 2010.84 Q43.7272 2008.07 38.5073 2008.07 L18.2962 2008.07 L18.2962 2002.21 L53.9442 2002.21 L53.9442 2008.07 L48.4696 2008.07 Q51.7162 2010.2 53.3076 2013.04 Q54.8672 2015.84 54.8672 2019.56 Q54.8672 2025.7 51.0478 2028.89 Q47.2283 2032.07 39.8759 2032.07 M17.4368 2017.33 L17.4368 2017.33 Z" fill="#000000" fill-rule="nonzero" fill-opacity="1" /><path clip-path="url(#clip660)" d="M25.1393 1962.4 Q21.1926 1960.2 19.3147 1957.15 Q17.4368 1954.09 17.4368 1949.95 Q17.4368 1944.38 21.3517 1941.36 Q25.2348 1938.33 32.4281 1938.33 L53.9442 1938.33 L53.9442 1944.22 L32.619 1944.22 Q27.4946 1944.22 25.012 1946.04 Q22.5294 1947.85 22.5294 1951.58 Q22.5294 1956.13 25.5531 1958.77 Q28.5768 1961.41 33.7967 1961.41 L53.9442 1961.41 L53.9442 1967.3 L32.619 1967.3 Q27.4628 1967.3 25.012 1969.11 Q22.5294 1970.93 22.5294 1974.71 Q22.5294 1979.2 25.5849 1981.84 Q28.6086 1984.49 33.7967 1984.49 L53.9442 1984.49 L53.9442 1990.37 L18.2962 1990.37 L18.2962 1984.49 L23.8344 1984.49 Q20.556 1982.48 18.9964 1979.68 Q17.4368 1976.88 17.4368 1973.03 Q17.4368 1969.14 19.4102 1966.44 Q21.3836 1963.7 25.1393 1962.4 Z" fill="#000000" fill-rule="nonzero" fill-opacity="1" /><path clip-path="url(#clip660)" d="M36.152 1901.06 Q29.6908 1901.06 26.0305 1903.74 Q22.3384 1906.38 22.3384 1911.03 Q22.3384 1915.67 26.0305 1918.35 Q29.6908 1920.99 36.152 1920.99 Q42.6132 1920.99 46.3053 1918.35 Q49.9656 1915.67 49.9656 1911.03 Q49.9656 1906.38 46.3053 1903.74 Q42.6132 1901.06 36.152 1901.06 M23.7071 1920.99 Q20.5242 1919.14 18.9964 1916.34 Q17.4368 1913.51 17.4368 1909.59 Q17.4368 1903.1 22.5931 1899.06 Q27.7493 1894.98 36.152 1894.98 Q44.5547 1894.98 49.711 1899.06 Q54.8672 1903.1 54.8672 1909.59 Q54.8672 1913.51 53.3394 1916.34 Q51.7798 1919.14 48.597 1920.99 L53.9442 1920.99 L53.9442 1926.88 L4.41896 1926.88 L4.41896 1920.99 L23.7071 1920.99 Z" fill="#000000" fill-rule="nonzero" fill-opacity="1" /><path clip-path="url(#clip660)" d="M34.6561 1854.78 L37.5206 1854.78 L37.5206 1881.71 Q43.5681 1881.33 46.7509 1878.08 Q49.9019 1874.8 49.9019 1868.98 Q49.9019 1865.61 49.0744 1862.46 Q48.2469 1859.27 46.5918 1856.15 L52.1299 1856.15 Q53.4667 1859.3 54.167 1862.61 Q54.8672 1865.92 54.8672 1869.33 Q54.8672 1877.86 49.9019 1882.86 Q44.9367 1887.82 36.4703 1887.82 Q27.7174 1887.82 22.5931 1883.11 Q17.4368 1878.37 17.4368 1870.35 Q17.4368 1863.16 22.0838 1858.99 Q26.6989 1854.78 34.6561 1854.78 M32.9373 1860.64 Q28.1312 1860.7 25.2666 1863.35 Q22.4021 1865.96 22.4021 1870.28 Q22.4021 1875.19 25.1712 1878.15 Q27.9402 1881.07 32.9692 1881.52 L32.9373 1860.64 Z" fill="#000000" fill-rule="nonzero" fill-opacity="1" /><path clip-path="url(#clip660)" d="M23.7707 1824.52 Q23.1978 1825.5 22.9432 1826.68 Q22.6567 1827.83 22.6567 1829.23 Q22.6567 1834.19 25.9032 1836.87 Q29.1179 1839.51 35.1653 1839.51 L53.9442 1839.51 L53.9442 1845.4 L18.2962 1845.4 L18.2962 1839.51 L23.8344 1839.51 Q20.5879 1837.66 19.0283 1834.7 Q17.4368 1831.74 17.4368 1827.51 Q17.4368 1826.9 17.5323 1826.17 Q17.596 1825.44 17.7551 1824.55 L23.7707 1824.52 Z" fill="#000000" fill-rule="nonzero" fill-opacity="1" /><path clip-path="url(#clip660)" d="M22.4021 1783.84 Q22.4021 1788.55 26.0942 1791.29 Q29.7545 1794.02 36.152 1794.02 Q42.5495 1794.02 46.2417 1791.32 Q49.9019 1788.58 49.9019 1783.84 Q49.9019 1779.16 46.2098 1776.42 Q42.5177 1773.69 36.152 1773.69 Q29.8181 1773.69 26.126 1776.42 Q22.4021 1779.16 22.4021 1783.84 M17.4368 1783.84 Q17.4368 1776.2 22.4021 1771.84 Q27.3673 1767.48 36.152 1767.48 Q44.9049 1767.48 49.9019 1771.84 Q54.8672 1776.2 54.8672 1783.84 Q54.8672 1791.51 49.9019 1795.87 Q44.9049 1800.2 36.152 1800.2 Q27.3673 1800.2 22.4021 1795.87 Q17.4368 1791.51 17.4368 1783.84 Z" fill="#000000" fill-rule="nonzero" fill-opacity="1" /><path clip-path="url(#clip660)" d="M4.41896 1739.72 L9.28873 1739.72 L9.28873 1745.33 Q9.28873 1748.48 10.5619 1749.72 Q11.835 1750.93 15.1452 1750.93 L18.2962 1750.93 L18.2962 1741.28 L22.8477 1741.28 L22.8477 1750.93 L53.9442 1750.93 L53.9442 1756.82 L22.8477 1756.82 L22.8477 1762.42 L18.2962 1762.42 L18.2962 1756.82 L15.8136 1756.82 Q9.86164 1756.82 7.15621 1754.05 Q4.41896 1751.28 4.41896 1745.26 L4.41896 1739.72 Z" fill="#000000" fill-rule="nonzero" fill-opacity="1" /><path clip-path="url(#clip660)" d="M18.2962 1714.1 L18.2962 1708.25 L53.9442 1708.25 L53.9442 1714.1 L18.2962 1714.1 M4.41896 1714.1 L4.41896 1708.25 L11.835 1708.25 L11.835 1714.1 L4.41896 1714.1 Z" fill="#000000" fill-rule="nonzero" fill-opacity="1" /><path clip-path="url(#clip660)" d="M8.17473 1690.2 L18.2962 1690.2 L18.2962 1678.14 L22.8477 1678.14 L22.8477 1690.2 L42.1994 1690.2 Q46.5599 1690.2 47.8013 1689.02 Q49.0426 1687.81 49.0426 1684.15 L49.0426 1678.14 L53.9442 1678.14 L53.9442 1684.15 Q53.9442 1690.93 51.4297 1693.51 Q48.8834 1696.09 42.1994 1696.09 L22.8477 1696.09 L22.8477 1700.38 L18.2962 1700.38 L18.2962 1696.09 L8.17473 1696.09 L8.17473 1690.2 Z" fill="#000000" fill-rule="nonzero" fill-opacity="1" /><path clip-path="url(#clip660)" d="M34.6561 1639.94 L37.5206 1639.94 L37.5206 1666.87 Q43.5681 1666.49 46.7509 1663.24 Q49.9019 1659.96 49.9019 1654.14 Q49.9019 1650.76 49.0744 1647.61 Q48.2469 1644.43 46.5918 1641.31 L52.1299 1641.31 Q53.4667 1644.46 54.167 1647.77 Q54.8672 1651.08 54.8672 1654.49 Q54.8672 1663.02 49.9019 1668.01 Q44.9367 1672.98 36.4703 1672.98 Q27.7174 1672.98 22.5931 1668.27 Q17.4368 1663.53 17.4368 1655.51 Q17.4368 1648.31 22.0838 1644.14 Q26.6989 1639.94 34.6561 1639.94 M32.9373 1645.8 Q28.1312 1645.86 25.2666 1648.5 Q22.4021 1651.11 22.4021 1655.44 Q22.4021 1660.34 25.1712 1663.3 Q27.9402 1666.23 32.9692 1666.68 L32.9373 1645.8 Z" fill="#000000" fill-rule="nonzero" fill-opacity="1" /><path clip-path="url(#clip660)" d="M23.7707 1609.67 Q23.1978 1610.66 22.9432 1611.84 Q22.6567 1612.98 22.6567 1614.38 Q22.6567 1619.35 25.9032 1622.02 Q29.1179 1624.66 35.1653 1624.66 L53.9442 1624.66 L53.9442 1630.55 L18.2962 1630.55 L18.2962 1624.66 L23.8344 1624.66 Q20.5879 1622.82 19.0283 1619.86 Q17.4368 1616.9 17.4368 1612.66 Q17.4368 1612.06 17.5323 1611.33 Q17.596 1610.6 17.7551 1609.7 L23.7707 1609.67 Z" fill="#000000" fill-rule="nonzero" fill-opacity="1" /><path clip-path="url(#clip660)" d="M36.0247 1587.33 Q36.0247 1594.43 37.6479 1597.16 Q39.2712 1599.9 43.1861 1599.9 Q46.3053 1599.9 48.1514 1597.86 Q49.9656 1595.8 49.9656 1592.26 Q49.9656 1587.39 46.5281 1584.46 Q43.0588 1581.5 37.3297 1581.5 L36.0247 1581.5 L36.0247 1587.33 M33.6057 1575.65 L53.9442 1575.65 L53.9442 1581.5 L48.5333 1581.5 Q51.7798 1583.51 53.3394 1586.5 Q54.8672 1589.49 54.8672 1593.82 Q54.8672 1599.3 51.8116 1602.54 Q48.7243 1605.76 43.5681 1605.76 Q37.5525 1605.76 34.4969 1601.75 Q31.4414 1597.71 31.4414 1589.72 L31.4414 1581.5 L30.8685 1581.5 Q26.8262 1581.5 24.6301 1584.18 Q22.4021 1586.82 22.4021 1591.63 Q22.4021 1594.68 23.1341 1597.58 Q23.8662 1600.47 25.3303 1603.15 L19.9195 1603.15 Q18.6781 1599.93 18.0734 1596.91 Q17.4368 1593.89 17.4368 1591.02 Q17.4368 1583.29 21.4472 1579.47 Q25.4576 1575.65 33.6057 1575.65 Z" fill="#000000" fill-rule="nonzero" fill-opacity="1" /><path clip-path="url(#clip660)" d="M8.17473 1557.79 L18.2962 1557.79 L18.2962 1545.73 L22.8477 1545.73 L22.8477 1557.79 L42.1994 1557.79 Q46.5599 1557.79 47.8013 1556.61 Q49.0426 1555.41 49.0426 1551.75 L49.0426 1545.73 L53.9442 1545.73 L53.9442 1551.75 Q53.9442 1558.52 51.4297 1561.1 Q48.8834 1563.68 42.1994 1563.68 L22.8477 1563.68 L22.8477 1567.98 L18.2962 1567.98 L18.2962 1563.68 L8.17473 1563.68 L8.17473 1557.79 Z" fill="#000000" fill-rule="nonzero" fill-opacity="1" /><path clip-path="url(#clip660)" d="M18.2962 1538.03 L18.2962 1532.17 L53.9442 1532.17 L53.9442 1538.03 L18.2962 1538.03 M4.41896 1538.03 L4.41896 1532.17 L11.835 1532.17 L11.835 1538.03 L4.41896 1538.03 Z" fill="#000000" fill-rule="nonzero" fill-opacity="1" /><path clip-path="url(#clip660)" d="M22.4021 1506.1 Q22.4021 1510.81 26.0942 1513.55 Q29.7545 1516.29 36.152 1516.29 Q42.5495 1516.29 46.2417 1513.58 Q49.9019 1510.85 49.9019 1506.1 Q49.9019 1501.42 46.2098 1498.69 Q42.5177 1495.95 36.152 1495.95 Q29.8181 1495.95 26.126 1498.69 Q22.4021 1501.42 22.4021 1506.1 M17.4368 1506.1 Q17.4368 1498.46 22.4021 1494.1 Q27.3673 1489.74 36.152 1489.74 Q44.9049 1489.74 49.9019 1494.1 Q54.8672 1498.46 54.8672 1506.1 Q54.8672 1513.77 49.9019 1518.13 Q44.9049 1522.46 36.152 1522.46 Q27.3673 1522.46 22.4021 1518.13 Q17.4368 1513.77 17.4368 1506.1 Z" fill="#000000" fill-rule="nonzero" fill-opacity="1" /><path clip-path="url(#clip660)" d="M32.4281 1450.4 L53.9442 1450.4 L53.9442 1456.26 L32.619 1456.26 Q27.5583 1456.26 25.0438 1458.23 Q22.5294 1460.21 22.5294 1464.15 Q22.5294 1468.9 25.5531 1471.63 Q28.5768 1474.37 33.7967 1474.37 L53.9442 1474.37 L53.9442 1480.26 L18.2962 1480.26 L18.2962 1474.37 L23.8344 1474.37 Q20.6197 1472.27 19.0283 1469.44 Q17.4368 1466.57 17.4368 1462.85 Q17.4368 1456.71 21.2563 1453.55 Q25.0438 1450.4 32.4281 1450.4 Z" fill="#000000" fill-rule="nonzero" fill-opacity="1" /><path clip-path="url(#clip660)" d="M19.3465 1416 L24.8847 1416 Q23.6116 1418.48 22.975 1421.15 Q22.3384 1423.83 22.3384 1426.69 Q22.3384 1431.05 23.6752 1433.25 Q25.012 1435.41 27.6856 1435.41 Q29.7226 1435.41 30.9003 1433.85 Q32.0461 1432.29 33.0965 1427.58 L33.5421 1425.58 Q34.8789 1419.34 37.3297 1416.73 Q39.7486 1414.09 44.1091 1414.09 Q49.0744 1414.09 51.9708 1418.03 Q54.8672 1421.95 54.8672 1428.82 Q54.8672 1431.69 54.2943 1434.81 Q53.7532 1437.89 52.6392 1441.33 L46.5918 1441.33 Q48.2787 1438.09 49.138 1434.93 Q49.9656 1431.78 49.9656 1428.7 Q49.9656 1424.56 48.5651 1422.33 Q47.1329 1420.1 44.5547 1420.1 Q42.1676 1420.1 40.8945 1421.73 Q39.6213 1423.32 38.4437 1428.76 L37.9662 1430.8 Q36.8204 1436.24 34.4651 1438.66 Q32.078 1441.08 27.9402 1441.08 Q22.9113 1441.08 20.1741 1437.51 Q17.4368 1433.95 17.4368 1427.39 Q17.4368 1424.14 17.9143 1421.28 Q18.3917 1418.42 19.3465 1416 Z" fill="#000000" fill-rule="nonzero" fill-opacity="1" /><circle clip-path="url(#clip661)" cx="344.917" cy="2179" r="14.4" fill="#009af9" fill-rule="evenodd" fill-opacity="1" stroke="#000000" stroke-opacity="1" stroke-width="4.8"/>
<circle clip-path="url(#clip661)" cx="1026.43" cy="2179" r="14.4" fill="#009af9" fill-rule="evenodd" fill-opacity="1" stroke="#000000" stroke-opacity="1" stroke-width="4.8"/>
<circle clip-path="url(#clip661)" cx="1707.95" cy="2179" r="14.4" fill="#009af9" fill-rule="evenodd" fill-opacity="1" stroke="#000000" stroke-opacity="1" stroke-width="4.8"/>
<circle clip-path="url(#clip661)" cx="2389.46" cy="2179" r="14.4" fill="#009af9" fill-rule="evenodd" fill-opacity="1" stroke="#000000" stroke-opacity="1" stroke-width="4.8"/>
<circle clip-path="url(#clip661)" cx="3070.97" cy="2179" r="14.4" fill="#009af9" fill-rule="evenodd" fill-opacity="1" stroke="#000000" stroke-opacity="1" stroke-width="4.8"/>
<path clip-path="url(#clip660)" d="M2548.65 1423.34 L3056.44 1423.34 L3056.44 1319.66 L2548.65 1319.66  Z" fill="#ffffff" fill-rule="evenodd" fill-opacity="1"/>
<polyline clip-path="url(#clip660)" style="stroke:#000000; stroke-linecap:round; stroke-linejoin:round; stroke-width:4; stroke-opacity:1; fill:none" points="2548.65,1423.34 3056.44,1423.34 3056.44,1319.66 2548.65,1319.66 2548.65,1423.34 "/>
<circle clip-path="url(#clip660)" cx="2677.08" cy="1371.5" r="20.48" fill="#009af9" fill-rule="evenodd" fill-opacity="1" stroke="#000000" stroke-opacity="1" stroke-width="6.82667"/>
<path clip-path="url(#clip660)" d="M2805.51 1354.22 L2810.19 1354.22 L2810.19 1388.78 L2805.51 1388.78 L2805.51 1354.22 Z" fill="#000000" fill-rule="nonzero" fill-opacity="1" /><path clip-path="url(#clip660)" d="M2823.52 1355.5 L2823.52 1362.86 L2832.29 1362.86 L2832.29 1366.17 L2823.52 1366.17 L2823.52 1380.24 Q2823.52 1383.41 2824.38 1384.32 Q2825.26 1385.22 2827.92 1385.22 L2832.29 1385.22 L2832.29 1388.78 L2827.92 1388.78 Q2822.99 1388.78 2821.11 1386.96 Q2819.24 1385.1 2819.24 1380.24 L2819.24 1366.17 L2816.11 1366.17 L2816.11 1362.86 L2819.24 1362.86 L2819.24 1355.5 L2823.52 1355.5 Z" fill="#000000" fill-rule="nonzero" fill-opacity="1" /><path clip-path="url(#clip660)" d="M2860.07 1374.76 L2860.07 1376.84 L2840.49 1376.84 Q2840.76 1381.24 2843.13 1383.55 Q2845.51 1385.84 2849.75 1385.84 Q2852.2 1385.84 2854.49 1385.24 Q2856.81 1384.64 2859.07 1383.44 L2859.07 1387.46 Q2856.78 1388.44 2854.38 1388.95 Q2851.97 1389.46 2849.49 1389.46 Q2843.29 1389.46 2839.65 1385.84 Q2836.04 1382.23 2836.04 1376.08 Q2836.04 1369.71 2839.47 1365.98 Q2842.92 1362.23 2848.75 1362.23 Q2853.98 1362.23 2857.01 1365.61 Q2860.07 1368.97 2860.07 1374.76 M2855.81 1373.51 Q2855.76 1370.01 2853.84 1367.93 Q2851.94 1365.84 2848.8 1365.84 Q2845.23 1365.84 2843.08 1367.86 Q2840.95 1369.87 2840.63 1373.53 L2855.81 1373.51 Z" fill="#000000" fill-rule="nonzero" fill-opacity="1" /><path clip-path="url(#clip660)" d="M2882.08 1366.84 Q2881.37 1366.42 2880.51 1366.24 Q2879.68 1366.03 2878.66 1366.03 Q2875.05 1366.03 2873.1 1368.39 Q2871.18 1370.73 2871.18 1375.13 L2871.18 1388.78 L2866.9 1388.78 L2866.9 1362.86 L2871.18 1362.86 L2871.18 1366.89 Q2872.52 1364.53 2874.68 1363.39 Q2876.83 1362.23 2879.91 1362.23 Q2880.35 1362.23 2880.88 1362.3 Q2881.41 1362.35 2882.06 1362.46 L2882.08 1366.84 Z" fill="#000000" fill-rule="nonzero" fill-opacity="1" /><path clip-path="url(#clip660)" d="M2898.33 1375.75 Q2893.17 1375.75 2891.18 1376.93 Q2889.19 1378.11 2889.19 1380.96 Q2889.19 1383.23 2890.67 1384.57 Q2892.18 1385.89 2894.75 1385.89 Q2898.29 1385.89 2900.42 1383.39 Q2902.57 1380.87 2902.57 1376.7 L2902.57 1375.75 L2898.33 1375.75 M2906.83 1373.99 L2906.83 1388.78 L2902.57 1388.78 L2902.57 1384.85 Q2901.11 1387.21 2898.94 1388.34 Q2896.76 1389.46 2893.61 1389.46 Q2889.63 1389.46 2887.27 1387.23 Q2884.93 1384.99 2884.93 1381.24 Q2884.93 1376.86 2887.85 1374.64 Q2890.79 1372.42 2896.6 1372.42 L2902.57 1372.42 L2902.57 1372 Q2902.57 1369.06 2900.63 1367.46 Q2898.7 1365.84 2895.21 1365.84 Q2892.99 1365.84 2890.88 1366.38 Q2888.77 1366.91 2886.83 1367.97 L2886.83 1364.04 Q2889.17 1363.14 2891.37 1362.7 Q2893.57 1362.23 2895.65 1362.23 Q2901.27 1362.23 2904.05 1365.15 Q2906.83 1368.07 2906.83 1373.99 Z" fill="#000000" fill-rule="nonzero" fill-opacity="1" /><path clip-path="url(#clip660)" d="M2919.81 1355.5 L2919.81 1362.86 L2928.59 1362.86 L2928.59 1366.17 L2919.81 1366.17 L2919.81 1380.24 Q2919.81 1383.41 2920.67 1384.32 Q2921.55 1385.22 2924.21 1385.22 L2928.59 1385.22 L2928.59 1388.78 L2924.21 1388.78 Q2919.28 1388.78 2917.41 1386.96 Q2915.53 1385.1 2915.53 1380.24 L2915.53 1366.17 L2912.41 1366.17 L2912.41 1362.86 L2915.53 1362.86 L2915.53 1355.5 L2919.81 1355.5 Z" fill="#000000" fill-rule="nonzero" fill-opacity="1" /><path clip-path="url(#clip660)" d="M2934.19 1362.86 L2938.45 1362.86 L2938.45 1388.78 L2934.19 1388.78 L2934.19 1362.86 M2934.19 1352.77 L2938.45 1352.77 L2938.45 1358.16 L2934.19 1358.16 L2934.19 1352.77 Z" fill="#000000" fill-rule="nonzero" fill-opacity="1" /><path clip-path="url(#clip660)" d="M2957.41 1365.84 Q2953.98 1365.84 2951.99 1368.53 Q2950 1371.19 2950 1375.84 Q2950 1380.5 2951.97 1383.18 Q2953.96 1385.84 2957.41 1385.84 Q2960.81 1385.84 2962.8 1383.16 Q2964.79 1380.47 2964.79 1375.84 Q2964.79 1371.24 2962.8 1368.55 Q2960.81 1365.84 2957.41 1365.84 M2957.41 1362.23 Q2962.96 1362.23 2966.13 1365.84 Q2969.31 1369.46 2969.31 1375.84 Q2969.31 1382.21 2966.13 1385.84 Q2962.96 1389.46 2957.41 1389.46 Q2951.83 1389.46 2948.66 1385.84 Q2945.51 1382.21 2945.51 1375.84 Q2945.51 1369.46 2948.66 1365.84 Q2951.83 1362.23 2957.41 1362.23 Z" fill="#000000" fill-rule="nonzero" fill-opacity="1" /><path clip-path="url(#clip660)" d="M2997.92 1373.14 L2997.92 1388.78 L2993.66 1388.78 L2993.66 1373.27 Q2993.66 1369.59 2992.22 1367.77 Q2990.79 1365.94 2987.92 1365.94 Q2984.47 1365.94 2982.48 1368.14 Q2980.49 1370.34 2980.49 1374.13 L2980.49 1388.78 L2976.2 1388.78 L2976.2 1362.86 L2980.49 1362.86 L2980.49 1366.89 Q2982.01 1364.55 2984.07 1363.39 Q2986.16 1362.23 2988.87 1362.23 Q2993.33 1362.23 2995.62 1365.01 Q2997.92 1367.77 2997.92 1373.14 Z" fill="#000000" fill-rule="nonzero" fill-opacity="1" /><path clip-path="url(#clip660)" d="M3022.94 1363.62 L3022.94 1367.65 Q3021.13 1366.72 3019.19 1366.26 Q3017.25 1365.8 3015.16 1365.8 Q3011.99 1365.8 3010.39 1366.77 Q3008.82 1367.74 3008.82 1369.69 Q3008.82 1371.17 3009.95 1372.02 Q3011.09 1372.86 3014.51 1373.62 L3015.97 1373.95 Q3020.51 1374.92 3022.41 1376.7 Q3024.33 1378.46 3024.33 1381.63 Q3024.33 1385.24 3021.46 1387.35 Q3018.61 1389.46 3013.61 1389.46 Q3011.53 1389.46 3009.26 1389.04 Q3007.01 1388.65 3004.51 1387.84 L3004.51 1383.44 Q3006.87 1384.66 3009.17 1385.29 Q3011.46 1385.89 3013.7 1385.89 Q3016.71 1385.89 3018.33 1384.87 Q3019.95 1383.83 3019.95 1381.96 Q3019.95 1380.22 3018.77 1379.29 Q3017.62 1378.37 3013.66 1377.51 L3012.18 1377.16 Q3008.22 1376.33 3006.46 1374.62 Q3004.7 1372.88 3004.7 1369.87 Q3004.7 1366.21 3007.29 1364.22 Q3009.88 1362.23 3014.65 1362.23 Q3017.01 1362.23 3019.1 1362.58 Q3021.18 1362.93 3022.94 1363.62 Z" fill="#000000" fill-rule="nonzero" fill-opacity="1" /></svg>
