<?xml version="1.0" encoding="utf-8"?>
<svg xmlns="http://www.w3.org/2000/svg" xmlns:xlink="http://www.w3.org/1999/xlink" width="600" height="400" viewBox="0 0 2400 1600">
<defs>
  <clipPath id="clip830">
    <rect x="0" y="0" width="2400" height="1600"/>
  </clipPath>
</defs>
<path clip-path="url(#clip830)" d="M0 1600 L2400 1600 L2400 0 L0 0  Z" fill="#ffffff" fill-rule="evenodd" fill-opacity="1"/>
<defs>
  <clipPath id="clip831">
    <rect x="318" y="123" width="2036" height="1301"/>
  </clipPath>
</defs>
<path clip-path="url(#clip830)" d="M318.014 1423.18 L2352.76 1423.18 L2352.76 123.472 L318.014 123.472  Z" fill="#ffffff" fill-rule="evenodd" fill-opacity="1"/>
<polyline clip-path="url(#clip831)" style="stroke:#000000; stroke-linecap:round; stroke-linejoin:round; stroke-width:2; stroke-opacity:0.1; fill:none" points="375.601,1423.18 375.601,123.472 "/>
<polyline clip-path="url(#clip831)" style="stroke:#000000; stroke-linecap:round; stroke-linejoin:round; stroke-width:2; stroke-opacity:0.1; fill:none" points="850.63,1423.18 850.63,123.472 "/>
<polyline clip-path="url(#clip831)" style="stroke:#000000; stroke-linecap:round; stroke-linejoin:round; stroke-width:2; stroke-opacity:0.1; fill:none" points="1325.66,1423.18 1325.66,123.472 "/>
<polyline clip-path="url(#clip831)" style="stroke:#000000; stroke-linecap:round; stroke-linejoin:round; stroke-width:2; stroke-opacity:0.1; fill:none" points="1800.69,1423.18 1800.69,123.472 "/>
<polyline clip-path="url(#clip831)" style="stroke:#000000; stroke-linecap:round; stroke-linejoin:round; stroke-width:2; stroke-opacity:0.1; fill:none" points="2275.72,1423.18 2275.72,123.472 "/>
<polyline clip-path="url(#clip831)" style="stroke:#000000; stroke-linecap:round; stroke-linejoin:round; stroke-width:2; stroke-opacity:0.1; fill:none" points="318.014,1287.13 2352.76,1287.13 "/>
<polyline clip-path="url(#clip831)" style="stroke:#000000; stroke-linecap:round; stroke-linejoin:round; stroke-width:2; stroke-opacity:0.1; fill:none" points="318.014,1081.54 2352.76,1081.54 "/>
<polyline clip-path="url(#clip831)" style="stroke:#000000; stroke-linecap:round; stroke-linejoin:round; stroke-width:2; stroke-opacity:0.1; fill:none" points="318.014,875.955 2352.76,875.955 "/>
<polyline clip-path="url(#clip831)" style="stroke:#000000; stroke-linecap:round; stroke-linejoin:round; stroke-width:2; stroke-opacity:0.1; fill:none" points="318.014,670.369 2352.76,670.369 "/>
<polyline clip-path="url(#clip831)" style="stroke:#000000; stroke-linecap:round; stroke-linejoin:round; stroke-width:2; stroke-opacity:0.1; fill:none" points="318.014,464.783 2352.76,464.783 "/>
<polyline clip-path="url(#clip831)" style="stroke:#000000; stroke-linecap:round; stroke-linejoin:round; stroke-width:2; stroke-opacity:0.1; fill:none" points="318.014,259.197 2352.76,259.197 "/>
<polyline clip-path="url(#clip830)" style="stroke:#000000; stroke-linecap:round; stroke-linejoin:round; stroke-width:4; stroke-opacity:1; fill:none" points="318.014,1423.18 2352.76,1423.18 "/>
<polyline clip-path="url(#clip830)" style="stroke:#000000; stroke-linecap:round; stroke-linejoin:round; stroke-width:4; stroke-opacity:1; fill:none" points="375.601,1423.18 375.601,1404.28 "/>
<polyline clip-path="url(#clip830)" style="stroke:#000000; stroke-linecap:round; stroke-linejoin:round; stroke-width:4; stroke-opacity:1; fill:none" points="850.63,1423.18 850.63,1404.28 "/>
<polyline clip-path="url(#clip830)" style="stroke:#000000; stroke-linecap:round; stroke-linejoin:round; stroke-width:4; stroke-opacity:1; fill:none" points="1325.66,1423.18 1325.66,1404.28 "/>
<polyline clip-path="url(#clip830)" style="stroke:#000000; stroke-linecap:round; stroke-linejoin:round; stroke-width:4; stroke-opacity:1; fill:none" points="1800.69,1423.18 1800.69,1404.28 "/>
<polyline clip-path="url(#clip830)" style="stroke:#000000; stroke-linecap:round; stroke-linejoin:round; stroke-width:4; stroke-opacity:1; fill:none" points="2275.72,1423.18 2275.72,1404.28 "/>
<path clip-path="url(#clip830)" d="M337.904 1454.1 Q334.293 1454.1 332.465 1457.66 Q330.659 1461.2 330.659 1468.33 Q330.659 1475.44 332.465 1479.01 Q334.293 1482.55 337.904 1482.55 Q341.539 1482.55 343.344 1479.01 Q345.173 1475.44 345.173 1468.33 Q345.173 1461.2 343.344 1457.66 Q341.539 1454.1 337.904 1454.1 M337.904 1450.39 Q343.715 1450.39 346.77 1455 Q349.849 1459.58 349.849 1468.33 Q349.849 1477.06 346.77 1481.67 Q343.715 1486.25 337.904 1486.25 Q332.094 1486.25 329.016 1481.67 Q325.96 1477.06 325.96 1468.33 Q325.96 1459.58 329.016 1455 Q332.094 1450.39 337.904 1450.39 Z" fill="#000000" fill-rule="nonzero" fill-opacity="1" /><path clip-path="url(#clip830)" d="M358.066 1479.7 L362.951 1479.7 L362.951 1485.58 L358.066 1485.58 L358.066 1479.7 Z" fill="#000000" fill-rule="nonzero" fill-opacity="1" /><path clip-path="url(#clip830)" d="M383.136 1454.1 Q379.525 1454.1 377.696 1457.66 Q375.89 1461.2 375.89 1468.33 Q375.89 1475.44 377.696 1479.01 Q379.525 1482.55 383.136 1482.55 Q386.77 1482.55 388.575 1479.01 Q390.404 1475.44 390.404 1468.33 Q390.404 1461.2 388.575 1457.66 Q386.77 1454.1 383.136 1454.1 M383.136 1450.39 Q388.946 1450.39 392.001 1455 Q395.08 1459.58 395.08 1468.33 Q395.08 1477.06 392.001 1481.67 Q388.946 1486.25 383.136 1486.25 Q377.325 1486.25 374.247 1481.67 Q371.191 1477.06 371.191 1468.33 Q371.191 1459.58 374.247 1455 Q377.325 1450.39 383.136 1450.39 Z" fill="#000000" fill-rule="nonzero" fill-opacity="1" /><path clip-path="url(#clip830)" d="M413.297 1454.1 Q409.686 1454.1 407.858 1457.66 Q406.052 1461.2 406.052 1468.33 Q406.052 1475.44 407.858 1479.01 Q409.686 1482.55 413.297 1482.55 Q416.932 1482.55 418.737 1479.01 Q420.566 1475.44 420.566 1468.33 Q420.566 1461.2 418.737 1457.66 Q416.932 1454.1 413.297 1454.1 M413.297 1450.39 Q419.108 1450.39 422.163 1455 Q425.242 1459.58 425.242 1468.33 Q425.242 1477.06 422.163 1481.67 Q419.108 1486.25 413.297 1486.25 Q407.487 1486.25 404.409 1481.67 Q401.353 1477.06 401.353 1468.33 Q401.353 1459.58 404.409 1455 Q407.487 1450.39 413.297 1450.39 Z" fill="#000000" fill-rule="nonzero" fill-opacity="1" /><path clip-path="url(#clip830)" d="M813.431 1454.1 Q809.82 1454.1 807.991 1457.66 Q806.186 1461.2 806.186 1468.33 Q806.186 1475.44 807.991 1479.01 Q809.82 1482.55 813.431 1482.55 Q817.065 1482.55 818.871 1479.01 Q820.7 1475.44 820.7 1468.33 Q820.7 1461.2 818.871 1457.66 Q817.065 1454.1 813.431 1454.1 M813.431 1450.39 Q819.241 1450.39 822.297 1455 Q825.375 1459.58 825.375 1468.33 Q825.375 1477.06 822.297 1481.67 Q819.241 1486.25 813.431 1486.25 Q807.621 1486.25 804.542 1481.67 Q801.487 1477.06 801.487 1468.33 Q801.487 1459.58 804.542 1455 Q807.621 1450.39 813.431 1450.39 Z" fill="#000000" fill-rule="nonzero" fill-opacity="1" /><path clip-path="url(#clip830)" d="M833.593 1479.7 L838.477 1479.7 L838.477 1485.58 L833.593 1485.58 L833.593 1479.7 Z" fill="#000000" fill-rule="nonzero" fill-opacity="1" /><path clip-path="url(#clip830)" d="M858.662 1454.1 Q855.051 1454.1 853.223 1457.66 Q851.417 1461.2 851.417 1468.33 Q851.417 1475.44 853.223 1479.01 Q855.051 1482.55 858.662 1482.55 Q862.297 1482.55 864.102 1479.01 Q865.931 1475.44 865.931 1468.33 Q865.931 1461.2 864.102 1457.66 Q862.297 1454.1 858.662 1454.1 M858.662 1450.39 Q864.472 1450.39 867.528 1455 Q870.607 1459.58 870.607 1468.33 Q870.607 1477.06 867.528 1481.67 Q864.472 1486.25 858.662 1486.25 Q852.852 1486.25 849.773 1481.67 Q846.718 1477.06 846.718 1468.33 Q846.718 1459.58 849.773 1455 Q852.852 1450.39 858.662 1450.39 Z" fill="#000000" fill-rule="nonzero" fill-opacity="1" /><path clip-path="url(#clip830)" d="M878.871 1451.02 L897.227 1451.02 L897.227 1454.96 L883.153 1454.96 L883.153 1463.43 Q884.171 1463.08 885.19 1462.92 Q886.208 1462.73 887.227 1462.73 Q893.014 1462.73 896.394 1465.9 Q899.773 1469.08 899.773 1474.49 Q899.773 1480.07 896.301 1483.17 Q892.829 1486.25 886.509 1486.25 Q884.333 1486.25 882.065 1485.88 Q879.82 1485.51 877.412 1484.77 L877.412 1480.07 Q879.496 1481.2 881.718 1481.76 Q883.94 1482.32 886.417 1482.32 Q890.421 1482.32 892.759 1480.21 Q895.097 1478.1 895.097 1474.49 Q895.097 1470.88 892.759 1468.77 Q890.421 1466.67 886.417 1466.67 Q884.542 1466.67 882.667 1467.08 Q880.815 1467.5 878.871 1468.38 L878.871 1451.02 Z" fill="#000000" fill-rule="nonzero" fill-opacity="1" /><path clip-path="url(#clip830)" d="M1287.96 1454.1 Q1284.35 1454.1 1282.52 1457.66 Q1280.72 1461.2 1280.72 1468.33 Q1280.72 1475.44 1282.52 1479.01 Q1284.35 1482.55 1287.96 1482.55 Q1291.6 1482.55 1293.4 1479.01 Q1295.23 1475.44 1295.23 1468.33 Q1295.23 1461.2 1293.4 1457.66 Q1291.6 1454.1 1287.96 1454.1 M1287.96 1450.39 Q1293.77 1450.39 1296.83 1455 Q1299.91 1459.58 1299.91 1468.33 Q1299.91 1477.06 1296.83 1481.67 Q1293.77 1486.25 1287.96 1486.25 Q1282.15 1486.25 1279.07 1481.67 Q1276.02 1477.06 1276.02 1468.33 Q1276.02 1459.58 1279.07 1455 Q1282.15 1450.39 1287.96 1450.39 Z" fill="#000000" fill-rule="nonzero" fill-opacity="1" /><path clip-path="url(#clip830)" d="M1308.12 1479.7 L1313.01 1479.7 L1313.01 1485.58 L1308.12 1485.58 L1308.12 1479.7 Z" fill="#000000" fill-rule="nonzero" fill-opacity="1" /><path clip-path="url(#clip830)" d="M1324 1481.64 L1331.64 1481.64 L1331.64 1455.28 L1323.33 1456.95 L1323.33 1452.69 L1331.6 1451.02 L1336.27 1451.02 L1336.27 1481.64 L1343.91 1481.64 L1343.91 1485.58 L1324 1485.58 L1324 1481.64 Z" fill="#000000" fill-rule="nonzero" fill-opacity="1" /><path clip-path="url(#clip830)" d="M1363.36 1454.1 Q1359.74 1454.1 1357.92 1457.66 Q1356.11 1461.2 1356.11 1468.33 Q1356.11 1475.44 1357.92 1479.01 Q1359.74 1482.55 1363.36 1482.55 Q1366.99 1482.55 1368.8 1479.01 Q1370.62 1475.44 1370.62 1468.33 Q1370.62 1461.2 1368.8 1457.66 Q1366.99 1454.1 1363.36 1454.1 M1363.36 1450.39 Q1369.17 1450.39 1372.22 1455 Q1375.3 1459.58 1375.3 1468.33 Q1375.3 1477.06 1372.22 1481.67 Q1369.17 1486.25 1363.36 1486.25 Q1357.55 1486.25 1354.47 1481.67 Q1351.41 1477.06 1351.41 1468.33 Q1351.41 1459.58 1354.47 1455 Q1357.55 1450.39 1363.36 1450.39 Z" fill="#000000" fill-rule="nonzero" fill-opacity="1" /><path clip-path="url(#clip830)" d="M1763.49 1454.1 Q1759.88 1454.1 1758.05 1457.66 Q1756.24 1461.2 1756.24 1468.33 Q1756.24 1475.44 1758.05 1479.01 Q1759.88 1482.55 1763.49 1482.55 Q1767.12 1482.55 1768.93 1479.01 Q1770.76 1475.44 1770.76 1468.33 Q1770.76 1461.2 1768.93 1457.66 Q1767.12 1454.1 1763.49 1454.1 M1763.49 1450.39 Q1769.3 1450.39 1772.35 1455 Q1775.43 1459.58 1775.43 1468.33 Q1775.43 1477.06 1772.35 1481.67 Q1769.3 1486.25 1763.49 1486.25 Q1757.68 1486.25 1754.6 1481.67 Q1751.54 1477.06 1751.54 1468.33 Q1751.54 1459.58 1754.6 1455 Q1757.68 1450.39 1763.49 1450.39 Z" fill="#000000" fill-rule="nonzero" fill-opacity="1" /><path clip-path="url(#clip830)" d="M1783.65 1479.7 L1788.54 1479.7 L1788.54 1485.58 L1783.65 1485.58 L1783.65 1479.7 Z" fill="#000000" fill-rule="nonzero" fill-opacity="1" /><path clip-path="url(#clip830)" d="M1799.53 1481.64 L1807.17 1481.64 L1807.17 1455.28 L1798.86 1456.95 L1798.86 1452.69 L1807.12 1451.02 L1811.8 1451.02 L1811.8 1481.64 L1819.44 1481.64 L1819.44 1485.58 L1799.53 1485.58 L1799.53 1481.64 Z" fill="#000000" fill-rule="nonzero" fill-opacity="1" /><path clip-path="url(#clip830)" d="M1828.93 1451.02 L1847.28 1451.02 L1847.28 1454.96 L1833.21 1454.96 L1833.21 1463.43 Q1834.23 1463.08 1835.25 1462.92 Q1836.27 1462.73 1837.29 1462.73 Q1843.07 1462.73 1846.45 1465.9 Q1849.83 1469.08 1849.83 1474.49 Q1849.83 1480.07 1846.36 1483.17 Q1842.89 1486.25 1836.57 1486.25 Q1834.39 1486.25 1832.12 1485.88 Q1829.88 1485.51 1827.47 1484.77 L1827.47 1480.07 Q1829.55 1481.2 1831.78 1481.76 Q1834 1482.32 1836.47 1482.32 Q1840.48 1482.32 1842.82 1480.21 Q1845.16 1478.1 1845.16 1474.49 Q1845.16 1470.88 1842.82 1468.77 Q1840.48 1466.67 1836.47 1466.67 Q1834.6 1466.67 1832.72 1467.08 Q1830.87 1467.5 1828.93 1468.38 L1828.93 1451.02 Z" fill="#000000" fill-rule="nonzero" fill-opacity="1" /><path clip-path="url(#clip830)" d="M2238.02 1454.1 Q2234.41 1454.1 2232.58 1457.66 Q2230.78 1461.2 2230.78 1468.33 Q2230.78 1475.44 2232.58 1479.01 Q2234.41 1482.55 2238.02 1482.55 Q2241.65 1482.55 2243.46 1479.01 Q2245.29 1475.44 2245.29 1468.33 Q2245.29 1461.2 2243.46 1457.66 Q2241.65 1454.1 2238.02 1454.1 M2238.02 1450.39 Q2243.83 1450.39 2246.89 1455 Q2249.96 1459.58 2249.96 1468.33 Q2249.96 1477.06 2246.89 1481.67 Q2243.83 1486.25 2238.02 1486.25 Q2232.21 1486.25 2229.13 1481.67 Q2226.08 1477.06 2226.08 1468.33 Q2226.08 1459.58 2229.13 1455 Q2232.21 1450.39 2238.02 1450.39 Z" fill="#000000" fill-rule="nonzero" fill-opacity="1" /><path clip-path="url(#clip830)" d="M2258.18 1479.7 L2263.07 1479.7 L2263.07 1485.58 L2258.18 1485.58 L2258.18 1479.7 Z" fill="#000000" fill-rule="nonzero" fill-opacity="1" /><path clip-path="url(#clip830)" d="M2277.28 1481.64 L2293.6 1481.64 L2293.6 1485.58 L2271.65 1485.58 L2271.65 1481.64 Q2274.32 1478.89 2278.9 1474.26 Q2283.51 1469.61 2284.69 1468.27 Q2286.93 1465.74 2287.81 1464.01 Q2288.71 1462.25 2288.71 1460.56 Q2288.71 1457.8 2286.77 1456.07 Q2284.85 1454.33 2281.75 1454.33 Q2279.55 1454.33 2277.09 1455.09 Q2274.66 1455.86 2271.89 1457.41 L2271.89 1452.69 Q2274.71 1451.55 2277.16 1450.97 Q2279.62 1450.39 2281.65 1450.39 Q2287.02 1450.39 2290.22 1453.08 Q2293.41 1455.77 2293.41 1460.26 Q2293.41 1462.39 2292.6 1464.31 Q2291.82 1466.2 2289.71 1468.8 Q2289.13 1469.47 2286.03 1472.69 Q2282.93 1475.88 2277.28 1481.64 Z" fill="#000000" fill-rule="nonzero" fill-opacity="1" /><path clip-path="url(#clip830)" d="M2313.41 1454.1 Q2309.8 1454.1 2307.97 1457.66 Q2306.17 1461.2 2306.17 1468.33 Q2306.17 1475.44 2307.97 1479.01 Q2309.8 1482.55 2313.41 1482.55 Q2317.05 1482.55 2318.85 1479.01 Q2320.68 1475.44 2320.68 1468.33 Q2320.68 1461.2 2318.85 1457.66 Q2317.05 1454.1 2313.41 1454.1 M2313.41 1450.39 Q2319.22 1450.39 2322.28 1455 Q2325.36 1459.58 2325.36 1468.33 Q2325.36 1477.06 2322.28 1481.67 Q2319.22 1486.25 2313.41 1486.25 Q2307.6 1486.25 2304.52 1481.67 Q2301.47 1477.06 2301.47 1468.33 Q2301.47 1459.58 2304.52 1455 Q2307.6 1450.39 2313.41 1450.39 Z" fill="#000000" fill-rule="nonzero" fill-opacity="1" /><path clip-path="url(#clip830)" d="M1257.26 1520.52 L1297.46 1520.52 L1297.46 1525.93 L1280.59 1525.93 L1280.59 1568.04 L1274.13 1568.04 L1274.13 1525.93 L1257.26 1525.93 L1257.26 1520.52 Z" fill="#000000" fill-rule="nonzero" fill-opacity="1" /><path clip-path="url(#clip830)" d="M1301.41 1532.4 L1307.26 1532.4 L1307.26 1568.04 L1301.41 1568.04 L1301.41 1532.4 M1301.41 1518.52 L1307.26 1518.52 L1307.26 1525.93 L1301.41 1525.93 L1301.41 1518.52 Z" fill="#000000" fill-rule="nonzero" fill-opacity="1" /><path clip-path="url(#clip830)" d="M1347.27 1539.24 Q1349.47 1535.29 1352.52 1533.41 Q1355.58 1531.54 1359.72 1531.54 Q1365.29 1531.54 1368.31 1535.45 Q1371.34 1539.33 1371.34 1546.53 L1371.34 1568.04 L1365.45 1568.04 L1365.45 1546.72 Q1365.45 1541.59 1363.63 1539.11 Q1361.82 1536.63 1358.09 1536.63 Q1353.54 1536.63 1350.9 1539.65 Q1348.26 1542.68 1348.26 1547.9 L1348.26 1568.04 L1342.37 1568.04 L1342.37 1546.72 Q1342.37 1541.56 1340.56 1539.11 Q1338.74 1536.63 1334.96 1536.63 Q1330.47 1536.63 1327.83 1539.68 Q1325.18 1542.71 1325.18 1547.9 L1325.18 1568.04 L1319.3 1568.04 L1319.3 1532.4 L1325.18 1532.4 L1325.18 1537.93 Q1327.19 1534.66 1329.99 1533.1 Q1332.79 1531.54 1336.64 1531.54 Q1340.53 1531.54 1343.23 1533.51 Q1345.97 1535.48 1347.27 1539.24 Z" fill="#000000" fill-rule="nonzero" fill-opacity="1" /><path clip-path="url(#clip830)" d="M1413.51 1548.76 L1413.51 1551.62 L1386.58 1551.62 Q1386.96 1557.67 1390.21 1560.85 Q1393.49 1564 1399.31 1564 Q1402.69 1564 1405.84 1563.17 Q1409.02 1562.35 1412.14 1560.69 L1412.14 1566.23 Q1408.99 1567.57 1405.68 1568.27 Q1402.37 1568.97 1398.96 1568.97 Q1390.43 1568.97 1385.44 1564 Q1380.47 1559.04 1380.47 1550.57 Q1380.47 1541.82 1385.18 1536.69 Q1389.92 1531.54 1397.94 1531.54 Q1405.14 1531.54 1409.31 1536.18 Q1413.51 1540.8 1413.51 1548.76 M1407.65 1547.04 Q1407.59 1542.23 1404.95 1539.37 Q1402.34 1536.5 1398.01 1536.5 Q1393.11 1536.5 1390.15 1539.27 Q1387.22 1542.04 1386.77 1547.07 L1407.65 1547.04 Z" fill="#000000" fill-rule="nonzero" fill-opacity="1" /><polyline clip-path="url(#clip830)" style="stroke:#000000; stroke-linecap:round; stroke-linejoin:round; stroke-width:4; stroke-opacity:1; fill:none" points="318.014,1423.18 318.014,123.472 "/>
<polyline clip-path="url(#clip830)" style="stroke:#000000; stroke-linecap:round; stroke-linejoin:round; stroke-width:4; stroke-opacity:1; fill:none" points="318.014,1287.13 336.912,1287.13 "/>
<polyline clip-path="url(#clip830)" style="stroke:#000000; stroke-linecap:round; stroke-linejoin:round; stroke-width:4; stroke-opacity:1; fill:none" points="318.014,1081.54 336.912,1081.54 "/>
<polyline clip-path="url(#clip830)" style="stroke:#000000; stroke-linecap:round; stroke-linejoin:round; stroke-width:4; stroke-opacity:1; fill:none" points="318.014,875.955 336.912,875.955 "/>
<polyline clip-path="url(#clip830)" style="stroke:#000000; stroke-linecap:round; stroke-linejoin:round; stroke-width:4; stroke-opacity:1; fill:none" points="318.014,670.369 336.912,670.369 "/>
<polyline clip-path="url(#clip830)" style="stroke:#000000; stroke-linecap:round; stroke-linejoin:round; stroke-width:4; stroke-opacity:1; fill:none" points="318.014,464.783 336.912,464.783 "/>
<polyline clip-path="url(#clip830)" style="stroke:#000000; stroke-linecap:round; stroke-linejoin:round; stroke-width:4; stroke-opacity:1; fill:none" points="318.014,259.197 336.912,259.197 "/>
<path clip-path="url(#clip830)" d="M115.742 1287.58 L145.417 1287.58 L145.417 1291.51 L115.742 1291.51 L115.742 1287.58 Z" fill="#000000" fill-rule="nonzero" fill-opacity="1" /><path clip-path="url(#clip830)" d="M165.51 1272.93 Q161.899 1272.93 160.07 1276.49 Q158.265 1280.03 158.265 1287.16 Q158.265 1294.27 160.07 1297.83 Q161.899 1301.37 165.51 1301.37 Q169.144 1301.37 170.95 1297.83 Q172.778 1294.27 172.778 1287.16 Q172.778 1280.03 170.95 1276.49 Q169.144 1272.93 165.51 1272.93 M165.51 1269.22 Q171.32 1269.22 174.376 1273.83 Q177.454 1278.41 177.454 1287.16 Q177.454 1295.89 174.376 1300.5 Q171.32 1305.08 165.51 1305.08 Q159.7 1305.08 156.621 1300.5 Q153.566 1295.89 153.566 1287.16 Q153.566 1278.41 156.621 1273.83 Q159.7 1269.22 165.51 1269.22 Z" fill="#000000" fill-rule="nonzero" fill-opacity="1" /><path clip-path="url(#clip830)" d="M185.672 1298.53 L190.556 1298.53 L190.556 1304.41 L185.672 1304.41 L185.672 1298.53 Z" fill="#000000" fill-rule="nonzero" fill-opacity="1" /><path clip-path="url(#clip830)" d="M210.741 1272.93 Q207.13 1272.93 205.301 1276.49 Q203.496 1280.03 203.496 1287.16 Q203.496 1294.27 205.301 1297.83 Q207.13 1301.37 210.741 1301.37 Q214.375 1301.37 216.181 1297.83 Q218.01 1294.27 218.01 1287.16 Q218.01 1280.03 216.181 1276.49 Q214.375 1272.93 210.741 1272.93 M210.741 1269.22 Q216.551 1269.22 219.607 1273.83 Q222.686 1278.41 222.686 1287.16 Q222.686 1295.89 219.607 1300.5 Q216.551 1305.08 210.741 1305.08 Q204.931 1305.08 201.852 1300.5 Q198.797 1295.89 198.797 1287.16 Q198.797 1278.41 201.852 1273.83 Q204.931 1269.22 210.741 1269.22 Z" fill="#000000" fill-rule="nonzero" fill-opacity="1" /><path clip-path="url(#clip830)" d="M240.903 1272.93 Q237.292 1272.93 235.463 1276.49 Q233.658 1280.03 233.658 1287.16 Q233.658 1294.27 235.463 1297.83 Q237.292 1301.37 240.903 1301.37 Q244.537 1301.37 246.343 1297.83 Q248.171 1294.27 248.171 1287.16 Q248.171 1280.03 246.343 1276.49 Q244.537 1272.93 240.903 1272.93 M240.903 1269.22 Q246.713 1269.22 249.769 1273.83 Q252.847 1278.41 252.847 1287.16 Q252.847 1295.89 249.769 1300.5 Q246.713 1305.08 240.903 1305.08 Q235.093 1305.08 232.014 1300.5 Q228.959 1295.89 228.959 1287.16 Q228.959 1278.41 232.014 1273.83 Q235.093 1269.22 240.903 1269.22 Z" fill="#000000" fill-rule="nonzero" fill-opacity="1" /><path clip-path="url(#clip830)" d="M261.111 1269.85 L279.468 1269.85 L279.468 1273.78 L265.394 1273.78 L265.394 1282.25 Q266.412 1281.91 267.431 1281.75 Q268.449 1281.56 269.468 1281.56 Q275.255 1281.56 278.634 1284.73 Q282.014 1287.9 282.014 1293.32 Q282.014 1298.9 278.542 1302 Q275.069 1305.08 268.75 1305.08 Q266.574 1305.08 264.306 1304.71 Q262.06 1304.34 259.653 1303.6 L259.653 1298.9 Q261.736 1300.03 263.958 1300.59 Q266.181 1301.14 268.657 1301.14 Q272.662 1301.14 275 1299.04 Q277.338 1296.93 277.338 1293.32 Q277.338 1289.71 275 1287.6 Q272.662 1285.5 268.657 1285.5 Q266.782 1285.5 264.907 1285.91 Q263.056 1286.33 261.111 1287.21 L261.111 1269.85 Z" fill="#000000" fill-rule="nonzero" fill-opacity="1" /><path clip-path="url(#clip830)" d="M114.26 1081.99 L143.936 1081.99 L143.936 1085.93 L114.26 1085.93 L114.26 1081.99 Z" fill="#000000" fill-rule="nonzero" fill-opacity="1" /><path clip-path="url(#clip830)" d="M164.028 1067.34 Q160.417 1067.34 158.589 1070.9 Q156.783 1074.45 156.783 1081.58 Q156.783 1088.68 158.589 1092.25 Q160.417 1095.79 164.028 1095.79 Q167.663 1095.79 169.468 1092.25 Q171.297 1088.68 171.297 1081.58 Q171.297 1074.45 169.468 1070.9 Q167.663 1067.34 164.028 1067.34 M164.028 1063.64 Q169.839 1063.64 172.894 1068.24 Q175.973 1072.83 175.973 1081.58 Q175.973 1090.3 172.894 1094.91 Q169.839 1099.49 164.028 1099.49 Q158.218 1099.49 155.14 1094.91 Q152.084 1090.3 152.084 1081.58 Q152.084 1072.83 155.14 1068.24 Q158.218 1063.64 164.028 1063.64 Z" fill="#000000" fill-rule="nonzero" fill-opacity="1" /><path clip-path="url(#clip830)" d="M184.19 1092.94 L189.075 1092.94 L189.075 1098.82 L184.19 1098.82 L184.19 1092.94 Z" fill="#000000" fill-rule="nonzero" fill-opacity="1" /><path clip-path="url(#clip830)" d="M209.26 1067.34 Q205.649 1067.34 203.82 1070.9 Q202.014 1074.45 202.014 1081.58 Q202.014 1088.68 203.82 1092.25 Q205.649 1095.79 209.26 1095.79 Q212.894 1095.79 214.699 1092.25 Q216.528 1088.68 216.528 1081.58 Q216.528 1074.45 214.699 1070.9 Q212.894 1067.34 209.26 1067.34 M209.26 1063.64 Q215.07 1063.64 218.125 1068.24 Q221.204 1072.83 221.204 1081.58 Q221.204 1090.3 218.125 1094.91 Q215.07 1099.49 209.26 1099.49 Q203.449 1099.49 200.371 1094.91 Q197.315 1090.3 197.315 1081.58 Q197.315 1072.83 200.371 1068.24 Q203.449 1063.64 209.26 1063.64 Z" fill="#000000" fill-rule="nonzero" fill-opacity="1" /><path clip-path="url(#clip830)" d="M239.422 1067.34 Q235.81 1067.34 233.982 1070.9 Q232.176 1074.45 232.176 1081.58 Q232.176 1088.68 233.982 1092.25 Q235.81 1095.79 239.422 1095.79 Q243.056 1095.79 244.861 1092.25 Q246.69 1088.68 246.69 1081.58 Q246.69 1074.45 244.861 1070.9 Q243.056 1067.34 239.422 1067.34 M239.422 1063.64 Q245.232 1063.64 248.287 1068.24 Q251.366 1072.83 251.366 1081.58 Q251.366 1090.3 248.287 1094.91 Q245.232 1099.49 239.422 1099.49 Q233.611 1099.49 230.533 1094.91 Q227.477 1090.3 227.477 1081.58 Q227.477 1072.83 230.533 1068.24 Q233.611 1063.64 239.422 1063.64 Z" fill="#000000" fill-rule="nonzero" fill-opacity="1" /><path clip-path="url(#clip830)" d="M272.431 1068.34 L260.625 1086.78 L272.431 1086.78 L272.431 1068.34 M271.204 1064.26 L277.083 1064.26 L277.083 1086.78 L282.014 1086.78 L282.014 1090.67 L277.083 1090.67 L277.083 1098.82 L272.431 1098.82 L272.431 1090.67 L256.829 1090.67 L256.829 1086.16 L271.204 1064.26 Z" fill="#000000" fill-rule="nonzero" fill-opacity="1" /><path clip-path="url(#clip830)" d="M115.394 876.406 L145.07 876.406 L145.07 880.342 L115.394 880.342 L115.394 876.406 Z" fill="#000000" fill-rule="nonzero" fill-opacity="1" /><path clip-path="url(#clip830)" d="M165.163 861.754 Q161.552 861.754 159.723 865.318 Q157.917 868.86 157.917 875.99 Q157.917 883.096 159.723 886.661 Q161.552 890.203 165.163 890.203 Q168.797 890.203 170.602 886.661 Q172.431 883.096 172.431 875.99 Q172.431 868.86 170.602 865.318 Q168.797 861.754 165.163 861.754 M165.163 858.05 Q170.973 858.05 174.028 862.656 Q177.107 867.24 177.107 875.99 Q177.107 884.716 174.028 889.323 Q170.973 893.906 165.163 893.906 Q159.353 893.906 156.274 889.323 Q153.218 884.716 153.218 875.99 Q153.218 867.24 156.274 862.656 Q159.353 858.05 165.163 858.05 Z" fill="#000000" fill-rule="nonzero" fill-opacity="1" /><path clip-path="url(#clip830)" d="M185.325 887.355 L190.209 887.355 L190.209 893.235 L185.325 893.235 L185.325 887.355 Z" fill="#000000" fill-rule="nonzero" fill-opacity="1" /><path clip-path="url(#clip830)" d="M210.394 861.754 Q206.783 861.754 204.954 865.318 Q203.149 868.86 203.149 875.99 Q203.149 883.096 204.954 886.661 Q206.783 890.203 210.394 890.203 Q214.028 890.203 215.834 886.661 Q217.662 883.096 217.662 875.99 Q217.662 868.86 215.834 865.318 Q214.028 861.754 210.394 861.754 M210.394 858.05 Q216.204 858.05 219.26 862.656 Q222.338 867.24 222.338 875.99 Q222.338 884.716 219.26 889.323 Q216.204 893.906 210.394 893.906 Q204.584 893.906 201.505 889.323 Q198.45 884.716 198.45 875.99 Q198.45 867.24 201.505 862.656 Q204.584 858.05 210.394 858.05 Z" fill="#000000" fill-rule="nonzero" fill-opacity="1" /><path clip-path="url(#clip830)" d="M240.556 861.754 Q236.945 861.754 235.116 865.318 Q233.31 868.86 233.31 875.99 Q233.31 883.096 235.116 886.661 Q236.945 890.203 240.556 890.203 Q244.19 890.203 245.996 886.661 Q247.824 883.096 247.824 875.99 Q247.824 868.86 245.996 865.318 Q244.19 861.754 240.556 861.754 M240.556 858.05 Q246.366 858.05 249.421 862.656 Q252.5 867.24 252.5 875.99 Q252.5 884.716 249.421 889.323 Q246.366 893.906 240.556 893.906 Q234.746 893.906 231.667 889.323 Q228.611 884.716 228.611 875.99 Q228.611 867.24 231.667 862.656 Q234.746 858.05 240.556 858.05 Z" fill="#000000" fill-rule="nonzero" fill-opacity="1" /><path clip-path="url(#clip830)" d="M274.884 874.601 Q278.241 875.318 280.116 877.587 Q282.014 879.855 282.014 883.189 Q282.014 888.304 278.495 891.105 Q274.977 893.906 268.495 893.906 Q266.32 893.906 264.005 893.466 Q261.713 893.05 259.259 892.193 L259.259 887.679 Q261.204 888.814 263.519 889.392 Q265.833 889.971 268.357 889.971 Q272.755 889.971 275.046 888.235 Q277.361 886.499 277.361 883.189 Q277.361 880.133 275.208 878.42 Q273.079 876.684 269.259 876.684 L265.232 876.684 L265.232 872.842 L269.445 872.842 Q272.894 872.842 274.722 871.476 Q276.551 870.087 276.551 867.494 Q276.551 864.832 274.653 863.42 Q272.778 861.985 269.259 861.985 Q267.338 861.985 265.139 862.402 Q262.94 862.818 260.301 863.698 L260.301 859.531 Q262.963 858.791 265.278 858.42 Q267.616 858.05 269.676 858.05 Q275 858.05 278.102 860.481 Q281.204 862.888 281.204 867.008 Q281.204 869.879 279.56 871.869 Q277.917 873.837 274.884 874.601 Z" fill="#000000" fill-rule="nonzero" fill-opacity="1" /><path clip-path="url(#clip830)" d="M116.343 670.82 L146.019 670.82 L146.019 674.755 L116.343 674.755 L116.343 670.82 Z" fill="#000000" fill-rule="nonzero" fill-opacity="1" /><path clip-path="url(#clip830)" d="M166.112 656.168 Q162.501 656.168 160.672 659.732 Q158.866 663.274 158.866 670.404 Q158.866 677.51 160.672 681.075 Q162.501 684.616 166.112 684.616 Q169.746 684.616 171.552 681.075 Q173.38 677.51 173.38 670.404 Q173.38 663.274 171.552 659.732 Q169.746 656.168 166.112 656.168 M166.112 652.464 Q171.922 652.464 174.977 657.07 Q178.056 661.654 178.056 670.404 Q178.056 679.13 174.977 683.737 Q171.922 688.32 166.112 688.32 Q160.302 688.32 157.223 683.737 Q154.167 679.13 154.167 670.404 Q154.167 661.654 157.223 657.07 Q160.302 652.464 166.112 652.464 Z" fill="#000000" fill-rule="nonzero" fill-opacity="1" /><path clip-path="url(#clip830)" d="M186.274 681.769 L191.158 681.769 L191.158 687.649 L186.274 687.649 L186.274 681.769 Z" fill="#000000" fill-rule="nonzero" fill-opacity="1" /><path clip-path="url(#clip830)" d="M211.343 656.168 Q207.732 656.168 205.903 659.732 Q204.098 663.274 204.098 670.404 Q204.098 677.51 205.903 681.075 Q207.732 684.616 211.343 684.616 Q214.977 684.616 216.783 681.075 Q218.611 677.51 218.611 670.404 Q218.611 663.274 216.783 659.732 Q214.977 656.168 211.343 656.168 M211.343 652.464 Q217.153 652.464 220.209 657.07 Q223.287 661.654 223.287 670.404 Q223.287 679.13 220.209 683.737 Q217.153 688.32 211.343 688.32 Q205.533 688.32 202.454 683.737 Q199.399 679.13 199.399 670.404 Q199.399 661.654 202.454 657.07 Q205.533 652.464 211.343 652.464 Z" fill="#000000" fill-rule="nonzero" fill-opacity="1" /><path clip-path="url(#clip830)" d="M241.505 656.168 Q237.894 656.168 236.065 659.732 Q234.26 663.274 234.26 670.404 Q234.26 677.51 236.065 681.075 Q237.894 684.616 241.505 684.616 Q245.139 684.616 246.945 681.075 Q248.773 677.51 248.773 670.404 Q248.773 663.274 246.945 659.732 Q245.139 656.168 241.505 656.168 M241.505 652.464 Q247.315 652.464 250.371 657.07 Q253.449 661.654 253.449 670.404 Q253.449 679.13 250.371 683.737 Q247.315 688.32 241.505 688.32 Q235.695 688.32 232.616 683.737 Q229.56 679.13 229.56 670.404 Q229.56 661.654 232.616 657.07 Q235.695 652.464 241.505 652.464 Z" fill="#000000" fill-rule="nonzero" fill-opacity="1" /><path clip-path="url(#clip830)" d="M265.695 683.714 L282.014 683.714 L282.014 687.649 L260.07 687.649 L260.07 683.714 Q262.732 680.959 267.315 676.329 Q271.921 671.677 273.102 670.334 Q275.347 667.811 276.227 666.075 Q277.13 664.316 277.13 662.626 Q277.13 659.871 275.185 658.135 Q273.264 656.399 270.162 656.399 Q267.963 656.399 265.509 657.163 Q263.079 657.927 260.301 659.478 L260.301 654.755 Q263.125 653.621 265.579 653.043 Q268.032 652.464 270.07 652.464 Q275.44 652.464 278.634 655.149 Q281.829 657.834 281.829 662.325 Q281.829 664.455 281.019 666.376 Q280.231 668.274 278.125 670.867 Q277.546 671.538 274.444 674.755 Q271.343 677.95 265.695 683.714 Z" fill="#000000" fill-rule="nonzero" fill-opacity="1" /><path clip-path="url(#clip830)" d="M115.973 465.234 L145.649 465.234 L145.649 469.169 L115.973 469.169 L115.973 465.234 Z" fill="#000000" fill-rule="nonzero" fill-opacity="1" /><path clip-path="url(#clip830)" d="M165.741 450.581 Q162.13 450.581 160.302 454.146 Q158.496 457.688 158.496 464.817 Q158.496 471.924 160.302 475.489 Q162.13 479.03 165.741 479.03 Q169.376 479.03 171.181 475.489 Q173.01 471.924 173.01 464.817 Q173.01 457.688 171.181 454.146 Q169.376 450.581 165.741 450.581 M165.741 446.878 Q171.552 446.878 174.607 451.484 Q177.686 456.067 177.686 464.817 Q177.686 473.544 174.607 478.151 Q171.552 482.734 165.741 482.734 Q159.931 482.734 156.853 478.151 Q153.797 473.544 153.797 464.817 Q153.797 456.067 156.853 451.484 Q159.931 446.878 165.741 446.878 Z" fill="#000000" fill-rule="nonzero" fill-opacity="1" /><path clip-path="url(#clip830)" d="M185.903 476.183 L190.788 476.183 L190.788 482.063 L185.903 482.063 L185.903 476.183 Z" fill="#000000" fill-rule="nonzero" fill-opacity="1" /><path clip-path="url(#clip830)" d="M210.973 450.581 Q207.362 450.581 205.533 454.146 Q203.727 457.688 203.727 464.817 Q203.727 471.924 205.533 475.489 Q207.362 479.03 210.973 479.03 Q214.607 479.03 216.412 475.489 Q218.241 471.924 218.241 464.817 Q218.241 457.688 216.412 454.146 Q214.607 450.581 210.973 450.581 M210.973 446.878 Q216.783 446.878 219.838 451.484 Q222.917 456.067 222.917 464.817 Q222.917 473.544 219.838 478.151 Q216.783 482.734 210.973 482.734 Q205.162 482.734 202.084 478.151 Q199.028 473.544 199.028 464.817 Q199.028 456.067 202.084 451.484 Q205.162 446.878 210.973 446.878 Z" fill="#000000" fill-rule="nonzero" fill-opacity="1" /><path clip-path="url(#clip830)" d="M241.134 450.581 Q237.523 450.581 235.695 454.146 Q233.889 457.688 233.889 464.817 Q233.889 471.924 235.695 475.489 Q237.523 479.03 241.134 479.03 Q244.769 479.03 246.574 475.489 Q248.403 471.924 248.403 464.817 Q248.403 457.688 246.574 454.146 Q244.769 450.581 241.134 450.581 M241.134 446.878 Q246.945 446.878 250 451.484 Q253.079 456.067 253.079 464.817 Q253.079 473.544 250 478.151 Q246.945 482.734 241.134 482.734 Q235.324 482.734 232.246 478.151 Q229.19 473.544 229.19 464.817 Q229.19 456.067 232.246 451.484 Q235.324 446.878 241.134 446.878 Z" fill="#000000" fill-rule="nonzero" fill-opacity="1" /><path clip-path="url(#clip830)" d="M262.107 478.128 L269.745 478.128 L269.745 451.762 L261.435 453.429 L261.435 449.169 L269.699 447.503 L274.375 447.503 L274.375 478.128 L282.014 478.128 L282.014 482.063 L262.107 482.063 L262.107 478.128 Z" fill="#000000" fill-rule="nonzero" fill-opacity="1" /><path clip-path="url(#clip830)" d="M164.515 244.995 Q160.903 244.995 159.075 248.56 Q157.269 252.102 157.269 259.231 Q157.269 266.338 159.075 269.903 Q160.903 273.444 164.515 273.444 Q168.149 273.444 169.954 269.903 Q171.783 266.338 171.783 259.231 Q171.783 252.102 169.954 248.56 Q168.149 244.995 164.515 244.995 M164.515 241.292 Q170.325 241.292 173.38 245.898 Q176.459 250.481 176.459 259.231 Q176.459 267.958 173.38 272.565 Q170.325 277.148 164.515 277.148 Q158.704 277.148 155.626 272.565 Q152.57 267.958 152.57 259.231 Q152.57 250.481 155.626 245.898 Q158.704 241.292 164.515 241.292 Z" fill="#000000" fill-rule="nonzero" fill-opacity="1" /><path clip-path="url(#clip830)" d="M184.676 270.597 L189.561 270.597 L189.561 276.477 L184.676 276.477 L184.676 270.597 Z" fill="#000000" fill-rule="nonzero" fill-opacity="1" /><path clip-path="url(#clip830)" d="M209.746 244.995 Q206.135 244.995 204.306 248.56 Q202.5 252.102 202.5 259.231 Q202.5 266.338 204.306 269.903 Q206.135 273.444 209.746 273.444 Q213.38 273.444 215.186 269.903 Q217.014 266.338 217.014 259.231 Q217.014 252.102 215.186 248.56 Q213.38 244.995 209.746 244.995 M209.746 241.292 Q215.556 241.292 218.611 245.898 Q221.69 250.481 221.69 259.231 Q221.69 267.958 218.611 272.565 Q215.556 277.148 209.746 277.148 Q203.936 277.148 200.857 272.565 Q197.801 267.958 197.801 259.231 Q197.801 250.481 200.857 245.898 Q203.936 241.292 209.746 241.292 Z" fill="#000000" fill-rule="nonzero" fill-opacity="1" /><path clip-path="url(#clip830)" d="M239.908 244.995 Q236.297 244.995 234.468 248.56 Q232.662 252.102 232.662 259.231 Q232.662 266.338 234.468 269.903 Q236.297 273.444 239.908 273.444 Q243.542 273.444 245.347 269.903 Q247.176 266.338 247.176 259.231 Q247.176 252.102 245.347 248.56 Q243.542 244.995 239.908 244.995 M239.908 241.292 Q245.718 241.292 248.773 245.898 Q251.852 250.481 251.852 259.231 Q251.852 267.958 248.773 272.565 Q245.718 277.148 239.908 277.148 Q234.097 277.148 231.019 272.565 Q227.963 267.958 227.963 259.231 Q227.963 250.481 231.019 245.898 Q234.097 241.292 239.908 241.292 Z" fill="#000000" fill-rule="nonzero" fill-opacity="1" /><path clip-path="url(#clip830)" d="M270.07 244.995 Q266.458 244.995 264.63 248.56 Q262.824 252.102 262.824 259.231 Q262.824 266.338 264.63 269.903 Q266.458 273.444 270.07 273.444 Q273.704 273.444 275.509 269.903 Q277.338 266.338 277.338 259.231 Q277.338 252.102 275.509 248.56 Q273.704 244.995 270.07 244.995 M270.07 241.292 Q275.88 241.292 278.935 245.898 Q282.014 250.481 282.014 259.231 Q282.014 267.958 278.935 272.565 Q275.88 277.148 270.07 277.148 Q264.259 277.148 261.181 272.565 Q258.125 267.958 258.125 259.231 Q258.125 250.481 261.181 245.898 Q264.259 241.292 270.07 241.292 Z" fill="#000000" fill-rule="nonzero" fill-opacity="1" /><path clip-path="url(#clip830)" d="M16.4842 830.044 L16.4842 823.615 L35.9632 823.615 L35.9632 800.253 L16.4842 800.253 L16.4842 793.824 L64.0042 793.824 L64.0042 800.253 L41.3741 800.253 L41.3741 823.615 L64.0042 823.615 L64.0042 830.044 L16.4842 830.044 Z" fill="#000000" fill-rule="nonzero" fill-opacity="1" /><path clip-path="url(#clip830)" d="M14.5426 767.215 Q21.8632 771.48 29.0246 773.549 Q36.186 775.618 43.5384 775.618 Q50.8908 775.618 58.1159 773.549 Q65.3091 771.448 72.5979 767.215 L72.5979 772.307 Q65.1182 777.082 57.8931 779.469 Q50.668 781.824 43.5384 781.824 Q36.4406 781.824 29.2474 779.469 Q22.0542 777.114 14.5426 772.307 L14.5426 767.215 Z" fill="#000000" fill-rule="nonzero" fill-opacity="1" /><path clip-path="url(#clip830)" d="M18.2347 750.059 L28.3562 750.059 L28.3562 737.996 L32.9077 737.996 L32.9077 750.059 L52.2594 750.059 Q56.6199 750.059 57.8613 748.882 Q59.1026 747.672 59.1026 744.012 L59.1026 737.996 L64.0042 737.996 L64.0042 744.012 Q64.0042 750.791 61.4897 753.369 Q58.9434 755.948 52.2594 755.948 L32.9077 755.948 L32.9077 760.244 L28.3562 760.244 L28.3562 755.948 L18.2347 755.948 L18.2347 750.059 Z" fill="#000000" fill-rule="nonzero" fill-opacity="1" /><path clip-path="url(#clip830)" d="M14.5426 731.217 L14.5426 726.124 Q22.0542 721.35 29.2474 718.995 Q36.4406 716.608 43.5384 716.608 Q50.668 716.608 57.8931 718.995 Q65.1182 721.35 72.5979 726.124 L72.5979 731.217 Q65.3091 726.984 58.1159 724.915 Q50.8908 722.814 43.5384 722.814 Q36.186 722.814 29.0246 724.915 Q21.8632 726.984 14.5426 731.217 Z" fill="#000000" fill-rule="nonzero" fill-opacity="1" /><path clip-path="url(#clip830)" d="M665.041 12.096 L673.224 12.096 L673.224 36.8875 L702.958 36.8875 L702.958 12.096 L711.141 12.096 L711.141 72.576 L702.958 72.576 L702.958 43.7741 L673.224 43.7741 L673.224 72.576 L665.041 72.576 L665.041 12.096 Z" fill="#000000" fill-rule="nonzero" fill-opacity="1" /><path clip-path="url(#clip830)" d="M747.72 49.7694 Q738.687 49.7694 735.203 51.8354 Q731.719 53.9013 731.719 58.8839 Q731.719 62.8538 734.312 65.2034 Q736.945 67.5124 741.441 67.5124 Q747.639 67.5124 751.366 63.1374 Q755.133 58.7219 755.133 51.4303 L755.133 49.7694 L747.72 49.7694 M762.587 46.6907 L762.587 72.576 L755.133 72.576 L755.133 65.6895 Q752.581 69.8214 748.773 71.8063 Q744.966 73.7508 739.456 73.7508 Q732.489 73.7508 728.357 69.8619 Q724.265 65.9325 724.265 59.3701 Q724.265 51.7138 729.37 47.825 Q734.514 43.9361 744.682 43.9361 L755.133 43.9361 L755.133 43.2069 Q755.133 38.0623 751.731 35.2672 Q748.368 32.4315 742.252 32.4315 Q738.363 32.4315 734.676 33.3632 Q730.99 34.295 727.587 36.1584 L727.587 29.2718 Q731.679 27.692 735.527 26.9223 Q739.375 26.1121 743.021 26.1121 Q752.865 26.1121 757.726 31.2163 Q762.587 36.3204 762.587 46.6907 Z" fill="#000000" fill-rule="nonzero" fill-opacity="1" /><path clip-path="url(#clip830)" d="M813.264 35.9153 Q816.059 30.8922 819.948 28.5022 Q823.837 26.1121 829.103 26.1121 Q836.192 26.1121 840.04 31.0947 Q843.889 36.0368 843.889 45.1919 L843.889 72.576 L836.395 72.576 L836.395 45.4349 Q836.395 38.913 834.085 35.7533 Q831.776 32.5936 827.037 32.5936 Q821.244 32.5936 817.882 36.4419 Q814.52 40.2903 814.52 46.9338 L814.52 72.576 L807.025 72.576 L807.025 45.4349 Q807.025 38.8725 804.716 35.7533 Q802.407 32.5936 797.587 32.5936 Q791.875 32.5936 788.513 36.4824 Q785.151 40.3308 785.151 46.9338 L785.151 72.576 L777.656 72.576 L777.656 27.2059 L785.151 27.2059 L785.151 34.2544 Q787.703 30.082 791.267 28.0971 Q794.832 26.1121 799.734 26.1121 Q804.676 26.1121 808.119 28.6237 Q811.603 31.1352 813.264 35.9153 Z" fill="#000000" fill-rule="nonzero" fill-opacity="1" /><path clip-path="url(#clip830)" d="M858.756 27.2059 L866.209 27.2059 L866.209 72.576 L858.756 72.576 L858.756 27.2059 M858.756 9.54393 L866.209 9.54393 L866.209 18.9825 L858.756 18.9825 L858.756 9.54393 Z" fill="#000000" fill-rule="nonzero" fill-opacity="1" /><path clip-path="url(#clip830)" d="M881.805 9.54393 L889.259 9.54393 L889.259 72.576 L881.805 72.576 L881.805 9.54393 Z" fill="#000000" fill-rule="nonzero" fill-opacity="1" /><path clip-path="url(#clip830)" d="M912.227 14.324 L912.227 27.2059 L927.58 27.2059 L927.58 32.9987 L912.227 32.9987 L912.227 57.6282 Q912.227 63.1779 913.726 64.7578 Q915.266 66.3376 919.924 66.3376 L927.58 66.3376 L927.58 72.576 L919.924 72.576 Q911.296 72.576 908.015 69.3758 Q904.733 66.1351 904.733 57.6282 L904.733 32.9987 L899.265 32.9987 L899.265 27.2059 L904.733 27.2059 L904.733 14.324 L912.227 14.324 Z" fill="#000000" fill-rule="nonzero" fill-opacity="1" /><path clip-path="url(#clip830)" d="M954.964 32.4315 Q948.969 32.4315 945.485 37.1306 Q942.002 41.7891 942.002 49.9314 Q942.002 58.0738 945.445 62.7728 Q948.929 67.4314 954.964 67.4314 Q960.919 67.4314 964.403 62.7323 Q967.887 58.0333 967.887 49.9314 Q967.887 41.8701 964.403 37.1711 Q960.919 32.4315 954.964 32.4315 M954.964 26.1121 Q964.687 26.1121 970.236 32.4315 Q975.786 38.7509 975.786 49.9314 Q975.786 61.0714 970.236 67.4314 Q964.687 73.7508 954.964 73.7508 Q945.202 73.7508 939.652 67.4314 Q934.143 61.0714 934.143 49.9314 Q934.143 38.7509 939.652 32.4315 Q945.202 26.1121 954.964 26.1121 Z" fill="#000000" fill-rule="nonzero" fill-opacity="1" /><path clip-path="url(#clip830)" d="M1025.86 45.1919 L1025.86 72.576 L1018.4 72.576 L1018.4 45.4349 Q1018.4 38.994 1015.89 35.7938 Q1013.38 32.5936 1008.36 32.5936 Q1002.32 32.5936 998.836 36.4419 Q995.352 40.2903 995.352 46.9338 L995.352 72.576 L987.858 72.576 L987.858 27.2059 L995.352 27.2059 L995.352 34.2544 Q998.026 30.163 1001.63 28.1376 Q1005.28 26.1121 1010.02 26.1121 Q1017.83 26.1121 1021.84 30.9732 Q1025.86 35.7938 1025.86 45.1919 Z" fill="#000000" fill-rule="nonzero" fill-opacity="1" /><path clip-path="url(#clip830)" d="M1040.72 27.2059 L1048.18 27.2059 L1048.18 72.576 L1040.72 72.576 L1040.72 27.2059 M1040.72 9.54393 L1048.18 9.54393 L1048.18 18.9825 L1040.72 18.9825 L1040.72 9.54393 Z" fill="#000000" fill-rule="nonzero" fill-opacity="1" /><path clip-path="url(#clip830)" d="M1084.39 49.7694 Q1075.36 49.7694 1071.87 51.8354 Q1068.39 53.9013 1068.39 58.8839 Q1068.39 62.8538 1070.98 65.2034 Q1073.62 67.5124 1078.11 67.5124 Q1084.31 67.5124 1088.04 63.1374 Q1091.8 58.7219 1091.8 51.4303 L1091.8 49.7694 L1084.39 49.7694 M1099.26 46.6907 L1099.26 72.576 L1091.8 72.576 L1091.8 65.6895 Q1089.25 69.8214 1085.44 71.8063 Q1081.64 73.7508 1076.13 73.7508 Q1069.16 73.7508 1065.03 69.8619 Q1060.94 65.9325 1060.94 59.3701 Q1060.94 51.7138 1066.04 47.825 Q1071.18 43.9361 1081.35 43.9361 L1091.8 43.9361 L1091.8 43.2069 Q1091.8 38.0623 1088.4 35.2672 Q1085.04 32.4315 1078.92 32.4315 Q1075.03 32.4315 1071.35 33.3632 Q1067.66 34.295 1064.26 36.1584 L1064.26 29.2718 Q1068.35 27.692 1072.2 26.9223 Q1076.05 26.1121 1079.69 26.1121 Q1089.54 26.1121 1094.4 31.2163 Q1099.26 36.3204 1099.26 46.6907 Z" fill="#000000" fill-rule="nonzero" fill-opacity="1" /><path clip-path="url(#clip830)" d="M1152.32 45.1919 L1152.32 72.576 L1144.87 72.576 L1144.87 45.4349 Q1144.87 38.994 1142.36 35.7938 Q1139.85 32.5936 1134.82 32.5936 Q1128.79 32.5936 1125.31 36.4419 Q1121.82 40.2903 1121.82 46.9338 L1121.82 72.576 L1114.33 72.576 L1114.33 27.2059 L1121.82 27.2059 L1121.82 34.2544 Q1124.49 30.163 1128.1 28.1376 Q1131.75 26.1121 1136.49 26.1121 Q1144.3 26.1121 1148.31 30.9732 Q1152.32 35.7938 1152.32 45.1919 Z" fill="#000000" fill-rule="nonzero" fill-opacity="1" /><path clip-path="url(#clip830)" d="M1214.18 49.7694 Q1205.15 49.7694 1201.66 51.8354 Q1198.18 53.9013 1198.18 58.8839 Q1198.18 62.8538 1200.77 65.2034 Q1203.41 67.5124 1207.9 67.5124 Q1214.1 67.5124 1217.83 63.1374 Q1221.59 58.7219 1221.59 51.4303 L1221.59 49.7694 L1214.18 49.7694 M1229.05 46.6907 L1229.05 72.576 L1221.59 72.576 L1221.59 65.6895 Q1219.04 69.8214 1215.24 71.8063 Q1211.43 73.7508 1205.92 73.7508 Q1198.95 73.7508 1194.82 69.8619 Q1190.73 65.9325 1190.73 59.3701 Q1190.73 51.7138 1195.83 47.825 Q1200.98 43.9361 1211.14 43.9361 L1221.59 43.9361 L1221.59 43.2069 Q1221.59 38.0623 1218.19 35.2672 Q1214.83 32.4315 1208.71 32.4315 Q1204.82 32.4315 1201.14 33.3632 Q1197.45 34.295 1194.05 36.1584 L1194.05 29.2718 Q1198.14 27.692 1201.99 26.9223 Q1205.84 26.1121 1209.48 26.1121 Q1219.33 26.1121 1224.19 31.2163 Q1229.05 36.3204 1229.05 46.6907 Z" fill="#000000" fill-rule="nonzero" fill-opacity="1" /><path clip-path="url(#clip830)" d="M1244.4 9.54393 L1251.86 9.54393 L1251.86 72.576 L1244.4 72.576 L1244.4 9.54393 Z" fill="#000000" fill-rule="nonzero" fill-opacity="1" /><path clip-path="url(#clip830)" d="M1285.03 32.4315 Q1279.04 32.4315 1275.55 37.1306 Q1272.07 41.7891 1272.07 49.9314 Q1272.07 58.0738 1275.51 62.7728 Q1279 67.4314 1285.03 67.4314 Q1290.99 67.4314 1294.47 62.7323 Q1297.95 58.0333 1297.95 49.9314 Q1297.95 41.8701 1294.47 37.1711 Q1290.99 32.4315 1285.03 32.4315 M1285.03 26.1121 Q1294.75 26.1121 1300.3 32.4315 Q1305.85 38.7509 1305.85 49.9314 Q1305.85 61.0714 1300.3 67.4314 Q1294.75 73.7508 1285.03 73.7508 Q1275.27 73.7508 1269.72 67.4314 Q1264.21 61.0714 1264.21 49.9314 Q1264.21 38.7509 1269.72 32.4315 Q1275.27 26.1121 1285.03 26.1121 Z" fill="#000000" fill-rule="nonzero" fill-opacity="1" /><path clip-path="url(#clip830)" d="M1355.92 45.1919 L1355.92 72.576 L1348.47 72.576 L1348.47 45.4349 Q1348.47 38.994 1345.96 35.7938 Q1343.45 32.5936 1338.42 32.5936 Q1332.39 32.5936 1328.9 36.4419 Q1325.42 40.2903 1325.42 46.9338 L1325.42 72.576 L1317.93 72.576 L1317.93 27.2059 L1325.42 27.2059 L1325.42 34.2544 Q1328.09 30.163 1331.7 28.1376 Q1335.34 26.1121 1340.08 26.1121 Q1347.9 26.1121 1351.91 30.9732 Q1355.92 35.7938 1355.92 45.1919 Z" fill="#000000" fill-rule="nonzero" fill-opacity="1" /><path clip-path="url(#clip830)" d="M1400.64 49.3643 Q1400.64 41.2625 1397.28 36.8065 Q1393.96 32.3505 1387.93 32.3505 Q1381.93 32.3505 1378.57 36.8065 Q1375.25 41.2625 1375.25 49.3643 Q1375.25 57.4256 1378.57 61.8816 Q1381.93 66.3376 1387.93 66.3376 Q1393.96 66.3376 1397.28 61.8816 Q1400.64 57.4256 1400.64 49.3643 M1408.1 66.9452 Q1408.1 78.5308 1402.95 84.1616 Q1397.81 89.8329 1387.2 89.8329 Q1383.27 89.8329 1379.78 89.2252 Q1376.3 88.6581 1373.02 87.4428 L1373.02 80.1917 Q1376.3 81.9741 1379.5 82.8248 Q1382.7 83.6755 1386.02 83.6755 Q1393.35 83.6755 1397 79.8271 Q1400.64 76.0193 1400.64 68.282 L1400.64 64.5957 Q1398.34 68.6061 1394.73 70.5911 Q1391.13 72.576 1386.1 72.576 Q1377.76 72.576 1372.65 66.2161 Q1367.55 59.8562 1367.55 49.3643 Q1367.55 38.832 1372.65 32.472 Q1377.76 26.1121 1386.1 26.1121 Q1391.13 26.1121 1394.73 28.0971 Q1398.34 30.082 1400.64 34.0924 L1400.64 27.2059 L1408.1 27.2059 L1408.1 66.9452 Z" fill="#000000" fill-rule="nonzero" fill-opacity="1" /><path clip-path="url(#clip830)" d="M1457.2 14.324 L1457.2 27.2059 L1472.55 27.2059 L1472.55 32.9987 L1457.2 32.9987 L1457.2 57.6282 Q1457.2 63.1779 1458.69 64.7578 Q1460.23 66.3376 1464.89 66.3376 L1472.55 66.3376 L1472.55 72.576 L1464.89 72.576 Q1456.26 72.576 1452.98 69.3758 Q1449.7 66.1351 1449.7 57.6282 L1449.7 32.9987 L1444.23 32.9987 L1444.23 27.2059 L1449.7 27.2059 L1449.7 14.324 L1457.2 14.324 Z" fill="#000000" fill-rule="nonzero" fill-opacity="1" /><path clip-path="url(#clip830)" d="M1520.07 45.1919 L1520.07 72.576 L1512.61 72.576 L1512.61 45.4349 Q1512.61 38.994 1510.1 35.7938 Q1507.59 32.5936 1502.57 32.5936 Q1496.53 32.5936 1493.05 36.4419 Q1489.56 40.2903 1489.56 46.9338 L1489.56 72.576 L1482.07 72.576 L1482.07 9.54393 L1489.56 9.54393 L1489.56 34.2544 Q1492.24 30.163 1495.84 28.1376 Q1499.49 26.1121 1504.23 26.1121 Q1512.04 26.1121 1516.06 30.9732 Q1520.07 35.7938 1520.07 45.1919 Z" fill="#000000" fill-rule="nonzero" fill-opacity="1" /><path clip-path="url(#clip830)" d="M1573.74 48.0275 L1573.74 51.6733 L1539.47 51.6733 Q1539.96 59.3701 1544.09 63.421 Q1548.26 67.4314 1555.67 67.4314 Q1559.97 67.4314 1563.98 66.3781 Q1568.03 65.3249 1572 63.2184 L1572 70.267 Q1567.99 71.9684 1563.77 72.8596 Q1559.56 73.7508 1555.23 73.7508 Q1544.37 73.7508 1538.01 67.4314 Q1531.69 61.1119 1531.69 50.3365 Q1531.69 39.1965 1537.69 32.6746 Q1543.72 26.1121 1553.93 26.1121 Q1563.09 26.1121 1568.39 32.0264 Q1573.74 37.9003 1573.74 48.0275 M1566.29 45.84 Q1566.21 39.7232 1562.84 36.0774 Q1559.52 32.4315 1554.01 32.4315 Q1547.77 32.4315 1544.01 35.9558 Q1540.28 39.4801 1539.71 45.8805 L1566.29 45.84 Z" fill="#000000" fill-rule="nonzero" fill-opacity="1" /><path clip-path="url(#clip830)" d="M1619.72 14.324 L1619.72 27.2059 L1635.07 27.2059 L1635.07 32.9987 L1619.72 32.9987 L1619.72 57.6282 Q1619.72 63.1779 1621.22 64.7578 Q1622.76 66.3376 1627.41 66.3376 L1635.07 66.3376 L1635.07 72.576 L1627.41 72.576 Q1618.79 72.576 1615.5 69.3758 Q1612.22 66.1351 1612.22 57.6282 L1612.22 32.9987 L1606.75 32.9987 L1606.75 27.2059 L1612.22 27.2059 L1612.22 14.324 L1619.72 14.324 Z" fill="#000000" fill-rule="nonzero" fill-opacity="1" /><path clip-path="url(#clip830)" d="M1671.16 34.1734 Q1669.91 33.4443 1668.41 33.1202 Q1666.95 32.7556 1665.17 32.7556 Q1658.85 32.7556 1655.45 36.8875 Q1652.08 40.9789 1652.08 48.6757 L1652.08 72.576 L1644.59 72.576 L1644.59 27.2059 L1652.08 27.2059 L1652.08 34.2544 Q1654.43 30.1225 1658.2 28.1376 Q1661.97 26.1121 1667.36 26.1121 Q1668.13 26.1121 1669.06 26.2337 Q1669.99 26.3147 1671.12 26.5172 L1671.16 34.1734 Z" fill="#000000" fill-rule="nonzero" fill-opacity="1" /><path clip-path="url(#clip830)" d="M1699.6 49.7694 Q1690.57 49.7694 1687.08 51.8354 Q1683.6 53.9013 1683.6 58.8839 Q1683.6 62.8538 1686.19 65.2034 Q1688.83 67.5124 1693.32 67.5124 Q1699.52 67.5124 1703.25 63.1374 Q1707.01 58.7219 1707.01 51.4303 L1707.01 49.7694 L1699.6 49.7694 M1714.47 46.6907 L1714.47 72.576 L1707.01 72.576 L1707.01 65.6895 Q1704.46 69.8214 1700.65 71.8063 Q1696.85 73.7508 1691.34 73.7508 Q1684.37 73.7508 1680.24 69.8619 Q1676.15 65.9325 1676.15 59.3701 Q1676.15 51.7138 1681.25 47.825 Q1686.4 43.9361 1696.56 43.9361 L1707.01 43.9361 L1707.01 43.2069 Q1707.01 38.0623 1703.61 35.2672 Q1700.25 32.4315 1694.13 32.4315 Q1690.24 32.4315 1686.56 33.3632 Q1682.87 34.295 1679.47 36.1584 L1679.47 29.2718 Q1683.56 27.692 1687.41 26.9223 Q1691.26 26.1121 1694.9 26.1121 Q1704.75 26.1121 1709.61 31.2163 Q1714.47 36.3204 1714.47 46.6907 Z" fill="#000000" fill-rule="nonzero" fill-opacity="1" /><path clip-path="url(#clip830)" d="M1729.82 27.2059 L1737.28 27.2059 L1737.28 73.3862 Q1737.28 82.0551 1733.95 85.944 Q1730.67 89.8329 1723.34 89.8329 L1720.5 89.8329 L1720.5 83.5134 L1722.49 83.5134 Q1726.74 83.5134 1728.28 81.5285 Q1729.82 79.5841 1729.82 73.3862 L1729.82 27.2059 M1729.82 9.54393 L1737.28 9.54393 L1737.28 18.9825 L1729.82 18.9825 L1729.82 9.54393 Z" fill="#000000" fill-rule="nonzero" fill-opacity="1" /><path clip-path="url(#clip830)" d="M1791.68 48.0275 L1791.68 51.6733 L1757.41 51.6733 Q1757.89 59.3701 1762.03 63.421 Q1766.2 67.4314 1773.61 67.4314 Q1777.91 67.4314 1781.92 66.3781 Q1785.97 65.3249 1789.94 63.2184 L1789.94 70.267 Q1785.93 71.9684 1781.71 72.8596 Q1777.5 73.7508 1773.17 73.7508 Q1762.31 73.7508 1755.95 67.4314 Q1749.63 61.1119 1749.63 50.3365 Q1749.63 39.1965 1755.63 32.6746 Q1761.66 26.1121 1771.87 26.1121 Q1781.02 26.1121 1786.33 32.0264 Q1791.68 37.9003 1791.68 48.0275 M1784.23 45.84 Q1784.14 39.7232 1780.78 36.0774 Q1777.46 32.4315 1771.95 32.4315 Q1765.71 32.4315 1761.95 35.9558 Q1758.22 39.4801 1757.65 45.8805 L1784.23 45.84 Z" fill="#000000" fill-rule="nonzero" fill-opacity="1" /><path clip-path="url(#clip830)" d="M1836.56 28.9478 L1836.56 35.9153 Q1833.4 34.1734 1830.2 33.3227 Q1827.04 32.4315 1823.8 32.4315 Q1816.55 32.4315 1812.54 37.0496 Q1808.53 41.6271 1808.53 49.9314 Q1808.53 58.2358 1812.54 62.8538 Q1816.55 67.4314 1823.8 67.4314 Q1827.04 67.4314 1830.2 66.5807 Q1833.4 65.6895 1836.56 63.9476 L1836.56 70.8341 Q1833.44 72.2924 1830.08 73.0216 Q1826.76 73.7508 1822.99 73.7508 Q1812.74 73.7508 1806.71 67.3098 Q1800.67 60.8689 1800.67 49.9314 Q1800.67 38.832 1806.75 32.472 Q1812.86 26.1121 1823.48 26.1121 Q1826.92 26.1121 1830.2 26.8413 Q1833.48 27.5299 1836.56 28.9478 Z" fill="#000000" fill-rule="nonzero" fill-opacity="1" /><path clip-path="url(#clip830)" d="M1856.9 14.324 L1856.9 27.2059 L1872.25 27.2059 L1872.25 32.9987 L1856.9 32.9987 L1856.9 57.6282 Q1856.9 63.1779 1858.4 64.7578 Q1859.94 66.3376 1864.6 66.3376 L1872.25 66.3376 L1872.25 72.576 L1864.6 72.576 Q1855.97 72.576 1852.69 69.3758 Q1849.4 66.1351 1849.4 57.6282 L1849.4 32.9987 L1843.94 32.9987 L1843.94 27.2059 L1849.4 27.2059 L1849.4 14.324 L1856.9 14.324 Z" fill="#000000" fill-rule="nonzero" fill-opacity="1" /><path clip-path="url(#clip830)" d="M1899.64 32.4315 Q1893.64 32.4315 1890.16 37.1306 Q1886.67 41.7891 1886.67 49.9314 Q1886.67 58.0738 1890.12 62.7728 Q1893.6 67.4314 1899.64 67.4314 Q1905.59 67.4314 1909.07 62.7323 Q1912.56 58.0333 1912.56 49.9314 Q1912.56 41.8701 1909.07 37.1711 Q1905.59 32.4315 1899.64 32.4315 M1899.64 26.1121 Q1909.36 26.1121 1914.91 32.4315 Q1920.46 38.7509 1920.46 49.9314 Q1920.46 61.0714 1914.91 67.4314 Q1909.36 73.7508 1899.64 73.7508 Q1889.87 73.7508 1884.32 67.4314 Q1878.81 61.0714 1878.81 49.9314 Q1878.81 38.7509 1884.32 32.4315 Q1889.87 26.1121 1899.64 26.1121 Z" fill="#000000" fill-rule="nonzero" fill-opacity="1" /><path clip-path="url(#clip830)" d="M1959.1 34.1734 Q1957.85 33.4443 1956.35 33.1202 Q1954.89 32.7556 1953.11 32.7556 Q1946.79 32.7556 1943.39 36.8875 Q1940.02 40.9789 1940.02 48.6757 L1940.02 72.576 L1932.53 72.576 L1932.53 27.2059 L1940.02 27.2059 L1940.02 34.2544 Q1942.37 30.1225 1946.14 28.1376 Q1949.91 26.1121 1955.29 26.1121 Q1956.06 26.1121 1957 26.2337 Q1957.93 26.3147 1959.06 26.5172 L1959.1 34.1734 Z" fill="#000000" fill-rule="nonzero" fill-opacity="1" /><path clip-path="url(#clip830)" d="M1985.8 76.7889 Q1982.64 84.8907 1979.64 87.3618 Q1976.64 89.8329 1971.62 89.8329 L1965.67 89.8329 L1965.67 83.5945 L1970.04 83.5945 Q1973.12 83.5945 1974.82 82.1361 Q1976.52 80.6778 1978.59 75.2496 L1979.92 71.8468 L1961.57 27.2059 L1969.47 27.2059 L1983.65 62.6918 L1997.83 27.2059 L2005.73 27.2059 L1985.8 76.7889 Z" fill="#000000" fill-rule="nonzero" fill-opacity="1" /><polyline clip-path="url(#clip831)" style="stroke:#009af9; stroke-linecap:round; stroke-linejoin:round; stroke-width:8; stroke-opacity:1; fill:none" points="375.601,1386.4 383.276,1350.74 390.952,1314.89 398.628,1279.05 406.303,1243.44 413.979,1208.26 421.654,1173.7 429.33,1139.96 437.005,1107.21 444.681,1075.62 452.356,1045.32 460.032,1016.47 467.707,989.156 475.383,963.492 483.058,939.552 490.734,917.4 498.409,897.08 506.085,878.62 513.761,862.033 521.436,847.32 529.112,834.465 536.787,823.445 544.463,814.223 552.138,806.756 559.814,800.994 567.489,796.878 575.165,794.348 582.84,793.334 590.516,793.719 598.191,622.514 605.867,589.397 613.543,617.219 621.218,601.579 628.894,617.367 636.569,610.914 644.245,620.44 651.92,618.802 659.596,625.176 667.271,626.072 674.947,630.939 682.622,633.195 690.298,637.412 697.973,640.44 705.649,644.447 713.324,647.96 721,651.988 728.676,655.855 736.351,660.024 744.027,664.195 751.702,668.575 759.378,673.037 767.053,677.675 774.729,682.439 782.404,687.372 790.08,692.459 797.755,697.721 805.431,703.159 813.106,708.787 820.782,714.613 828.458,720.645 836.133,726.901 843.809,733.38 851.484,740.117 859.16,747.087 866.835,754.376 874.511,761.869 882.186,769.821 889.862,777.814 897.537,786.679 905.213,794.912 912.888,805.447 920.564,812.665 928.239,827.713 935.915,828.399 943.591,652.449 951.266,638.789 958.942,625.739 966.617,613.191 974.293,601.12 981.968,589.509 989.644,578.339 997.319,567.593 1004.99,557.256 1012.67,547.311 1020.35,537.745 1028.02,528.542 1035.7,519.688 1043.37,511.171 1051.05,502.978 1058.72,495.096 1066.4,487.513 1074.07,480.219 1081.75,473.202 1089.43,466.451 1097.1,459.957 1104.78,453.71 1112.45,447.7 1120.13,441.919 1127.8,436.357 1135.48,431.007 1143.15,425.859 1150.83,420.908 1158.51,416.144 1166.18,411.562 1173.86,407.154 1181.53,402.913 1189.21,398.833 1196.88,394.908 1204.56,391.132 1212.23,387.5 1219.91,384.006 1227.59,380.645 1235.26,377.411 1242.94,374.3 1250.61,371.307 1258.29,368.428 1265.96,365.658 1273.64,362.993 1281.31,360.43 1288.99,357.964 1296.67,355.591 1304.34,353.309 1312.02,351.113 1319.69,349 1327.37,346.968 1335.04,336.064 1342.72,208.921 1350.39,205.512 1358.07,202.353 1365.74,199.424 1373.42,196.708 1381.1,194.188 1388.77,191.85 1396.45,189.678 1404.12,187.662 1411.8,185.789 1419.47,184.049 1427.15,182.431 1434.82,180.927 1442.5,179.529 1450.18,178.228 1457.85,177.017 1465.53,175.89 1473.2,174.842 1480.88,173.865 1488.55,172.956 1496.23,172.109 1503.9,171.32 1511.58,170.585 1519.26,169.899 1526.93,169.26 1534.61,168.665 1542.28,168.109 1549.96,167.591 1557.63,167.108 1565.31,166.657 1572.98,166.236 1580.66,165.843 1588.34,165.477 1596.01,165.135 1603.69,164.815 1611.36,164.517 1619.04,164.238 1626.71,163.978 1634.39,163.735 1642.06,163.508 1649.74,163.296 1657.42,163.098 1665.09,162.913 1672.77,162.74 1680.44,162.578 1688.12,162.427 1695.79,162.285 1703.47,162.153 1711.14,162.03 1718.82,161.914 1726.5,161.806 1734.17,161.705 1741.85,161.611 1749.52,161.522 1757.2,161.44 1764.87,161.362 1772.55,161.29 1780.22,161.222 1787.9,161.159 1795.57,161.1 1803.25,161.045 1810.93,160.993 1818.6,160.944 1826.28,160.899 1833.95,160.857 1841.63,160.817 1849.3,160.78 1856.98,160.745 1864.65,160.713 1872.33,160.682 1880.01,160.654 1887.68,160.627 1895.36,160.602 1903.03,160.579 1910.71,160.557 1918.38,160.537 1926.06,160.518 1933.73,160.5 1941.41,160.483 1949.09,160.468 1956.76,160.453 1964.44,160.439 1972.11,160.427 1979.79,160.415 1987.46,160.404 1995.14,160.393 2002.81,160.384 2010.49,160.374 2018.17,160.366 2025.84,160.358 2033.52,160.351 2041.19,160.344 2048.87,160.337 2056.54,160.331 2064.22,160.325 2071.89,160.32 2079.57,160.315 2087.25,160.311 2094.92,160.306 2102.6,160.302 2110.27,160.299 2117.95,160.295 2125.62,160.292 2133.3,160.289 2140.97,160.286 2148.65,160.284 2156.33,160.281 2164,160.279 2171.68,160.277 2179.35,160.275 2187.03,160.273 2194.7,160.272 2202.38,160.27 2210.05,160.269 2217.73,160.268 2225.4,160.266 2233.08,160.265 2240.76,160.264 2248.43,160.263 2256.11,160.262 2263.78,160.261 2271.46,160.26 2279.13,160.259 2286.81,160.256 2294.48,322.249 "/>
<polyline clip-path="url(#clip831)" style="stroke:#e26f46; stroke-linecap:round; stroke-linejoin:round; stroke-width:8; stroke-opacity:1; fill:none" stroke-dasharray="32, 20" points="375.601,259.197 386.96,259.197 392.17,259.197 400.452,259.197 407.45,259.197 415.469,259.197 423.303,259.197 431.549,259.197 439.883,259.197 448.467,259.197 457.224,259.197 466.215,259.197 475.445,259.197 484.969,259.197 494.847,259.197 505.191,259.197 516.193,259.197 528.236,259.197 541.004,259.197 552.824,259.197 564.454,259.197 575.682,259.197 586.674,259.197 597.411,259.197 597.72,259.197 597.967,259.197 598.165,259.197 598.323,259.197 598.45,259.197 598.551,259.197 598.632,259.197 598.697,259.197 598.749,259.197 598.791,259.197 598.824,259.197 598.85,259.197 598.872,259.197 598.889,259.197 598.902,259.197 598.913,259.197 598.922,259.197 598.929,259.197 598.935,259.197 598.94,259.197 598.944,259.197 598.947,259.197 598.949,259.197 598.951,259.197 598.953,259.197 598.954,259.197 598.955,259.197 598.955,259.197 598.956,259.197 598.956,259.197 598.956,259.197 598.956,259.197 598.956,259.197 598.956,259.197 598.957,259.197 598.957,259.197 598.957,259.197 598.957,259.197 598.957,259.197 598.957,259.197 598.957,259.197 598.957,259.197 598.957,259.197 598.957,259.197 598.959,259.197 598.975,259.197 599.083,259.197 599.7,259.197 602.441,259.197 606.818,259.197 611.834,259.197 618.061,259.197 625.066,259.197 632.966,259.197 641.532,259.197 650.72,259.197 660.388,259.197 670.458,259.197 680.833,259.197 691.441,259.197 702.217,259.197 713.106,259.197 724.063,259.197 735.05,259.197 746.036,259.197 756.995,259.197 767.909,259.197 778.759,259.197 789.534,259.197 800.222,259.197 810.815,259.197 821.307,259.197 831.692,259.197 841.967,259.197 852.129,259.197 862.176,259.197 872.105,259.197 881.917,259.197 891.61,259.197 901.185,259.197 910.64,259.197 919.978,259.197 929.198,259.197 938.301,259.197 939.269,259.197 940.043,259.197 942.43,259.197 942.572,259.197 942.686,259.197 942.777,259.197 942.849,259.197 942.908,259.197 942.954,259.197 942.992,259.197 943.021,259.197 943.045,259.197 943.064,259.197 943.08,259.197 943.092,259.197 943.102,259.197 943.11,259.197 943.116,259.197 943.121,259.197 943.126,259.197 943.129,259.197 943.132,259.197 943.134,259.197 943.136,259.197 943.137,259.197 943.138,259.197 943.139,259.197 943.139,259.197 943.14,259.197 943.14,259.197 943.14,259.197 943.14,259.197 943.141,259.197 943.141,259.197 943.141,259.197 943.141,259.197 943.141,259.197 943.141,259.197 943.141,259.197 943.141,259.197 943.141,259.197 943.141,259.197 943.141,259.197 943.141,259.197 943.143,259.197 943.157,259.197 943.245,259.197 943.89,259.197 947.294,259.197 952.55,259.197 958.59,259.197 966.103,259.197 974.595,259.197 984.229,259.197 994.764,259.197 1006.18,259.197 1018.32,259.197 1031.14,259.197 1044.54,259.197 1058.46,259.197 1072.84,259.197 1087.64,259.197 1102.82,259.197 1118.36,259.197 1134.23,259.197 1150.42,259.197 1166.91,259.197 1183.7,259.197 1200.79,259.197 1218.17,259.197 1235.85,259.197 1253.83,259.197 1272.11,259.197 1290.71,259.197 1309.63,259.197 1328.88,259.197 1331.22,259.197 1333.1,259.197 1338.66,259.197 1339.05,259.197 1339.35,259.197 1339.6,259.197 1339.8,259.197 1339.96,259.197 1340.08,259.197 1340.18,259.197 1340.26,259.197 1340.33,259.197 1340.38,259.197 1340.42,259.197 1340.46,259.197 1340.48,259.197 1340.5,259.197 1340.52,259.197 1340.53,259.197 1340.54,259.197 1340.55,259.197 1340.56,259.197 1340.57,259.197 1340.57,259.197 1340.58,259.197 1340.58,259.197 1340.58,259.197 1340.58,259.197 1340.58,259.197 1340.59,259.197 1340.59,259.197 1340.59,259.197 1340.59,259.197 1340.59,259.197 1340.59,259.197 1340.59,259.197 1340.59,259.197 1340.59,259.197 1340.59,259.197 1340.59,259.197 1340.59,259.197 1340.59,259.197 1340.59,259.197 1340.59,259.197 1340.59,259.197 1340.59,259.197 1340.59,259.197 1340.65,259.197 1341.04,259.197 1343.33,259.197 1347.42,259.197 1352.31,259.197 1358.38,259.197 1365.37,259.197 1373.35,259.197 1382.21,259.197 1391.9,259.197 1402.36,259.197 1413.54,259.197 1425.38,259.197 1437.86,259.197 1450.94,259.197 1464.61,259.197 1478.84,259.197 1493.64,259.197 1509,259.197 1524.92,259.197 1541.42,259.197 1558.51,259.197 1576.21,259.197 1594.53,259.197 1613.51,259.197 1633.16,259.197 1653.53,259.197 1674.65,259.197 1696.56,259.197 1719.3,259.197 1742.94,259.197 1767.51,259.197 1793.09,259.197 1819.73,259.197 1847.53,259.197 1876.55,259.197 1906.89,259.197 1938.67,259.197 1971.99,259.197 2006.99,259.197 2043.84,259.197 2082.71,259.197 2123.85,259.197 2167.56,259.197 2214.3,259.197 2264.88,259.197 2295.17,259.197 "/>
<path clip-path="url(#clip830)" d="M1907.68 1379.86 L2284.93 1379.86 L2284.93 1224.34 L1907.68 1224.34  Z" fill="#ffffff" fill-rule="evenodd" fill-opacity="1"/>
<polyline clip-path="url(#clip830)" style="stroke:#000000; stroke-linecap:round; stroke-linejoin:round; stroke-width:4; stroke-opacity:1; fill:none" points="1907.68,1379.86 2284.93,1379.86 2284.93,1224.34 1907.68,1224.34 1907.68,1379.86 "/>
<polyline clip-path="url(#clip830)" style="stroke:#009af9; stroke-linecap:round; stroke-linejoin:round; stroke-width:8; stroke-opacity:1; fill:none" points="1930.29,1276.18 2065.94,1276.18 "/>
<path clip-path="url(#clip830)" d="M2093.23 1262.74 L2093.23 1289.61 L2098.87 1289.61 Q2106.03 1289.61 2109.34 1286.37 Q2112.67 1283.13 2112.67 1276.14 Q2112.67 1269.2 2109.34 1265.98 Q2106.03 1262.74 2098.87 1262.74 L2093.23 1262.74 M2088.55 1258.9 L2098.16 1258.9 Q2108.2 1258.9 2112.9 1263.09 Q2117.6 1267.25 2117.6 1276.14 Q2117.6 1285.08 2112.88 1289.27 Q2108.16 1293.46 2098.16 1293.46 L2088.55 1293.46 L2088.55 1258.9 Z" fill="#000000" fill-rule="nonzero" fill-opacity="1" /><path clip-path="url(#clip830)" d="M2124.87 1267.53 L2129.13 1267.53 L2129.13 1293.46 L2124.87 1293.46 L2124.87 1267.53 M2124.87 1257.44 L2129.13 1257.44 L2129.13 1262.83 L2124.87 1262.83 L2124.87 1257.44 Z" fill="#000000" fill-rule="nonzero" fill-opacity="1" /><path clip-path="url(#clip830)" d="M2153.06 1271.51 Q2152.35 1271.1 2151.49 1270.91 Q2150.66 1270.7 2149.64 1270.7 Q2146.03 1270.7 2144.08 1273.06 Q2142.16 1275.4 2142.16 1279.8 L2142.16 1293.46 L2137.88 1293.46 L2137.88 1267.53 L2142.16 1267.53 L2142.16 1271.56 Q2143.5 1269.2 2145.66 1268.06 Q2147.81 1266.91 2150.89 1266.91 Q2151.33 1266.91 2151.86 1266.97 Q2152.39 1267.02 2153.04 1267.14 L2153.06 1271.51 Z" fill="#000000" fill-rule="nonzero" fill-opacity="1" /><path clip-path="url(#clip830)" d="M2178.67 1279.43 L2178.67 1281.51 L2159.08 1281.51 Q2159.36 1285.91 2161.72 1288.22 Q2164.11 1290.52 2168.34 1290.52 Q2170.8 1290.52 2173.09 1289.91 Q2175.4 1289.31 2177.67 1288.11 L2177.67 1292.14 Q2175.38 1293.11 2172.97 1293.62 Q2170.56 1294.13 2168.09 1294.13 Q2161.88 1294.13 2158.25 1290.52 Q2154.64 1286.91 2154.64 1280.75 Q2154.64 1274.38 2158.06 1270.66 Q2161.51 1266.91 2167.35 1266.91 Q2172.58 1266.91 2175.61 1270.29 Q2178.67 1273.64 2178.67 1279.43 M2174.41 1278.18 Q2174.36 1274.68 2172.44 1272.6 Q2170.54 1270.52 2167.39 1270.52 Q2163.83 1270.52 2161.68 1272.53 Q2159.55 1274.54 2159.22 1278.2 L2174.41 1278.18 Z" fill="#000000" fill-rule="nonzero" fill-opacity="1" /><path clip-path="url(#clip830)" d="M2204.31 1268.53 L2204.31 1272.51 Q2202.51 1271.51 2200.68 1271.03 Q2198.87 1270.52 2197.02 1270.52 Q2192.88 1270.52 2190.59 1273.16 Q2188.3 1275.77 2188.3 1280.52 Q2188.3 1285.26 2190.59 1287.9 Q2192.88 1290.52 2197.02 1290.52 Q2198.87 1290.52 2200.68 1290.03 Q2202.51 1289.52 2204.31 1288.53 L2204.31 1292.46 Q2202.53 1293.29 2200.61 1293.71 Q2198.71 1294.13 2196.56 1294.13 Q2190.7 1294.13 2187.25 1290.45 Q2183.8 1286.77 2183.8 1280.52 Q2183.8 1274.17 2187.28 1270.54 Q2190.77 1266.91 2196.84 1266.91 Q2198.8 1266.91 2200.68 1267.32 Q2202.55 1267.72 2204.31 1268.53 Z" fill="#000000" fill-rule="nonzero" fill-opacity="1" /><path clip-path="url(#clip830)" d="M2215.93 1260.17 L2215.93 1267.53 L2224.71 1267.53 L2224.71 1270.84 L2215.93 1270.84 L2215.93 1284.91 Q2215.93 1288.09 2216.79 1288.99 Q2217.67 1289.89 2220.33 1289.89 L2224.71 1289.89 L2224.71 1293.46 L2220.33 1293.46 Q2215.4 1293.46 2213.53 1291.63 Q2211.65 1289.78 2211.65 1284.91 L2211.65 1270.84 L2208.53 1270.84 L2208.53 1267.53 L2211.65 1267.53 L2211.65 1260.17 L2215.93 1260.17 Z" fill="#000000" fill-rule="nonzero" fill-opacity="1" /><polyline clip-path="url(#clip830)" style="stroke:#e26f46; stroke-linecap:round; stroke-linejoin:round; stroke-width:8; stroke-opacity:1; fill:none" stroke-dasharray="32, 20" points="1930.29,1328.02 2065.94,1328.02 "/>
<path clip-path="url(#clip830)" d="M2088.55 1310.74 L2093.23 1310.74 L2093.23 1345.3 L2088.55 1345.3 L2088.55 1310.74 Z" fill="#000000" fill-rule="nonzero" fill-opacity="1" /><path clip-path="url(#clip830)" d="M2123.9 1329.65 L2123.9 1345.3 L2119.64 1345.3 L2119.64 1329.79 Q2119.64 1326.11 2118.2 1324.28 Q2116.77 1322.45 2113.9 1322.45 Q2110.45 1322.45 2108.46 1324.65 Q2106.47 1326.85 2106.47 1330.64 L2106.47 1345.3 L2102.18 1345.3 L2102.18 1319.37 L2106.47 1319.37 L2106.47 1323.4 Q2108 1321.06 2110.06 1319.9 Q2112.14 1318.75 2114.85 1318.75 Q2119.31 1318.75 2121.61 1321.52 Q2123.9 1324.28 2123.9 1329.65 Z" fill="#000000" fill-rule="nonzero" fill-opacity="1" /><path clip-path="url(#clip830)" d="M2149.45 1323.31 L2149.45 1309.28 L2153.71 1309.28 L2153.71 1345.3 L2149.45 1345.3 L2149.45 1341.41 Q2148.11 1343.72 2146.05 1344.86 Q2144.01 1345.97 2141.14 1345.97 Q2136.44 1345.97 2133.48 1342.22 Q2130.54 1338.47 2130.54 1332.36 Q2130.54 1326.25 2133.48 1322.5 Q2136.44 1318.75 2141.14 1318.75 Q2144.01 1318.75 2146.05 1319.88 Q2148.11 1320.99 2149.45 1323.31 M2134.94 1332.36 Q2134.94 1337.06 2136.86 1339.74 Q2138.81 1342.4 2142.18 1342.4 Q2145.56 1342.4 2147.51 1339.74 Q2149.45 1337.06 2149.45 1332.36 Q2149.45 1327.66 2147.51 1325 Q2145.56 1322.31 2142.18 1322.31 Q2138.81 1322.31 2136.86 1325 Q2134.94 1327.66 2134.94 1332.36 Z" fill="#000000" fill-rule="nonzero" fill-opacity="1" /><path clip-path="url(#clip830)" d="M2162.49 1319.37 L2166.74 1319.37 L2166.74 1345.3 L2162.49 1345.3 L2162.49 1319.37 M2162.49 1309.28 L2166.74 1309.28 L2166.74 1314.67 L2162.49 1314.67 L2162.49 1309.28 Z" fill="#000000" fill-rule="nonzero" fill-opacity="1" /><path clip-path="url(#clip830)" d="M2190.68 1323.35 Q2189.96 1322.94 2189.11 1322.75 Q2188.27 1322.54 2187.25 1322.54 Q2183.64 1322.54 2181.7 1324.9 Q2179.78 1327.24 2179.78 1331.64 L2179.78 1345.3 L2175.49 1345.3 L2175.49 1319.37 L2179.78 1319.37 L2179.78 1323.4 Q2181.12 1321.04 2183.27 1319.9 Q2185.43 1318.75 2188.5 1318.75 Q2188.94 1318.75 2189.48 1318.81 Q2190.01 1318.86 2190.66 1318.98 L2190.68 1323.35 Z" fill="#000000" fill-rule="nonzero" fill-opacity="1" /><path clip-path="url(#clip830)" d="M2216.28 1331.27 L2216.28 1333.35 L2196.7 1333.35 Q2196.98 1337.75 2199.34 1340.06 Q2201.72 1342.36 2205.96 1342.36 Q2208.41 1342.36 2210.7 1341.75 Q2213.02 1341.15 2215.29 1339.95 L2215.29 1343.98 Q2212.99 1344.95 2210.59 1345.46 Q2208.18 1345.97 2205.7 1345.97 Q2199.5 1345.97 2195.86 1342.36 Q2192.25 1338.75 2192.25 1332.59 Q2192.25 1326.22 2195.68 1322.5 Q2199.13 1318.75 2204.96 1318.75 Q2210.19 1318.75 2213.23 1322.13 Q2216.28 1325.48 2216.28 1331.27 M2212.02 1330.02 Q2211.98 1326.52 2210.05 1324.44 Q2208.16 1322.36 2205.01 1322.36 Q2201.44 1322.36 2199.29 1324.37 Q2197.16 1326.38 2196.84 1330.04 L2212.02 1330.02 Z" fill="#000000" fill-rule="nonzero" fill-opacity="1" /><path clip-path="url(#clip830)" d="M2241.93 1320.37 L2241.93 1324.35 Q2240.12 1323.35 2238.3 1322.87 Q2236.49 1322.36 2234.64 1322.36 Q2230.49 1322.36 2228.2 1325 Q2225.91 1327.61 2225.91 1332.36 Q2225.91 1337.1 2228.2 1339.74 Q2230.49 1342.36 2234.64 1342.36 Q2236.49 1342.36 2238.3 1341.87 Q2240.12 1341.36 2241.93 1340.37 L2241.93 1344.3 Q2240.15 1345.13 2238.23 1345.55 Q2236.33 1345.97 2234.17 1345.97 Q2228.32 1345.97 2224.87 1342.29 Q2221.42 1338.61 2221.42 1332.36 Q2221.42 1326.01 2224.89 1322.38 Q2228.39 1318.75 2234.45 1318.75 Q2236.42 1318.75 2238.3 1319.16 Q2240.17 1319.56 2241.93 1320.37 Z" fill="#000000" fill-rule="nonzero" fill-opacity="1" /><path clip-path="url(#clip830)" d="M2253.55 1312.01 L2253.55 1319.37 L2262.32 1319.37 L2262.32 1322.68 L2253.55 1322.68 L2253.55 1336.75 Q2253.55 1339.93 2254.41 1340.83 Q2255.29 1341.73 2257.95 1341.73 L2262.32 1341.73 L2262.32 1345.3 L2257.95 1345.3 Q2253.02 1345.3 2251.14 1343.47 Q2249.27 1341.62 2249.27 1336.75 L2249.27 1322.68 L2246.14 1322.68 L2246.14 1319.37 L2249.27 1319.37 L2249.27 1312.01 L2253.55 1312.01 Z" fill="#000000" fill-rule="nonzero" fill-opacity="1" /></svg>
