<?xml version="1.0" encoding="utf-8"?>
<svg xmlns="http://www.w3.org/2000/svg" xmlns:xlink="http://www.w3.org/1999/xlink" width="800" height="400" viewBox="0 0 3200 1600">
<defs>
  <clipPath id="clip290">
    <rect x="0" y="0" width="3200" height="1600"/>
  </clipPath>
</defs>
<path clip-path="url(#clip290)" d="M0 1600 L3200 1600 L3200 0 L0 0  Z" fill="#ffffff" fill-rule="evenodd" fill-opacity="1"/>
<defs>
  <clipPath id="clip291">
    <rect x="322" y="47" width="2831" height="1397"/>
  </clipPath>
</defs>
<path clip-path="url(#clip290)" d="M322.583 1443.7 L3152.76 1443.7 L3152.76 47.2441 L322.583 47.2441  Z" fill="#ffffff" fill-rule="evenodd" fill-opacity="1"/>
<polyline clip-path="url(#clip291)" style="stroke:#000000; stroke-linecap:round; stroke-linejoin:round; stroke-width:2; stroke-opacity:0.1; fill:none" points="402.683,1443.7 402.683,47.2441 "/>
<polyline clip-path="url(#clip291)" style="stroke:#000000; stroke-linecap:round; stroke-linejoin:round; stroke-width:2; stroke-opacity:0.1; fill:none" points="847.678,1443.7 847.678,47.2441 "/>
<polyline clip-path="url(#clip291)" style="stroke:#000000; stroke-linecap:round; stroke-linejoin:round; stroke-width:2; stroke-opacity:0.1; fill:none" points="1292.67,1443.7 1292.67,47.2441 "/>
<polyline clip-path="url(#clip291)" style="stroke:#000000; stroke-linecap:round; stroke-linejoin:round; stroke-width:2; stroke-opacity:0.1; fill:none" points="1737.67,1443.7 1737.67,47.2441 "/>
<polyline clip-path="url(#clip291)" style="stroke:#000000; stroke-linecap:round; stroke-linejoin:round; stroke-width:2; stroke-opacity:0.1; fill:none" points="2182.67,1443.7 2182.67,47.2441 "/>
<polyline clip-path="url(#clip291)" style="stroke:#000000; stroke-linecap:round; stroke-linejoin:round; stroke-width:2; stroke-opacity:0.1; fill:none" points="2627.66,1443.7 2627.66,47.2441 "/>
<polyline clip-path="url(#clip291)" style="stroke:#000000; stroke-linecap:round; stroke-linejoin:round; stroke-width:2; stroke-opacity:0.1; fill:none" points="3072.66,1443.7 3072.66,47.2441 "/>
<polyline clip-path="url(#clip291)" style="stroke:#000000; stroke-linecap:round; stroke-linejoin:round; stroke-width:2; stroke-opacity:0.1; fill:none" points="322.583,1311.71 3152.76,1311.71 "/>
<polyline clip-path="url(#clip291)" style="stroke:#000000; stroke-linecap:round; stroke-linejoin:round; stroke-width:2; stroke-opacity:0.1; fill:none" points="322.583,974.715 3152.76,974.715 "/>
<polyline clip-path="url(#clip291)" style="stroke:#000000; stroke-linecap:round; stroke-linejoin:round; stroke-width:2; stroke-opacity:0.1; fill:none" points="322.583,637.72 3152.76,637.72 "/>
<polyline clip-path="url(#clip291)" style="stroke:#000000; stroke-linecap:round; stroke-linejoin:round; stroke-width:2; stroke-opacity:0.1; fill:none" points="322.583,300.726 3152.76,300.726 "/>
<polyline clip-path="url(#clip290)" style="stroke:#000000; stroke-linecap:round; stroke-linejoin:round; stroke-width:4; stroke-opacity:1; fill:none" points="322.583,1443.7 3152.76,1443.7 "/>
<polyline clip-path="url(#clip290)" style="stroke:#000000; stroke-linecap:round; stroke-linejoin:round; stroke-width:4; stroke-opacity:1; fill:none" points="402.683,1443.7 402.683,1424.8 "/>
<polyline clip-path="url(#clip290)" style="stroke:#000000; stroke-linecap:round; stroke-linejoin:round; stroke-width:4; stroke-opacity:1; fill:none" points="847.678,1443.7 847.678,1424.8 "/>
<polyline clip-path="url(#clip290)" style="stroke:#000000; stroke-linecap:round; stroke-linejoin:round; stroke-width:4; stroke-opacity:1; fill:none" points="1292.67,1443.7 1292.67,1424.8 "/>
<polyline clip-path="url(#clip290)" style="stroke:#000000; stroke-linecap:round; stroke-linejoin:round; stroke-width:4; stroke-opacity:1; fill:none" points="1737.67,1443.7 1737.67,1424.8 "/>
<polyline clip-path="url(#clip290)" style="stroke:#000000; stroke-linecap:round; stroke-linejoin:round; stroke-width:4; stroke-opacity:1; fill:none" points="2182.67,1443.7 2182.67,1424.8 "/>
<polyline clip-path="url(#clip290)" style="stroke:#000000; stroke-linecap:round; stroke-linejoin:round; stroke-width:4; stroke-opacity:1; fill:none" points="2627.66,1443.7 2627.66,1424.8 "/>
<polyline clip-path="url(#clip290)" style="stroke:#000000; stroke-linecap:round; stroke-linejoin:round; stroke-width:4; stroke-opacity:1; fill:none" points="3072.66,1443.7 3072.66,1424.8 "/>
<path clip-path="url(#clip290)" d="M390.854 1482.01 L379.049 1500.46 L390.854 1500.46 L390.854 1482.01 M389.627 1477.94 L395.507 1477.94 L395.507 1500.46 L400.437 1500.46 L400.437 1504.35 L395.507 1504.35 L395.507 1512.5 L390.854 1512.5 L390.854 1504.35 L375.252 1504.35 L375.252 1499.84 L389.627 1477.94 Z" fill="#000000" fill-rule="nonzero" fill-opacity="1" /><path clip-path="url(#clip290)" d="M418.169 1481.02 Q414.558 1481.02 412.729 1484.58 Q410.923 1488.12 410.923 1495.25 Q410.923 1502.36 412.729 1505.93 Q414.558 1509.47 418.169 1509.47 Q421.803 1509.47 423.609 1505.93 Q425.437 1502.36 425.437 1495.25 Q425.437 1488.12 423.609 1484.58 Q421.803 1481.02 418.169 1481.02 M418.169 1477.31 Q423.979 1477.31 427.034 1481.92 Q430.113 1486.5 430.113 1495.25 Q430.113 1503.98 427.034 1508.59 Q423.979 1513.17 418.169 1513.17 Q412.359 1513.17 409.28 1508.59 Q406.224 1503.98 406.224 1495.25 Q406.224 1486.5 409.28 1481.92 Q412.359 1477.31 418.169 1477.31 Z" fill="#000000" fill-rule="nonzero" fill-opacity="1" /><path clip-path="url(#clip290)" d="M822.378 1477.94 L840.734 1477.94 L840.734 1481.88 L826.66 1481.88 L826.66 1490.35 Q827.678 1490 828.697 1489.84 Q829.716 1489.65 830.734 1489.65 Q836.521 1489.65 839.901 1492.82 Q843.28 1496 843.28 1501.41 Q843.28 1506.99 839.808 1510.09 Q836.336 1513.17 830.016 1513.17 Q827.841 1513.17 825.572 1512.8 Q823.327 1512.43 820.919 1511.69 L820.919 1506.99 Q823.003 1508.12 825.225 1508.68 Q827.447 1509.24 829.924 1509.24 Q833.928 1509.24 836.266 1507.13 Q838.604 1505.02 838.604 1501.41 Q838.604 1497.8 836.266 1495.69 Q833.928 1493.59 829.924 1493.59 Q828.049 1493.59 826.174 1494 Q824.322 1494.42 822.378 1495.3 L822.378 1477.94 Z" fill="#000000" fill-rule="nonzero" fill-opacity="1" /><path clip-path="url(#clip290)" d="M862.493 1481.02 Q858.882 1481.02 857.053 1484.58 Q855.248 1488.12 855.248 1495.25 Q855.248 1502.36 857.053 1505.93 Q858.882 1509.47 862.493 1509.47 Q866.127 1509.47 867.933 1505.93 Q869.762 1502.36 869.762 1495.25 Q869.762 1488.12 867.933 1484.58 Q866.127 1481.02 862.493 1481.02 M862.493 1477.31 Q868.303 1477.31 871.359 1481.92 Q874.437 1486.5 874.437 1495.25 Q874.437 1503.98 871.359 1508.59 Q868.303 1513.17 862.493 1513.17 Q856.683 1513.17 853.604 1508.59 Q850.549 1503.98 850.549 1495.25 Q850.549 1486.5 853.604 1481.92 Q856.683 1477.31 862.493 1477.31 Z" fill="#000000" fill-rule="nonzero" fill-opacity="1" /><path clip-path="url(#clip290)" d="M1278.08 1493.36 Q1274.93 1493.36 1273.08 1495.51 Q1271.25 1497.66 1271.25 1501.41 Q1271.25 1505.14 1273.08 1507.31 Q1274.93 1509.47 1278.08 1509.47 Q1281.23 1509.47 1283.06 1507.31 Q1284.91 1505.14 1284.91 1501.41 Q1284.91 1497.66 1283.06 1495.51 Q1281.23 1493.36 1278.08 1493.36 M1287.36 1478.7 L1287.36 1482.96 Q1285.6 1482.13 1283.8 1481.69 Q1282.01 1481.25 1280.26 1481.25 Q1275.63 1481.25 1273.17 1484.37 Q1270.74 1487.5 1270.39 1493.82 Q1271.76 1491.81 1273.82 1490.74 Q1275.88 1489.65 1278.36 1489.65 Q1283.57 1489.65 1286.57 1492.82 Q1289.61 1495.97 1289.61 1501.41 Q1289.61 1506.74 1286.46 1509.95 Q1283.31 1513.17 1278.08 1513.17 Q1272.08 1513.17 1268.91 1508.59 Q1265.74 1503.98 1265.74 1495.25 Q1265.74 1487.06 1269.63 1482.2 Q1273.52 1477.31 1280.07 1477.31 Q1281.83 1477.31 1283.61 1477.66 Q1285.42 1478.01 1287.36 1478.7 Z" fill="#000000" fill-rule="nonzero" fill-opacity="1" /><path clip-path="url(#clip290)" d="M1307.66 1481.02 Q1304.05 1481.02 1302.22 1484.58 Q1300.42 1488.12 1300.42 1495.25 Q1300.42 1502.36 1302.22 1505.93 Q1304.05 1509.47 1307.66 1509.47 Q1311.3 1509.47 1313.1 1505.93 Q1314.93 1502.36 1314.93 1495.25 Q1314.93 1488.12 1313.1 1484.58 Q1311.3 1481.02 1307.66 1481.02 M1307.66 1477.31 Q1313.47 1477.31 1316.53 1481.92 Q1319.61 1486.5 1319.61 1495.25 Q1319.61 1503.98 1316.53 1508.59 Q1313.47 1513.17 1307.66 1513.17 Q1301.85 1513.17 1298.77 1508.59 Q1295.72 1503.98 1295.72 1495.25 Q1295.72 1486.5 1298.77 1481.92 Q1301.85 1477.31 1307.66 1477.31 Z" fill="#000000" fill-rule="nonzero" fill-opacity="1" /><path clip-path="url(#clip290)" d="M1711.03 1477.94 L1733.25 1477.94 L1733.25 1479.93 L1720.7 1512.5 L1715.82 1512.5 L1727.62 1481.88 L1711.03 1481.88 L1711.03 1477.94 Z" fill="#000000" fill-rule="nonzero" fill-opacity="1" /><path clip-path="url(#clip290)" d="M1752.37 1481.02 Q1748.76 1481.02 1746.93 1484.58 Q1745.12 1488.12 1745.12 1495.25 Q1745.12 1502.36 1746.93 1505.93 Q1748.76 1509.47 1752.37 1509.47 Q1756 1509.47 1757.81 1505.93 Q1759.64 1502.36 1759.64 1495.25 Q1759.64 1488.12 1757.81 1484.58 Q1756 1481.02 1752.37 1481.02 M1752.37 1477.31 Q1758.18 1477.31 1761.23 1481.92 Q1764.31 1486.5 1764.31 1495.25 Q1764.31 1503.98 1761.23 1508.59 Q1758.18 1513.17 1752.37 1513.17 Q1746.56 1513.17 1743.48 1508.59 Q1740.42 1503.98 1740.42 1495.25 Q1740.42 1486.5 1743.48 1481.92 Q1746.56 1477.31 1752.37 1477.31 Z" fill="#000000" fill-rule="nonzero" fill-opacity="1" /><path clip-path="url(#clip290)" d="M2167.54 1496.09 Q2164.2 1496.09 2162.28 1497.87 Q2160.39 1499.65 2160.39 1502.78 Q2160.39 1505.9 2162.28 1507.69 Q2164.2 1509.47 2167.54 1509.47 Q2170.87 1509.47 2172.79 1507.69 Q2174.71 1505.88 2174.71 1502.78 Q2174.71 1499.65 2172.79 1497.87 Q2170.89 1496.09 2167.54 1496.09 M2162.86 1494.1 Q2159.85 1493.36 2158.16 1491.3 Q2156.5 1489.24 2156.5 1486.27 Q2156.5 1482.13 2159.44 1479.72 Q2162.4 1477.31 2167.54 1477.31 Q2172.7 1477.31 2175.64 1479.72 Q2178.58 1482.13 2178.58 1486.27 Q2178.58 1489.24 2176.89 1491.3 Q2175.22 1493.36 2172.24 1494.1 Q2175.62 1494.88 2177.49 1497.18 Q2179.39 1499.47 2179.39 1502.78 Q2179.39 1507.8 2176.31 1510.49 Q2173.26 1513.17 2167.54 1513.17 Q2161.82 1513.17 2158.74 1510.49 Q2155.69 1507.8 2155.69 1502.78 Q2155.69 1499.47 2157.58 1497.18 Q2159.48 1494.88 2162.86 1494.1 M2161.15 1486.71 Q2161.15 1489.4 2162.82 1490.9 Q2164.51 1492.41 2167.54 1492.41 Q2170.55 1492.41 2172.24 1490.9 Q2173.95 1489.4 2173.95 1486.71 Q2173.95 1484.03 2172.24 1482.52 Q2170.55 1481.02 2167.54 1481.02 Q2164.51 1481.02 2162.82 1482.52 Q2161.15 1484.03 2161.15 1486.71 Z" fill="#000000" fill-rule="nonzero" fill-opacity="1" /><path clip-path="url(#clip290)" d="M2197.7 1481.02 Q2194.09 1481.02 2192.26 1484.58 Q2190.45 1488.12 2190.45 1495.25 Q2190.45 1502.36 2192.26 1505.93 Q2194.09 1509.47 2197.7 1509.47 Q2201.33 1509.47 2203.14 1505.93 Q2204.97 1502.36 2204.97 1495.25 Q2204.97 1488.12 2203.14 1484.58 Q2201.33 1481.02 2197.7 1481.02 M2197.7 1477.31 Q2203.51 1477.31 2206.57 1481.92 Q2209.64 1486.5 2209.64 1495.25 Q2209.64 1503.98 2206.57 1508.59 Q2203.51 1513.17 2197.7 1513.17 Q2191.89 1513.17 2188.81 1508.59 Q2185.76 1503.98 2185.76 1495.25 Q2185.76 1486.5 2188.81 1481.92 Q2191.89 1477.31 2197.7 1477.31 Z" fill="#000000" fill-rule="nonzero" fill-opacity="1" /><path clip-path="url(#clip290)" d="M2602.79 1511.78 L2602.79 1507.52 Q2604.55 1508.36 2606.35 1508.8 Q2608.16 1509.24 2609.89 1509.24 Q2614.52 1509.24 2616.96 1506.13 Q2619.41 1503.01 2619.76 1496.67 Q2618.41 1498.66 2616.35 1499.72 Q2614.29 1500.79 2611.79 1500.79 Q2606.61 1500.79 2603.58 1497.66 Q2600.57 1494.51 2600.57 1489.07 Q2600.57 1483.75 2603.71 1480.53 Q2606.86 1477.31 2612.09 1477.31 Q2618.09 1477.31 2621.24 1481.92 Q2624.41 1486.5 2624.41 1495.25 Q2624.41 1503.43 2620.52 1508.31 Q2616.65 1513.17 2610.1 1513.17 Q2608.34 1513.17 2606.54 1512.82 Q2604.73 1512.48 2602.79 1511.78 M2612.09 1497.13 Q2615.24 1497.13 2617.07 1494.98 Q2618.92 1492.82 2618.92 1489.07 Q2618.92 1485.35 2617.07 1483.19 Q2615.24 1481.02 2612.09 1481.02 Q2608.95 1481.02 2607.09 1483.19 Q2605.27 1485.35 2605.27 1489.07 Q2605.27 1492.82 2607.09 1494.98 Q2608.95 1497.13 2612.09 1497.13 Z" fill="#000000" fill-rule="nonzero" fill-opacity="1" /><path clip-path="url(#clip290)" d="M2642.81 1481.02 Q2639.2 1481.02 2637.37 1484.58 Q2635.57 1488.12 2635.57 1495.25 Q2635.57 1502.36 2637.37 1505.93 Q2639.2 1509.47 2642.81 1509.47 Q2646.45 1509.47 2648.25 1505.93 Q2650.08 1502.36 2650.08 1495.25 Q2650.08 1488.12 2648.25 1484.58 Q2646.45 1481.02 2642.81 1481.02 M2642.81 1477.31 Q2648.62 1477.31 2651.68 1481.92 Q2654.76 1486.5 2654.76 1495.25 Q2654.76 1503.98 2651.68 1508.59 Q2648.62 1513.17 2642.81 1513.17 Q2637 1513.17 2633.92 1508.59 Q2630.87 1503.98 2630.87 1495.25 Q2630.87 1486.5 2633.92 1481.92 Q2637 1477.31 2642.81 1477.31 Z" fill="#000000" fill-rule="nonzero" fill-opacity="1" /><path clip-path="url(#clip290)" d="M3032.26 1508.56 L3039.9 1508.56 L3039.9 1482.2 L3031.59 1483.87 L3031.59 1479.61 L3039.86 1477.94 L3044.53 1477.94 L3044.53 1508.56 L3052.17 1508.56 L3052.17 1512.5 L3032.26 1512.5 L3032.26 1508.56 Z" fill="#000000" fill-rule="nonzero" fill-opacity="1" /><path clip-path="url(#clip290)" d="M3071.62 1481.02 Q3068 1481.02 3066.18 1484.58 Q3064.37 1488.12 3064.37 1495.25 Q3064.37 1502.36 3066.18 1505.93 Q3068 1509.47 3071.62 1509.47 Q3075.25 1509.47 3077.05 1505.93 Q3078.88 1502.36 3078.88 1495.25 Q3078.88 1488.12 3077.05 1484.58 Q3075.25 1481.02 3071.62 1481.02 M3071.62 1477.31 Q3077.43 1477.31 3080.48 1481.92 Q3083.56 1486.5 3083.56 1495.25 Q3083.56 1503.98 3080.48 1508.59 Q3077.43 1513.17 3071.62 1513.17 Q3065.8 1513.17 3062.73 1508.59 Q3059.67 1503.98 3059.67 1495.25 Q3059.67 1486.5 3062.73 1481.92 Q3065.8 1477.31 3071.62 1477.31 Z" fill="#000000" fill-rule="nonzero" fill-opacity="1" /><path clip-path="url(#clip290)" d="M3101.78 1481.02 Q3098.17 1481.02 3096.34 1484.58 Q3094.53 1488.12 3094.53 1495.25 Q3094.53 1502.36 3096.34 1505.93 Q3098.17 1509.47 3101.78 1509.47 Q3105.41 1509.47 3107.22 1505.93 Q3109.05 1502.36 3109.05 1495.25 Q3109.05 1488.12 3107.22 1484.58 Q3105.41 1481.02 3101.78 1481.02 M3101.78 1477.31 Q3107.59 1477.31 3110.64 1481.92 Q3113.72 1486.5 3113.72 1495.25 Q3113.72 1503.98 3110.64 1508.59 Q3107.59 1513.17 3101.78 1513.17 Q3095.97 1513.17 3092.89 1508.59 Q3089.83 1503.98 3089.83 1495.25 Q3089.83 1486.5 3092.89 1481.92 Q3095.97 1477.31 3101.78 1477.31 Z" fill="#000000" fill-rule="nonzero" fill-opacity="1" /><path clip-path="url(#clip290)" d="M1659.55 1553.04 L1699.75 1553.04 L1699.75 1558.45 L1682.88 1558.45 L1682.88 1600.56 L1676.42 1600.56 L1676.42 1558.45 L1659.55 1558.45 L1659.55 1553.04 Z" fill="#000000" fill-rule="nonzero" fill-opacity="1" /><path clip-path="url(#clip290)" d="M1703.69 1564.92 L1709.55 1564.92 L1709.55 1600.56 L1703.69 1600.56 L1703.69 1564.92 M1703.69 1551.04 L1709.55 1551.04 L1709.55 1558.45 L1703.69 1558.45 L1703.69 1551.04 Z" fill="#000000" fill-rule="nonzero" fill-opacity="1" /><path clip-path="url(#clip290)" d="M1749.56 1571.76 Q1751.75 1567.81 1754.81 1565.93 Q1757.86 1564.06 1762 1564.06 Q1767.57 1564.06 1770.6 1567.97 Q1773.62 1571.85 1773.62 1579.05 L1773.62 1600.56 L1767.73 1600.56 L1767.73 1579.24 Q1767.73 1574.11 1765.92 1571.63 Q1764.1 1569.15 1760.38 1569.15 Q1755.83 1569.15 1753.19 1572.17 Q1750.54 1575.2 1750.54 1580.42 L1750.54 1600.56 L1744.66 1600.56 L1744.66 1579.24 Q1744.66 1574.08 1742.84 1571.63 Q1741.03 1569.15 1737.24 1569.15 Q1732.75 1569.15 1730.11 1572.2 Q1727.47 1575.23 1727.47 1580.42 L1727.47 1600.56 L1721.58 1600.56 L1721.58 1564.92 L1727.47 1564.92 L1727.47 1570.45 Q1729.47 1567.18 1732.27 1565.62 Q1735.08 1564.06 1738.93 1564.06 Q1742.81 1564.06 1745.52 1566.03 Q1748.25 1568 1749.56 1571.76 Z" fill="#000000" fill-rule="nonzero" fill-opacity="1" /><path clip-path="url(#clip290)" d="M1815.79 1581.28 L1815.79 1584.14 L1788.87 1584.14 Q1789.25 1590.19 1792.49 1593.37 Q1795.77 1596.52 1801.6 1596.52 Q1804.97 1596.52 1808.12 1595.69 Q1811.31 1594.87 1814.42 1593.21 L1814.42 1598.75 Q1811.27 1600.09 1807.96 1600.79 Q1804.65 1601.49 1801.25 1601.49 Q1792.72 1601.49 1787.72 1596.52 Q1782.75 1591.56 1782.75 1583.09 Q1782.75 1574.34 1787.47 1569.21 Q1792.21 1564.06 1800.23 1564.06 Q1807.42 1564.06 1811.59 1568.7 Q1815.79 1573.32 1815.79 1581.28 M1809.94 1579.56 Q1809.87 1574.75 1807.23 1571.89 Q1804.62 1569.02 1800.29 1569.02 Q1795.39 1569.02 1792.43 1571.79 Q1789.5 1574.56 1789.06 1579.59 L1809.94 1579.56 Z" fill="#000000" fill-rule="nonzero" fill-opacity="1" /><polyline clip-path="url(#clip290)" style="stroke:#000000; stroke-linecap:round; stroke-linejoin:round; stroke-width:4; stroke-opacity:1; fill:none" points="322.583,1443.7 322.583,47.2441 "/>
<polyline clip-path="url(#clip290)" style="stroke:#000000; stroke-linecap:round; stroke-linejoin:round; stroke-width:4; stroke-opacity:1; fill:none" points="322.583,1311.71 341.481,1311.71 "/>
<polyline clip-path="url(#clip290)" style="stroke:#000000; stroke-linecap:round; stroke-linejoin:round; stroke-width:4; stroke-opacity:1; fill:none" points="322.583,974.715 341.481,974.715 "/>
<polyline clip-path="url(#clip290)" style="stroke:#000000; stroke-linecap:round; stroke-linejoin:round; stroke-width:4; stroke-opacity:1; fill:none" points="322.583,637.72 341.481,637.72 "/>
<polyline clip-path="url(#clip290)" style="stroke:#000000; stroke-linecap:round; stroke-linejoin:round; stroke-width:4; stroke-opacity:1; fill:none" points="322.583,300.726 341.481,300.726 "/>
<path clip-path="url(#clip290)" d="M46.9921 1312.16 L76.6679 1312.16 L76.6679 1316.1 L46.9921 1316.1 L46.9921 1312.16 Z" fill="#000000" fill-rule="nonzero" fill-opacity="1" /><path clip-path="url(#clip290)" d="M96.7604 1297.51 Q93.1493 1297.51 91.3206 1301.07 Q89.515 1304.61 89.515 1311.74 Q89.515 1318.85 91.3206 1322.41 Q93.1493 1325.96 96.7604 1325.96 Q100.395 1325.96 102.2 1322.41 Q104.029 1318.85 104.029 1311.74 Q104.029 1304.61 102.2 1301.07 Q100.395 1297.51 96.7604 1297.51 M96.7604 1293.8 Q102.571 1293.8 105.626 1298.41 Q108.705 1302.99 108.705 1311.74 Q108.705 1320.47 105.626 1325.08 Q102.571 1329.66 96.7604 1329.66 Q90.9502 1329.66 87.8715 1325.08 Q84.816 1320.47 84.816 1311.74 Q84.816 1302.99 87.8715 1298.41 Q90.9502 1293.8 96.7604 1293.8 Z" fill="#000000" fill-rule="nonzero" fill-opacity="1" /><path clip-path="url(#clip290)" d="M116.922 1323.11 L121.807 1323.11 L121.807 1328.99 L116.922 1328.99 L116.922 1323.11 Z" fill="#000000" fill-rule="nonzero" fill-opacity="1" /><path clip-path="url(#clip290)" d="M142.57 1309.85 Q139.422 1309.85 137.57 1312 Q135.742 1314.15 135.742 1317.9 Q135.742 1321.63 137.57 1323.8 Q139.422 1325.96 142.57 1325.96 Q145.718 1325.96 147.547 1323.8 Q149.399 1321.63 149.399 1317.9 Q149.399 1314.15 147.547 1312 Q145.718 1309.85 142.57 1309.85 M151.853 1295.19 L151.853 1299.45 Q150.093 1298.62 148.288 1298.18 Q146.505 1297.74 144.746 1297.74 Q140.117 1297.74 137.663 1300.86 Q135.232 1303.99 134.885 1310.31 Q136.251 1308.29 138.311 1307.23 Q140.371 1306.14 142.848 1306.14 Q148.056 1306.14 151.066 1309.31 Q154.098 1312.46 154.098 1317.9 Q154.098 1323.23 150.95 1326.44 Q147.802 1329.66 142.57 1329.66 Q136.575 1329.66 133.404 1325.08 Q130.232 1320.47 130.232 1311.74 Q130.232 1303.55 134.121 1298.69 Q138.01 1293.8 144.561 1293.8 Q146.32 1293.8 148.103 1294.15 Q149.908 1294.5 151.853 1295.19 Z" fill="#000000" fill-rule="nonzero" fill-opacity="1" /><path clip-path="url(#clip290)" d="M172.153 1297.51 Q168.542 1297.51 166.714 1301.07 Q164.908 1304.61 164.908 1311.74 Q164.908 1318.85 166.714 1322.41 Q168.542 1325.96 172.153 1325.96 Q175.788 1325.96 177.593 1322.41 Q179.422 1318.85 179.422 1311.74 Q179.422 1304.61 177.593 1301.07 Q175.788 1297.51 172.153 1297.51 M172.153 1293.8 Q177.964 1293.8 181.019 1298.41 Q184.098 1302.99 184.098 1311.74 Q184.098 1320.47 181.019 1325.08 Q177.964 1329.66 172.153 1329.66 Q166.343 1329.66 163.265 1325.08 Q160.209 1320.47 160.209 1311.74 Q160.209 1302.99 163.265 1298.41 Q166.343 1293.8 172.153 1293.8 Z" fill="#000000" fill-rule="nonzero" fill-opacity="1" /><path clip-path="url(#clip290)" d="M206.482 1310.35 Q209.838 1311.07 211.713 1313.34 Q213.612 1315.61 213.612 1318.94 Q213.612 1324.06 210.093 1326.86 Q206.575 1329.66 200.093 1329.66 Q197.917 1329.66 195.602 1329.22 Q193.311 1328.8 190.857 1327.95 L190.857 1323.43 Q192.802 1324.57 195.116 1325.15 Q197.431 1325.73 199.954 1325.73 Q204.352 1325.73 206.644 1323.99 Q208.959 1322.25 208.959 1318.94 Q208.959 1315.89 206.806 1314.17 Q204.676 1312.44 200.857 1312.44 L196.829 1312.44 L196.829 1308.6 L201.042 1308.6 Q204.491 1308.6 206.32 1307.23 Q208.149 1305.84 208.149 1303.25 Q208.149 1300.59 206.251 1299.17 Q204.376 1297.74 200.857 1297.74 Q198.936 1297.74 196.737 1298.16 Q194.538 1298.57 191.899 1299.45 L191.899 1295.29 Q194.561 1294.54 196.876 1294.17 Q199.214 1293.8 201.274 1293.8 Q206.598 1293.8 209.7 1296.23 Q212.801 1298.64 212.801 1302.76 Q212.801 1305.63 211.158 1307.62 Q209.514 1309.59 206.482 1310.35 Z" fill="#000000" fill-rule="nonzero" fill-opacity="1" /><path clip-path="url(#clip290)" d="M223.287 1325.05 L230.926 1325.05 L230.926 1298.69 L222.616 1300.35 L222.616 1296.1 L230.88 1294.43 L235.556 1294.43 L235.556 1325.05 L243.195 1325.05 L243.195 1328.99 L223.287 1328.99 L223.287 1325.05 Z" fill="#000000" fill-rule="nonzero" fill-opacity="1" /><path clip-path="url(#clip290)" d="M262.639 1297.51 Q259.028 1297.51 257.199 1301.07 Q255.394 1304.61 255.394 1311.74 Q255.394 1318.85 257.199 1322.41 Q259.028 1325.96 262.639 1325.96 Q266.273 1325.96 268.079 1322.41 Q269.908 1318.85 269.908 1311.74 Q269.908 1304.61 268.079 1301.07 Q266.273 1297.51 262.639 1297.51 M262.639 1293.8 Q268.449 1293.8 271.505 1298.41 Q274.583 1302.99 274.583 1311.74 Q274.583 1320.47 271.505 1325.08 Q268.449 1329.66 262.639 1329.66 Q256.829 1329.66 253.75 1325.08 Q250.695 1320.47 250.695 1311.74 Q250.695 1302.99 253.75 1298.41 Q256.829 1293.8 262.639 1293.8 Z" fill="#000000" fill-rule="nonzero" fill-opacity="1" /><path clip-path="url(#clip290)" d="M47.9875 975.166 L77.6633 975.166 L77.6633 979.101 L47.9875 979.101 L47.9875 975.166 Z" fill="#000000" fill-rule="nonzero" fill-opacity="1" /><path clip-path="url(#clip290)" d="M97.7557 960.513 Q94.1447 960.513 92.316 964.078 Q90.5104 967.62 90.5104 974.749 Q90.5104 981.856 92.316 985.421 Q94.1447 988.962 97.7557 988.962 Q101.39 988.962 103.196 985.421 Q105.024 981.856 105.024 974.749 Q105.024 967.62 103.196 964.078 Q101.39 960.513 97.7557 960.513 M97.7557 956.81 Q103.566 956.81 106.621 961.416 Q109.7 965.999 109.7 974.749 Q109.7 983.476 106.621 988.083 Q103.566 992.666 97.7557 992.666 Q91.9456 992.666 88.8669 988.083 Q85.8114 983.476 85.8114 974.749 Q85.8114 965.999 88.8669 961.416 Q91.9456 956.81 97.7557 956.81 Z" fill="#000000" fill-rule="nonzero" fill-opacity="1" /><path clip-path="url(#clip290)" d="M117.918 986.115 L122.802 986.115 L122.802 991.995 L117.918 991.995 L117.918 986.115 Z" fill="#000000" fill-rule="nonzero" fill-opacity="1" /><path clip-path="url(#clip290)" d="M143.566 972.851 Q140.418 972.851 138.566 975.004 Q136.737 977.157 136.737 980.907 Q136.737 984.634 138.566 986.81 Q140.418 988.962 143.566 988.962 Q146.714 988.962 148.543 986.81 Q150.394 984.634 150.394 980.907 Q150.394 977.157 148.543 975.004 Q146.714 972.851 143.566 972.851 M152.848 958.199 L152.848 962.458 Q151.089 961.624 149.283 961.185 Q147.501 960.745 145.742 960.745 Q141.112 960.745 138.658 963.87 Q136.228 966.995 135.881 973.314 Q137.246 971.3 139.306 970.236 Q141.367 969.148 143.843 969.148 Q149.052 969.148 152.061 972.319 Q155.093 975.467 155.093 980.907 Q155.093 986.231 151.945 989.448 Q148.797 992.666 143.566 992.666 Q137.57 992.666 134.399 988.083 Q131.228 983.476 131.228 974.749 Q131.228 966.555 135.117 961.694 Q139.006 956.81 145.556 956.81 Q147.316 956.81 149.098 957.157 Q150.904 957.504 152.848 958.199 Z" fill="#000000" fill-rule="nonzero" fill-opacity="1" /><path clip-path="url(#clip290)" d="M173.149 960.513 Q169.538 960.513 167.709 964.078 Q165.904 967.62 165.904 974.749 Q165.904 981.856 167.709 985.421 Q169.538 988.962 173.149 988.962 Q176.783 988.962 178.589 985.421 Q180.417 981.856 180.417 974.749 Q180.417 967.62 178.589 964.078 Q176.783 960.513 173.149 960.513 M173.149 956.81 Q178.959 956.81 182.015 961.416 Q185.093 965.999 185.093 974.749 Q185.093 983.476 182.015 988.083 Q178.959 992.666 173.149 992.666 Q167.339 992.666 164.26 988.083 Q161.204 983.476 161.204 974.749 Q161.204 965.999 164.26 961.416 Q167.339 956.81 173.149 956.81 Z" fill="#000000" fill-rule="nonzero" fill-opacity="1" /><path clip-path="url(#clip290)" d="M207.477 973.361 Q210.834 974.078 212.709 976.347 Q214.607 978.615 214.607 981.948 Q214.607 987.064 211.088 989.865 Q207.57 992.666 201.089 992.666 Q198.913 992.666 196.598 992.226 Q194.306 991.809 191.852 990.953 L191.852 986.439 Q193.797 987.573 196.112 988.152 Q198.426 988.731 200.95 988.731 Q205.348 988.731 207.639 986.995 Q209.954 985.259 209.954 981.948 Q209.954 978.893 207.801 977.18 Q205.672 975.444 201.852 975.444 L197.825 975.444 L197.825 971.601 L202.038 971.601 Q205.487 971.601 207.315 970.236 Q209.144 968.847 209.144 966.254 Q209.144 963.592 207.246 962.18 Q205.371 960.745 201.852 960.745 Q199.931 960.745 197.732 961.162 Q195.533 961.578 192.894 962.458 L192.894 958.291 Q195.556 957.55 197.871 957.18 Q200.209 956.81 202.269 956.81 Q207.593 956.81 210.695 959.24 Q213.797 961.648 213.797 965.768 Q213.797 968.638 212.153 970.629 Q210.51 972.597 207.477 973.361 Z" fill="#000000" fill-rule="nonzero" fill-opacity="1" /><path clip-path="url(#clip290)" d="M233.473 960.513 Q229.862 960.513 228.033 964.078 Q226.227 967.62 226.227 974.749 Q226.227 981.856 228.033 985.421 Q229.862 988.962 233.473 988.962 Q237.107 988.962 238.912 985.421 Q240.741 981.856 240.741 974.749 Q240.741 967.62 238.912 964.078 Q237.107 960.513 233.473 960.513 M233.473 956.81 Q239.283 956.81 242.338 961.416 Q245.417 965.999 245.417 974.749 Q245.417 983.476 242.338 988.083 Q239.283 992.666 233.473 992.666 Q227.662 992.666 224.584 988.083 Q221.528 983.476 221.528 974.749 Q221.528 965.999 224.584 961.416 Q227.662 956.81 233.473 956.81 Z" fill="#000000" fill-rule="nonzero" fill-opacity="1" /><path clip-path="url(#clip290)" d="M253.681 957.435 L272.037 957.435 L272.037 961.37 L257.963 961.37 L257.963 969.842 Q258.982 969.495 260 969.333 Q261.019 969.148 262.037 969.148 Q267.824 969.148 271.204 972.319 Q274.583 975.49 274.583 980.907 Q274.583 986.485 271.111 989.587 Q267.639 992.666 261.32 992.666 Q259.144 992.666 256.875 992.296 Q254.63 991.925 252.223 991.184 L252.223 986.485 Q254.306 987.62 256.528 988.175 Q258.75 988.731 261.227 988.731 Q265.232 988.731 267.57 986.624 Q269.908 984.518 269.908 980.907 Q269.908 977.296 267.57 975.189 Q265.232 973.083 261.227 973.083 Q259.352 973.083 257.477 973.499 Q255.625 973.916 253.681 974.796 L253.681 957.435 Z" fill="#000000" fill-rule="nonzero" fill-opacity="1" /><path clip-path="url(#clip290)" d="M46.9921 638.172 L76.6679 638.172 L76.6679 642.107 L46.9921 642.107 L46.9921 638.172 Z" fill="#000000" fill-rule="nonzero" fill-opacity="1" /><path clip-path="url(#clip290)" d="M96.7604 623.519 Q93.1493 623.519 91.3206 627.084 Q89.515 630.625 89.515 637.755 Q89.515 644.861 91.3206 648.426 Q93.1493 651.968 96.7604 651.968 Q100.395 651.968 102.2 648.426 Q104.029 644.861 104.029 637.755 Q104.029 630.625 102.2 627.084 Q100.395 623.519 96.7604 623.519 M96.7604 619.815 Q102.571 619.815 105.626 624.422 Q108.705 629.005 108.705 637.755 Q108.705 646.482 105.626 651.088 Q102.571 655.672 96.7604 655.672 Q90.9502 655.672 87.8715 651.088 Q84.816 646.482 84.816 637.755 Q84.816 629.005 87.8715 624.422 Q90.9502 619.815 96.7604 619.815 Z" fill="#000000" fill-rule="nonzero" fill-opacity="1" /><path clip-path="url(#clip290)" d="M116.922 649.121 L121.807 649.121 L121.807 655 L116.922 655 L116.922 649.121 Z" fill="#000000" fill-rule="nonzero" fill-opacity="1" /><path clip-path="url(#clip290)" d="M142.57 635.857 Q139.422 635.857 137.57 638.01 Q135.742 640.162 135.742 643.912 Q135.742 647.639 137.57 649.815 Q139.422 651.968 142.57 651.968 Q145.718 651.968 147.547 649.815 Q149.399 647.639 149.399 643.912 Q149.399 640.162 147.547 638.01 Q145.718 635.857 142.57 635.857 M151.853 621.204 L151.853 625.463 Q150.093 624.63 148.288 624.19 Q146.505 623.75 144.746 623.75 Q140.117 623.75 137.663 626.875 Q135.232 630 134.885 636.32 Q136.251 634.306 138.311 633.241 Q140.371 632.153 142.848 632.153 Q148.056 632.153 151.066 635.325 Q154.098 638.473 154.098 643.912 Q154.098 649.236 150.95 652.454 Q147.802 655.672 142.57 655.672 Q136.575 655.672 133.404 651.088 Q130.232 646.482 130.232 637.755 Q130.232 629.561 134.121 624.7 Q138.01 619.815 144.561 619.815 Q146.32 619.815 148.103 620.163 Q149.908 620.51 151.853 621.204 Z" fill="#000000" fill-rule="nonzero" fill-opacity="1" /><path clip-path="url(#clip290)" d="M172.153 623.519 Q168.542 623.519 166.714 627.084 Q164.908 630.625 164.908 637.755 Q164.908 644.861 166.714 648.426 Q168.542 651.968 172.153 651.968 Q175.788 651.968 177.593 648.426 Q179.422 644.861 179.422 637.755 Q179.422 630.625 177.593 627.084 Q175.788 623.519 172.153 623.519 M172.153 619.815 Q177.964 619.815 181.019 624.422 Q184.098 629.005 184.098 637.755 Q184.098 646.482 181.019 651.088 Q177.964 655.672 172.153 655.672 Q166.343 655.672 163.265 651.088 Q160.209 646.482 160.209 637.755 Q160.209 629.005 163.265 624.422 Q166.343 619.815 172.153 619.815 Z" fill="#000000" fill-rule="nonzero" fill-opacity="1" /><path clip-path="url(#clip290)" d="M206.482 636.366 Q209.838 637.084 211.713 639.352 Q213.612 641.621 213.612 644.954 Q213.612 650.07 210.093 652.871 Q206.575 655.672 200.093 655.672 Q197.917 655.672 195.602 655.232 Q193.311 654.815 190.857 653.959 L190.857 649.445 Q192.802 650.579 195.116 651.158 Q197.431 651.736 199.954 651.736 Q204.352 651.736 206.644 650 Q208.959 648.264 208.959 644.954 Q208.959 641.899 206.806 640.186 Q204.676 638.449 200.857 638.449 L196.829 638.449 L196.829 634.607 L201.042 634.607 Q204.491 634.607 206.32 633.241 Q208.149 631.852 208.149 629.26 Q208.149 626.598 206.251 625.186 Q204.376 623.75 200.857 623.75 Q198.936 623.75 196.737 624.167 Q194.538 624.584 191.899 625.463 L191.899 621.297 Q194.561 620.556 196.876 620.186 Q199.214 619.815 201.274 619.815 Q206.598 619.815 209.7 622.246 Q212.801 624.653 212.801 628.774 Q212.801 631.644 211.158 633.635 Q209.514 635.602 206.482 636.366 Z" fill="#000000" fill-rule="nonzero" fill-opacity="1" /><path clip-path="url(#clip290)" d="M232.477 623.519 Q228.866 623.519 227.037 627.084 Q225.232 630.625 225.232 637.755 Q225.232 644.861 227.037 648.426 Q228.866 651.968 232.477 651.968 Q236.111 651.968 237.917 648.426 Q239.746 644.861 239.746 637.755 Q239.746 630.625 237.917 627.084 Q236.111 623.519 232.477 623.519 M232.477 619.815 Q238.287 619.815 241.343 624.422 Q244.422 629.005 244.422 637.755 Q244.422 646.482 241.343 651.088 Q238.287 655.672 232.477 655.672 Q226.667 655.672 223.588 651.088 Q220.533 646.482 220.533 637.755 Q220.533 629.005 223.588 624.422 Q226.667 619.815 232.477 619.815 Z" fill="#000000" fill-rule="nonzero" fill-opacity="1" /><path clip-path="url(#clip290)" d="M262.639 623.519 Q259.028 623.519 257.199 627.084 Q255.394 630.625 255.394 637.755 Q255.394 644.861 257.199 648.426 Q259.028 651.968 262.639 651.968 Q266.273 651.968 268.079 648.426 Q269.908 644.861 269.908 637.755 Q269.908 630.625 268.079 627.084 Q266.273 623.519 262.639 623.519 M262.639 619.815 Q268.449 619.815 271.505 624.422 Q274.583 629.005 274.583 637.755 Q274.583 646.482 271.505 651.088 Q268.449 655.672 262.639 655.672 Q256.829 655.672 253.75 651.088 Q250.695 646.482 250.695 637.755 Q250.695 629.005 253.75 624.422 Q256.829 619.815 262.639 619.815 Z" fill="#000000" fill-rule="nonzero" fill-opacity="1" /><path clip-path="url(#clip290)" d="M47.9875 301.177 L77.6633 301.177 L77.6633 305.113 L47.9875 305.113 L47.9875 301.177 Z" fill="#000000" fill-rule="nonzero" fill-opacity="1" /><path clip-path="url(#clip290)" d="M97.7557 286.525 Q94.1447 286.525 92.316 290.089 Q90.5104 293.631 90.5104 300.761 Q90.5104 307.867 92.316 311.432 Q94.1447 314.974 97.7557 314.974 Q101.39 314.974 103.196 311.432 Q105.024 307.867 105.024 300.761 Q105.024 293.631 103.196 290.089 Q101.39 286.525 97.7557 286.525 M97.7557 282.821 Q103.566 282.821 106.621 287.427 Q109.7 292.011 109.7 300.761 Q109.7 309.488 106.621 314.094 Q103.566 318.677 97.7557 318.677 Q91.9456 318.677 88.8669 314.094 Q85.8114 309.488 85.8114 300.761 Q85.8114 292.011 88.8669 287.427 Q91.9456 282.821 97.7557 282.821 Z" fill="#000000" fill-rule="nonzero" fill-opacity="1" /><path clip-path="url(#clip290)" d="M117.918 312.126 L122.802 312.126 L122.802 318.006 L117.918 318.006 L117.918 312.126 Z" fill="#000000" fill-rule="nonzero" fill-opacity="1" /><path clip-path="url(#clip290)" d="M143.566 298.863 Q140.418 298.863 138.566 301.015 Q136.737 303.168 136.737 306.918 Q136.737 310.645 138.566 312.821 Q140.418 314.974 143.566 314.974 Q146.714 314.974 148.543 312.821 Q150.394 310.645 150.394 306.918 Q150.394 303.168 148.543 301.015 Q146.714 298.863 143.566 298.863 M152.848 284.21 L152.848 288.469 Q151.089 287.636 149.283 287.196 Q147.501 286.756 145.742 286.756 Q141.112 286.756 138.658 289.881 Q136.228 293.006 135.881 299.326 Q137.246 297.312 139.306 296.247 Q141.367 295.159 143.843 295.159 Q149.052 295.159 152.061 298.33 Q155.093 301.478 155.093 306.918 Q155.093 312.242 151.945 315.46 Q148.797 318.677 143.566 318.677 Q137.57 318.677 134.399 314.094 Q131.228 309.488 131.228 300.761 Q131.228 292.566 135.117 287.705 Q139.006 282.821 145.556 282.821 Q147.316 282.821 149.098 283.168 Q150.904 283.515 152.848 284.21 Z" fill="#000000" fill-rule="nonzero" fill-opacity="1" /><path clip-path="url(#clip290)" d="M173.149 286.525 Q169.538 286.525 167.709 290.089 Q165.904 293.631 165.904 300.761 Q165.904 307.867 167.709 311.432 Q169.538 314.974 173.149 314.974 Q176.783 314.974 178.589 311.432 Q180.417 307.867 180.417 300.761 Q180.417 293.631 178.589 290.089 Q176.783 286.525 173.149 286.525 M173.149 282.821 Q178.959 282.821 182.015 287.427 Q185.093 292.011 185.093 300.761 Q185.093 309.488 182.015 314.094 Q178.959 318.677 173.149 318.677 Q167.339 318.677 164.26 314.094 Q161.204 309.488 161.204 300.761 Q161.204 292.011 164.26 287.427 Q167.339 282.821 173.149 282.821 Z" fill="#000000" fill-rule="nonzero" fill-opacity="1" /><path clip-path="url(#clip290)" d="M197.339 314.071 L213.658 314.071 L213.658 318.006 L191.714 318.006 L191.714 314.071 Q194.376 311.316 198.959 306.687 Q203.565 302.034 204.746 300.691 Q206.991 298.168 207.871 296.432 Q208.774 294.673 208.774 292.983 Q208.774 290.228 206.829 288.492 Q204.908 286.756 201.806 286.756 Q199.607 286.756 197.153 287.52 Q194.723 288.284 191.945 289.835 L191.945 285.113 Q194.769 283.978 197.223 283.4 Q199.676 282.821 201.714 282.821 Q207.084 282.821 210.278 285.506 Q213.473 288.191 213.473 292.682 Q213.473 294.812 212.663 296.733 Q211.876 298.631 209.769 301.224 Q209.19 301.895 206.088 305.113 Q202.987 308.307 197.339 314.071 Z" fill="#000000" fill-rule="nonzero" fill-opacity="1" /><path clip-path="url(#clip290)" d="M223.612 317.288 L223.612 313.029 Q225.371 313.862 227.176 314.302 Q228.982 314.742 230.718 314.742 Q235.348 314.742 237.778 311.64 Q240.232 308.515 240.579 302.173 Q239.236 304.163 237.176 305.228 Q235.116 306.293 232.616 306.293 Q227.431 306.293 224.399 303.168 Q221.389 300.02 221.389 294.58 Q221.389 289.256 224.537 286.039 Q227.686 282.821 232.917 282.821 Q238.912 282.821 242.061 287.427 Q245.232 292.011 245.232 300.761 Q245.232 308.932 241.343 313.816 Q237.477 318.677 230.926 318.677 Q229.167 318.677 227.362 318.33 Q225.556 317.983 223.612 317.288 M232.917 302.636 Q236.065 302.636 237.894 300.483 Q239.746 298.33 239.746 294.58 Q239.746 290.853 237.894 288.701 Q236.065 286.525 232.917 286.525 Q229.769 286.525 227.917 288.701 Q226.088 290.853 226.088 294.58 Q226.088 298.33 227.917 300.483 Q229.769 302.636 232.917 302.636 Z" fill="#000000" fill-rule="nonzero" fill-opacity="1" /><path clip-path="url(#clip290)" d="M253.681 283.446 L272.037 283.446 L272.037 287.381 L257.963 287.381 L257.963 295.853 Q258.982 295.506 260 295.344 Q261.019 295.159 262.037 295.159 Q267.824 295.159 271.204 298.33 Q274.583 301.501 274.583 306.918 Q274.583 312.497 271.111 315.599 Q267.639 318.677 261.32 318.677 Q259.144 318.677 256.875 318.307 Q254.63 317.937 252.223 317.196 L252.223 312.497 Q254.306 313.631 256.528 314.187 Q258.75 314.742 261.227 314.742 Q265.232 314.742 267.57 312.636 Q269.908 310.529 269.908 306.918 Q269.908 303.307 267.57 301.201 Q265.232 299.094 261.227 299.094 Q259.352 299.094 257.477 299.511 Q255.625 299.927 253.681 300.807 L253.681 283.446 Z" fill="#000000" fill-rule="nonzero" fill-opacity="1" /><polyline clip-path="url(#clip291)" style="stroke:#e26f46; stroke-linecap:round; stroke-linejoin:round; stroke-width:4; stroke-opacity:1; fill:none" points="1648.67,2840.16 1648.67,-1349.21 "/>
<circle clip-path="url(#clip291)" cx="402.683" cy="86.7664" r="14.4" fill="#009af9" fill-rule="evenodd" fill-opacity="1" stroke="#000000" stroke-opacity="1" stroke-width="3.2"/>
<circle clip-path="url(#clip291)" cx="447.182" cy="230.67" r="14.4" fill="#009af9" fill-rule="evenodd" fill-opacity="1" stroke="#000000" stroke-opacity="1" stroke-width="3.2"/>
<circle clip-path="url(#clip291)" cx="491.682" cy="359.825" r="14.4" fill="#009af9" fill-rule="evenodd" fill-opacity="1" stroke="#000000" stroke-opacity="1" stroke-width="3.2"/>
<circle clip-path="url(#clip291)" cx="536.181" cy="475.917" r="14.4" fill="#009af9" fill-rule="evenodd" fill-opacity="1" stroke="#000000" stroke-opacity="1" stroke-width="3.2"/>
<circle clip-path="url(#clip291)" cx="580.681" cy="580.397" r="14.4" fill="#009af9" fill-rule="evenodd" fill-opacity="1" stroke="#000000" stroke-opacity="1" stroke-width="3.2"/>
<circle clip-path="url(#clip291)" cx="625.181" cy="674.516" r="14.4" fill="#009af9" fill-rule="evenodd" fill-opacity="1" stroke="#000000" stroke-opacity="1" stroke-width="3.2"/>
<circle clip-path="url(#clip291)" cx="669.68" cy="759.362" r="14.4" fill="#009af9" fill-rule="evenodd" fill-opacity="1" stroke="#000000" stroke-opacity="1" stroke-width="3.2"/>
<circle clip-path="url(#clip291)" cx="714.18" cy="835.879" r="14.4" fill="#009af9" fill-rule="evenodd" fill-opacity="1" stroke="#000000" stroke-opacity="1" stroke-width="3.2"/>
<circle clip-path="url(#clip291)" cx="758.679" cy="904.894" r="14.4" fill="#009af9" fill-rule="evenodd" fill-opacity="1" stroke="#000000" stroke-opacity="1" stroke-width="3.2"/>
<circle clip-path="url(#clip291)" cx="803.179" cy="967.129" r="14.4" fill="#009af9" fill-rule="evenodd" fill-opacity="1" stroke="#000000" stroke-opacity="1" stroke-width="3.2"/>
<circle clip-path="url(#clip291)" cx="847.678" cy="1023.22" r="14.4" fill="#009af9" fill-rule="evenodd" fill-opacity="1" stroke="#000000" stroke-opacity="1" stroke-width="3.2"/>
<circle clip-path="url(#clip291)" cx="892.178" cy="1073.73" r="14.4" fill="#009af9" fill-rule="evenodd" fill-opacity="1" stroke="#000000" stroke-opacity="1" stroke-width="3.2"/>
<circle clip-path="url(#clip291)" cx="936.678" cy="1119.15" r="14.4" fill="#009af9" fill-rule="evenodd" fill-opacity="1" stroke="#000000" stroke-opacity="1" stroke-width="3.2"/>
<circle clip-path="url(#clip291)" cx="981.177" cy="1159.93" r="14.4" fill="#009af9" fill-rule="evenodd" fill-opacity="1" stroke="#000000" stroke-opacity="1" stroke-width="3.2"/>
<circle clip-path="url(#clip291)" cx="1025.68" cy="1196.45" r="14.4" fill="#009af9" fill-rule="evenodd" fill-opacity="1" stroke="#000000" stroke-opacity="1" stroke-width="3.2"/>
<circle clip-path="url(#clip291)" cx="1070.18" cy="1229.06" r="14.4" fill="#009af9" fill-rule="evenodd" fill-opacity="1" stroke="#000000" stroke-opacity="1" stroke-width="3.2"/>
<circle clip-path="url(#clip291)" cx="1114.68" cy="1258.07" r="14.4" fill="#009af9" fill-rule="evenodd" fill-opacity="1" stroke="#000000" stroke-opacity="1" stroke-width="3.2"/>
<circle clip-path="url(#clip291)" cx="1159.18" cy="1283.78" r="14.4" fill="#009af9" fill-rule="evenodd" fill-opacity="1" stroke="#000000" stroke-opacity="1" stroke-width="3.2"/>
<circle clip-path="url(#clip291)" cx="1203.67" cy="1306.4" r="14.4" fill="#009af9" fill-rule="evenodd" fill-opacity="1" stroke="#000000" stroke-opacity="1" stroke-width="3.2"/>
<circle clip-path="url(#clip291)" cx="1248.17" cy="1326.19" r="14.4" fill="#009af9" fill-rule="evenodd" fill-opacity="1" stroke="#000000" stroke-opacity="1" stroke-width="3.2"/>
<circle clip-path="url(#clip291)" cx="1292.67" cy="1343.34" r="14.4" fill="#009af9" fill-rule="evenodd" fill-opacity="1" stroke="#000000" stroke-opacity="1" stroke-width="3.2"/>
<circle clip-path="url(#clip291)" cx="1337.17" cy="1358.02" r="14.4" fill="#009af9" fill-rule="evenodd" fill-opacity="1" stroke="#000000" stroke-opacity="1" stroke-width="3.2"/>
<circle clip-path="url(#clip291)" cx="1381.67" cy="1370.42" r="14.4" fill="#009af9" fill-rule="evenodd" fill-opacity="1" stroke="#000000" stroke-opacity="1" stroke-width="3.2"/>
<circle clip-path="url(#clip291)" cx="1426.17" cy="1380.67" r="14.4" fill="#009af9" fill-rule="evenodd" fill-opacity="1" stroke="#000000" stroke-opacity="1" stroke-width="3.2"/>
<circle clip-path="url(#clip291)" cx="1470.67" cy="1374.32" r="14.4" fill="#009af9" fill-rule="evenodd" fill-opacity="1" stroke="#000000" stroke-opacity="1" stroke-width="3.2"/>
<circle clip-path="url(#clip291)" cx="1515.17" cy="1395.29" r="14.4" fill="#009af9" fill-rule="evenodd" fill-opacity="1" stroke="#000000" stroke-opacity="1" stroke-width="3.2"/>
<circle clip-path="url(#clip291)" cx="1559.67" cy="1399.88" r="14.4" fill="#009af9" fill-rule="evenodd" fill-opacity="1" stroke="#000000" stroke-opacity="1" stroke-width="3.2"/>
<circle clip-path="url(#clip291)" cx="1604.17" cy="1402.82" r="14.4" fill="#009af9" fill-rule="evenodd" fill-opacity="1" stroke="#000000" stroke-opacity="1" stroke-width="3.2"/>
<circle clip-path="url(#clip291)" cx="1648.67" cy="1404.18" r="14.4" fill="#009af9" fill-rule="evenodd" fill-opacity="1" stroke="#000000" stroke-opacity="1" stroke-width="3.2"/>
<circle clip-path="url(#clip291)" cx="1693.17" cy="1404.05" r="14.4" fill="#009af9" fill-rule="evenodd" fill-opacity="1" stroke="#000000" stroke-opacity="1" stroke-width="3.2"/>
<circle clip-path="url(#clip291)" cx="1737.67" cy="1402.52" r="14.4" fill="#009af9" fill-rule="evenodd" fill-opacity="1" stroke="#000000" stroke-opacity="1" stroke-width="3.2"/>
<circle clip-path="url(#clip291)" cx="1782.17" cy="1399.66" r="14.4" fill="#009af9" fill-rule="evenodd" fill-opacity="1" stroke="#000000" stroke-opacity="1" stroke-width="3.2"/>
<circle clip-path="url(#clip291)" cx="1826.67" cy="1395.53" r="14.4" fill="#009af9" fill-rule="evenodd" fill-opacity="1" stroke="#000000" stroke-opacity="1" stroke-width="3.2"/>
<circle clip-path="url(#clip291)" cx="1871.17" cy="1390.19" r="14.4" fill="#009af9" fill-rule="evenodd" fill-opacity="1" stroke="#000000" stroke-opacity="1" stroke-width="3.2"/>
<circle clip-path="url(#clip291)" cx="1915.67" cy="1376.25" r="14.4" fill="#009af9" fill-rule="evenodd" fill-opacity="1" stroke="#000000" stroke-opacity="1" stroke-width="3.2"/>
<circle clip-path="url(#clip291)" cx="1960.17" cy="1376.13" r="14.4" fill="#009af9" fill-rule="evenodd" fill-opacity="1" stroke="#000000" stroke-opacity="1" stroke-width="3.2"/>
<circle clip-path="url(#clip291)" cx="2004.67" cy="1356.32" r="14.4" fill="#009af9" fill-rule="evenodd" fill-opacity="1" stroke="#000000" stroke-opacity="1" stroke-width="3.2"/>
<circle clip-path="url(#clip291)" cx="2049.17" cy="1357.87" r="14.4" fill="#009af9" fill-rule="evenodd" fill-opacity="1" stroke="#000000" stroke-opacity="1" stroke-width="3.2"/>
<circle clip-path="url(#clip291)" cx="2093.67" cy="1347.27" r="14.4" fill="#009af9" fill-rule="evenodd" fill-opacity="1" stroke="#000000" stroke-opacity="1" stroke-width="3.2"/>
<circle clip-path="url(#clip291)" cx="2138.17" cy="1335.75" r="14.4" fill="#009af9" fill-rule="evenodd" fill-opacity="1" stroke="#000000" stroke-opacity="1" stroke-width="3.2"/>
<circle clip-path="url(#clip291)" cx="2182.67" cy="1323.35" r="14.4" fill="#009af9" fill-rule="evenodd" fill-opacity="1" stroke="#000000" stroke-opacity="1" stroke-width="3.2"/>
<circle clip-path="url(#clip291)" cx="2227.16" cy="1310.09" r="14.4" fill="#009af9" fill-rule="evenodd" fill-opacity="1" stroke="#000000" stroke-opacity="1" stroke-width="3.2"/>
<circle clip-path="url(#clip291)" cx="2271.66" cy="1296" r="14.4" fill="#009af9" fill-rule="evenodd" fill-opacity="1" stroke="#000000" stroke-opacity="1" stroke-width="3.2"/>
<circle clip-path="url(#clip291)" cx="2316.16" cy="1281.12" r="14.4" fill="#009af9" fill-rule="evenodd" fill-opacity="1" stroke="#000000" stroke-opacity="1" stroke-width="3.2"/>
<circle clip-path="url(#clip291)" cx="2360.66" cy="1260.07" r="14.4" fill="#009af9" fill-rule="evenodd" fill-opacity="1" stroke="#000000" stroke-opacity="1" stroke-width="3.2"/>
<circle clip-path="url(#clip291)" cx="2405.16" cy="1249.07" r="14.4" fill="#009af9" fill-rule="evenodd" fill-opacity="1" stroke="#000000" stroke-opacity="1" stroke-width="3.2"/>
<circle clip-path="url(#clip291)" cx="2449.66" cy="1231.96" r="14.4" fill="#009af9" fill-rule="evenodd" fill-opacity="1" stroke="#000000" stroke-opacity="1" stroke-width="3.2"/>
<circle clip-path="url(#clip291)" cx="2494.16" cy="1214.14" r="14.4" fill="#009af9" fill-rule="evenodd" fill-opacity="1" stroke="#000000" stroke-opacity="1" stroke-width="3.2"/>
<circle clip-path="url(#clip291)" cx="2538.66" cy="1195.64" r="14.4" fill="#009af9" fill-rule="evenodd" fill-opacity="1" stroke="#000000" stroke-opacity="1" stroke-width="3.2"/>
<circle clip-path="url(#clip291)" cx="2583.16" cy="1176.5" r="14.4" fill="#009af9" fill-rule="evenodd" fill-opacity="1" stroke="#000000" stroke-opacity="1" stroke-width="3.2"/>
<circle clip-path="url(#clip291)" cx="2627.66" cy="1156.7" r="14.4" fill="#009af9" fill-rule="evenodd" fill-opacity="1" stroke="#000000" stroke-opacity="1" stroke-width="3.2"/>
<circle clip-path="url(#clip291)" cx="2672.16" cy="1136.28" r="14.4" fill="#009af9" fill-rule="evenodd" fill-opacity="1" stroke="#000000" stroke-opacity="1" stroke-width="3.2"/>
<circle clip-path="url(#clip291)" cx="2716.66" cy="1115.25" r="14.4" fill="#009af9" fill-rule="evenodd" fill-opacity="1" stroke="#000000" stroke-opacity="1" stroke-width="3.2"/>
<circle clip-path="url(#clip291)" cx="2761.16" cy="1093.62" r="14.4" fill="#009af9" fill-rule="evenodd" fill-opacity="1" stroke="#000000" stroke-opacity="1" stroke-width="3.2"/>
<circle clip-path="url(#clip291)" cx="2805.66" cy="1066.95" r="14.4" fill="#009af9" fill-rule="evenodd" fill-opacity="1" stroke="#000000" stroke-opacity="1" stroke-width="3.2"/>
<circle clip-path="url(#clip291)" cx="2850.16" cy="1048.64" r="14.4" fill="#009af9" fill-rule="evenodd" fill-opacity="1" stroke="#000000" stroke-opacity="1" stroke-width="3.2"/>
<circle clip-path="url(#clip291)" cx="2894.66" cy="1025.31" r="14.4" fill="#009af9" fill-rule="evenodd" fill-opacity="1" stroke="#000000" stroke-opacity="1" stroke-width="3.2"/>
<circle clip-path="url(#clip291)" cx="2939.16" cy="1001.44" r="14.4" fill="#009af9" fill-rule="evenodd" fill-opacity="1" stroke="#000000" stroke-opacity="1" stroke-width="3.2"/>
<circle clip-path="url(#clip291)" cx="2983.66" cy="977.03" r="14.4" fill="#009af9" fill-rule="evenodd" fill-opacity="1" stroke="#000000" stroke-opacity="1" stroke-width="3.2"/>
<circle clip-path="url(#clip291)" cx="3028.16" cy="952.1" r="14.4" fill="#009af9" fill-rule="evenodd" fill-opacity="1" stroke="#000000" stroke-opacity="1" stroke-width="3.2"/>
<circle clip-path="url(#clip291)" cx="3072.66" cy="926.655" r="14.4" fill="#009af9" fill-rule="evenodd" fill-opacity="1" stroke="#000000" stroke-opacity="1" stroke-width="3.2"/>
<path clip-path="url(#clip290)" d="M2372.69 249.313 L3058.42 249.313 L3058.42 93.7926 L2372.69 93.7926  Z" fill="#ffffff" fill-rule="evenodd" fill-opacity="1"/>
<polyline clip-path="url(#clip290)" style="stroke:#000000; stroke-linecap:round; stroke-linejoin:round; stroke-width:4; stroke-opacity:1; fill:none" points="2372.69,249.313 3058.42,249.313 3058.42,93.7926 2372.69,93.7926 2372.69,249.313 "/>
<polyline clip-path="url(#clip290)" style="stroke:#e26f46; stroke-linecap:round; stroke-linejoin:round; stroke-width:4; stroke-opacity:1; fill:none" points="2404.14,145.633 2592.82,145.633 "/>
<path clip-path="url(#clip290)" d="M2624.26 128.353 L2631.23 128.353 L2640.05 151.871 L2648.92 128.353 L2655.88 128.353 L2655.88 162.913 L2651.32 162.913 L2651.32 132.566 L2642.41 156.269 L2637.71 156.269 L2628.8 132.566 L2628.8 162.913 L2624.26 162.913 L2624.26 128.353 Z" fill="#000000" fill-rule="nonzero" fill-opacity="1" /><path clip-path="url(#clip290)" d="M2664.98 136.987 L2669.24 136.987 L2669.24 162.913 L2664.98 162.913 L2664.98 136.987 M2664.98 126.894 L2669.24 126.894 L2669.24 132.288 L2664.98 132.288 L2664.98 126.894 Z" fill="#000000" fill-rule="nonzero" fill-opacity="1" /><path clip-path="url(#clip290)" d="M2699.7 147.265 L2699.7 162.913 L2695.44 162.913 L2695.44 147.403 Q2695.44 143.723 2694.01 141.894 Q2692.57 140.066 2689.7 140.066 Q2686.25 140.066 2684.26 142.265 Q2682.27 144.464 2682.27 148.26 L2682.27 162.913 L2677.99 162.913 L2677.99 136.987 L2682.27 136.987 L2682.27 141.015 Q2683.8 138.677 2685.86 137.519 Q2687.94 136.362 2690.65 136.362 Q2695.12 136.362 2697.41 139.14 Q2699.7 141.894 2699.7 147.265 Z" fill="#000000" fill-rule="nonzero" fill-opacity="1" /><path clip-path="url(#clip290)" d="M2708.2 136.987 L2712.46 136.987 L2712.46 162.913 L2708.2 162.913 L2708.2 136.987 M2708.2 126.894 L2712.46 126.894 L2712.46 132.288 L2708.2 132.288 L2708.2 126.894 Z" fill="#000000" fill-rule="nonzero" fill-opacity="1" /><path clip-path="url(#clip290)" d="M2741.56 141.964 Q2743.15 139.093 2745.37 137.728 Q2747.6 136.362 2750.61 136.362 Q2754.66 136.362 2756.86 139.209 Q2759.06 142.033 2759.06 147.265 L2759.06 162.913 L2754.77 162.913 L2754.77 147.403 Q2754.77 143.677 2753.45 141.871 Q2752.13 140.066 2749.43 140.066 Q2746.12 140.066 2744.19 142.265 Q2742.27 144.464 2742.27 148.26 L2742.27 162.913 L2737.99 162.913 L2737.99 147.403 Q2737.99 143.653 2736.67 141.871 Q2735.35 140.066 2732.6 140.066 Q2729.33 140.066 2727.41 142.288 Q2725.49 144.487 2725.49 148.26 L2725.49 162.913 L2721.21 162.913 L2721.21 136.987 L2725.49 136.987 L2725.49 141.015 Q2726.95 138.63 2728.99 137.496 Q2731.02 136.362 2733.82 136.362 Q2736.65 136.362 2738.62 137.797 Q2740.61 139.232 2741.56 141.964 Z" fill="#000000" fill-rule="nonzero" fill-opacity="1" /><path clip-path="url(#clip290)" d="M2767.11 152.681 L2767.11 136.987 L2771.37 136.987 L2771.37 152.519 Q2771.37 156.2 2772.81 158.052 Q2774.24 159.88 2777.11 159.88 Q2780.56 159.88 2782.55 157.681 Q2784.56 155.482 2784.56 151.686 L2784.56 136.987 L2788.82 136.987 L2788.82 162.913 L2784.56 162.913 L2784.56 158.931 Q2783.01 161.292 2780.95 162.45 Q2778.92 163.584 2776.21 163.584 Q2771.74 163.584 2769.43 160.806 Q2767.11 158.028 2767.11 152.681 M2777.83 136.362 L2777.83 136.362 Z" fill="#000000" fill-rule="nonzero" fill-opacity="1" /><path clip-path="url(#clip290)" d="M2817.78 141.964 Q2819.38 139.093 2821.6 137.728 Q2823.82 136.362 2826.83 136.362 Q2830.88 136.362 2833.08 139.209 Q2835.28 142.033 2835.28 147.265 L2835.28 162.913 L2831 162.913 L2831 147.403 Q2831 143.677 2829.68 141.871 Q2828.36 140.066 2825.65 140.066 Q2822.34 140.066 2820.42 142.265 Q2818.5 144.464 2818.5 148.26 L2818.5 162.913 L2814.22 162.913 L2814.22 147.403 Q2814.22 143.653 2812.9 141.871 Q2811.58 140.066 2808.82 140.066 Q2805.56 140.066 2803.64 142.288 Q2801.72 144.487 2801.72 148.26 L2801.72 162.913 L2797.43 162.913 L2797.43 136.987 L2801.72 136.987 L2801.72 141.015 Q2803.18 138.63 2805.21 137.496 Q2807.25 136.362 2810.05 136.362 Q2812.87 136.362 2814.84 137.797 Q2816.83 139.232 2817.78 141.964 Z" fill="#000000" fill-rule="nonzero" fill-opacity="1" /><circle clip-path="url(#clip290)" cx="2498.48" cy="197.473" r="20.48" fill="#009af9" fill-rule="evenodd" fill-opacity="1" stroke="#000000" stroke-opacity="1" stroke-width="4.55111"/>
<path clip-path="url(#clip290)" d="M2640.28 183.364 Q2635.19 183.364 2632.18 187.16 Q2629.19 190.956 2629.19 197.507 Q2629.19 204.035 2632.18 207.831 Q2635.19 211.628 2640.28 211.628 Q2645.38 211.628 2648.34 207.831 Q2651.32 204.035 2651.32 197.507 Q2651.32 190.956 2648.34 187.16 Q2645.38 183.364 2640.28 183.364 M2640.28 179.568 Q2647.55 179.568 2651.9 184.452 Q2656.25 189.313 2656.25 197.507 Q2656.25 205.679 2651.9 210.563 Q2647.55 215.424 2640.28 215.424 Q2632.99 215.424 2628.62 210.563 Q2624.26 205.702 2624.26 197.507 Q2624.26 189.313 2628.62 184.452 Q2632.99 179.568 2640.28 179.568 Z" fill="#000000" fill-rule="nonzero" fill-opacity="1" /><path clip-path="url(#clip290)" d="M2682 201.813 Q2682 197.114 2680.05 194.452 Q2678.13 191.767 2674.75 191.767 Q2671.37 191.767 2669.43 194.452 Q2667.5 197.114 2667.5 201.813 Q2667.5 206.512 2669.43 209.197 Q2671.37 211.859 2674.75 211.859 Q2678.13 211.859 2680.05 209.197 Q2682 206.512 2682 201.813 M2667.5 192.762 Q2668.85 190.447 2670.88 189.336 Q2672.94 188.202 2675.79 188.202 Q2680.51 188.202 2683.45 191.952 Q2686.42 195.702 2686.42 201.813 Q2686.42 207.924 2683.45 211.674 Q2680.51 215.424 2675.79 215.424 Q2672.94 215.424 2670.88 214.313 Q2668.85 213.179 2667.5 210.864 L2667.5 214.753 L2663.22 214.753 L2663.22 178.734 L2667.5 178.734 L2667.5 192.762 Z" fill="#000000" fill-rule="nonzero" fill-opacity="1" /><path clip-path="url(#clip290)" d="M2693.48 188.827 L2697.74 188.827 L2697.74 215.216 Q2697.74 220.169 2695.84 222.391 Q2693.96 224.614 2689.77 224.614 L2688.15 224.614 L2688.15 221.003 L2689.29 221.003 Q2691.72 221.003 2692.6 219.868 Q2693.48 218.757 2693.48 215.216 L2693.48 188.827 M2693.48 178.734 L2697.74 178.734 L2697.74 184.128 L2693.48 184.128 L2693.48 178.734 Z" fill="#000000" fill-rule="nonzero" fill-opacity="1" /><path clip-path="url(#clip290)" d="M2728.82 200.725 L2728.82 202.808 L2709.24 202.808 Q2709.52 207.206 2711.88 209.521 Q2714.26 211.813 2718.5 211.813 Q2720.95 211.813 2723.25 211.211 Q2725.56 210.609 2727.83 209.405 L2727.83 213.433 Q2725.54 214.405 2723.13 214.915 Q2720.72 215.424 2718.25 215.424 Q2712.04 215.424 2708.41 211.813 Q2704.8 208.202 2704.8 202.044 Q2704.8 195.679 2708.22 191.952 Q2711.67 188.202 2717.5 188.202 Q2722.74 188.202 2725.77 191.581 Q2728.82 194.938 2728.82 200.725 M2724.56 199.475 Q2724.52 195.98 2722.6 193.896 Q2720.7 191.813 2717.55 191.813 Q2713.99 191.813 2711.83 193.827 Q2709.7 195.841 2709.38 199.498 L2724.56 199.475 Z" fill="#000000" fill-rule="nonzero" fill-opacity="1" /><path clip-path="url(#clip290)" d="M2754.47 189.822 L2754.47 193.804 Q2752.67 192.808 2750.84 192.322 Q2749.03 191.813 2747.18 191.813 Q2743.04 191.813 2740.75 194.452 Q2738.45 197.068 2738.45 201.813 Q2738.45 206.558 2740.75 209.197 Q2743.04 211.813 2747.18 211.813 Q2749.03 211.813 2750.84 211.327 Q2752.67 210.817 2754.47 209.822 L2754.47 213.757 Q2752.69 214.591 2750.77 215.007 Q2748.87 215.424 2746.72 215.424 Q2740.86 215.424 2737.41 211.743 Q2733.96 208.063 2733.96 201.813 Q2733.96 195.47 2737.43 191.836 Q2740.93 188.202 2747 188.202 Q2748.96 188.202 2750.84 188.619 Q2752.71 189.012 2754.47 189.822 Z" fill="#000000" fill-rule="nonzero" fill-opacity="1" /><path clip-path="url(#clip290)" d="M2766.09 181.466 L2766.09 188.827 L2774.87 188.827 L2774.87 192.137 L2766.09 192.137 L2766.09 206.211 Q2766.09 209.382 2766.95 210.285 Q2767.83 211.188 2770.49 211.188 L2774.87 211.188 L2774.87 214.753 L2770.49 214.753 Q2765.56 214.753 2763.68 212.924 Q2761.81 211.072 2761.81 206.211 L2761.81 192.137 L2758.68 192.137 L2758.68 188.827 L2761.81 188.827 L2761.81 181.466 L2766.09 181.466 Z" fill="#000000" fill-rule="nonzero" fill-opacity="1" /><path clip-path="url(#clip290)" d="M2780.47 188.827 L2784.73 188.827 L2784.73 214.753 L2780.47 214.753 L2780.47 188.827 M2780.47 178.734 L2784.73 178.734 L2784.73 184.128 L2780.47 184.128 L2780.47 178.734 Z" fill="#000000" fill-rule="nonzero" fill-opacity="1" /><path clip-path="url(#clip290)" d="M2790.58 188.827 L2795.1 188.827 L2803.2 210.586 L2811.3 188.827 L2815.81 188.827 L2806.09 214.753 L2800.31 214.753 L2790.58 188.827 Z" fill="#000000" fill-rule="nonzero" fill-opacity="1" /><path clip-path="url(#clip290)" d="M2843.87 200.725 L2843.87 202.808 L2824.29 202.808 Q2824.56 207.206 2826.93 209.521 Q2829.31 211.813 2833.55 211.813 Q2836 211.813 2838.29 211.211 Q2840.61 210.609 2842.87 209.405 L2842.87 213.433 Q2840.58 214.405 2838.18 214.915 Q2835.77 215.424 2833.29 215.424 Q2827.09 215.424 2823.45 211.813 Q2819.84 208.202 2819.84 202.044 Q2819.84 195.679 2823.27 191.952 Q2826.72 188.202 2832.55 188.202 Q2837.78 188.202 2840.81 191.581 Q2843.87 194.938 2843.87 200.725 M2839.61 199.475 Q2839.56 195.98 2837.64 193.896 Q2835.74 191.813 2832.6 191.813 Q2829.03 191.813 2826.88 193.827 Q2824.75 195.841 2824.43 199.498 L2839.61 199.475 Z" fill="#000000" fill-rule="nonzero" fill-opacity="1" /><path clip-path="url(#clip290)" d="M2876.16 178.781 Q2873.06 184.105 2871.55 189.313 Q2870.05 194.521 2870.05 199.868 Q2870.05 205.216 2871.55 210.47 Q2873.08 215.702 2876.16 221.003 L2872.46 221.003 Q2868.99 215.563 2867.25 210.308 Q2865.54 205.054 2865.54 199.868 Q2865.54 194.706 2867.25 189.475 Q2868.96 184.244 2872.46 178.781 L2876.16 178.781 Z" fill="#000000" fill-rule="nonzero" fill-opacity="1" /><path clip-path="url(#clip290)" d="M2884.42 178.734 L2888.68 178.734 L2888.68 214.753 L2884.42 214.753 L2884.42 178.734 Z" fill="#000000" fill-rule="nonzero" fill-opacity="1" /><path clip-path="url(#clip290)" d="M2907.64 191.813 Q2904.22 191.813 2902.23 194.498 Q2900.24 197.16 2900.24 201.813 Q2900.24 206.466 2902.2 209.151 Q2904.19 211.813 2907.64 211.813 Q2911.05 211.813 2913.04 209.128 Q2915.03 206.442 2915.03 201.813 Q2915.03 197.206 2913.04 194.521 Q2911.05 191.813 2907.64 191.813 M2907.64 188.202 Q2913.2 188.202 2916.37 191.813 Q2919.54 195.424 2919.54 201.813 Q2919.54 208.179 2916.37 211.813 Q2913.2 215.424 2907.64 215.424 Q2902.06 215.424 2898.89 211.813 Q2895.74 208.179 2895.74 201.813 Q2895.74 195.424 2898.89 191.813 Q2902.06 188.202 2907.64 188.202 Z" fill="#000000" fill-rule="nonzero" fill-opacity="1" /><path clip-path="url(#clip290)" d="M2943.66 201.489 Q2943.66 196.859 2941.74 194.313 Q2939.84 191.767 2936.39 191.767 Q2932.97 191.767 2931.05 194.313 Q2929.15 196.859 2929.15 201.489 Q2929.15 206.095 2931.05 208.642 Q2932.97 211.188 2936.39 211.188 Q2939.84 211.188 2941.74 208.642 Q2943.66 206.095 2943.66 201.489 M2947.92 211.535 Q2947.92 218.155 2944.98 221.373 Q2942.04 224.614 2935.98 224.614 Q2933.73 224.614 2931.74 224.266 Q2929.75 223.942 2927.87 223.248 L2927.87 219.104 Q2929.75 220.123 2931.58 220.609 Q2933.41 221.095 2935.3 221.095 Q2939.49 221.095 2941.58 218.896 Q2943.66 216.72 2943.66 212.299 L2943.66 210.192 Q2942.34 212.484 2940.28 213.618 Q2938.22 214.753 2935.35 214.753 Q2930.58 214.753 2927.67 211.118 Q2924.75 207.484 2924.75 201.489 Q2924.75 195.47 2927.67 191.836 Q2930.58 188.202 2935.35 188.202 Q2938.22 188.202 2940.28 189.336 Q2942.34 190.47 2943.66 192.762 L2943.66 188.827 L2947.92 188.827 L2947.92 211.535 Z" fill="#000000" fill-rule="nonzero" fill-opacity="1" /><path clip-path="url(#clip290)" d="M2958.11 210.817 L2965.74 210.817 L2965.74 184.452 L2957.43 186.119 L2957.43 181.859 L2965.7 180.193 L2970.37 180.193 L2970.37 210.817 L2978.01 210.817 L2978.01 214.753 L2958.11 214.753 L2958.11 210.817 Z" fill="#000000" fill-rule="nonzero" fill-opacity="1" /><path clip-path="url(#clip290)" d="M2997.46 183.271 Q2993.85 183.271 2992.02 186.836 Q2990.21 190.378 2990.21 197.507 Q2990.21 204.614 2992.02 208.179 Q2993.85 211.72 2997.46 211.72 Q3001.09 211.72 3002.9 208.179 Q3004.73 204.614 3004.73 197.507 Q3004.73 190.378 3002.9 186.836 Q3001.09 183.271 2997.46 183.271 M2997.46 179.568 Q3003.27 179.568 3006.32 184.174 Q3009.4 188.757 3009.4 197.507 Q3009.4 206.234 3006.32 210.841 Q3003.27 215.424 2997.46 215.424 Q2991.65 215.424 2988.57 210.841 Q2985.51 206.234 2985.51 197.507 Q2985.51 188.757 2988.57 184.174 Q2991.65 179.568 2997.46 179.568 Z" fill="#000000" fill-rule="nonzero" fill-opacity="1" /><path clip-path="url(#clip290)" d="M3016.35 178.781 L3020.05 178.781 Q3023.52 184.244 3025.23 189.475 Q3026.97 194.706 3026.97 199.868 Q3026.97 205.054 3025.23 210.308 Q3023.52 215.563 3020.05 221.003 L3016.35 221.003 Q3019.42 215.702 3020.93 210.47 Q3022.46 205.216 3022.46 199.868 Q3022.46 194.521 3020.93 189.313 Q3019.42 184.105 3016.35 178.781 Z" fill="#000000" fill-rule="nonzero" fill-opacity="1" /></svg>
