<?xml version="1.0" encoding="utf-8"?>
<svg xmlns="http://www.w3.org/2000/svg" xmlns:xlink="http://www.w3.org/1999/xlink" width="800" height="400" viewBox="0 0 3200 1600">
<defs>
  <clipPath id="clip260">
    <rect x="0" y="0" width="3200" height="1600"/>
  </clipPath>
</defs>
<path clip-path="url(#clip260)" d="M0 1600 L3200 1600 L3200 0 L0 0  Z" fill="#ffffff" fill-rule="evenodd" fill-opacity="1"/>
<defs>
  <clipPath id="clip261">
    <rect x="232" y="47" width="2922" height="1397"/>
  </clipPath>
</defs>
<path clip-path="url(#clip260)" d="M232.098 1443.7 L3152.76 1443.7 L3152.76 47.2441 L232.098 47.2441  Z" fill="#ffffff" fill-rule="evenodd" fill-opacity="1"/>
<polyline clip-path="url(#clip261)" style="stroke:#000000; stroke-linecap:round; stroke-linejoin:round; stroke-width:2; stroke-opacity:0.1; fill:none" points="286.926,1443.7 286.926,47.2441 "/>
<polyline clip-path="url(#clip261)" style="stroke:#000000; stroke-linecap:round; stroke-linejoin:round; stroke-width:2; stroke-opacity:0.1; fill:none" points="982.719,1443.7 982.719,47.2441 "/>
<polyline clip-path="url(#clip261)" style="stroke:#000000; stroke-linecap:round; stroke-linejoin:round; stroke-width:2; stroke-opacity:0.1; fill:none" points="1678.51,1443.7 1678.51,47.2441 "/>
<polyline clip-path="url(#clip261)" style="stroke:#000000; stroke-linecap:round; stroke-linejoin:round; stroke-width:2; stroke-opacity:0.1; fill:none" points="2374.3,1443.7 2374.3,47.2441 "/>
<polyline clip-path="url(#clip261)" style="stroke:#000000; stroke-linecap:round; stroke-linejoin:round; stroke-width:2; stroke-opacity:0.1; fill:none" points="3070.1,1443.7 3070.1,47.2441 "/>
<polyline clip-path="url(#clip261)" style="stroke:#000000; stroke-linecap:round; stroke-linejoin:round; stroke-width:2; stroke-opacity:0.1; fill:none" points="232.098,1292.22 3152.76,1292.22 "/>
<polyline clip-path="url(#clip261)" style="stroke:#000000; stroke-linecap:round; stroke-linejoin:round; stroke-width:2; stroke-opacity:0.1; fill:none" points="232.098,1020.78 3152.76,1020.78 "/>
<polyline clip-path="url(#clip261)" style="stroke:#000000; stroke-linecap:round; stroke-linejoin:round; stroke-width:2; stroke-opacity:0.1; fill:none" points="232.098,749.339 3152.76,749.339 "/>
<polyline clip-path="url(#clip261)" style="stroke:#000000; stroke-linecap:round; stroke-linejoin:round; stroke-width:2; stroke-opacity:0.1; fill:none" points="232.098,477.898 3152.76,477.898 "/>
<polyline clip-path="url(#clip261)" style="stroke:#000000; stroke-linecap:round; stroke-linejoin:round; stroke-width:2; stroke-opacity:0.1; fill:none" points="232.098,206.457 3152.76,206.457 "/>
<polyline clip-path="url(#clip260)" style="stroke:#000000; stroke-linecap:round; stroke-linejoin:round; stroke-width:4; stroke-opacity:1; fill:none" points="232.098,1443.7 3152.76,1443.7 "/>
<polyline clip-path="url(#clip260)" style="stroke:#000000; stroke-linecap:round; stroke-linejoin:round; stroke-width:4; stroke-opacity:1; fill:none" points="286.926,1443.7 286.926,1424.8 "/>
<polyline clip-path="url(#clip260)" style="stroke:#000000; stroke-linecap:round; stroke-linejoin:round; stroke-width:4; stroke-opacity:1; fill:none" points="982.719,1443.7 982.719,1424.8 "/>
<polyline clip-path="url(#clip260)" style="stroke:#000000; stroke-linecap:round; stroke-linejoin:round; stroke-width:4; stroke-opacity:1; fill:none" points="1678.51,1443.7 1678.51,1424.8 "/>
<polyline clip-path="url(#clip260)" style="stroke:#000000; stroke-linecap:round; stroke-linejoin:round; stroke-width:4; stroke-opacity:1; fill:none" points="2374.3,1443.7 2374.3,1424.8 "/>
<polyline clip-path="url(#clip260)" style="stroke:#000000; stroke-linecap:round; stroke-linejoin:round; stroke-width:4; stroke-opacity:1; fill:none" points="3070.1,1443.7 3070.1,1424.8 "/>
<path clip-path="url(#clip260)" d="M286.926 1481.02 Q283.315 1481.02 281.487 1484.58 Q279.681 1488.12 279.681 1495.25 Q279.681 1502.36 281.487 1505.93 Q283.315 1509.47 286.926 1509.47 Q290.561 1509.47 292.366 1505.93 Q294.195 1502.36 294.195 1495.25 Q294.195 1488.12 292.366 1484.58 Q290.561 1481.02 286.926 1481.02 M286.926 1477.31 Q292.736 1477.31 295.792 1481.92 Q298.871 1486.5 298.871 1495.25 Q298.871 1503.98 295.792 1508.59 Q292.736 1513.17 286.926 1513.17 Q281.116 1513.17 278.037 1508.59 Q274.982 1503.98 274.982 1495.25 Q274.982 1486.5 278.037 1481.92 Q281.116 1477.31 286.926 1477.31 Z" fill="#000000" fill-rule="nonzero" fill-opacity="1" /><path clip-path="url(#clip260)" d="M961.99 1508.56 L978.309 1508.56 L978.309 1512.5 L956.365 1512.5 L956.365 1508.56 Q959.027 1505.81 963.61 1501.18 Q968.216 1496.53 969.397 1495.19 Q971.642 1492.66 972.522 1490.93 Q973.425 1489.17 973.425 1487.48 Q973.425 1484.72 971.48 1482.99 Q969.559 1481.25 966.457 1481.25 Q964.258 1481.25 961.804 1482.01 Q959.374 1482.78 956.596 1484.33 L956.596 1479.61 Q959.42 1478.47 961.874 1477.89 Q964.328 1477.31 966.365 1477.31 Q971.735 1477.31 974.929 1480 Q978.124 1482.69 978.124 1487.18 Q978.124 1489.31 977.314 1491.23 Q976.527 1493.12 974.42 1495.72 Q973.841 1496.39 970.74 1499.61 Q967.638 1502.8 961.99 1508.56 Z" fill="#000000" fill-rule="nonzero" fill-opacity="1" /><path clip-path="url(#clip260)" d="M988.17 1477.94 L1006.53 1477.94 L1006.53 1481.88 L992.452 1481.88 L992.452 1490.35 Q993.471 1490 994.489 1489.84 Q995.508 1489.65 996.526 1489.65 Q1002.31 1489.65 1005.69 1492.82 Q1009.07 1496 1009.07 1501.41 Q1009.07 1506.99 1005.6 1510.09 Q1002.13 1513.17 995.809 1513.17 Q993.633 1513.17 991.364 1512.8 Q989.119 1512.43 986.712 1511.69 L986.712 1506.99 Q988.795 1508.12 991.017 1508.68 Q993.239 1509.24 995.716 1509.24 Q999.721 1509.24 1002.06 1507.13 Q1004.4 1505.02 1004.4 1501.41 Q1004.4 1497.8 1002.06 1495.69 Q999.721 1493.59 995.716 1493.59 Q993.841 1493.59 991.966 1494 Q990.114 1494.42 988.17 1495.3 L988.17 1477.94 Z" fill="#000000" fill-rule="nonzero" fill-opacity="1" /><path clip-path="url(#clip260)" d="M1653.21 1477.94 L1671.57 1477.94 L1671.57 1481.88 L1657.49 1481.88 L1657.49 1490.35 Q1658.51 1490 1659.53 1489.84 Q1660.55 1489.65 1661.57 1489.65 Q1667.35 1489.65 1670.73 1492.82 Q1674.11 1496 1674.11 1501.41 Q1674.11 1506.99 1670.64 1510.09 Q1667.17 1513.17 1660.85 1513.17 Q1658.67 1513.17 1656.4 1512.8 Q1654.16 1512.43 1651.75 1511.69 L1651.75 1506.99 Q1653.84 1508.12 1656.06 1508.68 Q1658.28 1509.24 1660.76 1509.24 Q1664.76 1509.24 1667.1 1507.13 Q1669.44 1505.02 1669.44 1501.41 Q1669.44 1497.8 1667.1 1495.69 Q1664.76 1493.59 1660.76 1493.59 Q1658.88 1493.59 1657.01 1494 Q1655.15 1494.42 1653.21 1495.3 L1653.21 1477.94 Z" fill="#000000" fill-rule="nonzero" fill-opacity="1" /><path clip-path="url(#clip260)" d="M1693.33 1481.02 Q1689.71 1481.02 1687.89 1484.58 Q1686.08 1488.12 1686.08 1495.25 Q1686.08 1502.36 1687.89 1505.93 Q1689.71 1509.47 1693.33 1509.47 Q1696.96 1509.47 1698.77 1505.93 Q1700.59 1502.36 1700.59 1495.25 Q1700.59 1488.12 1698.77 1484.58 Q1696.96 1481.02 1693.33 1481.02 M1693.33 1477.31 Q1699.14 1477.31 1702.19 1481.92 Q1705.27 1486.5 1705.27 1495.25 Q1705.27 1503.98 1702.19 1508.59 Q1699.14 1513.17 1693.33 1513.17 Q1687.52 1513.17 1684.44 1508.59 Q1681.38 1503.98 1681.38 1495.25 Q1681.38 1486.5 1684.44 1481.92 Q1687.52 1477.31 1693.33 1477.31 Z" fill="#000000" fill-rule="nonzero" fill-opacity="1" /><path clip-path="url(#clip260)" d="M2348.16 1477.94 L2370.38 1477.94 L2370.38 1479.93 L2357.83 1512.5 L2352.95 1512.5 L2364.75 1481.88 L2348.16 1481.88 L2348.16 1477.94 Z" fill="#000000" fill-rule="nonzero" fill-opacity="1" /><path clip-path="url(#clip260)" d="M2379.55 1477.94 L2397.9 1477.94 L2397.9 1481.88 L2383.83 1481.88 L2383.83 1490.35 Q2384.85 1490 2385.87 1489.84 Q2386.88 1489.65 2387.9 1489.65 Q2393.69 1489.65 2397.07 1492.82 Q2400.45 1496 2400.45 1501.41 Q2400.45 1506.99 2396.98 1510.09 Q2393.5 1513.17 2387.19 1513.17 Q2385.01 1513.17 2382.74 1512.8 Q2380.5 1512.43 2378.09 1511.69 L2378.09 1506.99 Q2380.17 1508.12 2382.39 1508.68 Q2384.62 1509.24 2387.09 1509.24 Q2391.1 1509.24 2393.44 1507.13 Q2395.77 1505.02 2395.77 1501.41 Q2395.77 1497.8 2393.44 1495.69 Q2391.1 1493.59 2387.09 1493.59 Q2385.22 1493.59 2383.34 1494 Q2381.49 1494.42 2379.55 1495.3 L2379.55 1477.94 Z" fill="#000000" fill-rule="nonzero" fill-opacity="1" /><path clip-path="url(#clip260)" d="M3029.7 1508.56 L3037.34 1508.56 L3037.34 1482.2 L3029.03 1483.87 L3029.03 1479.61 L3037.3 1477.94 L3041.97 1477.94 L3041.97 1508.56 L3049.61 1508.56 L3049.61 1512.5 L3029.7 1512.5 L3029.7 1508.56 Z" fill="#000000" fill-rule="nonzero" fill-opacity="1" /><path clip-path="url(#clip260)" d="M3069.05 1481.02 Q3065.44 1481.02 3063.61 1484.58 Q3061.81 1488.12 3061.81 1495.25 Q3061.81 1502.36 3063.61 1505.93 Q3065.44 1509.47 3069.05 1509.47 Q3072.69 1509.47 3074.49 1505.93 Q3076.32 1502.36 3076.32 1495.25 Q3076.32 1488.12 3074.49 1484.58 Q3072.69 1481.02 3069.05 1481.02 M3069.05 1477.31 Q3074.86 1477.31 3077.92 1481.92 Q3081 1486.5 3081 1495.25 Q3081 1503.98 3077.92 1508.59 Q3074.86 1513.17 3069.05 1513.17 Q3063.24 1513.17 3060.17 1508.59 Q3057.11 1503.98 3057.11 1495.25 Q3057.11 1486.5 3060.17 1481.92 Q3063.24 1477.31 3069.05 1477.31 Z" fill="#000000" fill-rule="nonzero" fill-opacity="1" /><path clip-path="url(#clip260)" d="M3099.22 1481.02 Q3095.6 1481.02 3093.78 1484.58 Q3091.97 1488.12 3091.97 1495.25 Q3091.97 1502.36 3093.78 1505.93 Q3095.6 1509.47 3099.22 1509.47 Q3102.85 1509.47 3104.66 1505.93 Q3106.48 1502.36 3106.48 1495.25 Q3106.48 1488.12 3104.66 1484.58 Q3102.85 1481.02 3099.22 1481.02 M3099.22 1477.31 Q3105.03 1477.31 3108.08 1481.92 Q3111.16 1486.5 3111.16 1495.25 Q3111.16 1503.98 3108.08 1508.59 Q3105.03 1513.17 3099.22 1513.17 Q3093.41 1513.17 3090.33 1508.59 Q3087.27 1503.98 3087.27 1495.25 Q3087.27 1486.5 3090.33 1481.92 Q3093.41 1477.31 3099.22 1477.31 Z" fill="#000000" fill-rule="nonzero" fill-opacity="1" /><path clip-path="url(#clip260)" d="M1614.3 1553.04 L1654.5 1553.04 L1654.5 1558.45 L1637.63 1558.45 L1637.63 1600.56 L1631.17 1600.56 L1631.17 1558.45 L1614.3 1558.45 L1614.3 1553.04 Z" fill="#000000" fill-rule="nonzero" fill-opacity="1" /><path clip-path="url(#clip260)" d="M1658.45 1564.92 L1664.31 1564.92 L1664.31 1600.56 L1658.45 1600.56 L1658.45 1564.92 M1658.45 1551.04 L1664.31 1551.04 L1664.31 1558.45 L1658.45 1558.45 L1658.45 1551.04 Z" fill="#000000" fill-rule="nonzero" fill-opacity="1" /><path clip-path="url(#clip260)" d="M1704.31 1571.76 Q1706.51 1567.81 1709.57 1565.93 Q1712.62 1564.06 1716.76 1564.06 Q1722.33 1564.06 1725.35 1567.97 Q1728.38 1571.85 1728.38 1579.05 L1728.38 1600.56 L1722.49 1600.56 L1722.49 1579.24 Q1722.49 1574.11 1720.67 1571.63 Q1718.86 1569.15 1715.14 1569.15 Q1710.59 1569.15 1707.94 1572.17 Q1705.3 1575.2 1705.3 1580.42 L1705.3 1600.56 L1699.41 1600.56 L1699.41 1579.24 Q1699.41 1574.08 1697.6 1571.63 Q1695.78 1569.15 1692 1569.15 Q1687.51 1569.15 1684.87 1572.2 Q1682.23 1575.23 1682.23 1580.42 L1682.23 1600.56 L1676.34 1600.56 L1676.34 1564.92 L1682.23 1564.92 L1682.23 1570.45 Q1684.23 1567.18 1687.03 1565.62 Q1689.83 1564.06 1693.68 1564.06 Q1697.57 1564.06 1700.27 1566.03 Q1703.01 1568 1704.31 1571.76 Z" fill="#000000" fill-rule="nonzero" fill-opacity="1" /><path clip-path="url(#clip260)" d="M1770.55 1581.28 L1770.55 1584.14 L1743.62 1584.14 Q1744.01 1590.19 1747.25 1593.37 Q1750.53 1596.52 1756.35 1596.52 Q1759.73 1596.52 1762.88 1595.69 Q1766.06 1594.87 1769.18 1593.21 L1769.18 1598.75 Q1766.03 1600.09 1762.72 1600.79 Q1759.41 1601.49 1756 1601.49 Q1747.47 1601.49 1742.48 1596.52 Q1737.51 1591.56 1737.51 1583.09 Q1737.51 1574.34 1742.22 1569.21 Q1746.97 1564.06 1754.99 1564.06 Q1762.18 1564.06 1766.35 1568.7 Q1770.55 1573.32 1770.55 1581.28 M1764.69 1579.56 Q1764.63 1574.75 1761.99 1571.89 Q1759.38 1569.02 1755.05 1569.02 Q1750.15 1569.02 1747.19 1571.79 Q1744.26 1574.56 1743.81 1579.59 L1764.69 1579.56 Z" fill="#000000" fill-rule="nonzero" fill-opacity="1" /><polyline clip-path="url(#clip260)" style="stroke:#000000; stroke-linecap:round; stroke-linejoin:round; stroke-width:4; stroke-opacity:1; fill:none" points="232.098,1443.7 232.098,47.2441 "/>
<polyline clip-path="url(#clip260)" style="stroke:#000000; stroke-linecap:round; stroke-linejoin:round; stroke-width:4; stroke-opacity:1; fill:none" points="232.098,1292.22 250.996,1292.22 "/>
<polyline clip-path="url(#clip260)" style="stroke:#000000; stroke-linecap:round; stroke-linejoin:round; stroke-width:4; stroke-opacity:1; fill:none" points="232.098,1020.78 250.996,1020.78 "/>
<polyline clip-path="url(#clip260)" style="stroke:#000000; stroke-linecap:round; stroke-linejoin:round; stroke-width:4; stroke-opacity:1; fill:none" points="232.098,749.339 250.996,749.339 "/>
<polyline clip-path="url(#clip260)" style="stroke:#000000; stroke-linecap:round; stroke-linejoin:round; stroke-width:4; stroke-opacity:1; fill:none" points="232.098,477.898 250.996,477.898 "/>
<polyline clip-path="url(#clip260)" style="stroke:#000000; stroke-linecap:round; stroke-linejoin:round; stroke-width:4; stroke-opacity:1; fill:none" points="232.098,206.457 250.996,206.457 "/>
<path clip-path="url(#clip260)" d="M46.9921 1292.67 L76.6679 1292.67 L76.6679 1296.61 L46.9921 1296.61 L46.9921 1292.67 Z" fill="#000000" fill-rule="nonzero" fill-opacity="1" /><path clip-path="url(#clip260)" d="M96.7604 1278.02 Q93.1493 1278.02 91.3206 1281.58 Q89.515 1285.13 89.515 1292.26 Q89.515 1299.36 91.3206 1302.93 Q93.1493 1306.47 96.7604 1306.47 Q100.395 1306.47 102.2 1302.93 Q104.029 1299.36 104.029 1292.26 Q104.029 1285.13 102.2 1281.58 Q100.395 1278.02 96.7604 1278.02 M96.7604 1274.32 Q102.571 1274.32 105.626 1278.92 Q108.705 1283.51 108.705 1292.26 Q108.705 1300.98 105.626 1305.59 Q102.571 1310.17 96.7604 1310.17 Q90.9502 1310.17 87.8715 1305.59 Q84.816 1300.98 84.816 1292.26 Q84.816 1283.51 87.8715 1278.92 Q90.9502 1274.32 96.7604 1274.32 Z" fill="#000000" fill-rule="nonzero" fill-opacity="1" /><path clip-path="url(#clip260)" d="M116.922 1303.62 L121.807 1303.62 L121.807 1309.5 L116.922 1309.5 L116.922 1303.62 Z" fill="#000000" fill-rule="nonzero" fill-opacity="1" /><path clip-path="url(#clip260)" d="M132.038 1274.94 L150.394 1274.94 L150.394 1278.88 L136.32 1278.88 L136.32 1287.35 Q137.339 1287 138.357 1286.84 Q139.376 1286.65 140.394 1286.65 Q146.181 1286.65 149.561 1289.82 Q152.941 1293 152.941 1298.41 Q152.941 1303.99 149.468 1307.09 Q145.996 1310.17 139.677 1310.17 Q137.501 1310.17 135.232 1309.8 Q132.987 1309.43 130.58 1308.69 L130.58 1303.99 Q132.663 1305.13 134.885 1305.68 Q137.107 1306.24 139.584 1306.24 Q143.589 1306.24 145.927 1304.13 Q148.265 1302.02 148.265 1298.41 Q148.265 1294.8 145.927 1292.69 Q143.589 1290.59 139.584 1290.59 Q137.709 1290.59 135.834 1291.01 Q133.982 1291.42 132.038 1292.3 L132.038 1274.94 Z" fill="#000000" fill-rule="nonzero" fill-opacity="1" /><path clip-path="url(#clip260)" d="M172.153 1278.02 Q168.542 1278.02 166.714 1281.58 Q164.908 1285.13 164.908 1292.26 Q164.908 1299.36 166.714 1302.93 Q168.542 1306.47 172.153 1306.47 Q175.788 1306.47 177.593 1302.93 Q179.422 1299.36 179.422 1292.26 Q179.422 1285.13 177.593 1281.58 Q175.788 1278.02 172.153 1278.02 M172.153 1274.32 Q177.964 1274.32 181.019 1278.92 Q184.098 1283.51 184.098 1292.26 Q184.098 1300.98 181.019 1305.59 Q177.964 1310.17 172.153 1310.17 Q166.343 1310.17 163.265 1305.59 Q160.209 1300.98 160.209 1292.26 Q160.209 1283.51 163.265 1278.92 Q166.343 1274.32 172.153 1274.32 Z" fill="#000000" fill-rule="nonzero" fill-opacity="1" /><path clip-path="url(#clip260)" d="M47.9875 1021.23 L77.6633 1021.23 L77.6633 1025.17 L47.9875 1025.17 L47.9875 1021.23 Z" fill="#000000" fill-rule="nonzero" fill-opacity="1" /><path clip-path="url(#clip260)" d="M97.7557 1006.58 Q94.1447 1006.58 92.316 1010.14 Q90.5104 1013.68 90.5104 1020.81 Q90.5104 1027.92 92.316 1031.49 Q94.1447 1035.03 97.7557 1035.03 Q101.39 1035.03 103.196 1031.49 Q105.024 1027.92 105.024 1020.81 Q105.024 1013.68 103.196 1010.14 Q101.39 1006.58 97.7557 1006.58 M97.7557 1002.87 Q103.566 1002.87 106.621 1007.48 Q109.7 1012.06 109.7 1020.81 Q109.7 1029.54 106.621 1034.15 Q103.566 1038.73 97.7557 1038.73 Q91.9456 1038.73 88.8669 1034.15 Q85.8114 1029.54 85.8114 1020.81 Q85.8114 1012.06 88.8669 1007.48 Q91.9456 1002.87 97.7557 1002.87 Z" fill="#000000" fill-rule="nonzero" fill-opacity="1" /><path clip-path="url(#clip260)" d="M117.918 1032.18 L122.802 1032.18 L122.802 1038.06 L117.918 1038.06 L117.918 1032.18 Z" fill="#000000" fill-rule="nonzero" fill-opacity="1" /><path clip-path="url(#clip260)" d="M137.015 1034.12 L153.334 1034.12 L153.334 1038.06 L131.39 1038.06 L131.39 1034.12 Q134.052 1031.37 138.635 1026.74 Q143.242 1022.09 144.422 1020.74 Q146.668 1018.22 147.547 1016.49 Q148.45 1014.73 148.45 1013.04 Q148.45 1010.28 146.505 1008.55 Q144.584 1006.81 141.482 1006.81 Q139.283 1006.81 136.83 1007.57 Q134.399 1008.34 131.621 1009.89 L131.621 1005.17 Q134.445 1004.03 136.899 1003.45 Q139.353 1002.87 141.39 1002.87 Q146.76 1002.87 149.955 1005.56 Q153.149 1008.24 153.149 1012.74 Q153.149 1014.87 152.339 1016.79 Q151.552 1018.68 149.445 1021.28 Q148.867 1021.95 145.765 1025.17 Q142.663 1028.36 137.015 1034.12 Z" fill="#000000" fill-rule="nonzero" fill-opacity="1" /><path clip-path="url(#clip260)" d="M163.195 1003.5 L181.552 1003.5 L181.552 1007.43 L167.478 1007.43 L167.478 1015.91 Q168.496 1015.56 169.515 1015.4 Q170.533 1015.21 171.552 1015.21 Q177.339 1015.21 180.718 1018.38 Q184.098 1021.56 184.098 1026.97 Q184.098 1032.55 180.626 1035.65 Q177.153 1038.73 170.834 1038.73 Q168.658 1038.73 166.39 1038.36 Q164.144 1037.99 161.737 1037.25 L161.737 1032.55 Q163.82 1033.68 166.042 1034.24 Q168.265 1034.8 170.741 1034.8 Q174.746 1034.8 177.084 1032.69 Q179.422 1030.58 179.422 1026.97 Q179.422 1023.36 177.084 1021.25 Q174.746 1019.15 170.741 1019.15 Q168.866 1019.15 166.991 1019.56 Q165.14 1019.98 163.195 1020.86 L163.195 1003.5 Z" fill="#000000" fill-rule="nonzero" fill-opacity="1" /><path clip-path="url(#clip260)" d="M96.7604 735.137 Q93.1493 735.137 91.3206 738.702 Q89.515 742.244 89.515 749.373 Q89.515 756.48 91.3206 760.045 Q93.1493 763.586 96.7604 763.586 Q100.395 763.586 102.2 760.045 Q104.029 756.48 104.029 749.373 Q104.029 742.244 102.2 738.702 Q100.395 735.137 96.7604 735.137 M96.7604 731.434 Q102.571 731.434 105.626 736.04 Q108.705 740.623 108.705 749.373 Q108.705 758.1 105.626 762.707 Q102.571 767.29 96.7604 767.29 Q90.9502 767.29 87.8715 762.707 Q84.816 758.1 84.816 749.373 Q84.816 740.623 87.8715 736.04 Q90.9502 731.434 96.7604 731.434 Z" fill="#000000" fill-rule="nonzero" fill-opacity="1" /><path clip-path="url(#clip260)" d="M116.922 760.739 L121.807 760.739 L121.807 766.619 L116.922 766.619 L116.922 760.739 Z" fill="#000000" fill-rule="nonzero" fill-opacity="1" /><path clip-path="url(#clip260)" d="M141.992 735.137 Q138.381 735.137 136.552 738.702 Q134.746 742.244 134.746 749.373 Q134.746 756.48 136.552 760.045 Q138.381 763.586 141.992 763.586 Q145.626 763.586 147.431 760.045 Q149.26 756.48 149.26 749.373 Q149.26 742.244 147.431 738.702 Q145.626 735.137 141.992 735.137 M141.992 731.434 Q147.802 731.434 150.857 736.04 Q153.936 740.623 153.936 749.373 Q153.936 758.1 150.857 762.707 Q147.802 767.29 141.992 767.29 Q136.181 767.29 133.103 762.707 Q130.047 758.1 130.047 749.373 Q130.047 740.623 133.103 736.04 Q136.181 731.434 141.992 731.434 Z" fill="#000000" fill-rule="nonzero" fill-opacity="1" /><path clip-path="url(#clip260)" d="M172.153 735.137 Q168.542 735.137 166.714 738.702 Q164.908 742.244 164.908 749.373 Q164.908 756.48 166.714 760.045 Q168.542 763.586 172.153 763.586 Q175.788 763.586 177.593 760.045 Q179.422 756.48 179.422 749.373 Q179.422 742.244 177.593 738.702 Q175.788 735.137 172.153 735.137 M172.153 731.434 Q177.964 731.434 181.019 736.04 Q184.098 740.623 184.098 749.373 Q184.098 758.1 181.019 762.707 Q177.964 767.29 172.153 767.29 Q166.343 767.29 163.265 762.707 Q160.209 758.1 160.209 749.373 Q160.209 740.623 163.265 736.04 Q166.343 731.434 172.153 731.434 Z" fill="#000000" fill-rule="nonzero" fill-opacity="1" /><path clip-path="url(#clip260)" d="M97.7557 463.697 Q94.1447 463.697 92.316 467.261 Q90.5104 470.803 90.5104 477.933 Q90.5104 485.039 92.316 488.604 Q94.1447 492.145 97.7557 492.145 Q101.39 492.145 103.196 488.604 Q105.024 485.039 105.024 477.933 Q105.024 470.803 103.196 467.261 Q101.39 463.697 97.7557 463.697 M97.7557 459.993 Q103.566 459.993 106.621 464.599 Q109.7 469.183 109.7 477.933 Q109.7 486.659 106.621 491.266 Q103.566 495.849 97.7557 495.849 Q91.9456 495.849 88.8669 491.266 Q85.8114 486.659 85.8114 477.933 Q85.8114 469.183 88.8669 464.599 Q91.9456 459.993 97.7557 459.993 Z" fill="#000000" fill-rule="nonzero" fill-opacity="1" /><path clip-path="url(#clip260)" d="M117.918 489.298 L122.802 489.298 L122.802 495.178 L117.918 495.178 L117.918 489.298 Z" fill="#000000" fill-rule="nonzero" fill-opacity="1" /><path clip-path="url(#clip260)" d="M137.015 491.243 L153.334 491.243 L153.334 495.178 L131.39 495.178 L131.39 491.243 Q134.052 488.488 138.635 483.858 Q143.242 479.206 144.422 477.863 Q146.668 475.34 147.547 473.604 Q148.45 471.845 148.45 470.155 Q148.45 467.4 146.505 465.664 Q144.584 463.928 141.482 463.928 Q139.283 463.928 136.83 464.692 Q134.399 465.456 131.621 467.007 L131.621 462.285 Q134.445 461.15 136.899 460.572 Q139.353 459.993 141.39 459.993 Q146.76 459.993 149.955 462.678 Q153.149 465.363 153.149 469.854 Q153.149 471.984 152.339 473.905 Q151.552 475.803 149.445 478.396 Q148.867 479.067 145.765 482.284 Q142.663 485.479 137.015 491.243 Z" fill="#000000" fill-rule="nonzero" fill-opacity="1" /><path clip-path="url(#clip260)" d="M163.195 460.618 L181.552 460.618 L181.552 464.553 L167.478 464.553 L167.478 473.025 Q168.496 472.678 169.515 472.516 Q170.533 472.331 171.552 472.331 Q177.339 472.331 180.718 475.502 Q184.098 478.673 184.098 484.09 Q184.098 489.669 180.626 492.77 Q177.153 495.849 170.834 495.849 Q168.658 495.849 166.39 495.479 Q164.144 495.108 161.737 494.368 L161.737 489.669 Q163.82 490.803 166.042 491.358 Q168.265 491.914 170.741 491.914 Q174.746 491.914 177.084 489.808 Q179.422 487.701 179.422 484.09 Q179.422 480.479 177.084 478.372 Q174.746 476.266 170.741 476.266 Q168.866 476.266 166.991 476.683 Q165.14 477.099 163.195 477.979 L163.195 460.618 Z" fill="#000000" fill-rule="nonzero" fill-opacity="1" /><path clip-path="url(#clip260)" d="M96.7604 192.256 Q93.1493 192.256 91.3206 195.821 Q89.515 199.362 89.515 206.492 Q89.515 213.598 91.3206 217.163 Q93.1493 220.705 96.7604 220.705 Q100.395 220.705 102.2 217.163 Q104.029 213.598 104.029 206.492 Q104.029 199.362 102.2 195.821 Q100.395 192.256 96.7604 192.256 M96.7604 188.552 Q102.571 188.552 105.626 193.158 Q108.705 197.742 108.705 206.492 Q108.705 215.219 105.626 219.825 Q102.571 224.408 96.7604 224.408 Q90.9502 224.408 87.8715 219.825 Q84.816 215.219 84.816 206.492 Q84.816 197.742 87.8715 193.158 Q90.9502 188.552 96.7604 188.552 Z" fill="#000000" fill-rule="nonzero" fill-opacity="1" /><path clip-path="url(#clip260)" d="M116.922 217.857 L121.807 217.857 L121.807 223.737 L116.922 223.737 L116.922 217.857 Z" fill="#000000" fill-rule="nonzero" fill-opacity="1" /><path clip-path="url(#clip260)" d="M132.038 189.177 L150.394 189.177 L150.394 193.112 L136.32 193.112 L136.32 201.584 Q137.339 201.237 138.357 201.075 Q139.376 200.89 140.394 200.89 Q146.181 200.89 149.561 204.061 Q152.941 207.232 152.941 212.649 Q152.941 218.228 149.468 221.33 Q145.996 224.408 139.677 224.408 Q137.501 224.408 135.232 224.038 Q132.987 223.668 130.58 222.927 L130.58 218.228 Q132.663 219.362 134.885 219.918 Q137.107 220.473 139.584 220.473 Q143.589 220.473 145.927 218.367 Q148.265 216.26 148.265 212.649 Q148.265 209.038 145.927 206.932 Q143.589 204.825 139.584 204.825 Q137.709 204.825 135.834 205.242 Q133.982 205.658 132.038 206.538 L132.038 189.177 Z" fill="#000000" fill-rule="nonzero" fill-opacity="1" /><path clip-path="url(#clip260)" d="M172.153 192.256 Q168.542 192.256 166.714 195.821 Q164.908 199.362 164.908 206.492 Q164.908 213.598 166.714 217.163 Q168.542 220.705 172.153 220.705 Q175.788 220.705 177.593 217.163 Q179.422 213.598 179.422 206.492 Q179.422 199.362 177.593 195.821 Q175.788 192.256 172.153 192.256 M172.153 188.552 Q177.964 188.552 181.019 193.158 Q184.098 197.742 184.098 206.492 Q184.098 215.219 181.019 219.825 Q177.964 224.408 172.153 224.408 Q166.343 224.408 163.265 219.825 Q160.209 215.219 160.209 206.492 Q160.209 197.742 163.265 193.158 Q166.343 188.552 172.153 188.552 Z" fill="#000000" fill-rule="nonzero" fill-opacity="1" /><polyline clip-path="url(#clip261)" style="stroke:#e26f46; stroke-linecap:round; stroke-linejoin:round; stroke-width:4; stroke-opacity:1; fill:none" points="2179.48,2840.16 2179.48,-1349.21 "/>
<circle clip-path="url(#clip261)" cx="314.758" cy="86.7664" r="14.4" fill="#009af9" fill-rule="evenodd" fill-opacity="1" stroke="#000000" stroke-opacity="1" stroke-width="3.2"/>
<circle clip-path="url(#clip261)" cx="342.59" cy="512.195" r="14.4" fill="#009af9" fill-rule="evenodd" fill-opacity="1" stroke="#000000" stroke-opacity="1" stroke-width="3.2"/>
<circle clip-path="url(#clip261)" cx="370.421" cy="789.062" r="14.4" fill="#009af9" fill-rule="evenodd" fill-opacity="1" stroke="#000000" stroke-opacity="1" stroke-width="3.2"/>
<circle clip-path="url(#clip261)" cx="398.253" cy="981.756" r="14.4" fill="#009af9" fill-rule="evenodd" fill-opacity="1" stroke="#000000" stroke-opacity="1" stroke-width="3.2"/>
<circle clip-path="url(#clip261)" cx="426.085" cy="1117.9" r="14.4" fill="#009af9" fill-rule="evenodd" fill-opacity="1" stroke="#000000" stroke-opacity="1" stroke-width="3.2"/>
<circle clip-path="url(#clip261)" cx="453.916" cy="1212.49" r="14.4" fill="#009af9" fill-rule="evenodd" fill-opacity="1" stroke="#000000" stroke-opacity="1" stroke-width="3.2"/>
<circle clip-path="url(#clip261)" cx="481.748" cy="1276.56" r="14.4" fill="#009af9" fill-rule="evenodd" fill-opacity="1" stroke="#000000" stroke-opacity="1" stroke-width="3.2"/>
<circle clip-path="url(#clip261)" cx="509.58" cy="1319" r="14.4" fill="#009af9" fill-rule="evenodd" fill-opacity="1" stroke="#000000" stroke-opacity="1" stroke-width="3.2"/>
<circle clip-path="url(#clip261)" cx="537.412" cy="1346.73" r="14.4" fill="#009af9" fill-rule="evenodd" fill-opacity="1" stroke="#000000" stroke-opacity="1" stroke-width="3.2"/>
<circle clip-path="url(#clip261)" cx="565.243" cy="1364.77" r="14.4" fill="#009af9" fill-rule="evenodd" fill-opacity="1" stroke="#000000" stroke-opacity="1" stroke-width="3.2"/>
<circle clip-path="url(#clip261)" cx="593.075" cy="1376.56" r="14.4" fill="#009af9" fill-rule="evenodd" fill-opacity="1" stroke="#000000" stroke-opacity="1" stroke-width="3.2"/>
<circle clip-path="url(#clip261)" cx="620.907" cy="1384.35" r="14.4" fill="#009af9" fill-rule="evenodd" fill-opacity="1" stroke="#000000" stroke-opacity="1" stroke-width="3.2"/>
<circle clip-path="url(#clip261)" cx="648.738" cy="1389.59" r="14.4" fill="#009af9" fill-rule="evenodd" fill-opacity="1" stroke="#000000" stroke-opacity="1" stroke-width="3.2"/>
<circle clip-path="url(#clip261)" cx="676.57" cy="1393.19" r="14.4" fill="#009af9" fill-rule="evenodd" fill-opacity="1" stroke="#000000" stroke-opacity="1" stroke-width="3.2"/>
<circle clip-path="url(#clip261)" cx="704.402" cy="1395.73" r="14.4" fill="#009af9" fill-rule="evenodd" fill-opacity="1" stroke="#000000" stroke-opacity="1" stroke-width="3.2"/>
<circle clip-path="url(#clip261)" cx="732.233" cy="1397.54" r="14.4" fill="#009af9" fill-rule="evenodd" fill-opacity="1" stroke="#000000" stroke-opacity="1" stroke-width="3.2"/>
<circle clip-path="url(#clip261)" cx="760.065" cy="1398.88" r="14.4" fill="#009af9" fill-rule="evenodd" fill-opacity="1" stroke="#000000" stroke-opacity="1" stroke-width="3.2"/>
<circle clip-path="url(#clip261)" cx="787.897" cy="1399.88" r="14.4" fill="#009af9" fill-rule="evenodd" fill-opacity="1" stroke="#000000" stroke-opacity="1" stroke-width="3.2"/>
<circle clip-path="url(#clip261)" cx="815.729" cy="1400.65" r="14.4" fill="#009af9" fill-rule="evenodd" fill-opacity="1" stroke="#000000" stroke-opacity="1" stroke-width="3.2"/>
<circle clip-path="url(#clip261)" cx="843.56" cy="1401.24" r="14.4" fill="#009af9" fill-rule="evenodd" fill-opacity="1" stroke="#000000" stroke-opacity="1" stroke-width="3.2"/>
<circle clip-path="url(#clip261)" cx="871.392" cy="1401.71" r="14.4" fill="#009af9" fill-rule="evenodd" fill-opacity="1" stroke="#000000" stroke-opacity="1" stroke-width="3.2"/>
<circle clip-path="url(#clip261)" cx="899.224" cy="1402.09" r="14.4" fill="#009af9" fill-rule="evenodd" fill-opacity="1" stroke="#000000" stroke-opacity="1" stroke-width="3.2"/>
<circle clip-path="url(#clip261)" cx="927.055" cy="1402.4" r="14.4" fill="#009af9" fill-rule="evenodd" fill-opacity="1" stroke="#000000" stroke-opacity="1" stroke-width="3.2"/>
<circle clip-path="url(#clip261)" cx="954.887" cy="1402.65" r="14.4" fill="#009af9" fill-rule="evenodd" fill-opacity="1" stroke="#000000" stroke-opacity="1" stroke-width="3.2"/>
<circle clip-path="url(#clip261)" cx="982.719" cy="1402.85" r="14.4" fill="#009af9" fill-rule="evenodd" fill-opacity="1" stroke="#000000" stroke-opacity="1" stroke-width="3.2"/>
<circle clip-path="url(#clip261)" cx="1010.55" cy="1403.03" r="14.4" fill="#009af9" fill-rule="evenodd" fill-opacity="1" stroke="#000000" stroke-opacity="1" stroke-width="3.2"/>
<circle clip-path="url(#clip261)" cx="1038.38" cy="1403.17" r="14.4" fill="#009af9" fill-rule="evenodd" fill-opacity="1" stroke="#000000" stroke-opacity="1" stroke-width="3.2"/>
<circle clip-path="url(#clip261)" cx="1066.21" cy="1403.3" r="14.4" fill="#009af9" fill-rule="evenodd" fill-opacity="1" stroke="#000000" stroke-opacity="1" stroke-width="3.2"/>
<circle clip-path="url(#clip261)" cx="1094.05" cy="1403.4" r="14.4" fill="#009af9" fill-rule="evenodd" fill-opacity="1" stroke="#000000" stroke-opacity="1" stroke-width="3.2"/>
<circle clip-path="url(#clip261)" cx="1121.88" cy="1403.49" r="14.4" fill="#009af9" fill-rule="evenodd" fill-opacity="1" stroke="#000000" stroke-opacity="1" stroke-width="3.2"/>
<circle clip-path="url(#clip261)" cx="1149.71" cy="1403.57" r="14.4" fill="#009af9" fill-rule="evenodd" fill-opacity="1" stroke="#000000" stroke-opacity="1" stroke-width="3.2"/>
<circle clip-path="url(#clip261)" cx="1177.54" cy="1403.64" r="14.4" fill="#009af9" fill-rule="evenodd" fill-opacity="1" stroke="#000000" stroke-opacity="1" stroke-width="3.2"/>
<circle clip-path="url(#clip261)" cx="1205.37" cy="1403.7" r="14.4" fill="#009af9" fill-rule="evenodd" fill-opacity="1" stroke="#000000" stroke-opacity="1" stroke-width="3.2"/>
<circle clip-path="url(#clip261)" cx="1233.2" cy="1403.75" r="14.4" fill="#009af9" fill-rule="evenodd" fill-opacity="1" stroke="#000000" stroke-opacity="1" stroke-width="3.2"/>
<circle clip-path="url(#clip261)" cx="1261.04" cy="1403.8" r="14.4" fill="#009af9" fill-rule="evenodd" fill-opacity="1" stroke="#000000" stroke-opacity="1" stroke-width="3.2"/>
<circle clip-path="url(#clip261)" cx="1288.87" cy="1403.84" r="14.4" fill="#009af9" fill-rule="evenodd" fill-opacity="1" stroke="#000000" stroke-opacity="1" stroke-width="3.2"/>
<circle clip-path="url(#clip261)" cx="1316.7" cy="1403.88" r="14.4" fill="#009af9" fill-rule="evenodd" fill-opacity="1" stroke="#000000" stroke-opacity="1" stroke-width="3.2"/>
<circle clip-path="url(#clip261)" cx="1344.53" cy="1403.91" r="14.4" fill="#009af9" fill-rule="evenodd" fill-opacity="1" stroke="#000000" stroke-opacity="1" stroke-width="3.2"/>
<circle clip-path="url(#clip261)" cx="1372.36" cy="1403.94" r="14.4" fill="#009af9" fill-rule="evenodd" fill-opacity="1" stroke="#000000" stroke-opacity="1" stroke-width="3.2"/>
<circle clip-path="url(#clip261)" cx="1400.19" cy="1403.97" r="14.4" fill="#009af9" fill-rule="evenodd" fill-opacity="1" stroke="#000000" stroke-opacity="1" stroke-width="3.2"/>
<circle clip-path="url(#clip261)" cx="1428.03" cy="1403.99" r="14.4" fill="#009af9" fill-rule="evenodd" fill-opacity="1" stroke="#000000" stroke-opacity="1" stroke-width="3.2"/>
<circle clip-path="url(#clip261)" cx="1455.86" cy="1404.01" r="14.4" fill="#009af9" fill-rule="evenodd" fill-opacity="1" stroke="#000000" stroke-opacity="1" stroke-width="3.2"/>
<circle clip-path="url(#clip261)" cx="1483.69" cy="1404.03" r="14.4" fill="#009af9" fill-rule="evenodd" fill-opacity="1" stroke="#000000" stroke-opacity="1" stroke-width="3.2"/>
<circle clip-path="url(#clip261)" cx="1511.52" cy="1404.04" r="14.4" fill="#009af9" fill-rule="evenodd" fill-opacity="1" stroke="#000000" stroke-opacity="1" stroke-width="3.2"/>
<circle clip-path="url(#clip261)" cx="1539.35" cy="1404.06" r="14.4" fill="#009af9" fill-rule="evenodd" fill-opacity="1" stroke="#000000" stroke-opacity="1" stroke-width="3.2"/>
<circle clip-path="url(#clip261)" cx="1567.18" cy="1404.07" r="14.4" fill="#009af9" fill-rule="evenodd" fill-opacity="1" stroke="#000000" stroke-opacity="1" stroke-width="3.2"/>
<circle clip-path="url(#clip261)" cx="1595.02" cy="1404.09" r="14.4" fill="#009af9" fill-rule="evenodd" fill-opacity="1" stroke="#000000" stroke-opacity="1" stroke-width="3.2"/>
<circle clip-path="url(#clip261)" cx="1622.85" cy="1404.1" r="14.4" fill="#009af9" fill-rule="evenodd" fill-opacity="1" stroke="#000000" stroke-opacity="1" stroke-width="3.2"/>
<circle clip-path="url(#clip261)" cx="1650.68" cy="1404.11" r="14.4" fill="#009af9" fill-rule="evenodd" fill-opacity="1" stroke="#000000" stroke-opacity="1" stroke-width="3.2"/>
<circle clip-path="url(#clip261)" cx="1678.51" cy="1404.12" r="14.4" fill="#009af9" fill-rule="evenodd" fill-opacity="1" stroke="#000000" stroke-opacity="1" stroke-width="3.2"/>
<circle clip-path="url(#clip261)" cx="1706.34" cy="1404.12" r="14.4" fill="#009af9" fill-rule="evenodd" fill-opacity="1" stroke="#000000" stroke-opacity="1" stroke-width="3.2"/>
<circle clip-path="url(#clip261)" cx="1734.17" cy="1404.13" r="14.4" fill="#009af9" fill-rule="evenodd" fill-opacity="1" stroke="#000000" stroke-opacity="1" stroke-width="3.2"/>
<circle clip-path="url(#clip261)" cx="1762.01" cy="1404.14" r="14.4" fill="#009af9" fill-rule="evenodd" fill-opacity="1" stroke="#000000" stroke-opacity="1" stroke-width="3.2"/>
<circle clip-path="url(#clip261)" cx="1789.84" cy="1404.14" r="14.4" fill="#009af9" fill-rule="evenodd" fill-opacity="1" stroke="#000000" stroke-opacity="1" stroke-width="3.2"/>
<circle clip-path="url(#clip261)" cx="1817.67" cy="1404.15" r="14.4" fill="#009af9" fill-rule="evenodd" fill-opacity="1" stroke="#000000" stroke-opacity="1" stroke-width="3.2"/>
<circle clip-path="url(#clip261)" cx="1845.5" cy="1404.15" r="14.4" fill="#009af9" fill-rule="evenodd" fill-opacity="1" stroke="#000000" stroke-opacity="1" stroke-width="3.2"/>
<circle clip-path="url(#clip261)" cx="1873.33" cy="1404.16" r="14.4" fill="#009af9" fill-rule="evenodd" fill-opacity="1" stroke="#000000" stroke-opacity="1" stroke-width="3.2"/>
<circle clip-path="url(#clip261)" cx="1901.16" cy="1404.16" r="14.4" fill="#009af9" fill-rule="evenodd" fill-opacity="1" stroke="#000000" stroke-opacity="1" stroke-width="3.2"/>
<circle clip-path="url(#clip261)" cx="1929" cy="1404.16" r="14.4" fill="#009af9" fill-rule="evenodd" fill-opacity="1" stroke="#000000" stroke-opacity="1" stroke-width="3.2"/>
<circle clip-path="url(#clip261)" cx="1956.83" cy="1404.17" r="14.4" fill="#009af9" fill-rule="evenodd" fill-opacity="1" stroke="#000000" stroke-opacity="1" stroke-width="3.2"/>
<circle clip-path="url(#clip261)" cx="1984.66" cy="1404.17" r="14.4" fill="#009af9" fill-rule="evenodd" fill-opacity="1" stroke="#000000" stroke-opacity="1" stroke-width="3.2"/>
<circle clip-path="url(#clip261)" cx="2012.49" cy="1404.17" r="14.4" fill="#009af9" fill-rule="evenodd" fill-opacity="1" stroke="#000000" stroke-opacity="1" stroke-width="3.2"/>
<circle clip-path="url(#clip261)" cx="2040.32" cy="1404.17" r="14.4" fill="#009af9" fill-rule="evenodd" fill-opacity="1" stroke="#000000" stroke-opacity="1" stroke-width="3.2"/>
<circle clip-path="url(#clip261)" cx="2068.15" cy="1404.17" r="14.4" fill="#009af9" fill-rule="evenodd" fill-opacity="1" stroke="#000000" stroke-opacity="1" stroke-width="3.2"/>
<circle clip-path="url(#clip261)" cx="2095.99" cy="1404.18" r="14.4" fill="#009af9" fill-rule="evenodd" fill-opacity="1" stroke="#000000" stroke-opacity="1" stroke-width="3.2"/>
<circle clip-path="url(#clip261)" cx="2123.82" cy="1404.18" r="14.4" fill="#009af9" fill-rule="evenodd" fill-opacity="1" stroke="#000000" stroke-opacity="1" stroke-width="3.2"/>
<circle clip-path="url(#clip261)" cx="2151.65" cy="1404.18" r="14.4" fill="#009af9" fill-rule="evenodd" fill-opacity="1" stroke="#000000" stroke-opacity="1" stroke-width="3.2"/>
<circle clip-path="url(#clip261)" cx="2179.48" cy="1404.18" r="14.4" fill="#009af9" fill-rule="evenodd" fill-opacity="1" stroke="#000000" stroke-opacity="1" stroke-width="3.2"/>
<circle clip-path="url(#clip261)" cx="2207.31" cy="1404.18" r="14.4" fill="#009af9" fill-rule="evenodd" fill-opacity="1" stroke="#000000" stroke-opacity="1" stroke-width="3.2"/>
<circle clip-path="url(#clip261)" cx="2235.14" cy="1404.18" r="14.4" fill="#009af9" fill-rule="evenodd" fill-opacity="1" stroke="#000000" stroke-opacity="1" stroke-width="3.2"/>
<circle clip-path="url(#clip261)" cx="2262.98" cy="1404.18" r="14.4" fill="#009af9" fill-rule="evenodd" fill-opacity="1" stroke="#000000" stroke-opacity="1" stroke-width="3.2"/>
<circle clip-path="url(#clip261)" cx="2290.81" cy="1404.18" r="14.4" fill="#009af9" fill-rule="evenodd" fill-opacity="1" stroke="#000000" stroke-opacity="1" stroke-width="3.2"/>
<circle clip-path="url(#clip261)" cx="2318.64" cy="1404.18" r="14.4" fill="#009af9" fill-rule="evenodd" fill-opacity="1" stroke="#000000" stroke-opacity="1" stroke-width="3.2"/>
<circle clip-path="url(#clip261)" cx="2346.47" cy="1404.17" r="14.4" fill="#009af9" fill-rule="evenodd" fill-opacity="1" stroke="#000000" stroke-opacity="1" stroke-width="3.2"/>
<circle clip-path="url(#clip261)" cx="2374.3" cy="1404.17" r="14.4" fill="#009af9" fill-rule="evenodd" fill-opacity="1" stroke="#000000" stroke-opacity="1" stroke-width="3.2"/>
<circle clip-path="url(#clip261)" cx="2402.14" cy="1404.17" r="14.4" fill="#009af9" fill-rule="evenodd" fill-opacity="1" stroke="#000000" stroke-opacity="1" stroke-width="3.2"/>
<circle clip-path="url(#clip261)" cx="2429.97" cy="1404.17" r="14.4" fill="#009af9" fill-rule="evenodd" fill-opacity="1" stroke="#000000" stroke-opacity="1" stroke-width="3.2"/>
<circle clip-path="url(#clip261)" cx="2457.8" cy="1404.17" r="14.4" fill="#009af9" fill-rule="evenodd" fill-opacity="1" stroke="#000000" stroke-opacity="1" stroke-width="3.2"/>
<circle clip-path="url(#clip261)" cx="2485.63" cy="1404.17" r="14.4" fill="#009af9" fill-rule="evenodd" fill-opacity="1" stroke="#000000" stroke-opacity="1" stroke-width="3.2"/>
<circle clip-path="url(#clip261)" cx="2513.46" cy="1404.16" r="14.4" fill="#009af9" fill-rule="evenodd" fill-opacity="1" stroke="#000000" stroke-opacity="1" stroke-width="3.2"/>
<circle clip-path="url(#clip261)" cx="2541.29" cy="1404.16" r="14.4" fill="#009af9" fill-rule="evenodd" fill-opacity="1" stroke="#000000" stroke-opacity="1" stroke-width="3.2"/>
<circle clip-path="url(#clip261)" cx="2569.13" cy="1404.16" r="14.4" fill="#009af9" fill-rule="evenodd" fill-opacity="1" stroke="#000000" stroke-opacity="1" stroke-width="3.2"/>
<circle clip-path="url(#clip261)" cx="2596.96" cy="1404.16" r="14.4" fill="#009af9" fill-rule="evenodd" fill-opacity="1" stroke="#000000" stroke-opacity="1" stroke-width="3.2"/>
<circle clip-path="url(#clip261)" cx="2624.79" cy="1404.15" r="14.4" fill="#009af9" fill-rule="evenodd" fill-opacity="1" stroke="#000000" stroke-opacity="1" stroke-width="3.2"/>
<circle clip-path="url(#clip261)" cx="2652.62" cy="1404.15" r="14.4" fill="#009af9" fill-rule="evenodd" fill-opacity="1" stroke="#000000" stroke-opacity="1" stroke-width="3.2"/>
<circle clip-path="url(#clip261)" cx="2680.45" cy="1404.15" r="14.4" fill="#009af9" fill-rule="evenodd" fill-opacity="1" stroke="#000000" stroke-opacity="1" stroke-width="3.2"/>
<circle clip-path="url(#clip261)" cx="2708.28" cy="1404.15" r="14.4" fill="#009af9" fill-rule="evenodd" fill-opacity="1" stroke="#000000" stroke-opacity="1" stroke-width="3.2"/>
<circle clip-path="url(#clip261)" cx="2736.12" cy="1404.14" r="14.4" fill="#009af9" fill-rule="evenodd" fill-opacity="1" stroke="#000000" stroke-opacity="1" stroke-width="3.2"/>
<circle clip-path="url(#clip261)" cx="2763.95" cy="1404.14" r="14.4" fill="#009af9" fill-rule="evenodd" fill-opacity="1" stroke="#000000" stroke-opacity="1" stroke-width="3.2"/>
<circle clip-path="url(#clip261)" cx="2791.78" cy="1404.14" r="14.4" fill="#009af9" fill-rule="evenodd" fill-opacity="1" stroke="#000000" stroke-opacity="1" stroke-width="3.2"/>
<circle clip-path="url(#clip261)" cx="2819.61" cy="1404.13" r="14.4" fill="#009af9" fill-rule="evenodd" fill-opacity="1" stroke="#000000" stroke-opacity="1" stroke-width="3.2"/>
<circle clip-path="url(#clip261)" cx="2847.44" cy="1404.13" r="14.4" fill="#009af9" fill-rule="evenodd" fill-opacity="1" stroke="#000000" stroke-opacity="1" stroke-width="3.2"/>
<circle clip-path="url(#clip261)" cx="2875.27" cy="1404.13" r="14.4" fill="#009af9" fill-rule="evenodd" fill-opacity="1" stroke="#000000" stroke-opacity="1" stroke-width="3.2"/>
<circle clip-path="url(#clip261)" cx="2903.11" cy="1404.12" r="14.4" fill="#009af9" fill-rule="evenodd" fill-opacity="1" stroke="#000000" stroke-opacity="1" stroke-width="3.2"/>
<circle clip-path="url(#clip261)" cx="2930.94" cy="1404.12" r="14.4" fill="#009af9" fill-rule="evenodd" fill-opacity="1" stroke="#000000" stroke-opacity="1" stroke-width="3.2"/>
<circle clip-path="url(#clip261)" cx="2958.77" cy="1404.12" r="14.4" fill="#009af9" fill-rule="evenodd" fill-opacity="1" stroke="#000000" stroke-opacity="1" stroke-width="3.2"/>
<circle clip-path="url(#clip261)" cx="2986.6" cy="1404.11" r="14.4" fill="#009af9" fill-rule="evenodd" fill-opacity="1" stroke="#000000" stroke-opacity="1" stroke-width="3.2"/>
<circle clip-path="url(#clip261)" cx="3014.43" cy="1404.11" r="14.4" fill="#009af9" fill-rule="evenodd" fill-opacity="1" stroke="#000000" stroke-opacity="1" stroke-width="3.2"/>
<circle clip-path="url(#clip261)" cx="3042.26" cy="1404.1" r="14.4" fill="#009af9" fill-rule="evenodd" fill-opacity="1" stroke="#000000" stroke-opacity="1" stroke-width="3.2"/>
<circle clip-path="url(#clip261)" cx="3070.1" cy="1404.1" r="14.4" fill="#009af9" fill-rule="evenodd" fill-opacity="1" stroke="#000000" stroke-opacity="1" stroke-width="3.2"/>
<path clip-path="url(#clip260)" d="M2299.43 249.313 L3055.4 249.313 L3055.4 93.7926 L2299.43 93.7926  Z" fill="#ffffff" fill-rule="evenodd" fill-opacity="1"/>
<polyline clip-path="url(#clip260)" style="stroke:#000000; stroke-linecap:round; stroke-linejoin:round; stroke-width:4; stroke-opacity:1; fill:none" points="2299.43,249.313 3055.4,249.313 3055.4,93.7926 2299.43,93.7926 2299.43,249.313 "/>
<polyline clip-path="url(#clip260)" style="stroke:#e26f46; stroke-linecap:round; stroke-linejoin:round; stroke-width:4; stroke-opacity:1; fill:none" points="2331.88,145.633 2526.59,145.633 "/>
<path clip-path="url(#clip260)" d="M2559.04 128.353 L2566.01 128.353 L2574.83 151.871 L2583.69 128.353 L2590.66 128.353 L2590.66 162.913 L2586.1 162.913 L2586.1 132.566 L2577.19 156.269 L2572.49 156.269 L2563.58 132.566 L2563.58 162.913 L2559.04 162.913 L2559.04 128.353 Z" fill="#000000" fill-rule="nonzero" fill-opacity="1" /><path clip-path="url(#clip260)" d="M2599.76 136.987 L2604.02 136.987 L2604.02 162.913 L2599.76 162.913 L2599.76 136.987 M2599.76 126.894 L2604.02 126.894 L2604.02 132.288 L2599.76 132.288 L2599.76 126.894 Z" fill="#000000" fill-rule="nonzero" fill-opacity="1" /><path clip-path="url(#clip260)" d="M2634.48 147.265 L2634.48 162.913 L2630.22 162.913 L2630.22 147.403 Q2630.22 143.723 2628.78 141.894 Q2627.35 140.066 2624.48 140.066 Q2621.03 140.066 2619.04 142.265 Q2617.05 144.464 2617.05 148.26 L2617.05 162.913 L2612.77 162.913 L2612.77 136.987 L2617.05 136.987 L2617.05 141.015 Q2618.58 138.677 2620.64 137.519 Q2622.72 136.362 2625.43 136.362 Q2629.9 136.362 2632.19 139.14 Q2634.48 141.894 2634.48 147.265 Z" fill="#000000" fill-rule="nonzero" fill-opacity="1" /><path clip-path="url(#clip260)" d="M2642.97 136.987 L2647.23 136.987 L2647.23 162.913 L2642.97 162.913 L2642.97 136.987 M2642.97 126.894 L2647.23 126.894 L2647.23 132.288 L2642.97 132.288 L2642.97 126.894 Z" fill="#000000" fill-rule="nonzero" fill-opacity="1" /><path clip-path="url(#clip260)" d="M2676.33 141.964 Q2677.93 139.093 2680.15 137.728 Q2682.37 136.362 2685.38 136.362 Q2689.43 136.362 2691.63 139.209 Q2693.83 142.033 2693.83 147.265 L2693.83 162.913 L2689.55 162.913 L2689.55 147.403 Q2689.55 143.677 2688.23 141.871 Q2686.91 140.066 2684.2 140.066 Q2680.89 140.066 2678.97 142.265 Q2677.05 144.464 2677.05 148.26 L2677.05 162.913 L2672.77 162.913 L2672.77 147.403 Q2672.77 143.653 2671.45 141.871 Q2670.13 140.066 2667.37 140.066 Q2664.11 140.066 2662.19 142.288 Q2660.27 144.487 2660.27 148.26 L2660.27 162.913 L2655.98 162.913 L2655.98 136.987 L2660.27 136.987 L2660.27 141.015 Q2661.72 138.63 2663.76 137.496 Q2665.8 136.362 2668.6 136.362 Q2671.42 136.362 2673.39 137.797 Q2675.38 139.232 2676.33 141.964 Z" fill="#000000" fill-rule="nonzero" fill-opacity="1" /><path clip-path="url(#clip260)" d="M2701.89 152.681 L2701.89 136.987 L2706.15 136.987 L2706.15 152.519 Q2706.15 156.2 2707.58 158.052 Q2709.02 159.88 2711.89 159.88 Q2715.33 159.88 2717.33 157.681 Q2719.34 155.482 2719.34 151.686 L2719.34 136.987 L2723.6 136.987 L2723.6 162.913 L2719.34 162.913 L2719.34 158.931 Q2717.79 161.292 2715.73 162.45 Q2713.69 163.584 2710.98 163.584 Q2706.52 163.584 2704.2 160.806 Q2701.89 158.028 2701.89 152.681 M2712.6 136.362 L2712.6 136.362 Z" fill="#000000" fill-rule="nonzero" fill-opacity="1" /><path clip-path="url(#clip260)" d="M2752.56 141.964 Q2754.15 139.093 2756.38 137.728 Q2758.6 136.362 2761.61 136.362 Q2765.66 136.362 2767.86 139.209 Q2770.06 142.033 2770.06 147.265 L2770.06 162.913 L2765.77 162.913 L2765.77 147.403 Q2765.77 143.677 2764.45 141.871 Q2763.14 140.066 2760.43 140.066 Q2757.12 140.066 2755.2 142.265 Q2753.27 144.464 2753.27 148.26 L2753.27 162.913 L2748.99 162.913 L2748.99 147.403 Q2748.99 143.653 2747.67 141.871 Q2746.35 140.066 2743.6 140.066 Q2740.33 140.066 2738.41 142.288 Q2736.49 144.487 2736.49 148.26 L2736.49 162.913 L2732.21 162.913 L2732.21 136.987 L2736.49 136.987 L2736.49 141.015 Q2737.95 138.63 2739.99 137.496 Q2742.02 136.362 2744.83 136.362 Q2747.65 136.362 2749.62 137.797 Q2751.61 139.232 2752.56 141.964 Z" fill="#000000" fill-rule="nonzero" fill-opacity="1" /><path clip-path="url(#clip260)" d="M2805.4 149.88 Q2800.24 149.88 2798.25 151.061 Q2796.26 152.241 2796.26 155.089 Q2796.26 157.357 2797.74 158.7 Q2799.25 160.019 2801.82 160.019 Q2805.36 160.019 2807.49 157.519 Q2809.64 154.996 2809.64 150.829 L2809.64 149.88 L2805.4 149.88 M2813.9 148.121 L2813.9 162.913 L2809.64 162.913 L2809.64 158.977 Q2808.18 161.339 2806.01 162.473 Q2803.83 163.584 2800.68 163.584 Q2796.7 163.584 2794.34 161.362 Q2792 159.116 2792 155.366 Q2792 150.991 2794.92 148.769 Q2797.86 146.547 2803.67 146.547 L2809.64 146.547 L2809.64 146.13 Q2809.64 143.191 2807.7 141.593 Q2805.77 139.973 2802.28 139.973 Q2800.06 139.973 2797.95 140.505 Q2795.84 141.038 2793.9 142.103 L2793.9 138.167 Q2796.24 137.265 2798.44 136.825 Q2800.64 136.362 2802.72 136.362 Q2808.34 136.362 2811.12 139.278 Q2813.9 142.195 2813.9 148.121 Z" fill="#000000" fill-rule="nonzero" fill-opacity="1" /><path clip-path="url(#clip260)" d="M2826.89 129.626 L2826.89 136.987 L2835.66 136.987 L2835.66 140.297 L2826.89 140.297 L2826.89 154.371 Q2826.89 157.542 2827.74 158.445 Q2828.62 159.348 2831.28 159.348 L2835.66 159.348 L2835.66 162.913 L2831.28 162.913 Q2826.35 162.913 2824.48 161.084 Q2822.6 159.232 2822.6 154.371 L2822.6 140.297 L2819.48 140.297 L2819.48 136.987 L2822.6 136.987 L2822.6 129.626 L2826.89 129.626 Z" fill="#000000" fill-rule="nonzero" fill-opacity="1" /><path clip-path="url(#clip260)" d="M2851.72 128.353 L2880.96 128.353 L2880.96 132.288 L2868.69 132.288 L2868.69 162.913 L2863.99 162.913 L2863.99 132.288 L2851.72 132.288 L2851.72 128.353 Z" fill="#000000" fill-rule="nonzero" fill-opacity="1" /><path clip-path="url(#clip260)" d="M2885.84 141.385 L2915.52 141.385 L2915.52 145.274 L2885.84 145.274 L2885.84 141.385 M2885.84 150.829 L2915.52 150.829 L2915.52 154.765 L2885.84 154.765 L2885.84 150.829 Z" fill="#000000" fill-rule="nonzero" fill-opacity="1" /><path clip-path="url(#clip260)" d="M2936.19 143.769 Q2933.04 143.769 2931.19 145.922 Q2929.36 148.075 2929.36 151.825 Q2929.36 155.552 2931.19 157.727 Q2933.04 159.88 2936.19 159.88 Q2939.34 159.88 2941.17 157.727 Q2943.02 155.552 2943.02 151.825 Q2943.02 148.075 2941.17 145.922 Q2939.34 143.769 2936.19 143.769 M2945.47 129.117 L2945.47 133.376 Q2943.71 132.542 2941.91 132.103 Q2940.13 131.663 2938.37 131.663 Q2933.74 131.663 2931.28 134.788 Q2928.85 137.913 2928.5 144.232 Q2929.87 142.218 2931.93 141.153 Q2933.99 140.066 2936.47 140.066 Q2941.68 140.066 2944.69 143.237 Q2947.72 146.385 2947.72 151.825 Q2947.72 157.149 2944.57 160.366 Q2941.42 163.584 2936.19 163.584 Q2930.19 163.584 2927.02 159.001 Q2923.85 154.394 2923.85 145.667 Q2923.85 137.473 2927.74 132.612 Q2931.63 127.728 2938.18 127.728 Q2939.94 127.728 2941.72 128.075 Q2943.53 128.422 2945.47 129.117 Z" fill="#000000" fill-rule="nonzero" fill-opacity="1" /><path clip-path="url(#clip260)" d="M2965.77 146.501 Q2962.44 146.501 2960.52 148.283 Q2958.62 150.065 2958.62 153.19 Q2958.62 156.315 2960.52 158.098 Q2962.44 159.88 2965.77 159.88 Q2969.11 159.88 2971.03 158.098 Q2972.95 156.292 2972.95 153.19 Q2972.95 150.065 2971.03 148.283 Q2969.13 146.501 2965.77 146.501 M2961.1 144.51 Q2958.09 143.769 2956.4 141.709 Q2954.73 139.649 2954.73 136.686 Q2954.73 132.542 2957.67 130.135 Q2960.63 127.728 2965.77 127.728 Q2970.94 127.728 2973.88 130.135 Q2976.81 132.542 2976.81 136.686 Q2976.81 139.649 2975.13 141.709 Q2973.46 143.769 2970.47 144.51 Q2973.85 145.297 2975.73 147.589 Q2977.63 149.88 2977.63 153.19 Q2977.63 158.214 2974.55 160.899 Q2971.49 163.584 2965.77 163.584 Q2960.06 163.584 2956.98 160.899 Q2953.92 158.214 2953.92 153.19 Q2953.92 149.88 2955.82 147.589 Q2957.72 145.297 2961.1 144.51 M2959.38 137.126 Q2959.38 139.811 2961.05 141.316 Q2962.74 142.82 2965.77 142.82 Q2968.78 142.82 2970.47 141.316 Q2972.19 139.811 2972.19 137.126 Q2972.19 134.441 2970.47 132.936 Q2968.78 131.431 2965.77 131.431 Q2962.74 131.431 2961.05 132.936 Q2959.38 134.441 2959.38 137.126 Z" fill="#000000" fill-rule="nonzero" fill-opacity="1" /><path clip-path="url(#clip260)" d="M2985.94 157.033 L2990.82 157.033 L2990.82 162.913 L2985.94 162.913 L2985.94 157.033 Z" fill="#000000" fill-rule="nonzero" fill-opacity="1" /><path clip-path="url(#clip260)" d="M3011 131.431 Q3007.39 131.431 3005.56 134.996 Q3003.76 138.538 3003.76 145.667 Q3003.76 152.774 3005.56 156.339 Q3007.39 159.88 3011 159.88 Q3014.64 159.88 3016.44 156.339 Q3018.27 152.774 3018.27 145.667 Q3018.27 138.538 3016.44 134.996 Q3014.64 131.431 3011 131.431 M3011 127.728 Q3016.81 127.728 3019.87 132.334 Q3022.95 136.917 3022.95 145.667 Q3022.95 154.394 3019.87 159.001 Q3016.81 163.584 3011 163.584 Q3005.19 163.584 3002.12 159.001 Q2999.06 154.394 2999.06 145.667 Q2999.06 136.917 3002.12 132.334 Q3005.19 127.728 3011 127.728 Z" fill="#000000" fill-rule="nonzero" fill-opacity="1" /><circle clip-path="url(#clip260)" cx="2429.23" cy="197.473" r="20.48" fill="#009af9" fill-rule="evenodd" fill-opacity="1" stroke="#000000" stroke-opacity="1" stroke-width="4.55111"/>
<path clip-path="url(#clip260)" d="M2575.06 183.364 Q2569.97 183.364 2566.96 187.16 Q2563.97 190.956 2563.97 197.507 Q2563.97 204.035 2566.96 207.831 Q2569.97 211.628 2575.06 211.628 Q2580.15 211.628 2583.11 207.831 Q2586.1 204.035 2586.1 197.507 Q2586.1 190.956 2583.11 187.16 Q2580.15 183.364 2575.06 183.364 M2575.06 179.568 Q2582.33 179.568 2586.68 184.452 Q2591.03 189.313 2591.03 197.507 Q2591.03 205.679 2586.68 210.563 Q2582.33 215.424 2575.06 215.424 Q2567.77 215.424 2563.39 210.563 Q2559.04 205.702 2559.04 197.507 Q2559.04 189.313 2563.39 184.452 Q2567.77 179.568 2575.06 179.568 Z" fill="#000000" fill-rule="nonzero" fill-opacity="1" /><path clip-path="url(#clip260)" d="M2616.77 201.813 Q2616.77 197.114 2614.83 194.452 Q2612.9 191.767 2609.53 191.767 Q2606.15 191.767 2604.2 194.452 Q2602.28 197.114 2602.28 201.813 Q2602.28 206.512 2604.2 209.197 Q2606.15 211.859 2609.53 211.859 Q2612.9 211.859 2614.83 209.197 Q2616.77 206.512 2616.77 201.813 M2602.28 192.762 Q2603.62 190.447 2605.66 189.336 Q2607.72 188.202 2610.57 188.202 Q2615.29 188.202 2618.23 191.952 Q2621.19 195.702 2621.19 201.813 Q2621.19 207.924 2618.23 211.674 Q2615.29 215.424 2610.57 215.424 Q2607.72 215.424 2605.66 214.313 Q2603.62 213.179 2602.28 210.864 L2602.28 214.753 L2598 214.753 L2598 178.734 L2602.28 178.734 L2602.28 192.762 Z" fill="#000000" fill-rule="nonzero" fill-opacity="1" /><path clip-path="url(#clip260)" d="M2628.25 188.827 L2632.51 188.827 L2632.51 215.216 Q2632.51 220.169 2630.61 222.391 Q2628.74 224.614 2624.55 224.614 L2622.93 224.614 L2622.93 221.003 L2624.06 221.003 Q2626.49 221.003 2627.37 219.868 Q2628.25 218.757 2628.25 215.216 L2628.25 188.827 M2628.25 178.734 L2632.51 178.734 L2632.51 184.128 L2628.25 184.128 L2628.25 178.734 Z" fill="#000000" fill-rule="nonzero" fill-opacity="1" /><path clip-path="url(#clip260)" d="M2663.6 200.725 L2663.6 202.808 L2644.02 202.808 Q2644.29 207.206 2646.65 209.521 Q2649.04 211.813 2653.27 211.813 Q2655.73 211.813 2658.02 211.211 Q2660.34 210.609 2662.6 209.405 L2662.6 213.433 Q2660.31 214.405 2657.9 214.915 Q2655.5 215.424 2653.02 215.424 Q2646.82 215.424 2643.18 211.813 Q2639.57 208.202 2639.57 202.044 Q2639.57 195.679 2643 191.952 Q2646.45 188.202 2652.28 188.202 Q2657.51 188.202 2660.54 191.581 Q2663.6 194.938 2663.6 200.725 M2659.34 199.475 Q2659.29 195.98 2657.37 193.896 Q2655.47 191.813 2652.33 191.813 Q2648.76 191.813 2646.61 193.827 Q2644.48 195.841 2644.15 199.498 L2659.34 199.475 Z" fill="#000000" fill-rule="nonzero" fill-opacity="1" /><path clip-path="url(#clip260)" d="M2689.25 189.822 L2689.25 193.804 Q2687.44 192.808 2685.61 192.322 Q2683.81 191.813 2681.96 191.813 Q2677.81 191.813 2675.52 194.452 Q2673.23 197.068 2673.23 201.813 Q2673.23 206.558 2675.52 209.197 Q2677.81 211.813 2681.96 211.813 Q2683.81 211.813 2685.61 211.327 Q2687.44 210.817 2689.25 209.822 L2689.25 213.757 Q2687.46 214.591 2685.54 215.007 Q2683.65 215.424 2681.49 215.424 Q2675.64 215.424 2672.19 211.743 Q2668.74 208.063 2668.74 201.813 Q2668.74 195.47 2672.21 191.836 Q2675.71 188.202 2681.77 188.202 Q2683.74 188.202 2685.61 188.619 Q2687.49 189.012 2689.25 189.822 Z" fill="#000000" fill-rule="nonzero" fill-opacity="1" /><path clip-path="url(#clip260)" d="M2700.87 181.466 L2700.87 188.827 L2709.64 188.827 L2709.64 192.137 L2700.87 192.137 L2700.87 206.211 Q2700.87 209.382 2701.72 210.285 Q2702.6 211.188 2705.27 211.188 L2709.64 211.188 L2709.64 214.753 L2705.27 214.753 Q2700.33 214.753 2698.46 212.924 Q2696.58 211.072 2696.58 206.211 L2696.58 192.137 L2693.46 192.137 L2693.46 188.827 L2696.58 188.827 L2696.58 181.466 L2700.87 181.466 Z" fill="#000000" fill-rule="nonzero" fill-opacity="1" /><path clip-path="url(#clip260)" d="M2715.24 188.827 L2719.5 188.827 L2719.5 214.753 L2715.24 214.753 L2715.24 188.827 M2715.24 178.734 L2719.5 178.734 L2719.5 184.128 L2715.24 184.128 L2715.24 178.734 Z" fill="#000000" fill-rule="nonzero" fill-opacity="1" /><path clip-path="url(#clip260)" d="M2725.36 188.827 L2729.87 188.827 L2737.97 210.586 L2746.08 188.827 L2750.59 188.827 L2740.87 214.753 L2735.08 214.753 L2725.36 188.827 Z" fill="#000000" fill-rule="nonzero" fill-opacity="1" /><path clip-path="url(#clip260)" d="M2778.64 200.725 L2778.64 202.808 L2759.06 202.808 Q2759.34 207.206 2761.7 209.521 Q2764.08 211.813 2768.32 211.813 Q2770.77 211.813 2773.07 211.211 Q2775.38 210.609 2777.65 209.405 L2777.65 213.433 Q2775.36 214.405 2772.95 214.915 Q2770.54 215.424 2768.07 215.424 Q2761.86 215.424 2758.23 211.813 Q2754.62 208.202 2754.62 202.044 Q2754.62 195.679 2758.04 191.952 Q2761.49 188.202 2767.33 188.202 Q2772.56 188.202 2775.59 191.581 Q2778.64 194.938 2778.64 200.725 M2774.39 199.475 Q2774.34 195.98 2772.42 193.896 Q2770.52 191.813 2767.37 191.813 Q2763.81 191.813 2761.65 193.827 Q2759.52 195.841 2759.2 199.498 L2774.39 199.475 Z" fill="#000000" fill-rule="nonzero" fill-opacity="1" /><path clip-path="url(#clip260)" d="M2810.94 178.781 Q2807.83 184.105 2806.33 189.313 Q2804.83 194.521 2804.83 199.868 Q2804.83 205.216 2806.33 210.47 Q2807.86 215.702 2810.94 221.003 L2807.23 221.003 Q2803.76 215.563 2802.02 210.308 Q2800.31 205.054 2800.31 199.868 Q2800.31 194.706 2802.02 189.475 Q2803.74 184.244 2807.23 178.781 L2810.94 178.781 Z" fill="#000000" fill-rule="nonzero" fill-opacity="1" /><path clip-path="url(#clip260)" d="M2819.2 178.734 L2823.46 178.734 L2823.46 214.753 L2819.2 214.753 L2819.2 178.734 Z" fill="#000000" fill-rule="nonzero" fill-opacity="1" /><path clip-path="url(#clip260)" d="M2842.42 191.813 Q2838.99 191.813 2837 194.498 Q2835.01 197.16 2835.01 201.813 Q2835.01 206.466 2836.98 209.151 Q2838.97 211.813 2842.42 211.813 Q2845.82 211.813 2847.81 209.128 Q2849.8 206.442 2849.8 201.813 Q2849.8 197.206 2847.81 194.521 Q2845.82 191.813 2842.42 191.813 M2842.42 188.202 Q2847.97 188.202 2851.14 191.813 Q2854.32 195.424 2854.32 201.813 Q2854.32 208.179 2851.14 211.813 Q2847.97 215.424 2842.42 215.424 Q2836.84 215.424 2833.67 211.813 Q2830.52 208.179 2830.52 201.813 Q2830.52 195.424 2833.67 191.813 Q2836.84 188.202 2842.42 188.202 Z" fill="#000000" fill-rule="nonzero" fill-opacity="1" /><path clip-path="url(#clip260)" d="M2878.44 201.489 Q2878.44 196.859 2876.51 194.313 Q2874.62 191.767 2871.17 191.767 Q2867.74 191.767 2865.82 194.313 Q2863.92 196.859 2863.92 201.489 Q2863.92 206.095 2865.82 208.642 Q2867.74 211.188 2871.17 211.188 Q2874.62 211.188 2876.51 208.642 Q2878.44 206.095 2878.44 201.489 M2882.7 211.535 Q2882.7 218.155 2879.76 221.373 Q2876.82 224.614 2870.75 224.614 Q2868.51 224.614 2866.51 224.266 Q2864.52 223.942 2862.65 223.248 L2862.65 219.104 Q2864.52 220.123 2866.35 220.609 Q2868.18 221.095 2870.08 221.095 Q2874.27 221.095 2876.35 218.896 Q2878.44 216.72 2878.44 212.299 L2878.44 210.192 Q2877.12 212.484 2875.06 213.618 Q2873 214.753 2870.13 214.753 Q2865.36 214.753 2862.44 211.118 Q2859.52 207.484 2859.52 201.489 Q2859.52 195.47 2862.44 191.836 Q2865.36 188.202 2870.13 188.202 Q2873 188.202 2875.06 189.336 Q2877.12 190.47 2878.44 192.762 L2878.44 188.827 L2882.7 188.827 L2882.7 211.535 Z" fill="#000000" fill-rule="nonzero" fill-opacity="1" /><path clip-path="url(#clip260)" d="M2892.88 210.817 L2900.52 210.817 L2900.52 184.452 L2892.21 186.119 L2892.21 181.859 L2900.47 180.193 L2905.15 180.193 L2905.15 210.817 L2912.79 210.817 L2912.79 214.753 L2892.88 214.753 L2892.88 210.817 Z" fill="#000000" fill-rule="nonzero" fill-opacity="1" /><path clip-path="url(#clip260)" d="M2932.23 183.271 Q2928.62 183.271 2926.79 186.836 Q2924.99 190.378 2924.99 197.507 Q2924.99 204.614 2926.79 208.179 Q2928.62 211.72 2932.23 211.72 Q2935.87 211.72 2937.67 208.179 Q2939.5 204.614 2939.5 197.507 Q2939.5 190.378 2937.67 186.836 Q2935.87 183.271 2932.23 183.271 M2932.23 179.568 Q2938.04 179.568 2941.1 184.174 Q2944.18 188.757 2944.18 197.507 Q2944.18 206.234 2941.1 210.841 Q2938.04 215.424 2932.23 215.424 Q2926.42 215.424 2923.34 210.841 Q2920.29 206.234 2920.29 197.507 Q2920.29 188.757 2923.34 184.174 Q2926.42 179.568 2932.23 179.568 Z" fill="#000000" fill-rule="nonzero" fill-opacity="1" /><path clip-path="url(#clip260)" d="M2951.12 178.781 L2954.82 178.781 Q2958.3 184.244 2960.01 189.475 Q2961.75 194.706 2961.75 199.868 Q2961.75 205.054 2960.01 210.308 Q2958.3 215.563 2954.82 221.003 L2951.12 221.003 Q2954.2 215.702 2955.7 210.47 Q2957.23 205.216 2957.23 199.868 Q2957.23 194.521 2955.7 189.313 Q2954.2 184.105 2951.12 178.781 Z" fill="#000000" fill-rule="nonzero" fill-opacity="1" /></svg>
