<?xml version="1.0" encoding="utf-8"?>
<svg xmlns="http://www.w3.org/2000/svg" xmlns:xlink="http://www.w3.org/1999/xlink" width="800" height="600" viewBox="0 0 3200 2400">
<defs>
  <clipPath id="clip090">
    <rect x="0" y="0" width="3200" height="2400"/>
  </clipPath>
</defs>
<path clip-path="url(#clip090)" d="M0 2400 L3200 2400 L3200 0 L0 0  Z" fill="#ffffff" fill-rule="evenodd" fill-opacity="1"/>
<defs>
  <clipPath id="clip091">
    <rect x="200" y="1331" width="1352" height="944"/>
  </clipPath>
</defs>
<path clip-path="url(#clip090)" d="M200.709 1074.13 L1552.06 1074.13 L1552.06 131.032 L200.709 131.032  Z" fill="#ffffff" fill-rule="evenodd" fill-opacity="1"/>
<defs>
  <clipPath id="clip092">
    <rect x="200" y="131" width="1352" height="944"/>
  </clipPath>
</defs>
<polyline clip-path="url(#clip092)" style="stroke:#000000; stroke-linecap:round; stroke-linejoin:round; stroke-width:2; stroke-opacity:0.1; fill:none" points="238.955,1074.13 238.955,131.032 "/>
<polyline clip-path="url(#clip092)" style="stroke:#000000; stroke-linecap:round; stroke-linejoin:round; stroke-width:2; stroke-opacity:0.1; fill:none" points="557.67,1074.13 557.67,131.032 "/>
<polyline clip-path="url(#clip092)" style="stroke:#000000; stroke-linecap:round; stroke-linejoin:round; stroke-width:2; stroke-opacity:0.1; fill:none" points="876.385,1074.13 876.385,131.032 "/>
<polyline clip-path="url(#clip092)" style="stroke:#000000; stroke-linecap:round; stroke-linejoin:round; stroke-width:2; stroke-opacity:0.1; fill:none" points="1195.1,1074.13 1195.1,131.032 "/>
<polyline clip-path="url(#clip092)" style="stroke:#000000; stroke-linecap:round; stroke-linejoin:round; stroke-width:2; stroke-opacity:0.1; fill:none" points="1513.82,1074.13 1513.82,131.032 "/>
<polyline clip-path="url(#clip092)" style="stroke:#000000; stroke-linecap:round; stroke-linejoin:round; stroke-width:2; stroke-opacity:0.1; fill:none" points="200.709,983.647 1552.06,983.647 "/>
<polyline clip-path="url(#clip092)" style="stroke:#000000; stroke-linecap:round; stroke-linejoin:round; stroke-width:2; stroke-opacity:0.1; fill:none" points="200.709,793.114 1552.06,793.114 "/>
<polyline clip-path="url(#clip092)" style="stroke:#000000; stroke-linecap:round; stroke-linejoin:round; stroke-width:2; stroke-opacity:0.1; fill:none" points="200.709,602.58 1552.06,602.58 "/>
<polyline clip-path="url(#clip092)" style="stroke:#000000; stroke-linecap:round; stroke-linejoin:round; stroke-width:2; stroke-opacity:0.1; fill:none" points="200.709,412.046 1552.06,412.046 "/>
<polyline clip-path="url(#clip092)" style="stroke:#000000; stroke-linecap:round; stroke-linejoin:round; stroke-width:2; stroke-opacity:0.1; fill:none" points="200.709,221.513 1552.06,221.513 "/>
<polyline clip-path="url(#clip090)" style="stroke:#000000; stroke-linecap:round; stroke-linejoin:round; stroke-width:4; stroke-opacity:1; fill:none" points="200.709,1074.13 1552.06,1074.13 "/>
<polyline clip-path="url(#clip090)" style="stroke:#000000; stroke-linecap:round; stroke-linejoin:round; stroke-width:4; stroke-opacity:1; fill:none" points="238.955,1074.13 238.955,1055.23 "/>
<polyline clip-path="url(#clip090)" style="stroke:#000000; stroke-linecap:round; stroke-linejoin:round; stroke-width:4; stroke-opacity:1; fill:none" points="557.67,1074.13 557.67,1055.23 "/>
<polyline clip-path="url(#clip090)" style="stroke:#000000; stroke-linecap:round; stroke-linejoin:round; stroke-width:4; stroke-opacity:1; fill:none" points="876.385,1074.13 876.385,1055.23 "/>
<polyline clip-path="url(#clip090)" style="stroke:#000000; stroke-linecap:round; stroke-linejoin:round; stroke-width:4; stroke-opacity:1; fill:none" points="1195.1,1074.13 1195.1,1055.23 "/>
<polyline clip-path="url(#clip090)" style="stroke:#000000; stroke-linecap:round; stroke-linejoin:round; stroke-width:4; stroke-opacity:1; fill:none" points="1513.82,1074.13 1513.82,1055.23 "/>
<path clip-path="url(#clip090)" d="M216.339 1111.45 Q212.728 1111.45 210.9 1115.01 Q209.094 1118.55 209.094 1125.68 Q209.094 1132.79 210.9 1136.35 Q212.728 1139.9 216.339 1139.9 Q219.974 1139.9 221.779 1136.35 Q223.608 1132.79 223.608 1125.68 Q223.608 1118.55 221.779 1115.01 Q219.974 1111.45 216.339 1111.45 M216.339 1107.74 Q222.15 1107.74 225.205 1112.35 Q228.284 1116.93 228.284 1125.68 Q228.284 1134.41 225.205 1139.02 Q222.15 1143.6 216.339 1143.6 Q210.529 1143.6 207.451 1139.02 Q204.395 1134.41 204.395 1125.68 Q204.395 1116.93 207.451 1112.35 Q210.529 1107.74 216.339 1107.74 Z" fill="#000000" fill-rule="nonzero" fill-opacity="1" /><path clip-path="url(#clip090)" d="M236.501 1137.05 L241.386 1137.05 L241.386 1142.93 L236.501 1142.93 L236.501 1137.05 Z" fill="#000000" fill-rule="nonzero" fill-opacity="1" /><path clip-path="url(#clip090)" d="M261.571 1111.45 Q257.96 1111.45 256.131 1115.01 Q254.325 1118.55 254.325 1125.68 Q254.325 1132.79 256.131 1136.35 Q257.96 1139.9 261.571 1139.9 Q265.205 1139.9 267.01 1136.35 Q268.839 1132.79 268.839 1125.68 Q268.839 1118.55 267.01 1115.01 Q265.205 1111.45 261.571 1111.45 M261.571 1107.74 Q267.381 1107.74 270.436 1112.35 Q273.515 1116.93 273.515 1125.68 Q273.515 1134.41 270.436 1139.02 Q267.381 1143.6 261.571 1143.6 Q255.76 1143.6 252.682 1139.02 Q249.626 1134.41 249.626 1125.68 Q249.626 1116.93 252.682 1112.35 Q255.76 1107.74 261.571 1107.74 Z" fill="#000000" fill-rule="nonzero" fill-opacity="1" /><path clip-path="url(#clip090)" d="M535.552 1111.45 Q531.941 1111.45 530.112 1115.01 Q528.307 1118.55 528.307 1125.68 Q528.307 1132.79 530.112 1136.35 Q531.941 1139.9 535.552 1139.9 Q539.186 1139.9 540.992 1136.35 Q542.821 1132.79 542.821 1125.68 Q542.821 1118.55 540.992 1115.01 Q539.186 1111.45 535.552 1111.45 M535.552 1107.74 Q541.362 1107.74 544.418 1112.35 Q547.497 1116.93 547.497 1125.68 Q547.497 1134.41 544.418 1139.02 Q541.362 1143.6 535.552 1143.6 Q529.742 1143.6 526.663 1139.02 Q523.608 1134.41 523.608 1125.68 Q523.608 1116.93 526.663 1112.35 Q529.742 1107.74 535.552 1107.74 Z" fill="#000000" fill-rule="nonzero" fill-opacity="1" /><path clip-path="url(#clip090)" d="M555.714 1137.05 L560.598 1137.05 L560.598 1142.93 L555.714 1142.93 L555.714 1137.05 Z" fill="#000000" fill-rule="nonzero" fill-opacity="1" /><path clip-path="url(#clip090)" d="M570.83 1108.37 L589.186 1108.37 L589.186 1112.3 L575.112 1112.3 L575.112 1120.78 Q576.131 1120.43 577.149 1120.27 Q578.168 1120.08 579.186 1120.08 Q584.973 1120.08 588.353 1123.25 Q591.732 1126.42 591.732 1131.84 Q591.732 1137.42 588.26 1140.52 Q584.788 1143.6 578.469 1143.6 Q576.293 1143.6 574.024 1143.23 Q571.779 1142.86 569.371 1142.12 L569.371 1137.42 Q571.455 1138.55 573.677 1139.11 Q575.899 1139.66 578.376 1139.66 Q582.381 1139.66 584.719 1137.56 Q587.057 1135.45 587.057 1131.84 Q587.057 1128.23 584.719 1126.12 Q582.381 1124.02 578.376 1124.02 Q576.501 1124.02 574.626 1124.43 Q572.774 1124.85 570.83 1125.73 L570.83 1108.37 Z" fill="#000000" fill-rule="nonzero" fill-opacity="1" /><path clip-path="url(#clip090)" d="M843.538 1138.99 L851.177 1138.99 L851.177 1112.63 L842.867 1114.29 L842.867 1110.03 L851.131 1108.37 L855.807 1108.37 L855.807 1138.99 L863.446 1138.99 L863.446 1142.93 L843.538 1142.93 L843.538 1138.99 Z" fill="#000000" fill-rule="nonzero" fill-opacity="1" /><path clip-path="url(#clip090)" d="M872.89 1137.05 L877.774 1137.05 L877.774 1142.93 L872.89 1142.93 L872.89 1137.05 Z" fill="#000000" fill-rule="nonzero" fill-opacity="1" /><path clip-path="url(#clip090)" d="M897.959 1111.45 Q894.348 1111.45 892.519 1115.01 Q890.714 1118.55 890.714 1125.68 Q890.714 1132.79 892.519 1136.35 Q894.348 1139.9 897.959 1139.9 Q901.594 1139.9 903.399 1136.35 Q905.228 1132.79 905.228 1125.68 Q905.228 1118.55 903.399 1115.01 Q901.594 1111.45 897.959 1111.45 M897.959 1107.74 Q903.769 1107.74 906.825 1112.35 Q909.904 1116.93 909.904 1125.68 Q909.904 1134.41 906.825 1139.02 Q903.769 1143.6 897.959 1143.6 Q892.149 1143.6 889.07 1139.02 Q886.015 1134.41 886.015 1125.68 Q886.015 1116.93 889.07 1112.35 Q892.149 1107.74 897.959 1107.74 Z" fill="#000000" fill-rule="nonzero" fill-opacity="1" /><path clip-path="url(#clip090)" d="M1162.75 1138.99 L1170.39 1138.99 L1170.39 1112.63 L1162.08 1114.29 L1162.08 1110.03 L1170.34 1108.37 L1175.02 1108.37 L1175.02 1138.99 L1182.66 1138.99 L1182.66 1142.93 L1162.75 1142.93 L1162.75 1138.99 Z" fill="#000000" fill-rule="nonzero" fill-opacity="1" /><path clip-path="url(#clip090)" d="M1192.1 1137.05 L1196.99 1137.05 L1196.99 1142.93 L1192.1 1142.93 L1192.1 1137.05 Z" fill="#000000" fill-rule="nonzero" fill-opacity="1" /><path clip-path="url(#clip090)" d="M1207.22 1108.37 L1225.57 1108.37 L1225.57 1112.3 L1211.5 1112.3 L1211.5 1120.78 Q1212.52 1120.43 1213.54 1120.27 Q1214.56 1120.08 1215.57 1120.08 Q1221.36 1120.08 1224.74 1123.25 Q1228.12 1126.42 1228.12 1131.84 Q1228.12 1137.42 1224.65 1140.52 Q1221.18 1143.6 1214.86 1143.6 Q1212.68 1143.6 1210.41 1143.23 Q1208.17 1142.86 1205.76 1142.12 L1205.76 1137.42 Q1207.84 1138.55 1210.07 1139.11 Q1212.29 1139.66 1214.76 1139.66 Q1218.77 1139.66 1221.11 1137.56 Q1223.45 1135.45 1223.45 1131.84 Q1223.45 1128.23 1221.11 1126.12 Q1218.77 1124.02 1214.76 1124.02 Q1212.89 1124.02 1211.01 1124.43 Q1209.16 1124.85 1207.22 1125.73 L1207.22 1108.37 Z" fill="#000000" fill-rule="nonzero" fill-opacity="1" /><path clip-path="url(#clip090)" d="M1485.05 1138.99 L1501.37 1138.99 L1501.37 1142.93 L1479.43 1142.93 L1479.43 1138.99 Q1482.09 1136.24 1486.67 1131.61 Q1491.28 1126.96 1492.46 1125.61 Q1494.71 1123.09 1495.59 1121.35 Q1496.49 1119.59 1496.49 1117.9 Q1496.49 1115.15 1494.54 1113.41 Q1492.62 1111.68 1489.52 1111.68 Q1487.32 1111.68 1484.87 1112.44 Q1482.44 1113.21 1479.66 1114.76 L1479.66 1110.03 Q1482.48 1108.9 1484.94 1108.32 Q1487.39 1107.74 1489.43 1107.74 Q1494.8 1107.74 1497.99 1110.43 Q1501.19 1113.11 1501.19 1117.6 Q1501.19 1119.73 1500.38 1121.65 Q1499.59 1123.55 1497.48 1126.15 Q1496.91 1126.82 1493.8 1130.03 Q1490.7 1133.23 1485.05 1138.99 Z" fill="#000000" fill-rule="nonzero" fill-opacity="1" /><path clip-path="url(#clip090)" d="M1511.19 1137.05 L1516.07 1137.05 L1516.07 1142.93 L1511.19 1142.93 L1511.19 1137.05 Z" fill="#000000" fill-rule="nonzero" fill-opacity="1" /><path clip-path="url(#clip090)" d="M1536.26 1111.45 Q1532.65 1111.45 1530.82 1115.01 Q1529.01 1118.55 1529.01 1125.68 Q1529.01 1132.79 1530.82 1136.35 Q1532.65 1139.9 1536.26 1139.9 Q1539.89 1139.9 1541.7 1136.35 Q1543.53 1132.79 1543.53 1125.68 Q1543.53 1118.55 1541.7 1115.01 Q1539.89 1111.45 1536.26 1111.45 M1536.26 1107.74 Q1542.07 1107.74 1545.12 1112.35 Q1548.2 1116.93 1548.2 1125.68 Q1548.2 1134.41 1545.12 1139.02 Q1542.07 1143.6 1536.26 1143.6 Q1530.45 1143.6 1527.37 1139.02 Q1524.31 1134.41 1524.31 1125.68 Q1524.31 1116.93 1527.37 1112.35 Q1530.45 1107.74 1536.26 1107.74 Z" fill="#000000" fill-rule="nonzero" fill-opacity="1" /><polyline clip-path="url(#clip090)" style="stroke:#000000; stroke-linecap:round; stroke-linejoin:round; stroke-width:4; stroke-opacity:1; fill:none" points="200.709,1074.13 200.709,131.032 "/>
<polyline clip-path="url(#clip090)" style="stroke:#000000; stroke-linecap:round; stroke-linejoin:round; stroke-width:4; stroke-opacity:1; fill:none" points="200.709,983.647 219.607,983.647 "/>
<polyline clip-path="url(#clip090)" style="stroke:#000000; stroke-linecap:round; stroke-linejoin:round; stroke-width:4; stroke-opacity:1; fill:none" points="200.709,793.114 219.607,793.114 "/>
<polyline clip-path="url(#clip090)" style="stroke:#000000; stroke-linecap:round; stroke-linejoin:round; stroke-width:4; stroke-opacity:1; fill:none" points="200.709,602.58 219.607,602.58 "/>
<polyline clip-path="url(#clip090)" style="stroke:#000000; stroke-linecap:round; stroke-linejoin:round; stroke-width:4; stroke-opacity:1; fill:none" points="200.709,412.046 219.607,412.046 "/>
<polyline clip-path="url(#clip090)" style="stroke:#000000; stroke-linecap:round; stroke-linejoin:round; stroke-width:4; stroke-opacity:1; fill:none" points="200.709,221.513 219.607,221.513 "/>
<path clip-path="url(#clip090)" d="M47.3625 984.098 L77.0383 984.098 L77.0383 988.034 L47.3625 988.034 L47.3625 984.098 Z" fill="#000000" fill-rule="nonzero" fill-opacity="1" /><path clip-path="url(#clip090)" d="M97.1307 969.446 Q93.5197 969.446 91.691 973.011 Q89.8854 976.552 89.8854 983.682 Q89.8854 990.788 91.691 994.353 Q93.5197 997.895 97.1307 997.895 Q100.765 997.895 102.571 994.353 Q104.399 990.788 104.399 983.682 Q104.399 976.552 102.571 973.011 Q100.765 969.446 97.1307 969.446 M97.1307 965.742 Q102.941 965.742 105.996 970.349 Q109.075 974.932 109.075 983.682 Q109.075 992.409 105.996 997.015 Q102.941 1001.6 97.1307 1001.6 Q91.3206 1001.6 88.2419 997.015 Q85.1864 992.409 85.1864 983.682 Q85.1864 974.932 88.2419 970.349 Q91.3206 965.742 97.1307 965.742 Z" fill="#000000" fill-rule="nonzero" fill-opacity="1" /><path clip-path="url(#clip090)" d="M117.293 995.047 L122.177 995.047 L122.177 1000.93 L117.293 1000.93 L117.293 995.047 Z" fill="#000000" fill-rule="nonzero" fill-opacity="1" /><path clip-path="url(#clip090)" d="M136.39 996.992 L152.709 996.992 L152.709 1000.93 L130.765 1000.93 L130.765 996.992 Q133.427 994.237 138.01 989.608 Q142.617 984.955 143.797 983.612 Q146.043 981.089 146.922 979.353 Q147.825 977.594 147.825 975.904 Q147.825 973.149 145.88 971.413 Q143.959 969.677 140.857 969.677 Q138.658 969.677 136.205 970.441 Q133.774 971.205 130.996 972.756 L130.996 968.034 Q133.82 966.899 136.274 966.321 Q138.728 965.742 140.765 965.742 Q146.135 965.742 149.33 968.427 Q152.524 971.112 152.524 975.603 Q152.524 977.733 151.714 979.654 Q150.927 981.552 148.82 984.145 Q148.242 984.816 145.14 988.034 Q142.038 991.228 136.39 996.992 Z" fill="#000000" fill-rule="nonzero" fill-opacity="1" /><path clip-path="url(#clip090)" d="M46.9921 793.565 L76.6679 793.565 L76.6679 797.5 L46.9921 797.5 L46.9921 793.565 Z" fill="#000000" fill-rule="nonzero" fill-opacity="1" /><path clip-path="url(#clip090)" d="M96.7604 778.912 Q93.1493 778.912 91.3206 782.477 Q89.515 786.019 89.515 793.148 Q89.515 800.255 91.3206 803.819 Q93.1493 807.361 96.7604 807.361 Q100.395 807.361 102.2 803.819 Q104.029 800.255 104.029 793.148 Q104.029 786.019 102.2 782.477 Q100.395 778.912 96.7604 778.912 M96.7604 775.209 Q102.571 775.209 105.626 779.815 Q108.705 784.398 108.705 793.148 Q108.705 801.875 105.626 806.482 Q102.571 811.065 96.7604 811.065 Q90.9502 811.065 87.8715 806.482 Q84.816 801.875 84.816 793.148 Q84.816 784.398 87.8715 779.815 Q90.9502 775.209 96.7604 775.209 Z" fill="#000000" fill-rule="nonzero" fill-opacity="1" /><path clip-path="url(#clip090)" d="M116.922 804.514 L121.807 804.514 L121.807 810.394 L116.922 810.394 L116.922 804.514 Z" fill="#000000" fill-rule="nonzero" fill-opacity="1" /><path clip-path="url(#clip090)" d="M132.802 806.458 L140.441 806.458 L140.441 780.093 L132.131 781.759 L132.131 777.5 L140.394 775.834 L145.07 775.834 L145.07 806.458 L152.709 806.458 L152.709 810.394 L132.802 810.394 L132.802 806.458 Z" fill="#000000" fill-rule="nonzero" fill-opacity="1" /><path clip-path="url(#clip090)" d="M95.5335 588.379 Q91.9224 588.379 90.0937 591.943 Q88.2882 595.485 88.2882 602.615 Q88.2882 609.721 90.0937 613.286 Q91.9224 616.828 95.5335 616.828 Q99.1678 616.828 100.973 613.286 Q102.802 609.721 102.802 602.615 Q102.802 595.485 100.973 591.943 Q99.1678 588.379 95.5335 588.379 M95.5335 584.675 Q101.344 584.675 104.399 589.281 Q107.478 593.865 107.478 602.615 Q107.478 611.342 104.399 615.948 Q101.344 620.531 95.5335 620.531 Q89.7234 620.531 86.6447 615.948 Q83.5892 611.342 83.5892 602.615 Q83.5892 593.865 86.6447 589.281 Q89.7234 584.675 95.5335 584.675 Z" fill="#000000" fill-rule="nonzero" fill-opacity="1" /><path clip-path="url(#clip090)" d="M115.695 613.98 L120.58 613.98 L120.58 619.86 L115.695 619.86 L115.695 613.98 Z" fill="#000000" fill-rule="nonzero" fill-opacity="1" /><path clip-path="url(#clip090)" d="M140.765 588.379 Q137.154 588.379 135.325 591.943 Q133.519 595.485 133.519 602.615 Q133.519 609.721 135.325 613.286 Q137.154 616.828 140.765 616.828 Q144.399 616.828 146.205 613.286 Q148.033 609.721 148.033 602.615 Q148.033 595.485 146.205 591.943 Q144.399 588.379 140.765 588.379 M140.765 584.675 Q146.575 584.675 149.63 589.281 Q152.709 593.865 152.709 602.615 Q152.709 611.342 149.63 615.948 Q146.575 620.531 140.765 620.531 Q134.955 620.531 131.876 615.948 Q128.82 611.342 128.82 602.615 Q128.82 593.865 131.876 589.281 Q134.955 584.675 140.765 584.675 Z" fill="#000000" fill-rule="nonzero" fill-opacity="1" /><path clip-path="url(#clip090)" d="M96.7604 397.845 Q93.1493 397.845 91.3206 401.41 Q89.515 404.952 89.515 412.081 Q89.515 419.188 91.3206 422.752 Q93.1493 426.294 96.7604 426.294 Q100.395 426.294 102.2 422.752 Q104.029 419.188 104.029 412.081 Q104.029 404.952 102.2 401.41 Q100.395 397.845 96.7604 397.845 M96.7604 394.141 Q102.571 394.141 105.626 398.748 Q108.705 403.331 108.705 412.081 Q108.705 420.808 105.626 425.414 Q102.571 429.998 96.7604 429.998 Q90.9502 429.998 87.8715 425.414 Q84.816 420.808 84.816 412.081 Q84.816 403.331 87.8715 398.748 Q90.9502 394.141 96.7604 394.141 Z" fill="#000000" fill-rule="nonzero" fill-opacity="1" /><path clip-path="url(#clip090)" d="M116.922 423.447 L121.807 423.447 L121.807 429.326 L116.922 429.326 L116.922 423.447 Z" fill="#000000" fill-rule="nonzero" fill-opacity="1" /><path clip-path="url(#clip090)" d="M132.802 425.391 L140.441 425.391 L140.441 399.026 L132.131 400.692 L132.131 396.433 L140.394 394.766 L145.07 394.766 L145.07 425.391 L152.709 425.391 L152.709 429.326 L132.802 429.326 L132.802 425.391 Z" fill="#000000" fill-rule="nonzero" fill-opacity="1" /><path clip-path="url(#clip090)" d="M97.1307 207.312 Q93.5197 207.312 91.691 210.876 Q89.8854 214.418 89.8854 221.548 Q89.8854 228.654 91.691 232.219 Q93.5197 235.761 97.1307 235.761 Q100.765 235.761 102.571 232.219 Q104.399 228.654 104.399 221.548 Q104.399 214.418 102.571 210.876 Q100.765 207.312 97.1307 207.312 M97.1307 203.608 Q102.941 203.608 105.996 208.214 Q109.075 212.798 109.075 221.548 Q109.075 230.274 105.996 234.881 Q102.941 239.464 97.1307 239.464 Q91.3206 239.464 88.2419 234.881 Q85.1864 230.274 85.1864 221.548 Q85.1864 212.798 88.2419 208.214 Q91.3206 203.608 97.1307 203.608 Z" fill="#000000" fill-rule="nonzero" fill-opacity="1" /><path clip-path="url(#clip090)" d="M117.293 232.913 L122.177 232.913 L122.177 238.793 L117.293 238.793 L117.293 232.913 Z" fill="#000000" fill-rule="nonzero" fill-opacity="1" /><path clip-path="url(#clip090)" d="M136.39 234.858 L152.709 234.858 L152.709 238.793 L130.765 238.793 L130.765 234.858 Q133.427 232.103 138.01 227.474 Q142.617 222.821 143.797 221.478 Q146.043 218.955 146.922 217.219 Q147.825 215.46 147.825 213.77 Q147.825 211.015 145.88 209.279 Q143.959 207.543 140.857 207.543 Q138.658 207.543 136.205 208.307 Q133.774 209.071 130.996 210.622 L130.996 205.9 Q133.82 204.765 136.274 204.187 Q138.728 203.608 140.765 203.608 Q146.135 203.608 149.33 206.293 Q152.524 208.978 152.524 213.469 Q152.524 215.599 151.714 217.52 Q150.927 219.418 148.82 222.011 Q148.242 222.682 145.14 225.9 Q142.038 229.094 136.39 234.858 Z" fill="#000000" fill-rule="nonzero" fill-opacity="1" /><path clip-path="url(#clip090)" d="M649.697 16.7545 L649.697 25.383 Q645.565 21.5346 640.866 19.6307 Q636.207 17.7268 630.941 17.7268 Q620.571 17.7268 615.061 24.0867 Q609.552 30.4061 609.552 42.3968 Q609.552 54.3469 615.061 60.7069 Q620.571 67.0263 630.941 67.0263 Q636.207 67.0263 640.866 65.1223 Q645.565 63.2184 649.697 59.3701 L649.697 67.9175 Q645.403 70.8341 640.582 72.2924 Q635.802 73.7508 630.455 73.7508 Q616.722 73.7508 608.823 65.3654 Q600.924 56.9395 600.924 42.3968 Q600.924 27.8135 608.823 19.4281 Q616.722 11.0023 630.455 11.0023 Q635.883 11.0023 640.663 12.4606 Q645.484 13.8784 649.697 16.7545 Z" fill="#000000" fill-rule="nonzero" fill-opacity="1" /><path clip-path="url(#clip090)" d="M679.592 32.4315 Q673.597 32.4315 670.113 37.1306 Q666.629 41.7891 666.629 49.9314 Q666.629 58.0738 670.073 62.7728 Q673.557 67.4314 679.592 67.4314 Q685.547 67.4314 689.031 62.7323 Q692.515 58.0333 692.515 49.9314 Q692.515 41.8701 689.031 37.1711 Q685.547 32.4315 679.592 32.4315 M679.592 26.1121 Q689.315 26.1121 694.864 32.4315 Q700.414 38.7509 700.414 49.9314 Q700.414 61.0714 694.864 67.4314 Q689.315 73.7508 679.592 73.7508 Q669.83 73.7508 664.28 67.4314 Q658.771 61.0714 658.771 49.9314 Q658.771 38.7509 664.28 32.4315 Q669.83 26.1121 679.592 26.1121 Z" fill="#000000" fill-rule="nonzero" fill-opacity="1" /><path clip-path="url(#clip090)" d="M750.483 45.1919 L750.483 72.576 L743.03 72.576 L743.03 45.4349 Q743.03 38.994 740.518 35.7938 Q738.006 32.5936 732.983 32.5936 Q726.947 32.5936 723.464 36.4419 Q719.98 40.2903 719.98 46.9338 L719.98 72.576 L712.486 72.576 L712.486 27.2059 L719.98 27.2059 L719.98 34.2544 Q722.653 30.163 726.259 28.1376 Q729.905 26.1121 734.644 26.1121 Q742.462 26.1121 746.473 30.9732 Q750.483 35.7938 750.483 45.1919 Z" fill="#000000" fill-rule="nonzero" fill-opacity="1" /><path clip-path="url(#clip090)" d="M788.319 9.54393 L788.319 15.7418 L781.189 15.7418 Q777.179 15.7418 775.599 17.3622 Q774.059 18.9825 774.059 23.1955 L774.059 27.2059 L786.334 27.2059 L786.334 32.9987 L774.059 32.9987 L774.059 72.576 L766.565 72.576 L766.565 32.9987 L759.436 32.9987 L759.436 27.2059 L766.565 27.2059 L766.565 24.0462 Q766.565 16.471 770.09 13.0277 Q773.614 9.54393 781.27 9.54393 L788.319 9.54393 Z" fill="#000000" fill-rule="nonzero" fill-opacity="1" /><path clip-path="url(#clip090)" d="M794.557 27.2059 L802.011 27.2059 L802.011 72.576 L794.557 72.576 L794.557 27.2059 M794.557 9.54393 L802.011 9.54393 L802.011 18.9825 L794.557 18.9825 L794.557 9.54393 Z" fill="#000000" fill-rule="nonzero" fill-opacity="1" /><path clip-path="url(#clip090)" d="M847.462 49.3643 Q847.462 41.2625 844.1 36.8065 Q840.778 32.3505 834.742 32.3505 Q828.747 32.3505 825.384 36.8065 Q822.063 41.2625 822.063 49.3643 Q822.063 57.4256 825.384 61.8816 Q828.747 66.3376 834.742 66.3376 Q840.778 66.3376 844.1 61.8816 Q847.462 57.4256 847.462 49.3643 M854.916 66.9452 Q854.916 78.5308 849.771 84.1616 Q844.626 89.8329 834.013 89.8329 Q830.083 89.8329 826.6 89.2252 Q823.116 88.6581 819.835 87.4428 L819.835 80.1917 Q823.116 81.9741 826.316 82.8248 Q829.516 83.6755 832.838 83.6755 Q840.17 83.6755 843.816 79.8271 Q847.462 76.0193 847.462 68.282 L847.462 64.5957 Q845.153 68.6061 841.548 70.5911 Q837.942 72.576 832.919 72.576 Q824.574 72.576 819.47 66.2161 Q814.366 59.8562 814.366 49.3643 Q814.366 38.832 819.47 32.472 Q824.574 26.1121 832.919 26.1121 Q837.942 26.1121 841.548 28.0971 Q845.153 30.082 847.462 34.0924 L847.462 27.2059 L854.916 27.2059 L854.916 66.9452 Z" fill="#000000" fill-rule="nonzero" fill-opacity="1" /><path clip-path="url(#clip090)" d="M869.499 54.671 L869.499 27.2059 L876.952 27.2059 L876.952 54.3874 Q876.952 60.8284 879.464 64.0691 Q881.976 67.2693 886.999 67.2693 Q893.035 67.2693 896.518 63.421 Q900.043 59.5726 900.043 52.9291 L900.043 27.2059 L907.496 27.2059 L907.496 72.576 L900.043 72.576 L900.043 65.6084 Q897.328 69.7404 893.723 71.7658 Q890.158 73.7508 885.419 73.7508 Q877.601 73.7508 873.55 68.8897 Q869.499 64.0286 869.499 54.671 M888.254 26.1121 L888.254 26.1121 Z" fill="#000000" fill-rule="nonzero" fill-opacity="1" /><path clip-path="url(#clip090)" d="M949.14 34.1734 Q947.884 33.4443 946.385 33.1202 Q944.927 32.7556 943.144 32.7556 Q936.825 32.7556 933.422 36.8875 Q930.06 40.9789 930.06 48.6757 L930.06 72.576 L922.566 72.576 L922.566 27.2059 L930.06 27.2059 L930.06 34.2544 Q932.409 30.1225 936.177 28.1376 Q939.944 26.1121 945.332 26.1121 Q946.101 26.1121 947.033 26.2337 Q947.965 26.3147 949.099 26.5172 L949.14 34.1734 Z" fill="#000000" fill-rule="nonzero" fill-opacity="1" /><path clip-path="url(#clip090)" d="M977.577 49.7694 Q968.543 49.7694 965.06 51.8354 Q961.576 53.9013 961.576 58.8839 Q961.576 62.8538 964.168 65.2034 Q966.801 67.5124 971.298 67.5124 Q977.496 67.5124 981.223 63.1374 Q984.99 58.7219 984.99 51.4303 L984.99 49.7694 L977.577 49.7694 M992.444 46.6907 L992.444 72.576 L984.99 72.576 L984.99 65.6895 Q982.438 69.8214 978.63 71.8063 Q974.822 73.7508 969.313 73.7508 Q962.345 73.7508 958.214 69.8619 Q954.122 65.9325 954.122 59.3701 Q954.122 51.7138 959.226 47.825 Q964.371 43.9361 974.539 43.9361 L984.99 43.9361 L984.99 43.2069 Q984.99 38.0623 981.587 35.2672 Q978.225 32.4315 972.108 32.4315 Q968.219 32.4315 964.533 33.3632 Q960.847 34.295 957.444 36.1584 L957.444 29.2718 Q961.535 27.692 965.384 26.9223 Q969.232 26.1121 972.878 26.1121 Q982.722 26.1121 987.583 31.2163 Q992.444 36.3204 992.444 46.6907 Z" fill="#000000" fill-rule="nonzero" fill-opacity="1" /><path clip-path="url(#clip090)" d="M1015.17 14.324 L1015.17 27.2059 L1030.52 27.2059 L1030.52 32.9987 L1015.17 32.9987 L1015.17 57.6282 Q1015.17 63.1779 1016.67 64.7578 Q1018.21 66.3376 1022.87 66.3376 L1030.52 66.3376 L1030.52 72.576 L1022.87 72.576 Q1014.24 72.576 1010.96 69.3758 Q1007.68 66.1351 1007.68 57.6282 L1007.68 32.9987 L1002.21 32.9987 L1002.21 27.2059 L1007.68 27.2059 L1007.68 14.324 L1015.17 14.324 Z" fill="#000000" fill-rule="nonzero" fill-opacity="1" /><path clip-path="url(#clip090)" d="M1040.33 27.2059 L1047.78 27.2059 L1047.78 72.576 L1040.33 72.576 L1040.33 27.2059 M1040.33 9.54393 L1047.78 9.54393 L1047.78 18.9825 L1040.33 18.9825 L1040.33 9.54393 Z" fill="#000000" fill-rule="nonzero" fill-opacity="1" /><path clip-path="url(#clip090)" d="M1080.96 32.4315 Q1074.96 32.4315 1071.48 37.1306 Q1067.99 41.7891 1067.99 49.9314 Q1067.99 58.0738 1071.44 62.7728 Q1074.92 67.4314 1080.96 67.4314 Q1086.91 67.4314 1090.39 62.7323 Q1093.88 58.0333 1093.88 49.9314 Q1093.88 41.8701 1090.39 37.1711 Q1086.91 32.4315 1080.96 32.4315 M1080.96 26.1121 Q1090.68 26.1121 1096.23 32.4315 Q1101.78 38.7509 1101.78 49.9314 Q1101.78 61.0714 1096.23 67.4314 Q1090.68 73.7508 1080.96 73.7508 Q1071.19 73.7508 1065.64 67.4314 Q1060.13 61.0714 1060.13 49.9314 Q1060.13 38.7509 1065.64 32.4315 Q1071.19 26.1121 1080.96 26.1121 Z" fill="#000000" fill-rule="nonzero" fill-opacity="1" /><path clip-path="url(#clip090)" d="M1151.85 45.1919 L1151.85 72.576 L1144.39 72.576 L1144.39 45.4349 Q1144.39 38.994 1141.88 35.7938 Q1139.37 32.5936 1134.35 32.5936 Q1128.31 32.5936 1124.83 36.4419 Q1121.34 40.2903 1121.34 46.9338 L1121.34 72.576 L1113.85 72.576 L1113.85 27.2059 L1121.34 27.2059 L1121.34 34.2544 Q1124.02 30.163 1127.62 28.1376 Q1131.27 26.1121 1136.01 26.1121 Q1143.83 26.1121 1147.84 30.9732 Q1151.85 35.7938 1151.85 45.1919 Z" fill="#000000" fill-rule="nonzero" fill-opacity="1" /><polyline clip-path="url(#clip092)" style="stroke:#009af9; stroke-linecap:round; stroke-linejoin:round; stroke-width:4; stroke-opacity:1; fill:none" points="238.955,602.58 251.704,599.979 264.452,592.532 277.201,580.927 289.949,565.803 302.698,547.75 315.447,527.318 328.195,505.013 340.944,481.303 353.692,456.618 366.441,431.354 379.19,405.873 391.938,380.504 404.687,355.549 417.435,331.278 430.184,307.937 442.933,285.745 455.681,264.895 468.43,245.558 481.179,227.882 493.927,211.997 506.676,198.009 519.424,186.008 532.173,176.064 544.922,168.233 557.67,162.552 570.419,159.046 583.167,157.724 595.916,158.582 608.665,161.604 621.413,166.764 634.162,174.023 646.91,183.332 659.659,194.633 672.408,207.862 685.156,222.942 697.905,239.792 710.653,258.323 723.402,278.441 736.151,300.044 748.899,323.026 761.648,347.276 774.396,372.68 787.145,399.119 799.894,426.469 812.642,454.607 825.391,483.405 838.139,512.732 850.888,542.459 863.637,572.453 876.385,602.58 889.134,632.707 901.883,662.701 914.631,692.428 927.38,721.755 940.128,750.553 952.877,778.691 965.626,806.041 978.374,832.48 991.123,857.884 1003.87,882.134 1016.62,905.116 1029.37,926.719 1042.12,946.837 1054.87,965.368 1067.61,982.218 1080.36,997.298 1093.11,1010.53 1105.86,1021.83 1118.61,1031.14 1131.36,1038.4 1144.11,1043.56 1156.85,1046.58 1169.6,1047.44 1182.35,1046.11 1195.1,1042.61 1207.85,1036.93 1220.6,1029.1 1233.35,1019.15 1246.09,1007.15 1258.84,993.163 1271.59,977.278 1284.34,959.602 1297.09,940.265 1309.84,919.415 1322.59,897.223 1335.34,873.882 1348.08,849.611 1360.83,824.656 1373.58,799.287 1386.33,773.806 1399.08,748.542 1411.83,723.857 1424.58,700.147 1437.32,677.842 1450.07,657.41 1462.82,639.357 1475.57,624.233 1488.32,612.628 1501.07,605.181 1513.82,602.58 "/>
<polyline clip-path="url(#clip092)" style="stroke:#e26f46; stroke-linecap:round; stroke-linejoin:round; stroke-width:4; stroke-opacity:1; fill:none" points="238.955,602.58 251.704,600.069 264.452,599.976 277.201,601.959 289.949,605.701 302.698,610.914 315.447,617.334 328.195,624.719 340.944,632.851 353.692,641.53 366.441,650.575 379.19,659.823 391.938,669.127 404.687,678.355 417.435,687.389 430.184,696.125 442.933,704.471 455.681,712.346 468.43,719.681 481.179,726.416 493.927,732.5 506.676,737.893 519.424,742.559 532.173,746.473 544.922,749.616 557.67,751.974 570.419,753.541 583.167,754.315 595.916,754.3 608.665,753.502 621.413,751.934 634.162,749.613 646.91,746.557 659.659,742.79 672.408,738.336 685.156,733.225 697.905,727.487 710.653,721.154 723.402,714.262 736.151,706.848 748.899,698.949 761.648,690.605 774.396,681.858 787.145,672.75 799.894,663.323 812.642,653.621 825.391,643.69 838.139,633.575 850.888,623.32 863.637,612.973 876.385,602.58 889.134,592.187 901.883,581.84 914.631,571.585 927.38,561.47 940.128,551.539 952.877,541.837 965.626,532.41 978.374,523.302 991.123,514.555 1003.87,506.211 1016.62,498.312 1029.37,490.898 1042.12,484.006 1054.87,477.673 1067.61,471.935 1080.36,466.824 1093.11,462.37 1105.86,458.603 1118.61,455.547 1131.36,453.226 1144.11,451.658 1156.85,450.86 1169.6,450.845 1182.35,451.619 1195.1,453.186 1207.85,455.544 1220.6,458.687 1233.35,462.601 1246.09,467.267 1258.84,472.66 1271.59,478.744 1284.34,485.479 1297.09,492.814 1309.84,500.689 1322.59,509.035 1335.34,517.771 1348.08,526.805 1360.83,536.033 1373.58,545.337 1386.33,554.585 1399.08,563.63 1411.83,572.309 1424.58,580.441 1437.32,587.826 1450.07,594.246 1462.82,599.459 1475.57,603.201 1488.32,605.184 1501.07,605.091 1513.82,602.58 "/>
<path clip-path="url(#clip090)" d="M1346.74 317.989 L1507.02 317.989 L1507.02 162.469 L1346.74 162.469  Z" fill="#ffffff" fill-rule="evenodd" fill-opacity="1"/>
<polyline clip-path="url(#clip090)" style="stroke:#000000; stroke-linecap:round; stroke-linejoin:round; stroke-width:4; stroke-opacity:1; fill:none" points="1346.74,317.989 1507.02,317.989 1507.02,162.469 1346.74,162.469 1346.74,317.989 "/>
<polyline clip-path="url(#clip090)" style="stroke:#009af9; stroke-linecap:round; stroke-linejoin:round; stroke-width:4; stroke-opacity:1; fill:none" points="1361.76,214.309 1451.85,214.309 "/>
<path clip-path="url(#clip090)" d="M1491.52 205.663 L1482.14 218.279 L1492 231.589 L1486.98 231.589 L1479.43 221.404 L1471.89 231.589 L1466.86 231.589 L1476.93 218.024 L1467.72 205.663 L1472.74 205.663 L1479.62 214.899 L1486.49 205.663 L1491.52 205.663 Z" fill="#000000" fill-rule="nonzero" fill-opacity="1" /><polyline clip-path="url(#clip090)" style="stroke:#e26f46; stroke-linecap:round; stroke-linejoin:round; stroke-width:4; stroke-opacity:1; fill:none" points="1361.76,266.149 1451.85,266.149 "/>
<path clip-path="url(#clip090)" d="M1486.12 266.994 L1471.38 266.994 Q1471.72 273.915 1473.32 276.855 Q1475.31 280.466 1478.76 280.466 Q1482.23 280.466 1484.15 276.831 Q1485.84 273.637 1486.12 266.994 M1486.05 263.058 Q1485.4 256.484 1484.15 254.17 Q1482.16 250.512 1478.76 250.512 Q1475.22 250.512 1473.34 254.123 Q1471.86 257.04 1471.42 263.058 L1486.05 263.058 M1478.76 247.04 Q1484.32 247.04 1487.49 251.947 Q1490.66 256.832 1490.66 265.489 Q1490.66 274.123 1487.49 279.031 Q1484.32 283.961 1478.76 283.961 Q1473.18 283.961 1470.03 279.031 Q1466.86 274.123 1466.86 265.489 Q1466.86 256.832 1470.03 251.947 Q1473.18 247.04 1478.76 247.04 Z" fill="#000000" fill-rule="nonzero" fill-opacity="1" /><path clip-path="url(#clip090)" d="M1801.4 1074.13 L3152.76 1074.13 L3152.76 131.032 L1801.4 131.032  Z" fill="#ffffff" fill-rule="evenodd" fill-opacity="1"/>
<defs>
  <clipPath id="clip093">
    <rect x="1801" y="131" width="1352" height="944"/>
  </clipPath>
</defs>
<polyline clip-path="url(#clip093)" style="stroke:#000000; stroke-linecap:round; stroke-linejoin:round; stroke-width:2; stroke-opacity:0.1; fill:none" points="1839.65,1074.13 1839.65,131.032 "/>
<polyline clip-path="url(#clip093)" style="stroke:#000000; stroke-linecap:round; stroke-linejoin:round; stroke-width:2; stroke-opacity:0.1; fill:none" points="2158.36,1074.13 2158.36,131.032 "/>
<polyline clip-path="url(#clip093)" style="stroke:#000000; stroke-linecap:round; stroke-linejoin:round; stroke-width:2; stroke-opacity:0.1; fill:none" points="2477.08,1074.13 2477.08,131.032 "/>
<polyline clip-path="url(#clip093)" style="stroke:#000000; stroke-linecap:round; stroke-linejoin:round; stroke-width:2; stroke-opacity:0.1; fill:none" points="2795.79,1074.13 2795.79,131.032 "/>
<polyline clip-path="url(#clip093)" style="stroke:#000000; stroke-linecap:round; stroke-linejoin:round; stroke-width:2; stroke-opacity:0.1; fill:none" points="3114.51,1074.13 3114.51,131.032 "/>
<polyline clip-path="url(#clip093)" style="stroke:#000000; stroke-linecap:round; stroke-linejoin:round; stroke-width:2; stroke-opacity:0.1; fill:none" points="1801.4,930.812 3152.76,930.812 "/>
<polyline clip-path="url(#clip093)" style="stroke:#000000; stroke-linecap:round; stroke-linejoin:round; stroke-width:2; stroke-opacity:0.1; fill:none" points="1801.4,748.088 3152.76,748.088 "/>
<polyline clip-path="url(#clip093)" style="stroke:#000000; stroke-linecap:round; stroke-linejoin:round; stroke-width:2; stroke-opacity:0.1; fill:none" points="1801.4,565.365 3152.76,565.365 "/>
<polyline clip-path="url(#clip093)" style="stroke:#000000; stroke-linecap:round; stroke-linejoin:round; stroke-width:2; stroke-opacity:0.1; fill:none" points="1801.4,382.641 3152.76,382.641 "/>
<polyline clip-path="url(#clip093)" style="stroke:#000000; stroke-linecap:round; stroke-linejoin:round; stroke-width:2; stroke-opacity:0.1; fill:none" points="1801.4,199.917 3152.76,199.917 "/>
<polyline clip-path="url(#clip090)" style="stroke:#000000; stroke-linecap:round; stroke-linejoin:round; stroke-width:4; stroke-opacity:1; fill:none" points="1801.4,1074.13 3152.76,1074.13 "/>
<polyline clip-path="url(#clip090)" style="stroke:#000000; stroke-linecap:round; stroke-linejoin:round; stroke-width:4; stroke-opacity:1; fill:none" points="1839.65,1074.13 1839.65,1055.23 "/>
<polyline clip-path="url(#clip090)" style="stroke:#000000; stroke-linecap:round; stroke-linejoin:round; stroke-width:4; stroke-opacity:1; fill:none" points="2158.36,1074.13 2158.36,1055.23 "/>
<polyline clip-path="url(#clip090)" style="stroke:#000000; stroke-linecap:round; stroke-linejoin:round; stroke-width:4; stroke-opacity:1; fill:none" points="2477.08,1074.13 2477.08,1055.23 "/>
<polyline clip-path="url(#clip090)" style="stroke:#000000; stroke-linecap:round; stroke-linejoin:round; stroke-width:4; stroke-opacity:1; fill:none" points="2795.79,1074.13 2795.79,1055.23 "/>
<polyline clip-path="url(#clip090)" style="stroke:#000000; stroke-linecap:round; stroke-linejoin:round; stroke-width:4; stroke-opacity:1; fill:none" points="3114.51,1074.13 3114.51,1055.23 "/>
<path clip-path="url(#clip090)" d="M1817.03 1111.45 Q1813.42 1111.45 1811.59 1115.01 Q1809.79 1118.55 1809.79 1125.68 Q1809.79 1132.79 1811.59 1136.35 Q1813.42 1139.9 1817.03 1139.9 Q1820.67 1139.9 1822.47 1136.35 Q1824.3 1132.79 1824.3 1125.68 Q1824.3 1118.55 1822.47 1115.01 Q1820.67 1111.45 1817.03 1111.45 M1817.03 1107.74 Q1822.84 1107.74 1825.9 1112.35 Q1828.98 1116.93 1828.98 1125.68 Q1828.98 1134.41 1825.9 1139.02 Q1822.84 1143.6 1817.03 1143.6 Q1811.22 1143.6 1808.14 1139.02 Q1805.09 1134.41 1805.09 1125.68 Q1805.09 1116.93 1808.14 1112.35 Q1811.22 1107.74 1817.03 1107.74 Z" fill="#000000" fill-rule="nonzero" fill-opacity="1" /><path clip-path="url(#clip090)" d="M1837.2 1137.05 L1842.08 1137.05 L1842.08 1142.93 L1837.2 1142.93 L1837.2 1137.05 Z" fill="#000000" fill-rule="nonzero" fill-opacity="1" /><path clip-path="url(#clip090)" d="M1862.27 1111.45 Q1858.65 1111.45 1856.83 1115.01 Q1855.02 1118.55 1855.02 1125.68 Q1855.02 1132.79 1856.83 1136.35 Q1858.65 1139.9 1862.27 1139.9 Q1865.9 1139.9 1867.7 1136.35 Q1869.53 1132.79 1869.53 1125.68 Q1869.53 1118.55 1867.7 1115.01 Q1865.9 1111.45 1862.27 1111.45 M1862.27 1107.74 Q1868.08 1107.74 1871.13 1112.35 Q1874.21 1116.93 1874.21 1125.68 Q1874.21 1134.41 1871.13 1139.02 Q1868.08 1143.6 1862.27 1143.6 Q1856.45 1143.6 1853.38 1139.02 Q1850.32 1134.41 1850.32 1125.68 Q1850.32 1116.93 1853.38 1112.35 Q1856.45 1107.74 1862.27 1107.74 Z" fill="#000000" fill-rule="nonzero" fill-opacity="1" /><path clip-path="url(#clip090)" d="M2136.25 1111.45 Q2132.64 1111.45 2130.81 1115.01 Q2129 1118.55 2129 1125.68 Q2129 1132.79 2130.81 1136.35 Q2132.64 1139.9 2136.25 1139.9 Q2139.88 1139.9 2141.69 1136.35 Q2143.52 1132.79 2143.52 1125.68 Q2143.52 1118.55 2141.69 1115.01 Q2139.88 1111.45 2136.25 1111.45 M2136.25 1107.74 Q2142.06 1107.74 2145.11 1112.35 Q2148.19 1116.93 2148.19 1125.68 Q2148.19 1134.41 2145.11 1139.02 Q2142.06 1143.6 2136.25 1143.6 Q2130.44 1143.6 2127.36 1139.02 Q2124.3 1134.41 2124.3 1125.68 Q2124.3 1116.93 2127.36 1112.35 Q2130.44 1107.74 2136.25 1107.74 Z" fill="#000000" fill-rule="nonzero" fill-opacity="1" /><path clip-path="url(#clip090)" d="M2156.41 1137.05 L2161.29 1137.05 L2161.29 1142.93 L2156.41 1142.93 L2156.41 1137.05 Z" fill="#000000" fill-rule="nonzero" fill-opacity="1" /><path clip-path="url(#clip090)" d="M2171.52 1108.37 L2189.88 1108.37 L2189.88 1112.3 L2175.81 1112.3 L2175.81 1120.78 Q2176.83 1120.43 2177.84 1120.27 Q2178.86 1120.08 2179.88 1120.08 Q2185.67 1120.08 2189.05 1123.25 Q2192.43 1126.42 2192.43 1131.84 Q2192.43 1137.42 2188.95 1140.52 Q2185.48 1143.6 2179.16 1143.6 Q2176.99 1143.6 2174.72 1143.23 Q2172.47 1142.86 2170.07 1142.12 L2170.07 1137.42 Q2172.15 1138.55 2174.37 1139.11 Q2176.59 1139.66 2179.07 1139.66 Q2183.08 1139.66 2185.41 1137.56 Q2187.75 1135.45 2187.75 1131.84 Q2187.75 1128.23 2185.41 1126.12 Q2183.08 1124.02 2179.07 1124.02 Q2177.2 1124.02 2175.32 1124.43 Q2173.47 1124.85 2171.52 1125.73 L2171.52 1108.37 Z" fill="#000000" fill-rule="nonzero" fill-opacity="1" /><path clip-path="url(#clip090)" d="M2444.23 1138.99 L2451.87 1138.99 L2451.87 1112.63 L2443.56 1114.29 L2443.56 1110.03 L2451.83 1108.37 L2456.5 1108.37 L2456.5 1138.99 L2464.14 1138.99 L2464.14 1142.93 L2444.23 1142.93 L2444.23 1138.99 Z" fill="#000000" fill-rule="nonzero" fill-opacity="1" /><path clip-path="url(#clip090)" d="M2473.58 1137.05 L2478.47 1137.05 L2478.47 1142.93 L2473.58 1142.93 L2473.58 1137.05 Z" fill="#000000" fill-rule="nonzero" fill-opacity="1" /><path clip-path="url(#clip090)" d="M2498.65 1111.45 Q2495.04 1111.45 2493.21 1115.01 Q2491.41 1118.55 2491.41 1125.68 Q2491.41 1132.79 2493.21 1136.35 Q2495.04 1139.9 2498.65 1139.9 Q2502.29 1139.9 2504.09 1136.35 Q2505.92 1132.79 2505.92 1125.68 Q2505.92 1118.55 2504.09 1115.01 Q2502.29 1111.45 2498.65 1111.45 M2498.65 1107.74 Q2504.46 1107.74 2507.52 1112.35 Q2510.6 1116.93 2510.6 1125.68 Q2510.6 1134.41 2507.52 1139.02 Q2504.46 1143.6 2498.65 1143.6 Q2492.84 1143.6 2489.76 1139.02 Q2486.71 1134.41 2486.71 1125.68 Q2486.71 1116.93 2489.76 1112.35 Q2492.84 1107.74 2498.65 1107.74 Z" fill="#000000" fill-rule="nonzero" fill-opacity="1" /><path clip-path="url(#clip090)" d="M2763.45 1138.99 L2771.08 1138.99 L2771.08 1112.63 L2762.77 1114.29 L2762.77 1110.03 L2771.04 1108.37 L2775.71 1108.37 L2775.71 1138.99 L2783.35 1138.99 L2783.35 1142.93 L2763.45 1142.93 L2763.45 1138.99 Z" fill="#000000" fill-rule="nonzero" fill-opacity="1" /><path clip-path="url(#clip090)" d="M2792.8 1137.05 L2797.68 1137.05 L2797.68 1142.93 L2792.8 1142.93 L2792.8 1137.05 Z" fill="#000000" fill-rule="nonzero" fill-opacity="1" /><path clip-path="url(#clip090)" d="M2807.91 1108.37 L2826.27 1108.37 L2826.27 1112.3 L2812.2 1112.3 L2812.2 1120.78 Q2813.21 1120.43 2814.23 1120.27 Q2815.25 1120.08 2816.27 1120.08 Q2822.06 1120.08 2825.44 1123.25 Q2828.82 1126.42 2828.82 1131.84 Q2828.82 1137.42 2825.34 1140.52 Q2821.87 1143.6 2815.55 1143.6 Q2813.38 1143.6 2811.11 1143.23 Q2808.86 1142.86 2806.45 1142.12 L2806.45 1137.42 Q2808.54 1138.55 2810.76 1139.11 Q2812.98 1139.66 2815.46 1139.66 Q2819.46 1139.66 2821.8 1137.56 Q2824.14 1135.45 2824.14 1131.84 Q2824.14 1128.23 2821.8 1126.12 Q2819.46 1124.02 2815.46 1124.02 Q2813.58 1124.02 2811.71 1124.43 Q2809.86 1124.85 2807.91 1125.73 L2807.91 1108.37 Z" fill="#000000" fill-rule="nonzero" fill-opacity="1" /><path clip-path="url(#clip090)" d="M3085.75 1138.99 L3102.07 1138.99 L3102.07 1142.93 L3080.12 1142.93 L3080.12 1138.99 Q3082.79 1136.24 3087.37 1131.61 Q3091.98 1126.96 3093.16 1125.61 Q3095.4 1123.09 3096.28 1121.35 Q3097.18 1119.59 3097.18 1117.9 Q3097.18 1115.15 3095.24 1113.41 Q3093.32 1111.68 3090.22 1111.68 Q3088.02 1111.68 3085.56 1112.44 Q3083.13 1113.21 3080.36 1114.76 L3080.36 1110.03 Q3083.18 1108.9 3085.63 1108.32 Q3088.09 1107.74 3090.12 1107.74 Q3095.49 1107.74 3098.69 1110.43 Q3101.88 1113.11 3101.88 1117.6 Q3101.88 1119.73 3101.07 1121.65 Q3100.29 1123.55 3098.18 1126.15 Q3097.6 1126.82 3094.5 1130.03 Q3091.4 1133.23 3085.75 1138.99 Z" fill="#000000" fill-rule="nonzero" fill-opacity="1" /><path clip-path="url(#clip090)" d="M3111.88 1137.05 L3116.77 1137.05 L3116.77 1142.93 L3111.88 1142.93 L3111.88 1137.05 Z" fill="#000000" fill-rule="nonzero" fill-opacity="1" /><path clip-path="url(#clip090)" d="M3136.95 1111.45 Q3133.34 1111.45 3131.51 1115.01 Q3129.71 1118.55 3129.71 1125.68 Q3129.71 1132.79 3131.51 1136.35 Q3133.34 1139.9 3136.95 1139.9 Q3140.59 1139.9 3142.39 1136.35 Q3144.22 1132.79 3144.22 1125.68 Q3144.22 1118.55 3142.39 1115.01 Q3140.59 1111.45 3136.95 1111.45 M3136.95 1107.74 Q3142.76 1107.74 3145.82 1112.35 Q3148.9 1116.93 3148.9 1125.68 Q3148.9 1134.41 3145.82 1139.02 Q3142.76 1143.6 3136.95 1143.6 Q3131.14 1143.6 3128.06 1139.02 Q3125.01 1134.41 3125.01 1125.68 Q3125.01 1116.93 3128.06 1112.35 Q3131.14 1107.74 3136.95 1107.74 Z" fill="#000000" fill-rule="nonzero" fill-opacity="1" /><polyline clip-path="url(#clip090)" style="stroke:#000000; stroke-linecap:round; stroke-linejoin:round; stroke-width:4; stroke-opacity:1; fill:none" points="1801.4,1074.13 1801.4,131.032 "/>
<polyline clip-path="url(#clip090)" style="stroke:#000000; stroke-linecap:round; stroke-linejoin:round; stroke-width:4; stroke-opacity:1; fill:none" points="1801.4,930.812 1820.3,930.812 "/>
<polyline clip-path="url(#clip090)" style="stroke:#000000; stroke-linecap:round; stroke-linejoin:round; stroke-width:4; stroke-opacity:1; fill:none" points="1801.4,748.088 1820.3,748.088 "/>
<polyline clip-path="url(#clip090)" style="stroke:#000000; stroke-linecap:round; stroke-linejoin:round; stroke-width:4; stroke-opacity:1; fill:none" points="1801.4,565.365 1820.3,565.365 "/>
<polyline clip-path="url(#clip090)" style="stroke:#000000; stroke-linecap:round; stroke-linejoin:round; stroke-width:4; stroke-opacity:1; fill:none" points="1801.4,382.641 1820.3,382.641 "/>
<polyline clip-path="url(#clip090)" style="stroke:#000000; stroke-linecap:round; stroke-linejoin:round; stroke-width:4; stroke-opacity:1; fill:none" points="1801.4,199.917 1820.3,199.917 "/>
<path clip-path="url(#clip090)" d="M1646.3 931.264 L1675.97 931.264 L1675.97 935.199 L1646.3 935.199 L1646.3 931.264 Z" fill="#000000" fill-rule="nonzero" fill-opacity="1" /><path clip-path="url(#clip090)" d="M1696.07 916.611 Q1692.45 916.611 1690.63 920.176 Q1688.82 923.717 1688.82 930.847 Q1688.82 937.953 1690.63 941.518 Q1692.45 945.06 1696.07 945.06 Q1699.7 945.06 1701.51 941.518 Q1703.33 937.953 1703.33 930.847 Q1703.33 923.717 1701.51 920.176 Q1699.7 916.611 1696.07 916.611 M1696.07 912.907 Q1701.88 912.907 1704.93 917.514 Q1708.01 922.097 1708.01 930.847 Q1708.01 939.574 1704.93 944.18 Q1701.88 948.764 1696.07 948.764 Q1690.26 948.764 1687.18 944.18 Q1684.12 939.574 1684.12 930.847 Q1684.12 922.097 1687.18 917.514 Q1690.26 912.907 1696.07 912.907 Z" fill="#000000" fill-rule="nonzero" fill-opacity="1" /><path clip-path="url(#clip090)" d="M1716.23 942.213 L1721.11 942.213 L1721.11 948.092 L1716.23 948.092 L1716.23 942.213 Z" fill="#000000" fill-rule="nonzero" fill-opacity="1" /><path clip-path="url(#clip090)" d="M1741.88 928.949 Q1738.73 928.949 1736.88 931.102 Q1735.05 933.254 1735.05 937.004 Q1735.05 940.731 1736.88 942.907 Q1738.73 945.06 1741.88 945.06 Q1745.02 945.06 1746.85 942.907 Q1748.7 940.731 1748.7 937.004 Q1748.7 933.254 1746.85 931.102 Q1745.02 928.949 1741.88 928.949 M1751.16 914.296 L1751.16 918.555 Q1749.4 917.722 1747.59 917.282 Q1745.81 916.842 1744.05 916.842 Q1739.42 916.842 1736.97 919.967 Q1734.54 923.092 1734.19 929.412 Q1735.56 927.398 1737.62 926.333 Q1739.68 925.245 1742.15 925.245 Q1747.36 925.245 1750.37 928.416 Q1753.4 931.565 1753.4 937.004 Q1753.4 942.328 1750.26 945.546 Q1747.11 948.764 1741.88 948.764 Q1735.88 948.764 1732.71 944.18 Q1729.54 939.574 1729.54 930.847 Q1729.54 922.653 1733.43 917.791 Q1737.32 912.907 1743.87 912.907 Q1745.63 912.907 1747.41 913.254 Q1749.21 913.602 1751.16 914.296 Z" fill="#000000" fill-rule="nonzero" fill-opacity="1" /><path clip-path="url(#clip090)" d="M1647.11 748.54 L1676.78 748.54 L1676.78 752.475 L1647.11 752.475 L1647.11 748.54 Z" fill="#000000" fill-rule="nonzero" fill-opacity="1" /><path clip-path="url(#clip090)" d="M1696.88 733.887 Q1693.27 733.887 1691.44 737.452 Q1689.63 740.994 1689.63 748.123 Q1689.63 755.23 1691.44 758.794 Q1693.27 762.336 1696.88 762.336 Q1700.51 762.336 1702.32 758.794 Q1704.14 755.23 1704.14 748.123 Q1704.14 740.994 1702.32 737.452 Q1700.51 733.887 1696.88 733.887 M1696.88 730.183 Q1702.69 730.183 1705.74 734.79 Q1708.82 739.373 1708.82 748.123 Q1708.82 756.85 1705.74 761.456 Q1702.69 766.04 1696.88 766.04 Q1691.07 766.04 1687.99 761.456 Q1684.93 756.85 1684.93 748.123 Q1684.93 739.373 1687.99 734.79 Q1691.07 730.183 1696.88 730.183 Z" fill="#000000" fill-rule="nonzero" fill-opacity="1" /><path clip-path="url(#clip090)" d="M1717.04 759.489 L1721.92 759.489 L1721.92 765.368 L1717.04 765.368 L1717.04 759.489 Z" fill="#000000" fill-rule="nonzero" fill-opacity="1" /><path clip-path="url(#clip090)" d="M1746.27 746.734 Q1749.63 747.452 1751.51 749.72 Q1753.4 751.989 1753.4 755.322 Q1753.4 760.438 1749.89 763.239 Q1746.37 766.04 1739.89 766.04 Q1737.71 766.04 1735.39 765.6 Q1733.1 765.183 1730.65 764.327 L1730.65 759.813 Q1732.59 760.947 1734.91 761.526 Q1737.22 762.105 1739.75 762.105 Q1744.14 762.105 1746.44 760.368 Q1748.75 758.632 1748.75 755.322 Q1748.75 752.267 1746.6 750.554 Q1744.47 748.818 1740.65 748.818 L1736.62 748.818 L1736.62 744.975 L1740.83 744.975 Q1744.28 744.975 1746.11 743.609 Q1747.94 742.22 1747.94 739.628 Q1747.94 736.966 1746.04 735.554 Q1744.17 734.119 1740.65 734.119 Q1738.73 734.119 1736.53 734.535 Q1734.33 734.952 1731.69 735.832 L1731.69 731.665 Q1734.35 730.924 1736.67 730.554 Q1739.01 730.183 1741.07 730.183 Q1746.39 730.183 1749.49 732.614 Q1752.59 735.021 1752.59 739.142 Q1752.59 742.012 1750.95 744.003 Q1749.31 745.97 1746.27 746.734 Z" fill="#000000" fill-rule="nonzero" fill-opacity="1" /><path clip-path="url(#clip090)" d="M1696.23 551.163 Q1692.62 551.163 1690.79 554.728 Q1688.98 558.27 1688.98 565.399 Q1688.98 572.506 1690.79 576.071 Q1692.62 579.612 1696.23 579.612 Q1699.86 579.612 1701.67 576.071 Q1703.5 572.506 1703.5 565.399 Q1703.5 558.27 1701.67 554.728 Q1699.86 551.163 1696.23 551.163 M1696.23 547.46 Q1702.04 547.46 1705.09 552.066 Q1708.17 556.649 1708.17 565.399 Q1708.17 574.126 1705.09 578.733 Q1702.04 583.316 1696.23 583.316 Q1690.42 583.316 1687.34 578.733 Q1684.28 574.126 1684.28 565.399 Q1684.28 556.649 1687.34 552.066 Q1690.42 547.46 1696.23 547.46 Z" fill="#000000" fill-rule="nonzero" fill-opacity="1" /><path clip-path="url(#clip090)" d="M1716.39 576.765 L1721.27 576.765 L1721.27 582.645 L1716.39 582.645 L1716.39 576.765 Z" fill="#000000" fill-rule="nonzero" fill-opacity="1" /><path clip-path="url(#clip090)" d="M1741.46 551.163 Q1737.85 551.163 1736.02 554.728 Q1734.21 558.27 1734.21 565.399 Q1734.21 572.506 1736.02 576.071 Q1737.85 579.612 1741.46 579.612 Q1745.09 579.612 1746.9 576.071 Q1748.73 572.506 1748.73 565.399 Q1748.73 558.27 1746.9 554.728 Q1745.09 551.163 1741.46 551.163 M1741.46 547.46 Q1747.27 547.46 1750.32 552.066 Q1753.4 556.649 1753.4 565.399 Q1753.4 574.126 1750.32 578.733 Q1747.27 583.316 1741.46 583.316 Q1735.65 583.316 1732.57 578.733 Q1729.51 574.126 1729.51 565.399 Q1729.51 556.649 1732.57 552.066 Q1735.65 547.46 1741.46 547.46 Z" fill="#000000" fill-rule="nonzero" fill-opacity="1" /><path clip-path="url(#clip090)" d="M1696.88 368.44 Q1693.27 368.44 1691.44 372.004 Q1689.63 375.546 1689.63 382.676 Q1689.63 389.782 1691.44 393.347 Q1693.27 396.888 1696.88 396.888 Q1700.51 396.888 1702.32 393.347 Q1704.14 389.782 1704.14 382.676 Q1704.14 375.546 1702.32 372.004 Q1700.51 368.44 1696.88 368.44 M1696.88 364.736 Q1702.69 364.736 1705.74 369.342 Q1708.82 373.926 1708.82 382.676 Q1708.82 391.402 1705.74 396.009 Q1702.69 400.592 1696.88 400.592 Q1691.07 400.592 1687.99 396.009 Q1684.93 391.402 1684.93 382.676 Q1684.93 373.926 1687.99 369.342 Q1691.07 364.736 1696.88 364.736 Z" fill="#000000" fill-rule="nonzero" fill-opacity="1" /><path clip-path="url(#clip090)" d="M1717.04 394.041 L1721.92 394.041 L1721.92 399.921 L1717.04 399.921 L1717.04 394.041 Z" fill="#000000" fill-rule="nonzero" fill-opacity="1" /><path clip-path="url(#clip090)" d="M1746.27 381.287 Q1749.63 382.004 1751.51 384.273 Q1753.4 386.541 1753.4 389.875 Q1753.4 394.99 1749.89 397.791 Q1746.37 400.592 1739.89 400.592 Q1737.71 400.592 1735.39 400.152 Q1733.1 399.736 1730.65 398.879 L1730.65 394.365 Q1732.59 395.5 1734.91 396.078 Q1737.22 396.657 1739.75 396.657 Q1744.14 396.657 1746.44 394.921 Q1748.75 393.185 1748.75 389.875 Q1748.75 386.819 1746.6 385.106 Q1744.47 383.37 1740.65 383.37 L1736.62 383.37 L1736.62 379.527 L1740.83 379.527 Q1744.28 379.527 1746.11 378.162 Q1747.94 376.773 1747.94 374.18 Q1747.94 371.518 1746.04 370.106 Q1744.17 368.671 1740.65 368.671 Q1738.73 368.671 1736.53 369.088 Q1734.33 369.504 1731.69 370.384 L1731.69 366.217 Q1734.35 365.477 1736.67 365.106 Q1739.01 364.736 1741.07 364.736 Q1746.39 364.736 1749.49 367.166 Q1752.59 369.574 1752.59 373.694 Q1752.59 376.564 1750.95 378.555 Q1749.31 380.523 1746.27 381.287 Z" fill="#000000" fill-rule="nonzero" fill-opacity="1" /><path clip-path="url(#clip090)" d="M1696.07 185.716 Q1692.45 185.716 1690.63 189.281 Q1688.82 192.822 1688.82 199.952 Q1688.82 207.058 1690.63 210.623 Q1692.45 214.165 1696.07 214.165 Q1699.7 214.165 1701.51 210.623 Q1703.33 207.058 1703.33 199.952 Q1703.33 192.822 1701.51 189.281 Q1699.7 185.716 1696.07 185.716 M1696.07 182.012 Q1701.88 182.012 1704.93 186.619 Q1708.01 191.202 1708.01 199.952 Q1708.01 208.679 1704.93 213.285 Q1701.88 217.868 1696.07 217.868 Q1690.26 217.868 1687.18 213.285 Q1684.12 208.679 1684.12 199.952 Q1684.12 191.202 1687.18 186.619 Q1690.26 182.012 1696.07 182.012 Z" fill="#000000" fill-rule="nonzero" fill-opacity="1" /><path clip-path="url(#clip090)" d="M1716.23 211.317 L1721.11 211.317 L1721.11 217.197 L1716.23 217.197 L1716.23 211.317 Z" fill="#000000" fill-rule="nonzero" fill-opacity="1" /><path clip-path="url(#clip090)" d="M1741.88 198.054 Q1738.73 198.054 1736.88 200.206 Q1735.05 202.359 1735.05 206.109 Q1735.05 209.836 1736.88 212.012 Q1738.73 214.165 1741.88 214.165 Q1745.02 214.165 1746.85 212.012 Q1748.7 209.836 1748.7 206.109 Q1748.7 202.359 1746.85 200.206 Q1745.02 198.054 1741.88 198.054 M1751.16 183.401 L1751.16 187.66 Q1749.4 186.827 1747.59 186.387 Q1745.81 185.947 1744.05 185.947 Q1739.42 185.947 1736.97 189.072 Q1734.54 192.197 1734.19 198.517 Q1735.56 196.503 1737.62 195.438 Q1739.68 194.35 1742.15 194.35 Q1747.36 194.35 1750.37 197.521 Q1753.4 200.669 1753.4 206.109 Q1753.4 211.433 1750.26 214.651 Q1747.11 217.868 1741.88 217.868 Q1735.88 217.868 1732.71 213.285 Q1729.54 208.679 1729.54 199.952 Q1729.54 191.757 1733.43 186.896 Q1737.32 182.012 1743.87 182.012 Q1745.63 182.012 1747.41 182.359 Q1749.21 182.706 1751.16 183.401 Z" fill="#000000" fill-rule="nonzero" fill-opacity="1" /><path clip-path="url(#clip090)" d="M2305.69 72.576 L2282.6 12.096 L2291.14 12.096 L2310.3 63.0159 L2329.51 12.096 L2338.01 12.096 L2314.96 72.576 L2305.69 72.576 Z" fill="#000000" fill-rule="nonzero" fill-opacity="1" /><path clip-path="url(#clip090)" d="M2378.89 48.0275 L2378.89 51.6733 L2344.62 51.6733 Q2345.1 59.3701 2349.23 63.421 Q2353.41 67.4314 2360.82 67.4314 Q2365.11 67.4314 2369.12 66.3781 Q2373.17 65.3249 2377.14 63.2184 L2377.14 70.267 Q2373.13 71.9684 2368.92 72.8596 Q2364.71 73.7508 2360.37 73.7508 Q2349.52 73.7508 2343.16 67.4314 Q2336.84 61.1119 2336.84 50.3365 Q2336.84 39.1965 2342.83 32.6746 Q2348.87 26.1121 2359.08 26.1121 Q2368.23 26.1121 2373.54 32.0264 Q2378.89 37.9003 2378.89 48.0275 M2371.43 45.84 Q2371.35 39.7232 2367.99 36.0774 Q2364.67 32.4315 2359.16 32.4315 Q2352.92 32.4315 2349.15 35.9558 Q2345.43 39.4801 2344.86 45.8805 L2371.43 45.84 Z" fill="#000000" fill-rule="nonzero" fill-opacity="1" /><path clip-path="url(#clip090)" d="M2391.12 9.54393 L2398.57 9.54393 L2398.57 72.576 L2391.12 72.576 L2391.12 9.54393 Z" fill="#000000" fill-rule="nonzero" fill-opacity="1" /><path clip-path="url(#clip090)" d="M2431.75 32.4315 Q2425.75 32.4315 2422.27 37.1306 Q2418.79 41.7891 2418.79 49.9314 Q2418.79 58.0738 2422.23 62.7728 Q2425.71 67.4314 2431.75 67.4314 Q2437.7 67.4314 2441.19 62.7323 Q2444.67 58.0333 2444.67 49.9314 Q2444.67 41.8701 2441.19 37.1711 Q2437.7 32.4315 2431.75 32.4315 M2431.75 26.1121 Q2441.47 26.1121 2447.02 32.4315 Q2452.57 38.7509 2452.57 49.9314 Q2452.57 61.0714 2447.02 67.4314 Q2441.47 73.7508 2431.75 73.7508 Q2421.99 73.7508 2416.44 67.4314 Q2410.93 61.0714 2410.93 49.9314 Q2410.93 38.7509 2416.44 32.4315 Q2421.99 26.1121 2431.75 26.1121 Z" fill="#000000" fill-rule="nonzero" fill-opacity="1" /><path clip-path="url(#clip090)" d="M2497.58 28.9478 L2497.58 35.9153 Q2494.42 34.1734 2491.22 33.3227 Q2488.06 32.4315 2484.82 32.4315 Q2477.57 32.4315 2473.56 37.0496 Q2469.55 41.6271 2469.55 49.9314 Q2469.55 58.2358 2473.56 62.8538 Q2477.57 67.4314 2484.82 67.4314 Q2488.06 67.4314 2491.22 66.5807 Q2494.42 65.6895 2497.58 63.9476 L2497.58 70.8341 Q2494.46 72.2924 2491.1 73.0216 Q2487.77 73.7508 2484.01 73.7508 Q2473.76 73.7508 2467.72 67.3098 Q2461.69 60.8689 2461.69 49.9314 Q2461.69 38.832 2467.76 32.472 Q2473.88 26.1121 2484.49 26.1121 Q2487.94 26.1121 2491.22 26.8413 Q2494.5 27.5299 2497.58 28.9478 Z" fill="#000000" fill-rule="nonzero" fill-opacity="1" /><path clip-path="url(#clip090)" d="M2510.54 27.2059 L2517.99 27.2059 L2517.99 72.576 L2510.54 72.576 L2510.54 27.2059 M2510.54 9.54393 L2517.99 9.54393 L2517.99 18.9825 L2510.54 18.9825 L2510.54 9.54393 Z" fill="#000000" fill-rule="nonzero" fill-opacity="1" /><path clip-path="url(#clip090)" d="M2540.96 14.324 L2540.96 27.2059 L2556.32 27.2059 L2556.32 32.9987 L2540.96 32.9987 L2540.96 57.6282 Q2540.96 63.1779 2542.46 64.7578 Q2544 66.3376 2548.66 66.3376 L2556.32 66.3376 L2556.32 72.576 L2548.66 72.576 Q2540.03 72.576 2536.75 69.3758 Q2533.47 66.1351 2533.47 57.6282 L2533.47 32.9987 L2528 32.9987 L2528 27.2059 L2533.47 27.2059 L2533.47 14.324 L2540.96 14.324 Z" fill="#000000" fill-rule="nonzero" fill-opacity="1" /><path clip-path="url(#clip090)" d="M2566.12 27.2059 L2573.57 27.2059 L2573.57 72.576 L2566.12 72.576 L2566.12 27.2059 M2566.12 9.54393 L2573.57 9.54393 L2573.57 18.9825 L2566.12 18.9825 L2566.12 9.54393 Z" fill="#000000" fill-rule="nonzero" fill-opacity="1" /><path clip-path="url(#clip090)" d="M2627.98 48.0275 L2627.98 51.6733 L2593.71 51.6733 Q2594.19 59.3701 2598.32 63.421 Q2602.5 67.4314 2609.91 67.4314 Q2614.2 67.4314 2618.21 66.3781 Q2622.26 65.3249 2626.23 63.2184 L2626.23 70.267 Q2622.22 71.9684 2618.01 72.8596 Q2613.8 73.7508 2609.46 73.7508 Q2598.61 73.7508 2592.25 67.4314 Q2585.93 61.1119 2585.93 50.3365 Q2585.93 39.1965 2591.92 32.6746 Q2597.96 26.1121 2608.17 26.1121 Q2617.32 26.1121 2622.63 32.0264 Q2627.98 37.9003 2627.98 48.0275 M2620.52 45.84 Q2620.44 39.7232 2617.08 36.0774 Q2613.76 32.4315 2608.25 32.4315 Q2602.01 32.4315 2598.24 35.9558 Q2594.52 39.4801 2593.95 45.8805 L2620.52 45.84 Z" fill="#000000" fill-rule="nonzero" fill-opacity="1" /><path clip-path="url(#clip090)" d="M2669.13 28.5427 L2669.13 35.5912 Q2665.97 33.9709 2662.57 33.1607 Q2659.17 32.3505 2655.52 32.3505 Q2649.97 32.3505 2647.18 34.0519 Q2644.42 35.7533 2644.42 39.156 Q2644.42 41.7486 2646.41 43.2475 Q2648.39 44.7058 2654.39 46.0426 L2656.94 46.6097 Q2664.88 48.3111 2668.2 51.4303 Q2671.56 54.509 2671.56 60.0587 Q2671.56 66.3781 2666.54 70.0644 Q2661.56 73.7508 2652.81 73.7508 Q2649.16 73.7508 2645.19 73.0216 Q2641.26 72.3329 2636.89 70.9151 L2636.89 63.2184 Q2641.02 65.3654 2645.03 66.4591 Q2649.04 67.5124 2652.97 67.5124 Q2658.24 67.5124 2661.07 65.73 Q2663.91 63.9071 2663.91 60.6258 Q2663.91 57.5877 2661.84 55.9673 Q2659.82 54.3469 2652.89 52.8481 L2650.3 52.2405 Q2643.37 50.7821 2640.29 47.7845 Q2637.21 44.7463 2637.21 39.4801 Q2637.21 33.0797 2641.75 29.5959 Q2646.29 26.1121 2654.63 26.1121 Q2658.76 26.1121 2662.41 26.7198 Q2666.05 27.3274 2669.13 28.5427 Z" fill="#000000" fill-rule="nonzero" fill-opacity="1" /><polyline clip-path="url(#clip093)" style="stroke:#009af9; stroke-linecap:round; stroke-linejoin:round; stroke-width:4; stroke-opacity:1; fill:none" points="1839.65,565.365 1852.4,482.219 1865.15,410.463 1877.9,349.292 1890.64,297.945 1903.39,255.7 1916.14,221.877 1928.89,195.832 1941.64,176.956 1954.39,164.672 1967.14,158.435 1979.88,157.724 1992.63,162.046 2005.38,170.935 2018.13,183.943 2030.88,200.648 2043.63,220.648 2056.38,243.561 2069.12,269.022 2081.87,296.688 2094.62,326.233 2107.37,357.346 2120.12,389.736 2132.87,423.126 2145.62,457.255 2158.36,491.878 2171.11,526.764 2183.86,561.694 2196.61,596.466 2209.36,630.888 2222.11,664.782 2234.86,697.981 2247.6,730.331 2260.35,761.686 2273.1,791.912 2285.85,820.886 2298.6,848.494 2311.35,874.63 2324.1,899.198 2336.85,922.111 2349.59,943.288 2362.34,962.657 2375.09,980.156 2387.84,995.727 2400.59,1009.32 2413.34,1020.89 2426.09,1030.41 2438.83,1037.84 2451.58,1043.17 2464.33,1046.37 2477.08,1047.44 2489.83,1046.37 2502.58,1043.17 2515.33,1037.84 2528.07,1030.41 2540.82,1020.89 2553.57,1009.32 2566.32,995.727 2579.07,980.156 2591.82,962.657 2604.57,943.288 2617.31,922.111 2630.06,899.198 2642.81,874.63 2655.56,848.494 2668.31,820.886 2681.06,791.912 2693.81,761.686 2706.55,730.331 2719.3,697.981 2732.05,664.782 2744.8,630.888 2757.55,596.466 2770.3,561.694 2783.05,526.764 2795.79,491.878 2808.54,457.255 2821.29,423.126 2834.04,389.736 2846.79,357.346 2859.54,326.233 2872.29,296.688 2885.04,269.022 2897.78,243.561 2910.53,220.648 2923.28,200.648 2936.03,183.943 2948.78,170.935 2961.53,162.046 2974.28,157.724 2987.02,158.435 2999.77,164.672 3012.52,176.956 3025.27,195.832 3038.02,221.877 3050.77,255.7 3063.52,297.945 3076.26,349.292 3089.01,410.463 3101.76,482.219 3114.51,565.365 "/>
<polyline clip-path="url(#clip093)" style="stroke:#e26f46; stroke-linecap:round; stroke-linejoin:round; stroke-width:4; stroke-opacity:1; fill:none" points="1839.65,504.457 1852.4,545.99 1865.15,581.788 1877.9,612.323 1890.64,638.036 1903.39,659.338 1916.14,676.611 1928.89,690.211 1941.64,700.47 1954.39,707.696 1967.14,712.177 1979.88,714.183 1992.63,713.963 2005.38,711.753 2018.13,707.772 2030.88,702.224 2043.63,695.3 2056.38,687.179 2069.12,678.026 2081.87,667.996 2094.62,657.232 2107.37,645.868 2120.12,634.028 2132.87,621.827 2145.62,609.369 2158.36,596.753 2171.11,584.069 2183.86,571.4 2196.61,558.823 2209.36,546.406 2222.11,534.215 2234.86,522.308 2247.6,510.739 2260.35,499.558 2273.1,488.807 2285.85,478.529 2298.6,468.76 2311.35,459.534 2324.1,450.881 2336.85,442.827 2349.59,435.398 2362.34,428.614 2375.09,422.496 2387.84,417.059 2400.59,412.319 2413.34,408.287 2426.09,404.975 2438.83,402.39 2451.58,400.539 2464.33,399.427 2477.08,399.056 2489.83,399.427 2502.58,400.539 2515.33,402.39 2528.07,404.975 2540.82,408.287 2553.57,412.319 2566.32,417.059 2579.07,422.496 2591.82,428.614 2604.57,435.398 2617.31,442.827 2630.06,450.881 2642.81,459.534 2655.56,468.76 2668.31,478.529 2681.06,488.807 2693.81,499.558 2706.55,510.739 2719.3,522.308 2732.05,534.215 2744.8,546.406 2757.55,558.823 2770.3,571.4 2783.05,584.069 2795.79,596.753 2808.54,609.369 2821.29,621.827 2834.04,634.028 2846.79,645.868 2859.54,657.232 2872.29,667.996 2885.04,678.026 2897.78,687.179 2910.53,695.3 2923.28,702.224 2936.03,707.772 2948.78,711.753 2961.53,713.963 2974.28,714.183 2987.02,712.177 2999.77,707.696 3012.52,700.47 3025.27,690.211 3038.02,676.611 3050.77,659.338 3063.52,638.036 3076.26,612.323 3089.01,581.788 3101.76,545.99 3114.51,504.457 "/>
<path clip-path="url(#clip090)" d="M2939.24 1042.69 L3107.71 1042.69 L3107.71 887.171 L2939.24 887.171  Z" fill="#ffffff" fill-rule="evenodd" fill-opacity="1"/>
<polyline clip-path="url(#clip090)" style="stroke:#000000; stroke-linecap:round; stroke-linejoin:round; stroke-width:4; stroke-opacity:1; fill:none" points="2939.24,1042.69 3107.71,1042.69 3107.71,887.171 2939.24,887.171 2939.24,1042.69 "/>
<polyline clip-path="url(#clip090)" style="stroke:#009af9; stroke-linecap:round; stroke-linejoin:round; stroke-width:4; stroke-opacity:1; fill:none" points="2954.26,939.011 3044.35,939.011 "/>
<path clip-path="url(#clip090)" d="M3059.36 930.366 L3063.88 930.366 L3071.98 952.125 L3080.08 930.366 L3084.59 930.366 L3074.87 956.291 L3069.08 956.291 L3059.36 930.366 Z" fill="#000000" fill-rule="nonzero" fill-opacity="1" /><polyline clip-path="url(#clip090)" style="stroke:#e26f46; stroke-linecap:round; stroke-linejoin:round; stroke-width:4; stroke-opacity:1; fill:none" points="2954.26,990.851 3044.35,990.851 "/>
<path clip-path="url(#clip090)" d="M3068.97 1008.8 Q3059.36 1008.8 3059.36 995.053 Q3059.36 989.613 3062.95 982.206 L3067.53 982.206 Q3064.22 989.613 3064.22 995.168 Q3064.22 1005.19 3069.36 1005.19 Q3074.06 1005.19 3074.06 992.738 L3078 992.738 Q3078 1005.19 3082.7 1005.19 Q3087.83 1005.19 3087.83 995.168 Q3087.83 989.613 3084.52 982.206 L3089.11 982.206 Q3092.7 989.613 3092.7 995.053 Q3092.7 1008.8 3083.09 1008.8 Q3076.79 1008.8 3076.03 1001.88 Q3075.08 1008.8 3068.97 1008.8 Z" fill="#000000" fill-rule="nonzero" fill-opacity="1" /><path clip-path="url(#clip090)" d="M200.709 2274.13 L1552.06 2274.13 L1552.06 1331.03 L200.709 1331.03  Z" fill="#ffffff" fill-rule="evenodd" fill-opacity="1"/>
<polyline clip-path="url(#clip091)" style="stroke:#000000; stroke-linecap:round; stroke-linejoin:round; stroke-width:2; stroke-opacity:0.1; fill:none" points="238.955,2274.13 238.955,1331.03 "/>
<polyline clip-path="url(#clip091)" style="stroke:#000000; stroke-linecap:round; stroke-linejoin:round; stroke-width:2; stroke-opacity:0.1; fill:none" points="557.67,2274.13 557.67,1331.03 "/>
<polyline clip-path="url(#clip091)" style="stroke:#000000; stroke-linecap:round; stroke-linejoin:round; stroke-width:2; stroke-opacity:0.1; fill:none" points="876.385,2274.13 876.385,1331.03 "/>
<polyline clip-path="url(#clip091)" style="stroke:#000000; stroke-linecap:round; stroke-linejoin:round; stroke-width:2; stroke-opacity:0.1; fill:none" points="1195.1,2274.13 1195.1,1331.03 "/>
<polyline clip-path="url(#clip091)" style="stroke:#000000; stroke-linecap:round; stroke-linejoin:round; stroke-width:2; stroke-opacity:0.1; fill:none" points="1513.82,2274.13 1513.82,1331.03 "/>
<polyline clip-path="url(#clip091)" style="stroke:#000000; stroke-linecap:round; stroke-linejoin:round; stroke-width:2; stroke-opacity:0.1; fill:none" points="200.709,2193.56 1552.06,2193.56 "/>
<polyline clip-path="url(#clip091)" style="stroke:#000000; stroke-linecap:round; stroke-linejoin:round; stroke-width:2; stroke-opacity:0.1; fill:none" points="200.709,2063.23 1552.06,2063.23 "/>
<polyline clip-path="url(#clip091)" style="stroke:#000000; stroke-linecap:round; stroke-linejoin:round; stroke-width:2; stroke-opacity:0.1; fill:none" points="200.709,1932.91 1552.06,1932.91 "/>
<polyline clip-path="url(#clip091)" style="stroke:#000000; stroke-linecap:round; stroke-linejoin:round; stroke-width:2; stroke-opacity:0.1; fill:none" points="200.709,1802.58 1552.06,1802.58 "/>
<polyline clip-path="url(#clip091)" style="stroke:#000000; stroke-linecap:round; stroke-linejoin:round; stroke-width:2; stroke-opacity:0.1; fill:none" points="200.709,1672.25 1552.06,1672.25 "/>
<polyline clip-path="url(#clip091)" style="stroke:#000000; stroke-linecap:round; stroke-linejoin:round; stroke-width:2; stroke-opacity:0.1; fill:none" points="200.709,1541.93 1552.06,1541.93 "/>
<polyline clip-path="url(#clip091)" style="stroke:#000000; stroke-linecap:round; stroke-linejoin:round; stroke-width:2; stroke-opacity:0.1; fill:none" points="200.709,1411.6 1552.06,1411.6 "/>
<polyline clip-path="url(#clip090)" style="stroke:#000000; stroke-linecap:round; stroke-linejoin:round; stroke-width:4; stroke-opacity:1; fill:none" points="200.709,2274.13 1552.06,2274.13 "/>
<polyline clip-path="url(#clip090)" style="stroke:#000000; stroke-linecap:round; stroke-linejoin:round; stroke-width:4; stroke-opacity:1; fill:none" points="238.955,2274.13 238.955,2255.23 "/>
<polyline clip-path="url(#clip090)" style="stroke:#000000; stroke-linecap:round; stroke-linejoin:round; stroke-width:4; stroke-opacity:1; fill:none" points="557.67,2274.13 557.67,2255.23 "/>
<polyline clip-path="url(#clip090)" style="stroke:#000000; stroke-linecap:round; stroke-linejoin:round; stroke-width:4; stroke-opacity:1; fill:none" points="876.385,2274.13 876.385,2255.23 "/>
<polyline clip-path="url(#clip090)" style="stroke:#000000; stroke-linecap:round; stroke-linejoin:round; stroke-width:4; stroke-opacity:1; fill:none" points="1195.1,2274.13 1195.1,2255.23 "/>
<polyline clip-path="url(#clip090)" style="stroke:#000000; stroke-linecap:round; stroke-linejoin:round; stroke-width:4; stroke-opacity:1; fill:none" points="1513.82,2274.13 1513.82,2255.23 "/>
<path clip-path="url(#clip090)" d="M216.339 2311.45 Q212.728 2311.45 210.9 2315.01 Q209.094 2318.55 209.094 2325.68 Q209.094 2332.79 210.9 2336.35 Q212.728 2339.9 216.339 2339.9 Q219.974 2339.9 221.779 2336.35 Q223.608 2332.79 223.608 2325.68 Q223.608 2318.55 221.779 2315.01 Q219.974 2311.45 216.339 2311.45 M216.339 2307.74 Q222.15 2307.74 225.205 2312.35 Q228.284 2316.93 228.284 2325.68 Q228.284 2334.41 225.205 2339.02 Q222.15 2343.6 216.339 2343.6 Q210.529 2343.6 207.451 2339.02 Q204.395 2334.41 204.395 2325.68 Q204.395 2316.93 207.451 2312.35 Q210.529 2307.74 216.339 2307.74 Z" fill="#000000" fill-rule="nonzero" fill-opacity="1" /><path clip-path="url(#clip090)" d="M236.501 2337.05 L241.386 2337.05 L241.386 2342.93 L236.501 2342.93 L236.501 2337.05 Z" fill="#000000" fill-rule="nonzero" fill-opacity="1" /><path clip-path="url(#clip090)" d="M261.571 2311.45 Q257.96 2311.45 256.131 2315.01 Q254.325 2318.55 254.325 2325.68 Q254.325 2332.79 256.131 2336.35 Q257.96 2339.9 261.571 2339.9 Q265.205 2339.9 267.01 2336.35 Q268.839 2332.79 268.839 2325.68 Q268.839 2318.55 267.01 2315.01 Q265.205 2311.45 261.571 2311.45 M261.571 2307.74 Q267.381 2307.74 270.436 2312.35 Q273.515 2316.93 273.515 2325.68 Q273.515 2334.41 270.436 2339.02 Q267.381 2343.6 261.571 2343.6 Q255.76 2343.6 252.682 2339.02 Q249.626 2334.41 249.626 2325.68 Q249.626 2316.93 252.682 2312.35 Q255.76 2307.74 261.571 2307.74 Z" fill="#000000" fill-rule="nonzero" fill-opacity="1" /><path clip-path="url(#clip090)" d="M535.552 2311.45 Q531.941 2311.45 530.112 2315.01 Q528.307 2318.55 528.307 2325.68 Q528.307 2332.79 530.112 2336.35 Q531.941 2339.9 535.552 2339.9 Q539.186 2339.9 540.992 2336.35 Q542.821 2332.79 542.821 2325.68 Q542.821 2318.55 540.992 2315.01 Q539.186 2311.45 535.552 2311.45 M535.552 2307.74 Q541.362 2307.74 544.418 2312.35 Q547.497 2316.93 547.497 2325.68 Q547.497 2334.41 544.418 2339.02 Q541.362 2343.6 535.552 2343.6 Q529.742 2343.6 526.663 2339.02 Q523.608 2334.41 523.608 2325.68 Q523.608 2316.93 526.663 2312.35 Q529.742 2307.74 535.552 2307.74 Z" fill="#000000" fill-rule="nonzero" fill-opacity="1" /><path clip-path="url(#clip090)" d="M555.714 2337.05 L560.598 2337.05 L560.598 2342.93 L555.714 2342.93 L555.714 2337.05 Z" fill="#000000" fill-rule="nonzero" fill-opacity="1" /><path clip-path="url(#clip090)" d="M570.83 2308.37 L589.186 2308.37 L589.186 2312.3 L575.112 2312.3 L575.112 2320.78 Q576.131 2320.43 577.149 2320.27 Q578.168 2320.08 579.186 2320.08 Q584.973 2320.08 588.353 2323.25 Q591.732 2326.42 591.732 2331.84 Q591.732 2337.42 588.26 2340.52 Q584.788 2343.6 578.469 2343.6 Q576.293 2343.6 574.024 2343.23 Q571.779 2342.86 569.371 2342.12 L569.371 2337.42 Q571.455 2338.55 573.677 2339.11 Q575.899 2339.66 578.376 2339.66 Q582.381 2339.66 584.719 2337.56 Q587.057 2335.45 587.057 2331.84 Q587.057 2328.23 584.719 2326.12 Q582.381 2324.02 578.376 2324.02 Q576.501 2324.02 574.626 2324.43 Q572.774 2324.85 570.83 2325.73 L570.83 2308.37 Z" fill="#000000" fill-rule="nonzero" fill-opacity="1" /><path clip-path="url(#clip090)" d="M843.538 2338.99 L851.177 2338.99 L851.177 2312.63 L842.867 2314.29 L842.867 2310.03 L851.131 2308.37 L855.807 2308.37 L855.807 2338.99 L863.446 2338.99 L863.446 2342.93 L843.538 2342.93 L843.538 2338.99 Z" fill="#000000" fill-rule="nonzero" fill-opacity="1" /><path clip-path="url(#clip090)" d="M872.89 2337.05 L877.774 2337.05 L877.774 2342.93 L872.89 2342.93 L872.89 2337.05 Z" fill="#000000" fill-rule="nonzero" fill-opacity="1" /><path clip-path="url(#clip090)" d="M897.959 2311.45 Q894.348 2311.45 892.519 2315.01 Q890.714 2318.55 890.714 2325.68 Q890.714 2332.79 892.519 2336.35 Q894.348 2339.9 897.959 2339.9 Q901.594 2339.9 903.399 2336.35 Q905.228 2332.79 905.228 2325.68 Q905.228 2318.55 903.399 2315.01 Q901.594 2311.45 897.959 2311.45 M897.959 2307.74 Q903.769 2307.74 906.825 2312.35 Q909.904 2316.93 909.904 2325.68 Q909.904 2334.41 906.825 2339.02 Q903.769 2343.6 897.959 2343.6 Q892.149 2343.6 889.07 2339.02 Q886.015 2334.41 886.015 2325.68 Q886.015 2316.93 889.07 2312.35 Q892.149 2307.74 897.959 2307.74 Z" fill="#000000" fill-rule="nonzero" fill-opacity="1" /><path clip-path="url(#clip090)" d="M1162.75 2338.99 L1170.39 2338.99 L1170.39 2312.63 L1162.08 2314.29 L1162.08 2310.03 L1170.34 2308.37 L1175.02 2308.37 L1175.02 2338.99 L1182.66 2338.99 L1182.66 2342.93 L1162.75 2342.93 L1162.75 2338.99 Z" fill="#000000" fill-rule="nonzero" fill-opacity="1" /><path clip-path="url(#clip090)" d="M1192.1 2337.05 L1196.99 2337.05 L1196.99 2342.93 L1192.1 2342.93 L1192.1 2337.05 Z" fill="#000000" fill-rule="nonzero" fill-opacity="1" /><path clip-path="url(#clip090)" d="M1207.22 2308.37 L1225.57 2308.37 L1225.57 2312.3 L1211.5 2312.3 L1211.5 2320.78 Q1212.52 2320.43 1213.54 2320.27 Q1214.56 2320.08 1215.57 2320.08 Q1221.36 2320.08 1224.74 2323.25 Q1228.12 2326.42 1228.12 2331.84 Q1228.12 2337.42 1224.65 2340.52 Q1221.18 2343.6 1214.86 2343.6 Q1212.68 2343.6 1210.41 2343.23 Q1208.17 2342.86 1205.76 2342.12 L1205.76 2337.42 Q1207.84 2338.55 1210.07 2339.11 Q1212.29 2339.66 1214.76 2339.66 Q1218.77 2339.66 1221.11 2337.56 Q1223.45 2335.45 1223.45 2331.84 Q1223.45 2328.23 1221.11 2326.12 Q1218.77 2324.02 1214.76 2324.02 Q1212.89 2324.02 1211.01 2324.43 Q1209.16 2324.85 1207.22 2325.73 L1207.22 2308.37 Z" fill="#000000" fill-rule="nonzero" fill-opacity="1" /><path clip-path="url(#clip090)" d="M1485.05 2338.99 L1501.37 2338.99 L1501.37 2342.93 L1479.43 2342.93 L1479.43 2338.99 Q1482.09 2336.24 1486.67 2331.61 Q1491.28 2326.96 1492.46 2325.61 Q1494.71 2323.09 1495.59 2321.35 Q1496.49 2319.59 1496.49 2317.9 Q1496.49 2315.15 1494.54 2313.41 Q1492.62 2311.68 1489.52 2311.68 Q1487.32 2311.68 1484.87 2312.44 Q1482.44 2313.21 1479.66 2314.76 L1479.66 2310.03 Q1482.48 2308.9 1484.94 2308.32 Q1487.39 2307.74 1489.43 2307.74 Q1494.8 2307.74 1497.99 2310.43 Q1501.19 2313.11 1501.19 2317.6 Q1501.19 2319.73 1500.38 2321.65 Q1499.59 2323.55 1497.48 2326.15 Q1496.91 2326.82 1493.8 2330.03 Q1490.7 2333.23 1485.05 2338.99 Z" fill="#000000" fill-rule="nonzero" fill-opacity="1" /><path clip-path="url(#clip090)" d="M1511.19 2337.05 L1516.07 2337.05 L1516.07 2342.93 L1511.19 2342.93 L1511.19 2337.05 Z" fill="#000000" fill-rule="nonzero" fill-opacity="1" /><path clip-path="url(#clip090)" d="M1536.26 2311.45 Q1532.65 2311.45 1530.82 2315.01 Q1529.01 2318.55 1529.01 2325.68 Q1529.01 2332.79 1530.82 2336.35 Q1532.65 2339.9 1536.26 2339.9 Q1539.89 2339.9 1541.7 2336.35 Q1543.53 2332.79 1543.53 2325.68 Q1543.53 2318.55 1541.7 2315.01 Q1539.89 2311.45 1536.26 2311.45 M1536.26 2307.74 Q1542.07 2307.74 1545.12 2312.35 Q1548.2 2316.93 1548.2 2325.68 Q1548.2 2334.41 1545.12 2339.02 Q1542.07 2343.6 1536.26 2343.6 Q1530.45 2343.6 1527.37 2339.02 Q1524.31 2334.41 1524.31 2325.68 Q1524.31 2316.93 1527.37 2312.35 Q1530.45 2307.74 1536.26 2307.74 Z" fill="#000000" fill-rule="nonzero" fill-opacity="1" /><polyline clip-path="url(#clip090)" style="stroke:#000000; stroke-linecap:round; stroke-linejoin:round; stroke-width:4; stroke-opacity:1; fill:none" points="200.709,2274.13 200.709,1331.03 "/>
<polyline clip-path="url(#clip090)" style="stroke:#000000; stroke-linecap:round; stroke-linejoin:round; stroke-width:4; stroke-opacity:1; fill:none" points="200.709,2193.56 219.607,2193.56 "/>
<polyline clip-path="url(#clip090)" style="stroke:#000000; stroke-linecap:round; stroke-linejoin:round; stroke-width:4; stroke-opacity:1; fill:none" points="200.709,2063.23 219.607,2063.23 "/>
<polyline clip-path="url(#clip090)" style="stroke:#000000; stroke-linecap:round; stroke-linejoin:round; stroke-width:4; stroke-opacity:1; fill:none" points="200.709,1932.91 219.607,1932.91 "/>
<polyline clip-path="url(#clip090)" style="stroke:#000000; stroke-linecap:round; stroke-linejoin:round; stroke-width:4; stroke-opacity:1; fill:none" points="200.709,1802.58 219.607,1802.58 "/>
<polyline clip-path="url(#clip090)" style="stroke:#000000; stroke-linecap:round; stroke-linejoin:round; stroke-width:4; stroke-opacity:1; fill:none" points="200.709,1672.25 219.607,1672.25 "/>
<polyline clip-path="url(#clip090)" style="stroke:#000000; stroke-linecap:round; stroke-linejoin:round; stroke-width:4; stroke-opacity:1; fill:none" points="200.709,1541.93 219.607,1541.93 "/>
<polyline clip-path="url(#clip090)" style="stroke:#000000; stroke-linecap:round; stroke-linejoin:round; stroke-width:4; stroke-opacity:1; fill:none" points="200.709,1411.6 219.607,1411.6 "/>
<path clip-path="url(#clip090)" d="M60.8346 2194.01 L90.5104 2194.01 L90.5104 2197.94 L60.8346 2197.94 L60.8346 2194.01 Z" fill="#000000" fill-rule="nonzero" fill-opacity="1" /><path clip-path="url(#clip090)" d="M114.77 2192.2 Q118.126 2192.92 120.001 2195.19 Q121.899 2197.46 121.899 2200.79 Q121.899 2205.91 118.381 2208.71 Q114.862 2211.51 108.381 2211.51 Q106.205 2211.51 103.89 2211.07 Q101.598 2210.65 99.1446 2209.8 L99.1446 2205.28 Q101.089 2206.42 103.404 2207 Q105.719 2207.57 108.242 2207.57 Q112.64 2207.57 114.932 2205.84 Q117.246 2204.1 117.246 2200.79 Q117.246 2197.74 115.094 2196.02 Q112.964 2194.29 109.145 2194.29 L105.117 2194.29 L105.117 2190.44 L109.33 2190.44 Q112.779 2190.44 114.608 2189.08 Q116.436 2187.69 116.436 2185.1 Q116.436 2182.44 114.538 2181.02 Q112.663 2179.59 109.145 2179.59 Q107.223 2179.59 105.024 2180.01 Q102.825 2180.42 100.186 2181.3 L100.186 2177.13 Q102.848 2176.39 105.163 2176.02 Q107.501 2175.65 109.561 2175.65 Q114.885 2175.65 117.987 2178.08 Q121.089 2180.49 121.089 2184.61 Q121.089 2187.48 119.445 2189.47 Q117.802 2191.44 114.77 2192.2 Z" fill="#000000" fill-rule="nonzero" fill-opacity="1" /><path clip-path="url(#clip090)" d="M140.765 2179.36 Q137.154 2179.36 135.325 2182.92 Q133.519 2186.46 133.519 2193.59 Q133.519 2200.7 135.325 2204.26 Q137.154 2207.81 140.765 2207.81 Q144.399 2207.81 146.205 2204.26 Q148.033 2200.7 148.033 2193.59 Q148.033 2186.46 146.205 2182.92 Q144.399 2179.36 140.765 2179.36 M140.765 2175.65 Q146.575 2175.65 149.63 2180.26 Q152.709 2184.84 152.709 2193.59 Q152.709 2202.32 149.63 2206.93 Q146.575 2211.51 140.765 2211.51 Q134.955 2211.51 131.876 2206.93 Q128.82 2202.32 128.82 2193.59 Q128.82 2184.84 131.876 2180.26 Q134.955 2175.65 140.765 2175.65 Z" fill="#000000" fill-rule="nonzero" fill-opacity="1" /><path clip-path="url(#clip090)" d="M60.8346 2063.68 L90.5104 2063.68 L90.5104 2067.62 L60.8346 2067.62 L60.8346 2063.68 Z" fill="#000000" fill-rule="nonzero" fill-opacity="1" /><path clip-path="url(#clip090)" d="M104.631 2076.58 L120.95 2076.58 L120.95 2080.51 L99.0057 2080.51 L99.0057 2076.58 Q101.668 2073.82 106.251 2069.19 Q110.858 2064.54 112.038 2063.2 Q114.283 2060.67 115.163 2058.94 Q116.066 2057.18 116.066 2055.49 Q116.066 2052.73 114.121 2051 Q112.2 2049.26 109.098 2049.26 Q106.899 2049.26 104.446 2050.03 Q102.015 2050.79 99.2372 2052.34 L99.2372 2047.62 Q102.061 2046.48 104.515 2045.91 Q106.969 2045.33 109.006 2045.33 Q114.376 2045.33 117.57 2048.01 Q120.765 2050.7 120.765 2055.19 Q120.765 2057.32 119.955 2059.24 Q119.168 2061.14 117.061 2063.73 Q116.482 2064.4 113.381 2067.62 Q110.279 2070.81 104.631 2076.58 Z" fill="#000000" fill-rule="nonzero" fill-opacity="1" /><path clip-path="url(#clip090)" d="M140.765 2049.03 Q137.154 2049.03 135.325 2052.6 Q133.519 2056.14 133.519 2063.27 Q133.519 2070.37 135.325 2073.94 Q137.154 2077.48 140.765 2077.48 Q144.399 2077.48 146.205 2073.94 Q148.033 2070.37 148.033 2063.27 Q148.033 2056.14 146.205 2052.6 Q144.399 2049.03 140.765 2049.03 M140.765 2045.33 Q146.575 2045.33 149.63 2049.93 Q152.709 2054.52 152.709 2063.27 Q152.709 2071.99 149.63 2076.6 Q146.575 2081.18 140.765 2081.18 Q134.955 2081.18 131.876 2076.6 Q128.82 2071.99 128.82 2063.27 Q128.82 2054.52 131.876 2049.93 Q134.955 2045.33 140.765 2045.33 Z" fill="#000000" fill-rule="nonzero" fill-opacity="1" /><path clip-path="url(#clip090)" d="M60.8346 1933.36 L90.5104 1933.36 L90.5104 1937.29 L60.8346 1937.29 L60.8346 1933.36 Z" fill="#000000" fill-rule="nonzero" fill-opacity="1" /><path clip-path="url(#clip090)" d="M101.413 1946.25 L109.052 1946.25 L109.052 1919.89 L100.742 1921.55 L100.742 1917.29 L109.006 1915.63 L113.682 1915.63 L113.682 1946.25 L121.32 1946.25 L121.32 1950.19 L101.413 1950.19 L101.413 1946.25 Z" fill="#000000" fill-rule="nonzero" fill-opacity="1" /><path clip-path="url(#clip090)" d="M140.765 1918.7 Q137.154 1918.7 135.325 1922.27 Q133.519 1925.81 133.519 1932.94 Q133.519 1940.05 135.325 1943.61 Q137.154 1947.15 140.765 1947.15 Q144.399 1947.15 146.205 1943.61 Q148.033 1940.05 148.033 1932.94 Q148.033 1925.81 146.205 1922.27 Q144.399 1918.7 140.765 1918.7 M140.765 1915 Q146.575 1915 149.63 1919.61 Q152.709 1924.19 152.709 1932.94 Q152.709 1941.67 149.63 1946.27 Q146.575 1950.86 140.765 1950.86 Q134.955 1950.86 131.876 1946.27 Q128.82 1941.67 128.82 1932.94 Q128.82 1924.19 131.876 1919.61 Q134.955 1915 140.765 1915 Z" fill="#000000" fill-rule="nonzero" fill-opacity="1" /><path clip-path="url(#clip090)" d="M140.765 1788.38 Q137.154 1788.38 135.325 1791.94 Q133.519 1795.49 133.519 1802.61 Q133.519 1809.72 135.325 1813.29 Q137.154 1816.83 140.765 1816.83 Q144.399 1816.83 146.205 1813.29 Q148.033 1809.72 148.033 1802.61 Q148.033 1795.49 146.205 1791.94 Q144.399 1788.38 140.765 1788.38 M140.765 1784.68 Q146.575 1784.68 149.63 1789.28 Q152.709 1793.86 152.709 1802.61 Q152.709 1811.34 149.63 1815.95 Q146.575 1820.53 140.765 1820.53 Q134.955 1820.53 131.876 1815.95 Q128.82 1811.34 128.82 1802.61 Q128.82 1793.86 131.876 1789.28 Q134.955 1784.68 140.765 1784.68 Z" fill="#000000" fill-rule="nonzero" fill-opacity="1" /><path clip-path="url(#clip090)" d="M101.413 1685.6 L109.052 1685.6 L109.052 1659.23 L100.742 1660.9 L100.742 1656.64 L109.006 1654.97 L113.682 1654.97 L113.682 1685.6 L121.32 1685.6 L121.32 1689.53 L101.413 1689.53 L101.413 1685.6 Z" fill="#000000" fill-rule="nonzero" fill-opacity="1" /><path clip-path="url(#clip090)" d="M140.765 1658.05 Q137.154 1658.05 135.325 1661.62 Q133.519 1665.16 133.519 1672.29 Q133.519 1679.4 135.325 1682.96 Q137.154 1686.5 140.765 1686.5 Q144.399 1686.5 146.205 1682.96 Q148.033 1679.4 148.033 1672.29 Q148.033 1665.16 146.205 1661.62 Q144.399 1658.05 140.765 1658.05 M140.765 1654.35 Q146.575 1654.35 149.63 1658.96 Q152.709 1663.54 152.709 1672.29 Q152.709 1681.02 149.63 1685.62 Q146.575 1690.21 140.765 1690.21 Q134.955 1690.21 131.876 1685.62 Q128.82 1681.02 128.82 1672.29 Q128.82 1663.54 131.876 1658.96 Q134.955 1654.35 140.765 1654.35 Z" fill="#000000" fill-rule="nonzero" fill-opacity="1" /><path clip-path="url(#clip090)" d="M104.631 1555.27 L120.95 1555.27 L120.95 1559.21 L99.0057 1559.21 L99.0057 1555.27 Q101.668 1552.52 106.251 1547.89 Q110.858 1543.24 112.038 1541.89 Q114.283 1539.37 115.163 1537.63 Q116.066 1535.87 116.066 1534.18 Q116.066 1531.43 114.121 1529.69 Q112.2 1527.96 109.098 1527.96 Q106.899 1527.96 104.446 1528.72 Q102.015 1529.49 99.2372 1531.04 L99.2372 1526.31 Q102.061 1525.18 104.515 1524.6 Q106.969 1524.02 109.006 1524.02 Q114.376 1524.02 117.57 1526.71 Q120.765 1529.39 120.765 1533.88 Q120.765 1536.01 119.955 1537.93 Q119.168 1539.83 117.061 1542.43 Q116.482 1543.1 113.381 1546.31 Q110.279 1549.51 104.631 1555.27 Z" fill="#000000" fill-rule="nonzero" fill-opacity="1" /><path clip-path="url(#clip090)" d="M140.765 1527.73 Q137.154 1527.73 135.325 1531.29 Q133.519 1534.83 133.519 1541.96 Q133.519 1549.07 135.325 1552.63 Q137.154 1556.18 140.765 1556.18 Q144.399 1556.18 146.205 1552.63 Q148.033 1549.07 148.033 1541.96 Q148.033 1534.83 146.205 1531.29 Q144.399 1527.73 140.765 1527.73 M140.765 1524.02 Q146.575 1524.02 149.63 1528.63 Q152.709 1533.21 152.709 1541.96 Q152.709 1550.69 149.63 1555.3 Q146.575 1559.88 140.765 1559.88 Q134.955 1559.88 131.876 1555.3 Q128.82 1550.69 128.82 1541.96 Q128.82 1533.21 131.876 1528.63 Q134.955 1524.02 140.765 1524.02 Z" fill="#000000" fill-rule="nonzero" fill-opacity="1" /><path clip-path="url(#clip090)" d="M114.77 1410.25 Q118.126 1410.97 120.001 1413.23 Q121.899 1415.5 121.899 1418.84 Q121.899 1423.95 118.381 1426.75 Q114.862 1429.55 108.381 1429.55 Q106.205 1429.55 103.89 1429.11 Q101.598 1428.7 99.1446 1427.84 L99.1446 1423.33 Q101.089 1424.46 103.404 1425.04 Q105.719 1425.62 108.242 1425.62 Q112.64 1425.62 114.932 1423.88 Q117.246 1422.15 117.246 1418.84 Q117.246 1415.78 115.094 1414.07 Q112.964 1412.33 109.145 1412.33 L105.117 1412.33 L105.117 1408.49 L109.33 1408.49 Q112.779 1408.49 114.608 1407.12 Q116.436 1405.73 116.436 1403.14 Q116.436 1400.48 114.538 1399.07 Q112.663 1397.63 109.145 1397.63 Q107.223 1397.63 105.024 1398.05 Q102.825 1398.47 100.186 1399.34 L100.186 1395.18 Q102.848 1394.44 105.163 1394.07 Q107.501 1393.7 109.561 1393.7 Q114.885 1393.7 117.987 1396.13 Q121.089 1398.53 121.089 1402.65 Q121.089 1405.53 119.445 1407.52 Q117.802 1409.48 114.77 1410.25 Z" fill="#000000" fill-rule="nonzero" fill-opacity="1" /><path clip-path="url(#clip090)" d="M140.765 1397.4 Q137.154 1397.4 135.325 1400.97 Q133.519 1404.51 133.519 1411.64 Q133.519 1418.74 135.325 1422.31 Q137.154 1425.85 140.765 1425.85 Q144.399 1425.85 146.205 1422.31 Q148.033 1418.74 148.033 1411.64 Q148.033 1404.51 146.205 1400.97 Q144.399 1397.4 140.765 1397.4 M140.765 1393.7 Q146.575 1393.7 149.63 1398.3 Q152.709 1402.89 152.709 1411.64 Q152.709 1420.36 149.63 1424.97 Q146.575 1429.55 140.765 1429.55 Q134.955 1429.55 131.876 1424.97 Q128.82 1420.36 128.82 1411.64 Q128.82 1402.89 131.876 1398.3 Q134.955 1393.7 140.765 1393.7 Z" fill="#000000" fill-rule="nonzero" fill-opacity="1" /><path clip-path="url(#clip090)" d="M781.432 1216.75 L781.432 1225.38 Q777.3 1221.53 772.601 1219.63 Q767.943 1217.73 762.676 1217.73 Q752.306 1217.73 746.797 1224.09 Q741.288 1230.41 741.288 1242.4 Q741.288 1254.35 746.797 1260.71 Q752.306 1267.03 762.676 1267.03 Q767.943 1267.03 772.601 1265.12 Q777.3 1263.22 781.432 1259.37 L781.432 1267.92 Q777.138 1270.83 772.318 1272.29 Q767.538 1273.75 762.19 1273.75 Q748.458 1273.75 740.558 1265.37 Q732.659 1256.94 732.659 1242.4 Q732.659 1227.81 740.558 1219.43 Q748.458 1211 762.19 1211 Q767.619 1211 772.399 1212.46 Q777.219 1213.88 781.432 1216.75 Z" fill="#000000" fill-rule="nonzero" fill-opacity="1" /><path clip-path="url(#clip090)" d="M811.328 1232.43 Q805.332 1232.43 801.849 1237.13 Q798.365 1241.79 798.365 1249.93 Q798.365 1258.07 801.808 1262.77 Q805.292 1267.43 811.328 1267.43 Q817.283 1267.43 820.766 1262.73 Q824.25 1258.03 824.25 1249.93 Q824.25 1241.87 820.766 1237.17 Q817.283 1232.43 811.328 1232.43 M811.328 1226.11 Q821.05 1226.11 826.6 1232.43 Q832.149 1238.75 832.149 1249.93 Q832.149 1261.07 826.6 1267.43 Q821.05 1273.75 811.328 1273.75 Q801.565 1273.75 796.015 1267.43 Q790.506 1261.07 790.506 1249.93 Q790.506 1238.75 796.015 1232.43 Q801.565 1226.11 811.328 1226.11 Z" fill="#000000" fill-rule="nonzero" fill-opacity="1" /><path clip-path="url(#clip090)" d="M882.219 1245.19 L882.219 1272.58 L874.765 1272.58 L874.765 1245.43 Q874.765 1238.99 872.253 1235.79 Q869.742 1232.59 864.719 1232.59 Q858.683 1232.59 855.199 1236.44 Q851.715 1240.29 851.715 1246.93 L851.715 1272.58 L844.221 1272.58 L844.221 1227.21 L851.715 1227.21 L851.715 1234.25 Q854.389 1230.16 857.994 1228.14 Q861.64 1226.11 866.38 1226.11 Q874.198 1226.11 878.208 1230.97 Q882.219 1235.79 882.219 1245.19 Z" fill="#000000" fill-rule="nonzero" fill-opacity="1" /><path clip-path="url(#clip090)" d="M904.458 1214.32 L904.458 1227.21 L919.811 1227.21 L919.811 1233 L904.458 1233 L904.458 1257.63 Q904.458 1263.18 905.957 1264.76 Q907.496 1266.34 912.155 1266.34 L919.811 1266.34 L919.811 1272.58 L912.155 1272.58 Q903.526 1272.58 900.245 1269.38 Q896.964 1266.14 896.964 1257.63 L896.964 1233 L891.495 1233 L891.495 1227.21 L896.964 1227.21 L896.964 1214.32 L904.458 1214.32 Z" fill="#000000" fill-rule="nonzero" fill-opacity="1" /><path clip-path="url(#clip090)" d="M955.905 1234.17 Q954.649 1233.44 953.15 1233.12 Q951.692 1232.76 949.909 1232.76 Q943.59 1232.76 940.187 1236.89 Q936.825 1240.98 936.825 1248.68 L936.825 1272.58 L929.331 1272.58 L929.331 1227.21 L936.825 1227.21 L936.825 1234.25 Q939.174 1230.12 942.942 1228.14 Q946.709 1226.11 952.097 1226.11 Q952.866 1226.11 953.798 1226.23 Q954.73 1226.31 955.864 1226.52 L955.905 1234.17 Z" fill="#000000" fill-rule="nonzero" fill-opacity="1" /><path clip-path="url(#clip090)" d="M979.481 1232.43 Q973.485 1232.43 970.002 1237.13 Q966.518 1241.79 966.518 1249.93 Q966.518 1258.07 969.961 1262.77 Q973.445 1267.43 979.481 1267.43 Q985.436 1267.43 988.919 1262.73 Q992.403 1258.03 992.403 1249.93 Q992.403 1241.87 988.919 1237.17 Q985.436 1232.43 979.481 1232.43 M979.481 1226.11 Q989.203 1226.11 994.753 1232.43 Q1000.3 1238.75 1000.3 1249.93 Q1000.3 1261.07 994.753 1267.43 Q989.203 1273.75 979.481 1273.75 Q969.718 1273.75 964.168 1267.43 Q958.659 1261.07 958.659 1249.93 Q958.659 1238.75 964.168 1232.43 Q969.718 1226.11 979.481 1226.11 Z" fill="#000000" fill-rule="nonzero" fill-opacity="1" /><path clip-path="url(#clip090)" d="M1012.66 1209.54 L1020.11 1209.54 L1020.11 1272.58 L1012.66 1272.58 L1012.66 1209.54 Z" fill="#000000" fill-rule="nonzero" fill-opacity="1" /><polyline clip-path="url(#clip091)" style="stroke:#009af9; stroke-linecap:round; stroke-linejoin:round; stroke-width:4; stroke-opacity:1; fill:none" points="238.955,1357.72 251.704,1357.72 251.704,1418.56 264.452,1418.56 264.452,1475.25 277.201,1475.25 277.201,1527.99 289.949,1527.99 289.949,1576.98 302.698,1576.98 302.698,1622.42 315.447,1622.42 315.447,1664.48 328.195,1664.48 328.195,1703.35 340.944,1703.35 340.944,1739.17 353.692,1739.17 353.692,1772.09 366.441,1772.09 366.441,1802.26 379.19,1802.26 379.19,1829.81 391.938,1829.81 391.938,1854.85 404.687,1854.85 404.687,1877.51 417.435,1877.51 417.435,1897.89 430.184,1897.89 430.184,1916.1 442.933,1916.1 442.933,1932.25 455.681,1932.25 455.681,1946.41 468.43,1946.41 468.43,1958.7 481.179,1958.7 481.179,1969.21 493.927,1969.21 493.927,1978.01 506.676,1978.01 506.676,1985.2 519.424,1985.2 519.424,1990.86 532.173,1990.86 532.173,1995.07 544.922,1995.07 544.922,1997.91 557.67,1997.91 557.67,1999.46 570.419,1999.46 570.419,1999.78 583.167,1999.78 583.167,1998.96 595.916,1998.96 595.916,1997.06 608.665,1997.06 608.665,1994.14 621.413,1994.14 621.413,1990.28 634.162,1990.28 634.162,1985.54 646.91,1985.54 646.91,1979.97 659.659,1979.97 659.659,1973.64 672.408,1973.64 672.408,1966.6 685.156,1966.6 685.156,1958.9 697.905,1958.9 697.905,1950.6 710.653,1950.6 710.653,1941.75 723.402,1941.75 723.402,1932.4 736.151,1932.4 736.151,1922.59 748.899,1922.59 748.899,1912.36 761.648,1912.36 761.648,1901.77 774.396,1901.77 774.396,1890.85 787.145,1890.85 787.145,1879.65 799.894,1879.65 799.894,1868.2 812.642,1868.2 812.642,1856.54 825.391,1856.54 825.391,1844.72 838.139,1844.72 838.139,1832.77 850.888,1832.77 850.888,1820.73 863.637,1820.73 863.637,1808.64 876.385,1808.64 876.385,1796.52 889.134,1796.52 889.134,1784.43 901.883,1784.43 901.883,1772.39 914.631,1772.39 914.631,1760.44 927.38,1760.44 927.38,1748.62 940.128,1748.62 940.128,1736.96 952.877,1736.96 952.877,1725.51 965.626,1725.51 965.626,1714.31 978.374,1714.31 978.374,1703.39 991.123,1703.39 991.123,1692.8 1003.87,1692.8 1003.87,1682.57 1016.62,1682.57 1016.62,1672.76 1029.37,1672.76 1029.37,1663.41 1042.12,1663.41 1042.12,1654.56 1054.87,1654.56 1054.87,1646.26 1067.61,1646.26 1067.61,1638.56 1080.36,1638.56 1080.36,1631.52 1093.11,1631.52 1093.11,1625.19 1105.86,1625.19 1105.86,1619.62 1118.61,1619.62 1118.61,1614.88 1131.36,1614.88 1131.36,1611.02 1144.11,1611.02 1144.11,1608.1 1156.85,1608.1 1156.85,1606.2 1169.6,1606.2 1169.6,1605.38 1182.35,1605.38 1182.35,1605.7 1195.1,1605.7 1195.1,1607.25 1207.85,1607.25 1207.85,1610.09 1220.6,1610.09 1220.6,1614.3 1233.35,1614.3 1233.35,1619.96 1246.09,1619.96 1246.09,1627.15 1258.84,1627.15 1258.84,1635.95 1271.59,1635.95 1271.59,1646.46 1284.34,1646.46 1284.34,1658.75 1297.09,1658.75 1297.09,1672.91 1309.84,1672.91 1309.84,1689.06 1322.59,1689.06 1322.59,1707.27 1335.34,1707.27 1335.34,1727.65 1348.08,1727.65 1348.08,1750.31 1360.83,1750.31 1360.83,1775.35 1373.58,1775.35 1373.58,1802.9 1386.33,1802.9 1386.33,1833.07 1399.08,1833.07 1399.08,1865.99 1411.83,1865.99 1411.83,1901.81 1424.58,1901.81 1424.58,1940.68 1437.32,1940.68 1437.32,1982.74 1450.07,1982.74 1450.07,2028.18 1462.82,2028.18 1462.82,2077.17 1475.57,2077.17 1475.57,2129.91 1488.32,2129.91 1488.32,2186.6 1501.07,2186.6 1501.07,2247.44 1513.82,2247.44 "/>
<path clip-path="url(#clip090)" d="M1350.17 1466.15 L1507.02 1466.15 L1507.02 1362.47 L1350.17 1362.47  Z" fill="#ffffff" fill-rule="evenodd" fill-opacity="1"/>
<polyline clip-path="url(#clip090)" style="stroke:#000000; stroke-linecap:round; stroke-linejoin:round; stroke-width:4; stroke-opacity:1; fill:none" points="1350.17,1466.15 1507.02,1466.15 1507.02,1362.47 1350.17,1362.47 1350.17,1466.15 "/>
<polyline clip-path="url(#clip090)" style="stroke:#009af9; stroke-linecap:round; stroke-linejoin:round; stroke-width:4; stroke-opacity:1; fill:none" points="1365.18,1414.31 1455.27,1414.31 "/>
<path clip-path="url(#clip090)" d="M1470.29 1421.36 L1470.29 1405.66 L1474.55 1405.66 L1474.55 1421.2 Q1474.55 1424.88 1475.98 1426.73 Q1477.42 1428.56 1480.29 1428.56 Q1483.74 1428.56 1485.73 1426.36 Q1487.74 1424.16 1487.74 1420.36 L1487.74 1405.66 L1492 1405.66 L1492 1431.59 L1487.74 1431.59 L1487.74 1427.61 Q1486.19 1429.97 1484.13 1431.13 Q1482.09 1432.26 1479.39 1432.26 Q1474.92 1432.26 1472.6 1429.48 Q1470.29 1426.7 1470.29 1421.36 M1481.01 1405.04 L1481.01 1405.04 Z" fill="#000000" fill-rule="nonzero" fill-opacity="1" /></svg>
